<?xml version="1.0" standalone="no"?>
<!DOCTYPE svg PUBLIC "-//W3C//DTD SVG 20010904//EN"
 "http://www.w3.org/TR/2001/REC-SVG-20010904/DTD/svg10.dtd">
<svg version="1.0" xmlns="http://www.w3.org/2000/svg"
 width="896.000000pt" height="896.000000pt" viewBox="0 0 896.000000 896.000000"
 preserveAspectRatio="xMidYMid meet">
<metadata>
Created by potrace 1.11, written by Peter Selinger 2001-2013
</metadata>
<g transform="translate(0.000000,896.000000) scale(0.100000,-0.100000)"
fill="#000000" stroke="none">
<path d="M4258 8935 c-2 -2 -48 -6 -103 -9 -107 -7 -166 -12 -230 -22 -22 -3
-58 -7 -80 -9 -34 -4 -72 -10 -180 -30 -11 -2 -20 -4 -20 -5 0 -1 -15 -3 -34
-6 -18 -2 -63 -11 -100 -20 -36 -8 -75 -17 -86 -19 -39 -8 -220 -57 -247 -67
-15 -6 -30 -10 -32 -9 -3 0 -35 -11 -71 -24 -36 -14 -67 -25 -70 -25 -3 0 -13
-3 -22 -6 -17 -5 -33 -11 -133 -50 -82 -31 -257 -108 -280 -123 -13 -9 -25
-15 -27 -13 -3 2 -157 -74 -219 -109 -22 -12 -59 -33 -84 -47 -25 -14 -76 -44
-113 -68 -37 -24 -72 -44 -76 -44 -5 0 -11 -3 -13 -7 -1 -5 -43 -35 -93 -68
-49 -33 -95 -64 -101 -70 -6 -5 -22 -17 -34 -25 -13 -8 -37 -26 -54 -40 -17
-14 -35 -28 -41 -32 -81 -59 -286 -241 -394 -349 -112 -112 -266 -279 -257
-279 2 0 -10 -15 -27 -33 -47 -48 -77 -86 -77 -96 0 -5 -7 -12 -16 -15 -9 -4
-15 -9 -12 -12 3 -3 -6 -18 -21 -33 -35 -39 -51 -59 -51 -66 0 -3 -5 -11 -10
-18 -47 -55 -61 -74 -66 -89 -3 -10 -9 -18 -13 -18 -4 0 -13 -11 -19 -25 -7
-14 -17 -31 -22 -38 -13 -15 -120 -185 -120 -191 0 -2 -16 -30 -35 -61 -19
-32 -32 -62 -29 -66 3 -5 0 -9 -6 -9 -5 0 -22 -26 -37 -57 -15 -32 -31 -61
-36 -64 -5 -3 -8 -9 -8 -12 1 -13 -41 -102 -50 -108 -6 -3 -10 -10 -9 -15 1
-9 -18 -56 -49 -124 -9 -19 -16 -39 -16 -45 0 -5 -2 -12 -5 -15 -5 -5 -63
-147 -66 -162 -1 -5 -3 -10 -4 -13 -1 -3 -3 -8 -4 -12 -1 -5 -7 -18 -14 -30
-7 -13 -10 -23 -7 -23 3 0 -1 -16 -9 -35 -8 -19 -12 -35 -9 -35 3 0 1 -6 -5
-12 -9 -12 -25 -62 -39 -123 -6 -27 -9 -37 -16 -55 -16 -38 -38 -144 -33 -157
4 -9 2 -11 -6 -7 -8 5 -9 2 -5 -9 3 -9 2 -19 -4 -23 -5 -3 -7 -14 -4 -25 4
-10 3 -19 -2 -19 -8 0 -14 -33 -16 -87 -1 -13 -4 -23 -7 -23 -3 0 -6 -9 -7
-21 -1 -11 -6 -44 -12 -72 -13 -68 -26 -171 -36 -277 -3 -30 -7 -66 -10 -78
-4 -17 -2 -22 6 -16 8 5 9 3 3 -7 -5 -8 -10 -25 -11 -39 -1 -14 -4 -51 -7 -82
-3 -41 -1 -58 7 -58 9 0 9 -2 1 -8 -9 -5 -11 -63 -9 -202 3 -182 11 -375 15
-375 2 0 6 -35 10 -105 2 -25 6 -49 9 -55 3 -5 6 -19 7 -30 4 -44 14 -121 19
-145 7 -31 13 -66 20 -105 17 -98 29 -141 39 -147 8 -6 7 -8 -2 -8 -7 0 -11
-4 -8 -9 5 -7 22 -65 41 -141 2 -8 8 -30 14 -47 5 -18 7 -33 4 -33 -3 0 -1 -6
5 -12 5 -7 13 -29 17 -48 4 -19 12 -46 18 -60 13 -32 11 -27 27 -82 8 -27 18
-48 23 -48 4 0 6 -4 3 -8 -2 -4 1 -21 8 -37 8 -17 33 -79 56 -140 24 -60 47
-113 52 -116 5 -3 9 -10 8 -15 -2 -13 43 -108 55 -116 5 -4 7 -8 2 -8 -4 0 19
-49 50 -109 31 -61 60 -108 63 -106 3 2 7 -6 7 -17 1 -12 6 -24 10 -27 5 -3
20 -27 33 -54 14 -26 29 -47 33 -47 5 0 5 -4 2 -10 -3 -5 -1 -10 5 -10 6 0 8
-4 5 -10 -3 -5 -2 -10 3 -10 5 0 15 -13 22 -30 7 -16 16 -30 21 -30 5 0 9 -7
9 -15 0 -7 8 -19 17 -24 10 -6 14 -11 10 -11 -9 0 48 -87 75 -113 10 -10 18
-25 18 -33 0 -8 5 -12 10 -9 6 3 10 1 10 -5 0 -17 40 -71 49 -66 4 3 7 -4 8
-14 1 -10 17 -34 35 -54 49 -52 60 -66 52 -66 -4 0 7 -14 25 -30 17 -17 31
-33 31 -36 0 -3 20 -25 44 -50 25 -24 42 -44 39 -44 -2 0 22 -27 55 -60 33
-33 58 -60 56 -60 -2 0 41 -45 97 -100 57 -54 107 -96 112 -93 6 3 8 2 5 -3
-3 -5 10 -23 29 -41 18 -17 33 -29 33 -27 0 3 11 -5 24 -18 33 -32 121 -107
175 -147 25 -19 48 -38 51 -41 15 -19 68 -48 75 -42 5 4 5 2 2 -4 -3 -6 8 -19
26 -29 18 -11 41 -27 51 -37 10 -9 23 -15 28 -12 4 3 8 1 8 -3 0 -10 106 -83
120 -83 6 0 10 -4 10 -9 0 -8 37 -24 53 -22 4 1 6 -2 5 -6 -2 -5 1 -9 6 -10 5
-1 12 -5 15 -10 3 -4 26 -19 51 -32 25 -13 53 -31 63 -39 9 -8 17 -12 17 -8 0
4 13 -2 29 -13 16 -12 34 -21 40 -21 6 0 11 -4 11 -10 0 -5 5 -10 11 -10 7 0
51 -20 99 -45 48 -24 90 -41 94 -38 3 4 6 1 6 -5 0 -7 6 -12 12 -12 7 0 40
-13 73 -30 49 -24 165 -71 185 -75 3 -1 23 -9 45 -19 21 -9 46 -18 55 -20 8
-2 29 -9 45 -16 32 -14 50 -19 78 -22 9 -1 17 -5 17 -9 0 -4 15 -10 33 -14 17
-4 39 -9 47 -11 8 -3 23 -5 33 -6 9 -1 17 -5 17 -9 0 -3 19 -10 43 -14 44 -8
55 -11 60 -15 10 -8 119 -30 127 -25 4 3 10 1 12 -4 3 -8 36 -17 98 -26 14 -2
61 -11 105 -20 44 -9 94 -17 110 -20 17 -2 30 -4 30 -5 0 -2 47 -8 120 -14 28
-3 50 -6 50 -6 0 -1 23 -3 50 -6 28 -2 62 -5 78 -7 15 -3 30 0 33 5 3 5 13 3
21 -4 12 -10 81 -13 297 -12 233 0 421 7 421 14 0 1 27 3 60 5 33 3 75 7 95
11 19 3 47 6 63 5 15 -1 27 2 27 6 0 5 12 8 28 9 35 1 134 14 141 19 7 4 88
17 109 18 6 0 12 3 12 7 0 3 8 6 18 6 9 1 28 4 42 7 83 18 297 74 320 84 20 8
42 14 58 15 6 1 12 4 12 8 0 3 10 7 22 7 13 1 32 6 43 12 11 5 65 25 120 45
103 38 129 48 205 84 43 20 99 44 110 46 6 2 202 101 270 137 25 13 48 28 52
33 4 6 12 -3 20 -20 7 -16 15 -31 18 -34 3 -3 6 -9 7 -15 5 -25 39 -110 46
-113 4 -2 5 -8 1 -13 -6 -11 20 -51 29 -43 3 3 3 -3 0 -14 -2 -11 3 -33 14
-48 10 -15 17 -28 15 -29 -2 0 0 -9 4 -20 11 -32 45 -118 57 -145 6 -14 11
-27 12 -30 1 -3 7 -17 13 -32 l11 -28 901 0 c495 0 900 3 900 6 0 3 -9 28 -20
55 -11 27 -29 73 -41 101 -12 29 -27 67 -34 83 -50 121 -67 163 -69 175 -1 3
-14 31 -29 64 -15 32 -24 62 -21 67 3 5 0 9 -5 9 -6 0 -11 9 -11 20 0 11 -5
20 -10 20 -6 0 -9 3 -8 8 3 9 -50 147 -88 226 -8 16 -14 33 -14 38 0 5 -9 28
-20 50 -11 23 -20 46 -20 50 0 5 -9 28 -20 50 -11 23 -20 45 -20 49 0 3 -10
28 -22 55 -12 27 -22 51 -23 54 -2 11 -40 106 -52 130 -7 14 -13 29 -13 33 0
5 -7 25 -16 45 -29 66 -42 97 -49 120 -3 12 -11 22 -16 22 -6 0 -8 4 -4 10 3
5 -8 38 -24 74 -16 35 -27 67 -23 70 3 3 0 6 -7 6 -7 0 -10 4 -6 9 3 5 -1 15
-8 23 -20 20 -19 25 13 60 17 18 30 38 30 46 0 7 4 11 9 7 5 -3 12 4 16 15 3
11 12 26 19 32 12 13 92 128 111 160 5 10 34 56 64 103 29 48 63 105 75 128
12 23 34 63 48 89 15 27 24 48 20 48 -3 0 3 7 14 15 10 8 16 15 12 15 -7 0 3
20 41 86 14 24 35 76 35 89 1 6 7 16 14 23 7 8 10 18 7 23 -4 5 -2 9 4 9 8 0
18 19 26 50 3 10 26 66 35 85 22 44 106 283 115 325 2 8 8 27 14 43 6 15 8 27
5 27 -4 0 -1 7 6 15 6 8 9 19 5 25 -3 5 -1 10 6 10 7 0 9 3 6 7 -4 3 -2 12 4
20 6 7 9 13 6 13 -3 0 5 38 18 85 13 47 21 85 18 85 -3 0 0 7 7 15 10 12 10
15 -1 15 -10 0 -11 2 -2 8 10 6 16 29 28 106 2 15 6 35 9 45 5 17 16 86 21
136 2 17 4 30 5 30 3 0 9 39 14 85 2 25 5 45 6 45 1 0 3 16 5 35 29 334 25
774 -9 1020 -3 19 -8 58 -11 85 -5 47 -13 101 -22 135 -2 8 -6 29 -8 47 -3 18
-12 65 -21 105 -9 40 -16 79 -17 86 0 6 -4 12 -9 12 -5 0 -6 4 -3 10 3 5 0 29
-6 52 -7 24 -14 48 -15 53 -2 6 -5 19 -8 30 -3 11 -11 41 -18 68 -6 26 -15 47
-20 47 -5 0 -7 4 -4 8 7 11 -14 92 -24 92 -4 0 -7 6 -6 13 1 12 -37 134 -55
172 -9 20 -31 76 -34 85 -1 3 -9 22 -18 44 -9 21 -17 40 -17 43 0 21 -211 443
-222 443 -4 0 -8 8 -8 18 -1 18 -24 55 -31 47 -3 -2 -6 6 -6 18 -1 12 -10 27
-19 34 -10 7 -15 13 -11 13 8 0 -44 83 -55 88 -5 2 -8 8 -8 13 0 5 -24 43 -53
85 -28 42 -56 84 -62 93 -5 8 -18 23 -27 32 -10 9 -18 20 -18 23 0 11 -84 116
-92 116 -5 0 -8 6 -8 13 0 6 -14 27 -31 45 -16 17 -28 32 -25 32 2 0 -13 18
-35 40 -21 21 -39 42 -39 46 0 3 -11 15 -25 26 -14 11 -25 26 -25 34 0 8 -4
12 -10 9 -5 -3 -10 -2 -10 3 0 12 -237 251 -320 322 -35 30 -74 64 -86 75 -29
26 -49 42 -104 85 -25 19 -50 39 -56 45 -6 5 -22 17 -34 25 -12 8 -28 21 -36
28 -7 6 -17 12 -22 12 -6 0 -12 7 -16 15 -3 8 -10 15 -17 15 -6 0 -30 16 -53
35 -24 19 -46 35 -50 35 -4 0 -14 7 -23 15 -8 8 -19 13 -24 10 -5 -4 -9 -2 -9
3 0 9 -97 75 -165 112 -62 34 -110 62 -122 72 -7 6 -13 7 -13 2 0 -5 -4 -4 -8
2 -9 14 -74 49 -84 46 -5 -1 -8 2 -8 8 0 5 -9 10 -20 10 -11 0 -20 5 -20 10 0
6 -9 10 -20 10 -11 0 -20 4 -20 8 0 5 -18 15 -40 22 -22 7 -40 17 -40 22 0 4
-3 7 -7 6 -8 -2 -28 7 -130 53 -34 16 -64 29 -67 29 -2 0 -17 5 -33 12 -15 6
-30 12 -33 13 -3 1 -18 7 -35 14 -16 7 -42 15 -58 18 -15 3 -30 10 -33 14 -3
5 -16 9 -30 9 -13 0 -24 5 -24 12 0 6 -3 9 -6 5 -3 -3 -28 3 -55 13 -27 11
-49 17 -49 15 0 -3 -13 1 -30 10 -16 8 -32 15 -35 15 -3 0 -6 0 -7 1 -2 0 -12
2 -23 4 -11 2 -80 20 -154 39 -74 19 -137 34 -140 34 -3 -1 -13 1 -21 5 -8 3
-33 8 -55 12 -22 3 -53 9 -70 11 -16 3 -46 6 -67 7 -20 1 -34 5 -31 10 2 4
-15 8 -39 9 -41 1 -67 4 -78 8 -8 2 -71 10 -135 15 -33 3 -78 8 -100 10 -47 6
-572 15 -577 10z m3312 -1935 c0 -5 -2 -10 -4 -10 -3 0 -8 5 -11 10 -3 6 -1
10 4 10 6 0 11 -4 11 -10z m0 -80 c0 -5 -2 -10 -4 -10 -3 0 -8 5 -11 10 -3 6
-1 10 4 10 6 0 11 -4 11 -10z m80 0 c0 -5 -5 -10 -11 -10 -5 0 -7 5 -4 10 3 6
8 10 11 10 2 0 4 -4 4 -10z m0 -160 c0 -5 -2 -10 -4 -10 -3 0 -8 5 -11 10 -3
6 -1 10 4 10 6 0 11 -4 11 -10z m-205 -760 c3 -5 1 -10 -4 -10 -6 0 -11 5 -11
10 0 6 2 10 4 10 3 0 8 -4 11 -10z m525 -880 c0 -5 -2 -10 -4 -10 -3 0 -8 5
-11 10 -3 6 -1 10 4 10 6 0 11 -4 11 -10z m-46 -4078 c3 -5 -1 -9 -9 -9 -8 0
-12 4 -9 9 3 4 7 8 9 8 2 0 6 -4 9 -8z m320 -888 c3 -8 2 -12 -4 -9 -6 3 -10
10 -10 16 0 14 7 11 14 -7z m-4277 -29 c0 -8 -4 -12 -9 -9 -5 3 -6 10 -3 15 9
13 12 11 12 -6z m4403 1 c0 -3 -4 -8 -10 -11 -5 -3 -10 -1 -10 4 0 6 5 11 10
11 6 0 10 -2 10 -4z"/>
</g>
</svg>
