<svg version="1.1" viewBox="0.0 0.0 600.0 371.0" fill="none" stroke="none" stroke-linecap="square" stroke-miterlimit="10" width="600" height="371" xmlns:xlink="http://www.w3.org/1999/xlink" xmlns="http://www.w3.org/2000/svg"><path fill="#ffffff" d="M0 0L600.0 0L600.0 371.0L0 371.0L0 0Z" fill-rule="nonzero"/><path stroke="#333333" stroke-width="1.0" stroke-linecap="butt" d="M99.5 298.5L581.5 298.5" fill-rule="nonzero"/><path stroke="#cccccc" stroke-width="1.0" stroke-linecap="butt" d="M99.5 228.5L581.5 228.5" fill-rule="nonzero"/><path stroke="#cccccc" stroke-width="1.0" stroke-linecap="butt" d="M99.5 159.5L581.5 159.5" fill-rule="nonzero"/><path stroke="#cccccc" stroke-width="1.0" stroke-linecap="butt" d="M99.5 89.5L581.5 89.5" fill-rule="nonzero"/><clipPath id="id_0"><path d="M99.55 89.78333L581.45 89.78333L581.45 298.45L99.55 298.45L99.55 89.78333Z" clip-rule="nonzero"/></clipPath><path stroke="#000000" stroke-width="0.0" stroke-linecap="butt" stroke-opacity="0.0" clip-path="url(#id_0)" d="M173.0 298.0L138.0 298.0L138.0 278.0C138.0 276.89542 138.89543 276.0 140.0 276.0L171.0 276.0C172.10457 276.0 173.0 276.89542 173.0 278.0Z" fill-rule="nonzero"/><path fill="#4285f4" clip-path="url(#id_0)" d="M173.0 298.0L138.0 298.0L138.0 278.0C138.0 276.89542 138.89543 276.0 140.0 276.0L171.0 276.0C172.10457 276.0 173.0 276.89542 173.0 278.0Z" fill-rule="nonzero"/><path stroke="#000000" stroke-width="0.0" stroke-linecap="butt" stroke-opacity="0.0" clip-path="url(#id_0)" d="M284.0 298.0L249.0 298.0L249.0 220.0C249.0 218.89543 249.89543 218.0 251.0 218.0L282.0 218.0C283.10458 218.0 284.0 218.89543 284.0 220.0Z" fill-rule="nonzero"/><path fill="#4285f4" clip-path="url(#id_0)" d="M284.0 298.0L249.0 298.0L249.0 220.0C249.0 218.89543 249.89543 218.0 251.0 218.0L282.0 218.0C283.10458 218.0 284.0 218.89543 284.0 220.0Z" fill-rule="nonzero"/><path stroke="#000000" stroke-width="0.0" stroke-linecap="butt" stroke-opacity="0.0" clip-path="url(#id_0)" d="M395.0 298.0L360.0 298.0L360.0 165.0C360.0 163.89543 360.89542 163.0 362.0 163.0L393.0 163.0C394.10458 163.0 395.0 163.89543 395.0 165.0Z" fill-rule="nonzero"/><path fill="#4285f4" clip-path="url(#id_0)" d="M395.0 298.0L360.0 298.0L360.0 165.0C360.0 163.89543 360.89542 163.0 362.0 163.0L393.0 163.0C394.10458 163.0 395.0 163.89543 395.0 165.0Z" fill-rule="nonzero"/><path stroke="#000000" stroke-width="0.0" stroke-linecap="butt" stroke-opacity="0.0" clip-path="url(#id_0)" d="M506.0 298.0L471.0 298.0L471.0 113.0C471.0 111.89543 471.89542 111.0 473.0 111.0L504.0 111.0C505.10458 111.0 506.0 111.89543 506.0 113.0Z" fill-rule="nonzero"/><path fill="#4285f4" clip-path="url(#id_0)" d="M506.0 298.0L471.0 298.0L471.0 113.0C471.0 111.89543 471.89542 111.0 473.0 111.0L504.0 111.0C505.10458 111.0 506.0 111.89543 506.0 113.0Z" fill-rule="nonzero"/><path stroke="#000000" stroke-width="0.0" stroke-linecap="butt" stroke-opacity="0.0" clip-path="url(#id_0)" d="M209.0 298.0L174.0 298.0L174.0 279.0C174.0 277.89542 174.89543 277.0 176.0 277.0L207.0 277.0C208.10457 277.0 209.0 277.89542 209.0 279.0Z" fill-rule="nonzero"/><path fill="#db4437" clip-path="url(#id_0)" d="M209.0 298.0L174.0 298.0L174.0 279.0C174.0 277.89542 174.89543 277.0 176.0 277.0L207.0 277.0C208.10457 277.0 209.0 277.89542 209.0 279.0Z" fill-rule="nonzero"/><path stroke="#000000" stroke-width="0.0" stroke-linecap="butt" stroke-opacity="0.0" clip-path="url(#id_0)" d="M320.0 298.0L285.0 298.0L285.0 231.0C285.0 229.89543 285.89542 229.0 287.0 229.0L318.0 229.0C319.10458 229.0 320.0 229.89543 320.0 231.0Z" fill-rule="nonzero"/><path fill="#db4437" clip-path="url(#id_0)" d="M320.0 298.0L285.0 298.0L285.0 231.0C285.0 229.89543 285.89542 229.0 287.0 229.0L318.0 229.0C319.10458 229.0 320.0 229.89543 320.0 231.0Z" fill-rule="nonzero"/><path stroke="#000000" stroke-width="0.0" stroke-linecap="butt" stroke-opacity="0.0" clip-path="url(#id_0)" d="M431.0 298.0L396.0 298.0L396.0 184.0C396.0 182.89543 396.89542 182.0 398.0 182.0L429.0 182.0C430.10458 182.0 431.0 182.89543 431.0 184.0Z" fill-rule="nonzero"/><path fill="#db4437" clip-path="url(#id_0)" d="M431.0 298.0L396.0 298.0L396.0 184.0C396.0 182.89543 396.89542 182.0 398.0 182.0L429.0 182.0C430.10458 182.0 431.0 182.89543 431.0 184.0Z" fill-rule="nonzero"/><path stroke="#000000" stroke-width="0.0" stroke-linecap="butt" stroke-opacity="0.0" clip-path="url(#id_0)" d="M542.0 298.0L507.0 298.0L507.0 132.0C507.0 130.89543 507.89542 130.0 509.0 130.0L540.0 130.0C541.10455 130.0 542.0 130.89543 542.0 132.0Z" fill-rule="nonzero"/><path fill="#db4437" clip-path="url(#id_0)" d="M542.0 298.0L507.0 298.0L507.0 132.0C507.0 130.89543 507.89542 130.0 509.0 130.0L540.0 130.0C541.10455 130.0 542.0 130.89543 542.0 132.0Z" fill-rule="nonzero"/><path fill="#424242" d="M314.0 345.46564Q314.0 346.7 313.60938 347.59064Q313.21875 348.48126 312.51562 348.98126L314.03125 350.1844L313.26562 350.8875L311.46875 349.46564Q311.04688 349.575 310.57812 349.575Q309.57812 349.575 308.79688 349.075Q308.01562 348.575 307.57812 347.66876Q307.15625 346.7469 307.14062 345.52814L307.14062 344.91876Q307.14062 343.6844 307.5625 342.7469Q308.0 341.8094 308.78125 341.3094Q309.5625 340.79376 310.5625 340.79376Q311.59375 340.79376 312.375 341.29376Q313.15625 341.79376 313.57812 342.73126Q314.0 343.66876 314.0 344.91876L314.0 345.46564ZM312.875 344.90314Q312.875 343.40314 312.28125 342.59064Q311.6875 341.7625 310.5625 341.7625Q309.5 341.7625 308.89062 342.575Q308.28125 343.3875 308.26562 344.825L308.26562 345.46564Q308.26562 346.91876 308.875 347.7625Q309.48438 348.60626 310.57812 348.60626Q311.67188 348.60626 312.26562 347.825Q312.85938 347.02814 312.875 345.54376L312.875 344.90314ZM319.23438 348.825Q318.60938 349.575 317.375 349.575Q316.35938 349.575 315.82812 348.98126Q315.29688 348.3875 315.29688 347.23126L315.29688 343.10626L316.375 343.10626L316.375 347.2Q316.375 348.65314 317.54688 348.65314Q318.79688 348.65314 319.20312 347.71564L319.20312 343.10626L320.29688 343.10626L320.29688 349.45L319.26562 349.45L319.23438 348.825ZM324.95312 349.575Q323.65625 349.575 322.84375 348.73126Q322.04688 347.8719 322.04688 346.45L322.04688 346.2625Q322.04688 345.3094 322.40625 344.575Q322.76562 343.825 323.40625 343.41876Q324.0625 342.9969 324.8125 342.9969Q326.04688 342.9969 326.73438 343.8094Q327.42188 344.6219 327.42188 346.1375L327.42188 346.59064L323.125 346.59064Q323.15625 347.52814 323.67188 348.10626Q324.20312 348.6844 325.01562 348.6844Q325.57812 348.6844 325.96875 348.45Q326.375 348.21564 326.6875 347.825L327.34375 348.34064Q326.54688 349.575 324.95312 349.575ZM324.8125 343.8875Q324.15625 343.8875 323.70312 344.3719Q323.26562 344.84064 323.17188 345.7L326.34375 345.7L326.34375 345.6219Q326.29688 344.79376 325.89062 344.34064Q325.5 343.8875 324.8125 343.8875ZM332.23438 348.825Q331.60938 349.575 330.375 349.575Q329.35938 349.575 328.82812 348.98126Q328.29688 348.3875 328.29688 347.23126L328.29688 343.10626L329.375 343.10626L329.375 347.2Q329.375 348.65314 330.54688 348.65314Q331.79688 348.65314 332.20312 347.71564L332.20312 343.10626L333.29688 343.10626L333.29688 349.45L332.26562 349.45L332.23438 348.825ZM337.95312 349.575Q336.65625 349.575 335.84375 348.73126Q335.04688 347.8719 335.04688 346.45L335.04688 346.2625Q335.04688 345.3094 335.40625 344.575Q335.76562 343.825 336.40625 343.41876Q337.0625 342.9969 337.8125 342.9969Q339.04688 342.9969 339.73438 343.8094Q340.42188 344.6219 340.42188 346.1375L340.42188 346.59064L336.125 346.59064Q336.15625 347.52814 336.67188 348.10626Q337.20312 348.6844 338.01562 348.6844Q338.57812 348.6844 338.96875 348.45Q339.375 348.21564 339.6875 347.825L340.34375 348.34064Q339.54688 349.575 337.95312 349.575ZM337.8125 343.8875Q337.15625 343.8875 336.70312 344.3719Q336.26562 344.84064 336.17188 345.7L339.34375 345.7L339.34375 345.6219Q339.29688 344.79376 338.89062 344.34064Q338.5 343.8875 337.8125 343.8875ZM344.0625 346.23126Q344.0625 344.7625 344.75 343.8875Q345.4375 342.9969 346.5625 342.9969Q347.67188 342.9969 348.32812 343.7469L348.32812 340.45L349.40625 340.45L349.40625 349.45L348.40625 349.45L348.35938 348.7625Q347.70312 349.575 346.54688 349.575Q345.45312 349.575 344.75 348.66876Q344.0625 347.7625 344.0625 346.3094L344.0625 346.23126ZM345.14062 346.35626Q345.14062 347.4344 345.57812 348.04376Q346.03125 348.65314 346.8125 348.65314Q347.84375 348.65314 348.32812 347.71564L348.32812 344.8094Q347.84375 343.91876 346.82812 343.91876Q346.03125 343.91876 345.57812 344.52814Q345.14062 345.1375 345.14062 346.35626ZM353.95312 349.575Q352.65625 349.575 351.84375 348.73126Q351.04688 347.8719 351.04688 346.45L351.04688 346.2625Q351.04688 345.3094 351.40625 344.575Q351.76562 343.825 352.40625 343.41876Q353.0625 342.9969 353.8125 342.9969Q355.04688 342.9969 355.73438 343.8094Q356.42188 344.6219 356.42188 346.1375L356.42188 346.59064L352.125 346.59064Q352.15625 347.52814 352.67188 348.10626Q353.20312 348.6844 354.01562 348.6844Q354.57812 348.6844 354.96875 348.45Q355.375 348.21564 355.6875 347.825L356.34375 348.34064Q355.54688 349.575 353.95312 349.575ZM353.8125 343.8875Q353.15625 343.8875 352.70312 344.3719Q352.26562 344.84064 352.17188 345.7L355.34375 345.7L355.34375 345.6219Q355.29688 344.79376 354.89062 344.34064Q354.5 343.8875 353.8125 343.8875ZM362.67188 346.35626Q362.67188 347.79376 362.01562 348.6844Q361.35938 349.575 360.21875 349.575Q359.0625 349.575 358.40625 348.84064L358.40625 351.8875L357.32812 351.8875L357.32812 343.10626L358.3125 343.10626L358.35938 343.8094Q359.03125 342.9969 360.20312 342.9969Q361.34375 342.9969 362.0 343.85626Q362.67188 344.71564 362.67188 346.2469L362.67188 346.35626ZM361.59375 346.23126Q361.59375 345.15314 361.125 344.54376Q360.67188 343.91876 359.875 343.91876Q358.89062 343.91876 358.40625 344.77814L358.40625 347.8094Q358.89062 348.6844 359.89062 348.6844Q360.67188 348.6844 361.125 348.075Q361.59375 347.45 361.59375 346.23126ZM365.79688 341.575L365.79688 343.10626L366.96875 343.10626L366.96875 343.95L365.79688 343.95L365.79688 347.8719Q365.79688 348.2625 365.95312 348.45Q366.10938 348.6375 366.48438 348.6375Q366.67188 348.6375 367.0 348.575L367.0 349.45Q366.57812 349.575 366.17188 349.575Q365.45312 349.575 365.07812 349.1375Q364.70312 348.6844 364.70312 347.8719L364.70312 343.95L363.54688 343.95L363.54688 343.10626L364.70312 343.10626L364.70312 341.575L365.79688 341.575ZM369.40625 343.8719Q370.125 342.9969 371.28125 342.9969Q373.29688 342.9969 373.3125 345.2625L373.3125 349.45L372.21875 349.45L372.21875 345.2469Q372.21875 344.575 371.90625 344.2469Q371.60938 343.91876 370.95312 343.91876Q370.42188 343.91876 370.01562 344.2Q369.625 344.48126 369.40625 344.9344L369.40625 349.45L368.32812 349.45L368.32812 340.45L369.40625 340.45L369.40625 343.8719Z" fill-rule="nonzero"/><path fill="#424242" d="M30.550013 211.66354L30.550013 212.78854L22.018763 212.78854L22.018763 211.66354L30.550013 211.66354ZM26.565638 203.3198Q27.815638 203.3198 28.753138 203.74167Q29.675013 204.16354 30.175013 204.9448Q30.675013 205.71042 30.675013 206.74167Q30.675013 207.74167 30.175013 208.52292Q29.675013 209.30417 28.768763 209.74167Q27.846888 210.16354 26.628138 210.17917L26.018763 210.17917Q24.784388 210.17917 23.846888 209.7573Q22.909388 209.3198 22.409388 208.53854Q21.893763 207.7573 21.893763 206.74167Q21.893763 205.72604 22.393763 204.9448Q22.893763 204.16354 23.831263 203.74167Q24.768763 203.3198 26.018763 203.3198L26.565638 203.3198ZM26.003138 204.42917Q24.487513 204.42917 23.675013 205.03854Q22.862513 205.64792 22.862513 206.74167Q22.862513 207.8198 23.675013 208.42917Q24.487513 209.03854 25.925013 209.05417L26.565638 209.05417Q28.034388 209.05417 28.878138 208.4448Q29.706263 207.8198 29.706263 206.74167Q29.706263 205.64792 28.925013 205.05417Q28.128138 204.4448 26.643763 204.42917L26.003138 204.42917ZM27.206263 200.7573L30.550013 200.7573L30.550013 201.8823L22.018763 201.8823L22.018763 198.72604Q22.018763 197.33542 22.737513 196.53854Q23.440638 195.74167 24.628138 195.74167Q25.862513 195.74167 26.534388 196.52292Q27.206263 197.28854 27.206263 198.74167L27.206263 200.7573ZM26.284388 200.7573L26.284388 198.72604Q26.284388 197.8198 25.862513 197.35104Q25.440638 196.86667 24.643763 196.86667Q23.878138 196.86667 23.425013 197.35104Q22.956263 197.8198 22.940638 198.66354L22.940638 200.7573L26.284388 200.7573ZM26.753138 191.36667Q26.331263 192.80417 25.721888 193.47604Q25.112513 194.1323 24.221888 194.1323Q23.221888 194.1323 22.565638 193.33542Q21.893763 192.52292 21.893763 191.22604Q21.893763 190.35104 22.237513 189.66354Q22.581263 188.97604 23.175013 188.60104Q23.768763 188.21042 24.487513 188.21042L24.487513 189.35104Q23.706263 189.35104 23.268763 189.85104Q22.831263 190.33542 22.831263 191.22604Q22.831263 192.05417 23.206263 192.52292Q23.565638 192.99167 24.206263 192.99167Q24.737513 192.99167 25.096888 192.55417Q25.456263 192.10104 25.753138 191.03854Q26.050013 189.97604 26.409388 189.3823Q26.768763 188.77292 27.253138 188.49167Q27.737513 188.1948 28.378138 188.1948Q29.425013 188.1948 30.050013 189.0073Q30.675013 189.8198 30.675013 191.16354Q30.675013 192.05417 30.331263 192.8198Q29.987513 193.5698 29.409388 193.99167Q28.815638 194.39792 28.081263 194.39792L28.081263 193.27292Q28.846888 193.27292 29.300013 192.6948Q29.753138 192.11667 29.753138 191.16354Q29.753138 190.27292 29.393763 189.80417Q29.018763 189.33542 28.393763 189.33542Q27.768763 189.33542 27.425013 189.77292Q27.081263 190.21042 26.753138 191.36667Z" fill-rule="nonzero"/><path fill="#757575" d="M92.6125 299.3094Q92.6125 301.21564 91.95625 302.15314Q91.31563 303.075 89.925 303.075Q88.56563 303.075 87.90938 302.16876Q87.25313 301.2625 87.22188 299.45L87.22188 298.0125Q87.22188 296.1219 87.8625 295.21564Q88.51875 294.29376 89.90938 294.29376Q91.28438 294.29376 91.94063 295.1844Q92.59688 296.0594 92.6125 297.90314L92.6125 299.3094ZM91.51875 297.825Q91.51875 296.45 91.12813 295.825Q90.75313 295.1844 89.90938 295.1844Q89.08125 295.1844 88.69063 295.825Q88.31563 296.45 88.31563 297.7469L88.31563 299.48126Q88.31563 300.85626 88.70625 301.52814Q89.1125 302.1844 89.925 302.1844Q90.72188 302.1844 91.1125 301.5594Q91.50313 300.9344 91.51875 299.60626L91.51875 297.825Z" fill-rule="nonzero"/><path fill="#757575" d="M59.753124 229.11319L60.190624 224.86319L64.56563 224.86319L64.56563 225.86319L61.1125 225.86319L60.846874 228.19131Q61.4875 227.81631 62.284374 227.81631Q63.440624 227.81631 64.12813 228.59756Q64.81563 229.36319 64.81563 230.67569Q64.81563 231.98819 64.09688 232.75381Q63.39375 233.51944 62.1125 233.51944Q60.9875 233.51944 60.26875 232.89444Q59.55 232.25381 59.45625 231.14444L60.471874 231.14444Q60.58125 231.87881 61.003124 232.25381Q61.425 232.62881 62.1125 232.62881Q62.8625 232.62881 63.3 232.11319Q63.7375 231.59756 63.7375 230.69131Q63.7375 229.83194 63.26875 229.31631Q62.8 228.80069 62.01875 228.80069Q61.315624 228.80069 60.909374 229.09756L60.628124 229.33194L59.753124 229.11319ZM71.6125 229.75381Q71.6125 231.66006 70.95625 232.59756Q70.31563 233.51944 68.925 233.51944Q67.56563 233.51944 66.90938 232.61319Q66.25313 231.70694 66.22188 229.89444L66.22188 228.45694Q66.22188 226.56631 66.8625 225.66006Q67.51875 224.73819 68.90938 224.73819Q70.28438 224.73819 70.94063 225.62881Q71.59688 226.50381 71.6125 228.34756L71.6125 229.75381ZM70.51875 228.26944Q70.51875 226.89444 70.12813 226.26944Q69.75313 225.62881 68.90938 225.62881Q68.08125 225.62881 67.69063 226.26944Q67.31563 226.89444 67.31563 228.19131L67.31563 229.92569Q67.31563 231.30069 67.70625 231.97256Q68.1125 232.62881 68.925 232.62881Q69.72188 232.62881 70.1125 232.00381Q70.50313 231.37881 70.51875 230.05069L70.51875 228.26944ZM78.6125 229.75381Q78.6125 231.66006 77.95625 232.59756Q77.31563 233.51944 75.925 233.51944Q74.56563 233.51944 73.90938 232.61319Q73.25313 231.70694 73.22188 229.89444L73.22188 228.45694Q73.22188 226.56631 73.8625 225.66006Q74.51875 224.73819 75.90938 224.73819Q77.28438 224.73819 77.94063 225.62881Q78.59688 226.50381 78.6125 228.34756L78.6125 229.75381ZM77.51875 228.26944Q77.51875 226.89444 77.12813 226.26944Q76.75313 225.62881 75.90938 225.62881Q75.08125 225.62881 74.69063 226.26944Q74.31563 226.89444 74.31563 228.19131L74.31563 229.92569Q74.31563 231.30069 74.70625 231.97256Q75.1125 232.62881 75.925 232.62881Q76.72188 232.62881 77.1125 232.00381Q77.50313 231.37881 77.51875 230.05069L77.51875 228.26944ZM85.6125 229.75381Q85.6125 231.66006 84.95625 232.59756Q84.31563 233.51944 82.925 233.51944Q81.56563 233.51944 80.90938 232.61319Q80.25313 231.70694 80.22188 229.89444L80.22188 228.45694Q80.22188 226.56631 80.8625 225.66006Q81.51875 224.73819 82.90938 224.73819Q84.28438 224.73819 84.94063 225.62881Q85.59688 226.50381 85.6125 228.34756L85.6125 229.75381ZM84.51875 228.26944Q84.51875 226.89444 84.12813 226.26944Q83.75313 225.62881 82.90938 225.62881Q82.08125 225.62881 81.69063 226.26944Q81.31563 226.89444 81.31563 228.19131L81.31563 229.92569Q81.31563 231.30069 81.70625 231.97256Q82.1125 232.62881 82.925 232.62881Q83.72188 232.62881 84.1125 232.00381Q84.50313 231.37881 84.51875 230.05069L84.51875 228.26944ZM92.6125 229.75381Q92.6125 231.66006 91.95625 232.59756Q91.31563 233.51944 89.925 233.51944Q88.56563 233.51944 87.90938 232.61319Q87.25313 231.70694 87.22188 229.89444L87.22188 228.45694Q87.22188 226.56631 87.8625 225.66006Q88.51875 224.73819 89.90938 224.73819Q91.28438 224.73819 91.94063 225.62881Q92.59688 226.50381 92.6125 228.34756L92.6125 229.75381ZM91.51875 228.26944Q91.51875 226.89444 91.12813 226.26944Q90.75313 225.62881 89.90938 225.62881Q89.08125 225.62881 88.69063 226.26944Q88.31563 226.89444 88.31563 228.19131L88.31563 229.92569Q88.31563 231.30069 88.70625 231.97256Q89.1125 232.62881 89.925 232.62881Q90.72188 232.62881 91.1125 232.00381Q91.50313 231.37881 91.51875 230.05069L91.51875 228.26944Z" fill-rule="nonzero"/><path fill="#757575" d="M55.815624 163.83888L54.7375 163.83888L54.7375 156.62013L52.55 157.417L52.55 156.43263L55.659374 155.26076L55.815624 155.26076L55.815624 163.83888ZM64.6125 160.19826Q64.6125 162.1045 63.95625 163.042Q63.315624 163.96388 61.925 163.96388Q60.565624 163.96388 59.909374 163.05763Q59.253124 162.15138 59.221874 160.33888L59.221874 158.90138Q59.221874 157.01076 59.8625 156.1045Q60.51875 155.18263 61.909374 155.18263Q63.284374 155.18263 63.940624 156.07326Q64.59688 156.94826 64.6125 158.792L64.6125 160.19826ZM63.51875 158.71388Q63.51875 157.33888 63.128124 156.71388Q62.753124 156.07326 61.909374 156.07326Q61.08125 156.07326 60.690624 156.71388Q60.315624 157.33888 60.315624 158.63576L60.315624 160.37013Q60.315624 161.74513 60.70625 162.417Q61.1125 163.07326 61.925 163.07326Q62.721874 163.07326 63.1125 162.44826Q63.503124 161.82326 63.51875 160.49513L63.51875 158.71388ZM71.6125 160.19826Q71.6125 162.1045 70.95625 163.042Q70.31563 163.96388 68.925 163.96388Q67.56563 163.96388 66.90938 163.05763Q66.25313 162.15138 66.22188 160.33888L66.22188 158.90138Q66.22188 157.01076 66.8625 156.1045Q67.51875 155.18263 68.90938 155.18263Q70.28438 155.18263 70.94063 156.07326Q71.59688 156.94826 71.6125 158.792L71.6125 160.19826ZM70.51875 158.71388Q70.51875 157.33888 70.12813 156.71388Q69.75313 156.07326 68.90938 156.07326Q68.08125 156.07326 67.69063 156.71388Q67.31563 157.33888 67.31563 158.63576L67.31563 160.37013Q67.31563 161.74513 67.70625 162.417Q68.1125 163.07326 68.925 163.07326Q69.72188 163.07326 70.1125 162.44826Q70.50313 161.82326 70.51875 160.49513L70.51875 158.71388ZM78.6125 160.19826Q78.6125 162.1045 77.95625 163.042Q77.31563 163.96388 75.925 163.96388Q74.56563 163.96388 73.90938 163.05763Q73.25313 162.15138 73.22188 160.33888L73.22188 158.90138Q73.22188 157.01076 73.8625 156.1045Q74.51875 155.18263 75.90938 155.18263Q77.28438 155.18263 77.94063 156.07326Q78.59688 156.94826 78.6125 158.792L78.6125 160.19826ZM77.51875 158.71388Q77.51875 157.33888 77.12813 156.71388Q76.75313 156.07326 75.90938 156.07326Q75.08125 156.07326 74.69063 156.71388Q74.31563 157.33888 74.31563 158.63576L74.31563 160.37013Q74.31563 161.74513 74.70625 162.417Q75.1125 163.07326 75.925 163.07326Q76.72188 163.07326 77.1125 162.44826Q77.50313 161.82326 77.51875 160.49513L77.51875 158.71388ZM85.6125 160.19826Q85.6125 162.1045 84.95625 163.042Q84.31563 163.96388 82.925 163.96388Q81.56563 163.96388 80.90938 163.05763Q80.25313 162.15138 80.22188 160.33888L80.22188 158.90138Q80.22188 157.01076 80.8625 156.1045Q81.51875 155.18263 82.90938 155.18263Q84.28438 155.18263 84.94063 156.07326Q85.59688 156.94826 85.6125 158.792L85.6125 160.19826ZM84.51875 158.71388Q84.51875 157.33888 84.12813 156.71388Q83.75313 156.07326 82.90938 156.07326Q82.08125 156.07326 81.69063 156.71388Q81.31563 157.33888 81.31563 158.63576L81.31563 160.37013Q81.31563 161.74513 81.70625 162.417Q82.1125 163.07326 82.925 163.07326Q83.72188 163.07326 84.1125 162.44826Q84.50313 161.82326 84.51875 160.49513L84.51875 158.71388ZM92.6125 160.19826Q92.6125 162.1045 91.95625 163.042Q91.31563 163.96388 89.925 163.96388Q88.56563 163.96388 87.90938 163.05763Q87.25313 162.15138 87.22188 160.33888L87.22188 158.90138Q87.22188 157.01076 87.8625 156.1045Q88.51875 155.18263 89.90938 155.18263Q91.28438 155.18263 91.94063 156.07326Q92.59688 156.94826 92.6125 158.792L92.6125 160.19826ZM91.51875 158.71388Q91.51875 157.33888 91.12813 156.71388Q90.75313 156.07326 89.90938 156.07326Q89.08125 156.07326 88.69063 156.71388Q88.31563 157.33888 88.31563 158.63576L88.31563 160.37013Q88.31563 161.74513 88.70625 162.417Q89.1125 163.07326 89.925 163.07326Q90.72188 163.07326 91.1125 162.44826Q91.50313 161.82326 91.51875 160.49513L91.51875 158.71388Z" fill-rule="nonzero"/><path fill="#757575" d="M55.815624 94.28333L54.7375 94.28333L54.7375 87.06458L52.55 87.86146L52.55 86.87708L55.659374 85.70521L55.815624 85.70521L55.815624 94.28333ZM59.753124 90.00208L60.190624 85.75208L64.56563 85.75208L64.56563 86.75208L61.1125 86.75208L60.846874 89.08021Q61.4875 88.70521 62.284374 88.70521Q63.440624 88.70521 64.12813 89.48646Q64.81563 90.25208 64.81563 91.56458Q64.81563 92.87708 64.09688 93.64271Q63.39375 94.40833 62.1125 94.40833Q60.9875 94.40833 60.26875 93.78333Q59.55 93.14271 59.45625 92.03333L60.471874 92.03333Q60.58125 92.76771 61.003124 93.14271Q61.425 93.51771 62.1125 93.51771Q62.8625 93.51771 63.3 93.00208Q63.7375 92.48646 63.7375 91.58021Q63.7375 90.72083 63.26875 90.20521Q62.8 89.68958 62.01875 89.68958Q61.315624 89.68958 60.909374 89.98646L60.628124 90.22083L59.753124 90.00208ZM71.6125 90.64271Q71.6125 92.54896 70.95625 93.48646Q70.31563 94.40833 68.925 94.40833Q67.56563 94.40833 66.90938 93.50208Q66.25313 92.59583 66.22188 90.78333L66.22188 89.34583Q66.22188 87.45521 66.8625 86.54896Q67.51875 85.62708 68.90938 85.62708Q70.28438 85.62708 70.94063 86.51771Q71.59688 87.39271 71.6125 89.23646L71.6125 90.64271ZM70.51875 89.15833Q70.51875 87.78333 70.12813 87.15833Q69.75313 86.51771 68.90938 86.51771Q68.08125 86.51771 67.69063 87.15833Q67.31563 87.78333 67.31563 89.08021L67.31563 90.81458Q67.31563 92.18958 67.70625 92.86146Q68.1125 93.51771 68.925 93.51771Q69.72188 93.51771 70.1125 92.89271Q70.50313 92.26771 70.51875 90.93958L70.51875 89.15833ZM78.6125 90.64271Q78.6125 92.54896 77.95625 93.48646Q77.31563 94.40833 75.925 94.40833Q74.56563 94.40833 73.90938 93.50208Q73.25313 92.59583 73.22188 90.78333L73.22188 89.34583Q73.22188 87.45521 73.8625 86.54896Q74.51875 85.62708 75.90938 85.62708Q77.28438 85.62708 77.94063 86.51771Q78.59688 87.39271 78.6125 89.23646L78.6125 90.64271ZM77.51875 89.15833Q77.51875 87.78333 77.12813 87.15833Q76.75313 86.51771 75.90938 86.51771Q75.08125 86.51771 74.69063 87.15833Q74.31563 87.78333 74.31563 89.08021L74.31563 90.81458Q74.31563 92.18958 74.70625 92.86146Q75.1125 93.51771 75.925 93.51771Q76.72188 93.51771 77.1125 92.89271Q77.50313 92.26771 77.51875 90.93958L77.51875 89.15833ZM85.6125 90.64271Q85.6125 92.54896 84.95625 93.48646Q84.31563 94.40833 82.925 94.40833Q81.56563 94.40833 80.90938 93.50208Q80.25313 92.59583 80.22188 90.78333L80.22188 89.34583Q80.22188 87.45521 80.8625 86.54896Q81.51875 85.62708 82.90938 85.62708Q84.28438 85.62708 84.94063 86.51771Q85.59688 87.39271 85.6125 89.23646L85.6125 90.64271ZM84.51875 89.15833Q84.51875 87.78333 84.12813 87.15833Q83.75313 86.51771 82.90938 86.51771Q82.08125 86.51771 81.69063 87.15833Q81.31563 87.78333 81.31563 89.08021L81.31563 90.81458Q81.31563 92.18958 81.70625 92.86146Q82.1125 93.51771 82.925 93.51771Q83.72188 93.51771 84.1125 92.89271Q84.50313 92.26771 84.51875 90.93958L84.51875 89.15833ZM92.6125 90.64271Q92.6125 92.54896 91.95625 93.48646Q91.31563 94.40833 89.925 94.40833Q88.56563 94.40833 87.90938 93.50208Q87.25313 92.59583 87.22188 90.78333L87.22188 89.34583Q87.22188 87.45521 87.8625 86.54896Q88.51875 85.62708 89.90938 85.62708Q91.28438 85.62708 91.94063 86.51771Q92.59688 87.39271 92.6125 89.23646L92.6125 90.64271ZM91.51875 89.15833Q91.51875 87.78333 91.12813 87.15833Q90.75313 86.51771 89.90938 86.51771Q89.08125 86.51771 88.69063 87.15833Q88.31563 87.78333 88.31563 89.08021L88.31563 90.81458Q88.31563 92.18958 88.70625 92.86146Q89.1125 93.51771 89.925 93.51771Q90.72188 93.51771 91.1125 92.89271Q91.50313 92.26771 91.51875 90.93958L91.51875 89.15833Z" fill-rule="nonzero"/><path fill="#757575" d="M154.39009 313.23126Q154.39009 311.7625 155.07759 310.8875Q155.76509 309.9969 156.89009 309.9969Q157.99947 309.9969 158.65572 310.7469L158.65572 307.45L159.73384 307.45L159.73384 316.45L158.73384 316.45L158.68697 315.7625Q158.03072 316.575 156.87447 316.575Q155.78072 316.575 155.07759 315.66876Q154.39009 314.7625 154.39009 313.3094L154.39009 313.23126ZM155.46822 313.35626Q155.46822 314.4344 155.90572 315.04376Q156.35884 315.65314 157.14009 315.65314Q158.17134 315.65314 158.65572 314.71564L158.65572 311.8094Q158.17134 310.91876 157.15572 310.91876Q156.35884 310.91876 155.90572 311.52814Q155.46822 312.1375 155.46822 313.35626ZM164.28072 316.575Q162.98384 316.575 162.17134 315.73126Q161.37447 314.8719 161.37447 313.45L161.37447 313.2625Q161.37447 312.3094 161.73384 311.575Q162.09322 310.825 162.73384 310.41876Q163.39009 309.9969 164.14009 309.9969Q165.37447 309.9969 166.06197 310.8094Q166.74947 311.6219 166.74947 313.1375L166.74947 313.59064L162.45259 313.59064Q162.48384 314.52814 162.99947 315.10626Q163.53072 315.6844 164.34322 315.6844Q164.90572 315.6844 165.29634 315.45Q165.70259 315.21564 166.01509 314.825L166.67134 315.34064Q165.87447 316.575 164.28072 316.575ZM164.14009 310.8875Q163.48384 310.8875 163.03072 311.3719Q162.59322 311.84064 162.49947 312.7L165.67134 312.7L165.67134 312.6219Q165.62447 311.79376 165.21822 311.34064Q164.82759 310.8875 164.14009 310.8875ZM172.99947 313.35626Q172.99947 314.79376 172.34322 315.6844Q171.68697 316.575 170.54634 316.575Q169.39009 316.575 168.73384 315.84064L168.73384 318.8875L167.65572 318.8875L167.65572 310.10626L168.64009 310.10626L168.68697 310.8094Q169.35884 309.9969 170.53072 309.9969Q171.67134 309.9969 172.32759 310.85626Q172.99947 311.71564 172.99947 313.2469L172.99947 313.35626ZM171.92134 313.23126Q171.92134 312.15314 171.45259 311.54376Q170.99947 310.91876 170.20259 310.91876Q169.21822 310.91876 168.73384 311.77814L168.73384 314.8094Q169.21822 315.6844 170.21822 315.6844Q170.99947 315.6844 171.45259 315.075Q171.92134 314.45 171.92134 313.23126ZM176.12447 308.575L176.12447 310.10626L177.29634 310.10626L177.29634 310.95L176.12447 310.95L176.12447 314.8719Q176.12447 315.2625 176.28072 315.45Q176.43697 315.6375 176.81197 315.6375Q176.99947 315.6375 177.32759 315.575L177.32759 316.45Q176.90572 316.575 176.49947 316.575Q175.78072 316.575 175.40572 316.1375Q175.03072 315.6844 175.03072 314.8719L175.03072 310.95L173.87447 310.95L173.87447 310.10626L175.03072 310.10626L175.03072 308.575L176.12447 308.575ZM179.73384 310.8719Q180.45259 309.9969 181.60884 309.9969Q183.62447 309.9969 183.64009 312.2625L183.64009 316.45L182.54634 316.45L182.54634 312.2469Q182.54634 311.575 182.23384 311.2469Q181.93697 310.91876 181.28072 310.91876Q180.74947 310.91876 180.34322 311.2Q179.95259 311.48126 179.73384 311.9344L179.73384 316.45L178.65572 316.45L178.65572 307.45L179.73384 307.45L179.73384 310.8719ZM194.12447 316.45L188.53072 316.45L188.53072 315.66876L191.48384 312.3875Q192.14009 311.6375 192.39009 311.1844Q192.64009 310.71564 192.64009 310.21564Q192.64009 309.54376 192.23384 309.1219Q191.84322 308.6844 191.15572 308.6844Q190.35884 308.6844 189.90572 309.15314Q189.45259 309.60626 189.45259 310.4344L188.37447 310.4344Q188.37447 309.2469 189.12447 308.52814Q189.89009 307.79376 191.15572 307.79376Q192.35884 307.79376 193.04634 308.41876Q193.73384 309.04376 193.73384 310.09064Q193.73384 311.34064 192.12447 313.09064L189.84322 315.5594L194.12447 315.5594L194.12447 316.45Z" fill-rule="nonzero"/><path fill="#757575" d="M265.1717 313.23126Q265.1717 311.7625 265.8592 310.8875Q266.5467 309.9969 267.6717 309.9969Q268.78107 309.9969 269.43732 310.7469L269.43732 307.45L270.51544 307.45L270.51544 316.45L269.51544 316.45L269.46857 315.7625Q268.81232 316.575 267.65607 316.575Q266.56232 316.575 265.8592 315.66876Q265.1717 314.7625 265.1717 313.3094L265.1717 313.23126ZM266.24982 313.35626Q266.24982 314.4344 266.68732 315.04376Q267.14044 315.65314 267.9217 315.65314Q268.95294 315.65314 269.43732 314.71564L269.43732 311.8094Q268.95294 310.91876 267.93732 310.91876Q267.14044 310.91876 266.68732 311.52814Q266.24982 312.1375 266.24982 313.35626ZM275.06232 316.575Q273.76544 316.575 272.95294 315.73126Q272.15607 314.8719 272.15607 313.45L272.15607 313.2625Q272.15607 312.3094 272.51544 311.575Q272.87482 310.825 273.51544 310.41876Q274.1717 309.9969 274.9217 309.9969Q276.15607 309.9969 276.84357 310.8094Q277.53107 311.6219 277.53107 313.1375L277.53107 313.59064L273.2342 313.59064Q273.26544 314.52814 273.78107 315.10626Q274.31232 315.6844 275.12482 315.6844Q275.68732 315.6844 276.07794 315.45Q276.4842 315.21564 276.7967 314.825L277.45294 315.34064Q276.65607 316.575 275.06232 316.575ZM274.9217 310.8875Q274.26544 310.8875 273.81232 311.3719Q273.37482 311.84064 273.28107 312.7L276.45294 312.7L276.45294 312.6219Q276.40607 311.79376 275.99982 311.34064Q275.6092 310.8875 274.9217 310.8875ZM283.78107 313.35626Q283.78107 314.79376 283.12482 315.6844Q282.46857 316.575 281.32794 316.575Q280.1717 316.575 279.51544 315.84064L279.51544 318.8875L278.43732 318.8875L278.43732 310.10626L279.4217 310.10626L279.46857 310.8094Q280.14044 309.9969 281.31232 309.9969Q282.45294 309.9969 283.1092 310.85626Q283.78107 311.71564 283.78107 313.2469L283.78107 313.35626ZM282.70294 313.23126Q282.70294 312.15314 282.2342 311.54376Q281.78107 310.91876 280.9842 310.91876Q279.99982 310.91876 279.51544 311.77814L279.51544 314.8094Q279.99982 315.6844 280.99982 315.6844Q281.78107 315.6844 282.2342 315.075Q282.70294 314.45 282.70294 313.23126ZM286.90607 308.575L286.90607 310.10626L288.07794 310.10626L288.07794 310.95L286.90607 310.95L286.90607 314.8719Q286.90607 315.2625 287.06232 315.45Q287.21857 315.6375 287.59357 315.6375Q287.78107 315.6375 288.1092 315.575L288.1092 316.45Q287.68732 316.575 287.28107 316.575Q286.56232 316.575 286.18732 316.1375Q285.81232 315.6844 285.81232 314.8719L285.81232 310.95L284.65607 310.95L284.65607 310.10626L285.81232 310.10626L285.81232 308.575L286.90607 308.575ZM290.51544 310.8719Q291.2342 309.9969 292.39044 309.9969Q294.40607 309.9969 294.4217 312.2625L294.4217 316.45L293.32794 316.45L293.32794 312.2469Q293.32794 311.575 293.01544 311.2469Q292.71857 310.91876 292.06232 310.91876Q291.53107 310.91876 291.12482 311.2Q290.7342 311.48126 290.51544 311.9344L290.51544 316.45L289.43732 316.45L289.43732 307.45L290.51544 307.45L290.51544 310.8719ZM303.89044 313.59064L305.07794 313.59064L305.07794 314.46564L303.89044 314.46564L303.89044 316.45L302.81232 316.45L302.81232 314.46564L298.9217 314.46564L298.9217 313.825L302.7342 307.91876L303.89044 307.91876L303.89044 313.59064ZM300.15607 313.59064L302.81232 313.59064L302.81232 309.40314L302.6717 309.6375L300.15607 313.59064Z" fill-rule="nonzero"/><path fill="#757575" d="M375.9533 313.23126Q375.9533 311.7625 376.6408 310.8875Q377.3283 309.9969 378.4533 309.9969Q379.56268 309.9969 380.21893 310.7469L380.21893 307.45L381.29706 307.45L381.29706 316.45L380.29706 316.45L380.25018 315.7625Q379.59393 316.575 378.43768 316.575Q377.34393 316.575 376.6408 315.66876Q375.9533 314.7625 375.9533 313.3094L375.9533 313.23126ZM377.03143 313.35626Q377.03143 314.4344 377.46893 315.04376Q377.92206 315.65314 378.7033 315.65314Q379.73456 315.65314 380.21893 314.71564L380.21893 311.8094Q379.73456 310.91876 378.71893 310.91876Q377.92206 310.91876 377.46893 311.52814Q377.03143 312.1375 377.03143 313.35626ZM385.84393 316.575Q384.54706 316.575 383.73456 315.73126Q382.93768 314.8719 382.93768 313.45L382.93768 313.2625Q382.93768 312.3094 383.29706 311.575Q383.65643 310.825 384.29706 310.41876Q384.9533 309.9969 385.7033 309.9969Q386.93768 309.9969 387.62518 310.8094Q388.31268 311.6219 388.31268 313.1375L388.31268 313.59064L384.0158 313.59064Q384.04706 314.52814 384.56268 315.10626Q385.09393 315.6844 385.90643 315.6844Q386.46893 315.6844 386.85956 315.45Q387.2658 315.21564 387.5783 314.825L388.23456 315.34064Q387.43768 316.575 385.84393 316.575ZM385.7033 310.8875Q385.04706 310.8875 384.59393 311.3719Q384.15643 311.84064 384.06268 312.7L387.23456 312.7L387.23456 312.6219Q387.18768 311.79376 386.78143 311.34064Q386.3908 310.8875 385.7033 310.8875ZM394.56268 313.35626Q394.56268 314.79376 393.90643 315.6844Q393.25018 316.575 392.10956 316.575Q390.9533 316.575 390.29706 315.84064L390.29706 318.8875L389.21893 318.8875L389.21893 310.10626L390.2033 310.10626L390.25018 310.8094Q390.92206 309.9969 392.09393 309.9969Q393.23456 309.9969 393.8908 310.85626Q394.56268 311.71564 394.56268 313.2469L394.56268 313.35626ZM393.48456 313.23126Q393.48456 312.15314 393.0158 311.54376Q392.56268 310.91876 391.7658 310.91876Q390.78143 310.91876 390.29706 311.77814L390.29706 314.8094Q390.78143 315.6844 391.78143 315.6844Q392.56268 315.6844 393.0158 315.075Q393.48456 314.45 393.48456 313.23126ZM397.68768 308.575L397.68768 310.10626L398.85956 310.10626L398.85956 310.95L397.68768 310.95L397.68768 314.8719Q397.68768 315.2625 397.84393 315.45Q398.00018 315.6375 398.37518 315.6375Q398.56268 315.6375 398.8908 315.575L398.8908 316.45Q398.46893 316.575 398.06268 316.575Q397.34393 316.575 396.96893 316.1375Q396.59393 315.6844 396.59393 314.8719L396.59393 310.95L395.43768 310.95L395.43768 310.10626L396.59393 310.10626L396.59393 308.575L397.68768 308.575ZM401.29706 310.8719Q402.0158 309.9969 403.17206 309.9969Q405.18768 309.9969 405.2033 312.2625L405.2033 316.45L404.10956 316.45L404.10956 312.2469Q404.10956 311.575 403.79706 311.2469Q403.50018 310.91876 402.84393 310.91876Q402.31268 310.91876 401.90643 311.2Q401.5158 311.48126 401.29706 311.9344L401.29706 316.45L400.21893 316.45L400.21893 307.45L401.29706 307.45L401.29706 310.8719ZM415.28143 310.1375Q415.28143 310.77814 414.93768 311.27814Q414.59393 311.77814 414.03143 312.0594Q414.68768 312.34064 415.0783 312.90314Q415.46893 313.45 415.46893 314.15314Q415.46893 315.2469 414.71893 315.91876Q413.98456 316.575 412.7658 316.575Q411.53143 316.575 410.78143 315.91876Q410.04706 315.2469 410.04706 314.15314Q410.04706 313.45 410.42206 312.90314Q410.79706 312.34064 411.46893 312.0594Q410.90643 311.77814 410.5783 311.27814Q410.25018 310.77814 410.25018 310.1375Q410.25018 309.0594 410.93768 308.4344Q411.62518 307.79376 412.7658 307.79376Q413.8908 307.79376 414.5783 308.4344Q415.28143 309.0594 415.28143 310.1375ZM414.3908 314.1219Q414.3908 313.40314 413.93768 312.96564Q413.48456 312.5125 412.75018 312.5125Q412.0158 312.5125 411.56268 312.96564Q411.12518 313.40314 411.12518 314.1375Q411.12518 314.85626 411.56268 315.27814Q412.00018 315.6844 412.7658 315.6844Q413.5158 315.6844 413.9533 315.2625Q414.3908 314.84064 414.3908 314.1219ZM412.7658 308.6844Q412.12518 308.6844 411.71893 309.09064Q411.3283 309.48126 411.3283 310.16876Q411.3283 310.8094 411.71893 311.21564Q412.10956 311.6219 412.75018 311.6219Q413.40643 311.6219 413.79706 311.21564Q414.18768 310.8094 414.18768 310.16876Q414.18768 309.5125 413.78143 309.10626Q413.37518 308.6844 412.7658 308.6844Z" fill-rule="nonzero"/><path fill="#757575" d="M483.23492 313.23126Q483.23492 311.7625 483.92242 310.8875Q484.60992 309.9969 485.73492 309.9969Q486.8443 309.9969 487.50055 310.7469L487.50055 307.45L488.57867 307.45L488.57867 316.45L487.57867 316.45L487.5318 315.7625Q486.87555 316.575 485.7193 316.575Q484.62555 316.575 483.92242 315.66876Q483.23492 314.7625 483.23492 313.3094L483.23492 313.23126ZM484.31305 313.35626Q484.31305 314.4344 484.75055 315.04376Q485.20367 315.65314 485.98492 315.65314Q487.01617 315.65314 487.50055 314.71564L487.50055 311.8094Q487.01617 310.91876 486.00055 310.91876Q485.20367 310.91876 484.75055 311.52814Q484.31305 312.1375 484.31305 313.35626ZM493.12555 316.575Q491.82867 316.575 491.01617 315.73126Q490.2193 314.8719 490.2193 313.45L490.2193 313.2625Q490.2193 312.3094 490.57867 311.575Q490.93805 310.825 491.57867 310.41876Q492.23492 309.9969 492.98492 309.9969Q494.2193 309.9969 494.9068 310.8094Q495.5943 311.6219 495.5943 313.1375L495.5943 313.59064L491.29742 313.59064Q491.32867 314.52814 491.8443 315.10626Q492.37555 315.6844 493.18805 315.6844Q493.75055 315.6844 494.14117 315.45Q494.54742 315.21564 494.85992 314.825L495.51617 315.34064Q494.7193 316.575 493.12555 316.575ZM492.98492 310.8875Q492.32867 310.8875 491.87555 311.3719Q491.43805 311.84064 491.3443 312.7L494.51617 312.7L494.51617 312.6219Q494.4693 311.79376 494.06305 311.34064Q493.67242 310.8875 492.98492 310.8875ZM501.8443 313.35626Q501.8443 314.79376 501.18805 315.6844Q500.5318 316.575 499.39117 316.575Q498.23492 316.575 497.57867 315.84064L497.57867 318.8875L496.50055 318.8875L496.50055 310.10626L497.48492 310.10626L497.5318 310.8094Q498.20367 309.9969 499.37555 309.9969Q500.51617 309.9969 501.17242 310.85626Q501.8443 311.71564 501.8443 313.2469L501.8443 313.35626ZM500.76617 313.23126Q500.76617 312.15314 500.29742 311.54376Q499.8443 310.91876 499.04742 310.91876Q498.06305 310.91876 497.57867 311.77814L497.57867 314.8094Q498.06305 315.6844 499.06305 315.6844Q499.8443 315.6844 500.29742 315.075Q500.76617 314.45 500.76617 313.23126ZM504.9693 308.575L504.9693 310.10626L506.14117 310.10626L506.14117 310.95L504.9693 310.95L504.9693 314.8719Q504.9693 315.2625 505.12555 315.45Q505.2818 315.6375 505.6568 315.6375Q505.8443 315.6375 506.17242 315.575L506.17242 316.45Q505.75055 316.575 505.3443 316.575Q504.62555 316.575 504.25055 316.1375Q503.87555 315.6844 503.87555 314.8719L503.87555 310.95L502.7193 310.95L502.7193 310.10626L503.87555 310.10626L503.87555 308.575L504.9693 308.575ZM508.57867 310.8719Q509.29742 309.9969 510.45367 309.9969Q512.4693 309.9969 512.4849 312.2625L512.4849 316.45L511.39117 316.45L511.39117 312.2469Q511.39117 311.575 511.07867 311.2469Q510.7818 310.91876 510.12555 310.91876Q509.5943 310.91876 509.18805 311.2Q508.79742 311.48126 508.57867 311.9344L508.57867 316.45L507.50055 316.45L507.50055 307.45L508.57867 307.45L508.57867 310.8719ZM520.93805 316.45L519.8599 316.45L519.8599 309.23126L517.6724 310.02814L517.6724 309.04376L520.7818 307.8719L520.93805 307.8719L520.93805 316.45ZM528.6412 307.91876L528.6412 308.825L528.43805 308.825Q527.1724 308.85626 526.4224 309.59064Q525.6724 310.3094 525.5474 311.6219Q526.2349 310.85626 527.3912 310.85626Q528.50055 310.85626 529.1724 311.6375Q529.8443 312.41876 529.8443 313.66876Q529.8443 314.98126 529.12555 315.77814Q528.4068 316.575 527.18805 316.575Q525.9693 316.575 525.2037 315.6375Q524.4537 314.6844 524.4537 313.2L524.4537 312.79376Q524.4537 310.4344 525.4537 309.1844Q526.4537 307.9344 528.43805 307.91876L528.6412 307.91876ZM527.2193 311.7625Q526.6568 311.7625 526.18805 312.09064Q525.7193 312.41876 525.5318 312.9344L525.5318 313.325Q525.5318 314.3875 526.00055 315.02814Q526.4849 315.66876 527.18805 315.66876Q527.9224 315.66876 528.3443 315.1375Q528.7662 314.59064 528.7662 313.71564Q528.7662 312.84064 528.3443 312.3094Q527.9224 311.7625 527.2193 311.7625Z" fill-rule="nonzero"/><path fill="#4285f4" d="M223.5 57.416668C223.5 56.864384 223.94771 56.416668 224.5 56.416668L234.5 56.416668C235.05229 56.416668 235.5 56.864384 235.5 57.416668L235.5 67.416664C235.5 67.96895 235.05229 68.416664 234.5 68.416664L224.5 68.416664C223.94771 68.416664 223.5 67.96895 223.5 67.416664Z" fill-rule="nonzero"/><path fill="#757575" d="M246.40625 65.447914L247.98438 60.572914L249.09375 60.572914L246.8125 66.916664L245.98438 66.916664L243.6875 60.572914L244.79688 60.572914L246.40625 65.447914ZM251.5 66.916664L250.42188 66.916664L250.42188 60.572914L251.5 60.572914L251.5 66.916664ZM250.32812 58.90104Q250.32812 58.635414 250.48438 58.447914Q250.65625 58.260414 250.96875 58.260414Q251.28125 58.260414 251.4375 58.447914Q251.60938 58.635414 251.60938 58.90104Q251.60938 59.15104 251.4375 59.33854Q251.28125 59.510414 250.96875 59.510414Q250.65625 59.510414 250.48438 59.33854Q250.32812 59.15104 250.32812 58.90104ZM256.39062 61.541664Q256.14062 61.510414 255.85938 61.510414Q254.78125 61.510414 254.40625 62.416664L254.40625 66.916664L253.32812 66.916664L253.32812 60.572914L254.375 60.572914L254.39062 61.30729Q254.92188 60.46354 255.90625 60.46354Q256.21875 60.46354 256.39062 60.541664L256.39062 61.541664ZM258.79688 59.041664L258.79688 60.572914L259.96875 60.572914L259.96875 61.416664L258.79688 61.416664L258.79688 65.33854Q258.79688 65.729164 258.95312 65.916664Q259.10938 66.104164 259.48438 66.104164Q259.67188 66.104164 260.0 66.041664L260.0 66.916664Q259.57812 67.041664 259.17188 67.041664Q258.45312 67.041664 258.07812 66.604164Q257.70312 66.15104 257.70312 65.33854L257.70312 61.416664L256.54688 61.416664L256.54688 60.572914L257.70312 60.572914L257.70312 59.041664L258.79688 59.041664ZM262.5 66.916664L261.42188 66.916664L261.42188 60.572914L262.5 60.572914L262.5 66.916664ZM261.32812 58.90104Q261.32812 58.635414 261.48438 58.447914Q261.65625 58.260414 261.96875 58.260414Q262.28125 58.260414 262.4375 58.447914Q262.60938 58.635414 262.60938 58.90104Q262.60938 59.15104 262.4375 59.33854Q262.28125 59.510414 261.96875 59.510414Q261.65625 59.510414 261.48438 59.33854Q261.32812 59.15104 261.32812 58.90104ZM264.03125 63.68229Q264.03125 62.760414 264.39062 62.010414Q264.76562 61.260414 265.42188 60.86979Q266.07812 60.46354 266.90625 60.46354Q268.20312 60.46354 269.0 61.354164Q269.8125 62.24479 269.8125 63.74479L269.8125 63.822914Q269.8125 64.74479 269.45312 65.479164Q269.09375 66.21354 268.4375 66.635414Q267.78125 67.041664 266.92188 67.041664Q265.64062 67.041664 264.82812 66.15104Q264.03125 65.24479 264.03125 63.760414L264.03125 63.68229ZM265.125 63.822914Q265.125 64.86979 265.60938 65.510414Q266.10938 66.15104 266.92188 66.15104Q267.75 66.15104 268.23438 65.510414Q268.71875 64.854164 268.71875 63.68229Q268.71875 62.65104 268.21875 62.010414Q267.73438 61.354164 266.90625 61.354164Q266.10938 61.354164 265.60938 61.99479Q265.125 62.61979 265.125 63.822914ZM273.57812 63.729164L270.71875 63.729164L270.71875 62.854164L273.57812 62.854164L273.57812 63.729164ZM279.6875 63.822914Q279.6875 65.27604 279.01562 66.166664Q278.35938 67.041664 277.23438 67.041664Q276.03125 67.041664 275.375 66.18229L275.3125 66.916664L274.32812 66.916664L274.32812 57.916664L275.40625 57.916664L275.40625 61.27604Q276.0625 60.46354 277.21875 60.46354Q278.375 60.46354 279.03125 61.33854Q279.6875 62.197914 279.6875 63.729164L279.6875 63.822914ZM278.60938 63.697914Q278.60938 62.58854 278.17188 61.99479Q277.75 61.385414 276.95312 61.385414Q275.875 61.385414 275.40625 62.36979L275.40625 65.11979Q275.90625 66.11979 276.95312 66.11979Q277.73438 66.11979 278.17188 65.510414Q278.60938 64.90104 278.60938 63.697914ZM282.5 66.916664L281.42188 66.916664L281.42188 57.916664L282.5 57.916664L282.5 66.916664ZM286.09375 63.979164L285.40625 64.68229L285.40625 66.916664L284.32812 66.916664L284.32812 57.916664L285.40625 57.916664L285.40625 63.354164L285.98438 62.666664L287.96875 60.572914L289.28125 60.572914L286.8125 63.229164L289.57812 66.916664L288.29688 66.916664L286.09375 63.979164Z" fill-rule="nonzero"/><path fill="#db4437" d="M305.5 57.416668C305.5 56.864384 305.94772 56.416668 306.5 56.416668L316.5 56.416668C317.05228 56.416668 317.5 56.864384 317.5 57.416668L317.5 67.416664C317.5 67.96895 317.05228 68.416664 316.5 68.416664L306.5 68.416664C305.94772 68.416664 305.5 67.96895 305.5 67.416664Z" fill-rule="nonzero"/><path fill="#757575" d="M328.40625 65.447914L329.98438 60.572914L331.09375 60.572914L328.8125 66.916664L327.98438 66.916664L325.6875 60.572914L326.79688 60.572914L328.40625 65.447914ZM333.5 66.916664L332.42188 66.916664L332.42188 60.572914L333.5 60.572914L333.5 66.916664ZM332.32812 58.90104Q332.32812 58.635414 332.48438 58.447914Q332.65625 58.260414 332.96875 58.260414Q333.28125 58.260414 333.4375 58.447914Q333.60938 58.635414 333.60938 58.90104Q333.60938 59.15104 333.4375 59.33854Q333.28125 59.510414 332.96875 59.510414Q332.65625 59.510414 332.48438 59.33854Q332.32812 59.15104 332.32812 58.90104ZM338.39062 61.541664Q338.14062 61.510414 337.85938 61.510414Q336.78125 61.510414 336.40625 62.416664L336.40625 66.916664L335.32812 66.916664L335.32812 60.572914L336.375 60.572914L336.39062 61.30729Q336.92188 60.46354 337.90625 60.46354Q338.21875 60.46354 338.39062 60.541664L338.39062 61.541664ZM340.79688 59.041664L340.79688 60.572914L341.96875 60.572914L341.96875 61.416664L340.79688 61.416664L340.79688 65.33854Q340.79688 65.729164 340.95312 65.916664Q341.10938 66.104164 341.48438 66.104164Q341.67188 66.104164 342.0 66.041664L342.0 66.916664Q341.57812 67.041664 341.17188 67.041664Q340.45312 67.041664 340.07812 66.604164Q339.70312 66.15104 339.70312 65.33854L339.70312 61.416664L338.54688 61.416664L338.54688 60.572914L339.70312 60.572914L339.70312 59.041664L340.79688 59.041664ZM344.5 66.916664L343.42188 66.916664L343.42188 60.572914L344.5 60.572914L344.5 66.916664ZM343.32812 58.90104Q343.32812 58.635414 343.48438 58.447914Q343.65625 58.260414 343.96875 58.260414Q344.28125 58.260414 344.4375 58.447914Q344.60938 58.635414 344.60938 58.90104Q344.60938 59.15104 344.4375 59.33854Q344.28125 59.510414 343.96875 59.510414Q343.65625 59.510414 343.48438 59.33854Q343.32812 59.15104 343.32812 58.90104ZM346.03125 63.68229Q346.03125 62.760414 346.39062 62.010414Q346.76562 61.260414 347.42188 60.86979Q348.07812 60.46354 348.90625 60.46354Q350.20312 60.46354 351.0 61.354164Q351.8125 62.24479 351.8125 63.74479L351.8125 63.822914Q351.8125 64.74479 351.45312 65.479164Q351.09375 66.21354 350.4375 66.635414Q349.78125 67.041664 348.92188 67.041664Q347.64062 67.041664 346.82812 66.15104Q346.03125 65.24479 346.03125 63.760414L346.03125 63.68229ZM347.125 63.822914Q347.125 64.86979 347.60938 65.510414Q348.10938 66.15104 348.92188 66.15104Q349.75 66.15104 350.23438 65.510414Q350.71875 64.854164 350.71875 63.68229Q350.71875 62.65104 350.21875 62.010414Q349.73438 61.354164 348.90625 61.354164Q348.10938 61.354164 347.60938 61.99479Q347.125 62.61979 347.125 63.822914ZM355.57812 63.729164L352.71875 63.729164L352.71875 62.854164L355.57812 62.854164L355.57812 63.729164ZM360.01562 65.229164Q360.01562 64.791664 359.67188 64.55729Q359.34375 64.30729 358.51562 64.135414Q357.70312 63.96354 357.21875 63.71354Q356.73438 63.46354 356.5 63.135414Q356.28125 62.791664 356.28125 62.322914Q356.28125 61.541664 356.9375 61.010414Q357.59375 60.46354 358.625 60.46354Q359.70312 60.46354 360.35938 61.02604Q361.03125 61.572914 361.03125 62.43229L359.95312 62.43229Q359.95312 61.99479 359.5625 61.68229Q359.1875 61.354164 358.625 61.354164Q358.03125 61.354164 357.6875 61.61979Q357.35938 61.86979 357.35938 62.27604Q357.35938 62.666664 357.67188 62.86979Q357.98438 63.072914 358.79688 63.260414Q359.60938 63.43229 360.10938 63.68229Q360.60938 63.93229 360.84375 64.291664Q361.09375 64.65104 361.09375 65.15104Q361.09375 66.010414 360.40625 66.52604Q359.73438 67.041664 358.65625 67.041664Q357.89062 67.041664 357.29688 66.77604Q356.71875 66.49479 356.39062 66.010414Q356.0625 65.52604 356.0625 64.96354L357.14062 64.96354Q357.17188 65.510414 357.57812 65.83854Q357.98438 66.15104 358.65625 66.15104Q359.26562 66.15104 359.64062 65.90104Q360.01562 65.65104 360.01562 65.229164ZM364.85938 66.15104Q365.4375 66.15104 365.875 65.80729Q366.3125 65.447914 366.35938 64.916664L367.39062 64.916664Q367.35938 65.46354 367.0 65.96354Q366.65625 66.447914 366.07812 66.74479Q365.51562 67.041664 364.85938 67.041664Q363.5625 67.041664 362.79688 66.18229Q362.04688 65.30729 362.04688 63.80729L362.04688 63.61979Q362.04688 62.697914 362.375 61.979164Q362.71875 61.260414 363.34375 60.86979Q363.98438 60.46354 364.85938 60.46354Q365.92188 60.46354 366.625 61.104164Q367.34375 61.729164 367.39062 62.760414L366.35938 62.760414Q366.3125 62.135414 365.89062 61.74479Q365.46875 61.354164 364.85938 61.354164Q364.03125 61.354164 363.57812 61.947914Q363.125 62.541664 363.125 63.666664L363.125 63.86979Q363.125 64.96354 363.57812 65.55729Q364.03125 66.15104 364.85938 66.15104ZM372.01562 65.229164Q372.01562 64.791664 371.67188 64.55729Q371.34375 64.30729 370.51562 64.135414Q369.70312 63.96354 369.21875 63.71354Q368.73438 63.46354 368.5 63.135414Q368.28125 62.791664 368.28125 62.322914Q368.28125 61.541664 368.9375 61.010414Q369.59375 60.46354 370.625 60.46354Q371.70312 60.46354 372.35938 61.02604Q373.03125 61.572914 373.03125 62.43229L371.95312 62.43229Q371.95312 61.99479 371.5625 61.68229Q371.1875 61.354164 370.625 61.354164Q370.03125 61.354164 369.6875 61.61979Q369.35938 61.86979 369.35938 62.27604Q369.35938 62.666664 369.67188 62.86979Q369.98438 63.072914 370.79688 63.260414Q371.60938 63.43229 372.10938 63.68229Q372.60938 63.93229 372.84375 64.291664Q373.09375 64.65104 373.09375 65.15104Q373.09375 66.010414 372.40625 66.52604Q371.73438 67.041664 370.65625 67.041664Q369.89062 67.041664 369.29688 66.77604Q368.71875 66.49479 368.39062 66.010414Q368.0625 65.52604 368.0625 64.96354L369.14062 64.96354Q369.17188 65.510414 369.57812 65.83854Q369.98438 66.15104 370.65625 66.15104Q371.26562 66.15104 371.64062 65.90104Q372.01562 65.65104 372.01562 65.229164ZM375.5 66.916664L374.42188 66.916664L374.42188 60.572914L375.5 60.572914L375.5 66.916664ZM374.32812 58.90104Q374.32812 58.635414 374.48438 58.447914Q374.65625 58.260414 374.96875 58.260414Q375.28125 58.260414 375.4375 58.447914Q375.60938 58.635414 375.60938 58.90104Q375.60938 59.15104 375.4375 59.33854Q375.28125 59.510414 374.96875 59.510414Q374.65625 59.510414 374.48438 59.33854Q374.32812 59.15104 374.32812 58.90104Z" fill-rule="nonzero"/><path fill="#757575" d="M126.359375 35.096874L128.96875 26.9875L130.8125 26.9875L127.03125 37.55L125.65625 37.55L121.828125 26.9875L123.671875 26.9875L126.359375 35.096874ZM134.82812 37.55L133.03125 37.55L133.03125 26.9875L134.82812 26.9875L134.82812 37.55ZM132.875 24.175Q132.875 23.7375 133.14062 23.440624Q133.42188 23.128124 133.9375 23.128124Q134.46875 23.128124 134.73438 23.440624Q135.01562 23.7375 135.01562 24.175Q135.01562 24.6125 134.73438 24.909374Q134.46875 25.20625 133.9375 25.20625Q133.42188 25.20625 133.14062 24.909374Q132.875 24.6125 132.875 24.175ZM142.96875 28.596874Q142.5625 28.534374 142.09375 28.534374Q140.3125 28.534374 139.67188 30.05L139.67188 37.55L137.875 37.55L137.875 26.9875L139.625 26.9875L139.65625 28.20625Q140.54688 26.784374 142.17188 26.784374Q142.70312 26.784374 142.96875 26.925L142.96875 28.596874ZM147.3125 24.425L147.3125 26.9875L149.29688 26.9875L149.29688 28.378124L147.3125 28.378124L147.3125 34.925Q147.3125 35.565624 147.57812 35.89375Q147.84375 36.20625 148.48438 36.20625Q148.79688 36.20625 149.34375 36.08125L149.34375 37.55Q148.625 37.753124 147.95312 37.753124Q146.75 37.753124 146.125 37.01875Q145.51562 36.284374 145.51562 34.925L145.51562 28.378124L143.59375 28.378124L143.59375 26.9875L145.51562 26.9875L145.51562 24.425L147.3125 24.425ZM153.82812 37.55L152.03125 37.55L152.03125 26.9875L153.82812 26.9875L153.82812 37.55ZM151.875 24.175Q151.875 23.7375 152.14062 23.440624Q152.42188 23.128124 152.9375 23.128124Q153.46875 23.128124 153.73438 23.440624Q154.01562 23.7375 154.01562 24.175Q154.01562 24.6125 153.73438 24.909374Q153.46875 25.20625 152.9375 25.20625Q152.42188 25.20625 152.14062 24.909374Q151.875 24.6125 151.875 24.175ZM156.39062 32.175Q156.39062 30.6125 157.0 29.378124Q157.60938 28.128124 158.6875 27.45625Q159.78125 26.784374 161.1875 26.784374Q163.34375 26.784374 164.67188 28.284374Q166.01562 29.76875 166.01562 32.253124L166.01562 32.378124Q166.01562 33.925 165.42188 35.159374Q164.82812 36.378124 163.71875 37.065624Q162.625 37.753124 161.20312 37.753124Q159.0625 37.753124 157.71875 36.253124Q156.39062 34.753124 156.39062 32.3L156.39062 32.175ZM158.20312 32.378124Q158.20312 34.14375 159.01562 35.20625Q159.84375 36.26875 161.20312 36.26875Q162.57812 36.26875 163.39062 35.190624Q164.20312 34.1125 164.20312 32.175Q164.20312 30.425 163.375 29.346874Q162.54688 28.26875 161.1875 28.26875Q159.84375 28.26875 159.01562 29.33125Q158.20312 30.39375 158.20312 32.378124ZM171.625 32.253124L166.85938 32.253124L166.85938 30.76875L171.625 30.76875L171.625 32.253124ZM182.8125 32.378124Q182.8125 34.8 181.70312 36.284374Q180.59375 37.753124 178.71875 37.753124Q176.70312 37.753124 175.60938 36.33125L175.53125 37.55L173.875 37.55L173.875 22.55L175.67188 22.55L175.67188 28.14375Q176.76562 26.784374 178.6875 26.784374Q180.60938 26.784374 181.70312 28.2375Q182.8125 29.690624 182.8125 32.221874L182.8125 32.378124ZM181.0 32.175Q181.0 30.33125 180.28125 29.33125Q179.57812 28.315624 178.25 28.315624Q176.45312 28.315624 175.67188 29.9875L175.67188 34.55Q176.5 36.20625 178.26562 36.20625Q179.5625 36.20625 180.28125 35.20625Q181.0 34.20625 181.0 32.175ZM186.82812 37.55L185.03125 37.55L185.03125 22.55L186.82812 22.55L186.82812 37.55ZM192.8125 32.659374L191.6875 33.83125L191.6875 37.55L189.875 37.55L189.875 22.55L191.6875 22.55L191.6875 31.628124L192.65625 30.45625L195.9375 26.9875L198.14062 26.9875L194.03125 31.39375L198.625 37.55L196.5 37.55L192.8125 32.659374ZM208.35938 35.096874L210.96875 26.9875L212.8125 26.9875L209.03125 37.55L207.65625 37.55L203.82812 26.9875L205.67188 26.9875L208.35938 35.096874ZM221.01562 34.753124Q221.01562 34.01875 220.46875 33.6125Q219.92188 33.20625 218.54688 32.909374Q217.17188 32.6125 216.35938 32.20625Q215.5625 31.8 215.17188 31.2375Q214.79688 30.659374 214.79688 29.878124Q214.79688 28.58125 215.89062 27.690624Q216.98438 26.784374 218.70312 26.784374Q220.5 26.784374 221.60938 27.721874Q222.73438 28.64375 222.73438 30.08125L220.90625 30.08125Q220.90625 29.346874 220.28125 28.815624Q219.65625 28.26875 218.70312 28.26875Q217.70312 28.26875 217.14062 28.70625Q216.59375 29.128124 216.59375 29.83125Q216.59375 30.471874 217.10938 30.815624Q217.625 31.14375 218.98438 31.45625Q220.34375 31.753124 221.17188 32.175Q222.01562 32.58125 222.42188 33.175Q222.82812 33.76875 222.82812 34.6125Q222.82812 36.034374 221.6875 36.89375Q220.5625 37.753124 218.75 37.753124Q217.48438 37.753124 216.5 37.3Q215.53125 36.846874 214.96875 36.05Q214.42188 35.2375 214.42188 34.3L216.23438 34.3Q216.28125 35.20625 216.95312 35.7375Q217.64062 36.26875 218.75 36.26875Q219.78125 36.26875 220.39062 35.8625Q221.01562 35.440624 221.01562 34.753124ZM224.90625 36.596874Q224.90625 36.128124 225.1875 35.815624Q225.46875 35.503124 226.01562 35.503124Q226.57812 35.503124 226.85938 35.815624Q227.15625 36.128124 227.15625 36.596874Q227.15625 37.05 226.85938 37.3625Q226.57812 37.659374 226.01562 37.659374Q225.46875 37.659374 225.1875 37.3625Q224.90625 37.05 224.90625 36.596874ZM238.35938 35.096874L240.96875 26.9875L242.8125 26.9875L239.03125 37.55L237.65625 37.55L233.82812 26.9875L235.67188 26.9875L238.35938 35.096874ZM246.82812 37.55L245.03125 37.55L245.03125 26.9875L246.82812 26.9875L246.82812 37.55ZM244.875 24.175Q244.875 23.7375 245.14062 23.440624Q245.42188 23.128124 245.9375 23.128124Q246.46875 23.128124 246.73438 23.440624Q247.01562 23.7375 247.01562 24.175Q247.01562 24.6125 246.73438 24.909374Q246.46875 25.20625 245.9375 25.20625Q245.42188 25.20625 245.14062 24.909374Q244.875 24.6125 244.875 24.175ZM254.96875 28.596874Q254.5625 28.534374 254.09375 28.534374Q252.3125 28.534374 251.67188 30.05L251.67188 37.55L249.875 37.55L249.875 26.9875L251.625 26.9875L251.65625 28.20625Q252.54688 26.784374 254.17188 26.784374Q254.70312 26.784374 254.96875 26.925L254.96875 28.596874ZM259.3125 24.425L259.3125 26.9875L261.29688 26.9875L261.29688 28.378124L259.3125 28.378124L259.3125 34.925Q259.3125 35.565624 259.57812 35.89375Q259.84375 36.20625 260.48438 36.20625Q260.79688 36.20625 261.34375 36.08125L261.34375 37.55Q260.625 37.753124 259.95312 37.753124Q258.75 37.753124 258.125 37.01875Q257.51562 36.284374 257.51562 34.925L257.51562 28.378124L255.59375 28.378124L255.59375 26.9875L257.51562 26.9875L257.51562 24.425L259.3125 24.425ZM265.82812 37.55L264.03125 37.55L264.03125 26.9875L265.82812 26.9875L265.82812 37.55ZM263.875 24.175Q263.875 23.7375 264.14062 23.440624Q264.42188 23.128124 264.9375 23.128124Q265.46875 23.128124 265.73438 23.440624Q266.01562 23.7375 266.01562 24.175Q266.01562 24.6125 265.73438 24.909374Q265.46875 25.20625 264.9375 25.20625Q264.42188 25.20625 264.14062 24.909374Q263.875 24.6125 263.875 24.175ZM268.39062 32.175Q268.39062 30.6125 269.0 29.378124Q269.60938 28.128124 270.6875 27.45625Q271.78125 26.784374 273.1875 26.784374Q275.34375 26.784374 276.67188 28.284374Q278.01562 29.76875 278.01562 32.253124L278.01562 32.378124Q278.01562 33.925 277.42188 35.159374Q276.82812 36.378124 275.71875 37.065624Q274.625 37.753124 273.20312 37.753124Q271.0625 37.753124 269.71875 36.253124Q268.39062 34.753124 268.39062 32.3L268.39062 32.175ZM270.20312 32.378124Q270.20312 34.14375 271.01562 35.20625Q271.84375 36.26875 273.20312 36.26875Q274.57812 36.26875 275.39062 35.190624Q276.20312 34.1125 276.20312 32.175Q276.20312 30.425 275.375 29.346874Q274.54688 28.26875 273.1875 28.26875Q271.84375 28.26875 271.01562 29.33125Q270.20312 30.39375 270.20312 32.378124ZM283.625 32.253124L278.85938 32.253124L278.85938 30.76875L283.625 30.76875L283.625 32.253124ZM292.01562 34.753124Q292.01562 34.01875 291.46875 33.6125Q290.92188 33.20625 289.54688 32.909374Q288.17188 32.6125 287.35938 32.20625Q286.5625 31.8 286.17188 31.2375Q285.79688 30.659374 285.79688 29.878124Q285.79688 28.58125 286.89062 27.690624Q287.98438 26.784374 289.70312 26.784374Q291.5 26.784374 292.60938 27.721874Q293.73438 28.64375 293.73438 30.08125L291.90625 30.08125Q291.90625 29.346874 291.28125 28.815624Q290.65625 28.26875 289.70312 28.26875Q288.70312 28.26875 288.14062 28.70625Q287.59375 29.128124 287.59375 29.83125Q287.59375 30.471874 288.10938 30.815624Q288.625 31.14375 289.98438 31.45625Q291.34375 31.753124 292.17188 32.175Q293.01562 32.58125 293.42188 33.175Q293.82812 33.76875 293.82812 34.6125Q293.82812 36.034374 292.6875 36.89375Q291.5625 37.753124 289.75 37.753124Q288.48438 37.753124 287.5 37.3Q286.53125 36.846874 285.96875 36.05Q285.42188 35.2375 285.42188 34.3L287.23438 34.3Q287.28125 35.20625 287.95312 35.7375Q288.64062 36.26875 289.75 36.26875Q290.78125 36.26875 291.39062 35.8625Q292.01562 35.440624 292.01562 34.753124ZM300.10938 36.26875Q301.07812 36.26875 301.79688 35.690624Q302.51562 35.096874 302.59375 34.221874L304.3125 34.221874Q304.25 35.128124 303.67188 35.95625Q303.10938 36.76875 302.14062 37.26875Q301.1875 37.753124 300.10938 37.753124Q297.95312 37.753124 296.67188 36.315624Q295.40625 34.8625 295.40625 32.3625L295.40625 32.065624Q295.40625 30.51875 295.96875 29.315624Q296.53125 28.1125 297.59375 27.45625Q298.65625 26.784374 300.09375 26.784374Q301.875 26.784374 303.04688 27.846874Q304.23438 28.909374 304.3125 30.6125L302.59375 30.6125Q302.51562 29.596874 301.8125 28.940624Q301.125 28.26875 300.09375 28.26875Q298.71875 28.26875 297.95312 29.26875Q297.20312 30.253124 297.20312 32.128124L297.20312 32.471874Q297.20312 34.3 297.95312 35.284374Q298.70312 36.26875 300.10938 36.26875ZM312.01562 34.753124Q312.01562 34.01875 311.46875 33.6125Q310.92188 33.20625 309.54688 32.909374Q308.17188 32.6125 307.35938 32.20625Q306.5625 31.8 306.17188 31.2375Q305.79688 30.659374 305.79688 29.878124Q305.79688 28.58125 306.89062 27.690624Q307.98438 26.784374 309.70312 26.784374Q311.5 26.784374 312.60938 27.721874Q313.73438 28.64375 313.73438 30.08125L311.90625 30.08125Q311.90625 29.346874 311.28125 28.815624Q310.65625 28.26875 309.70312 28.26875Q308.70312 28.26875 308.14062 28.70625Q307.59375 29.128124 307.59375 29.83125Q307.59375 30.471874 308.10938 30.815624Q308.625 31.14375 309.98438 31.45625Q311.34375 31.753124 312.17188 32.175Q313.01562 32.58125 313.42188 33.175Q313.82812 33.76875 313.82812 34.6125Q313.82812 36.034374 312.6875 36.89375Q311.5625 37.753124 309.75 37.753124Q308.48438 37.753124 307.5 37.3Q306.53125 36.846874 305.96875 36.05Q305.42188 35.2375 305.42188 34.3L307.23438 34.3Q307.28125 35.20625 307.95312 35.7375Q308.64062 36.26875 309.75 36.26875Q310.78125 36.26875 311.39062 35.8625Q312.01562 35.440624 312.01562 34.753124ZM317.82812 37.55L316.03125 37.55L316.03125 26.9875L317.82812 26.9875L317.82812 37.55ZM315.875 24.175Q315.875 23.7375 316.14062 23.440624Q316.42188 23.128124 316.9375 23.128124Q317.46875 23.128124 317.73438 23.440624Q318.01562 23.7375 318.01562 24.175Q318.01562 24.6125 317.73438 24.909374Q317.46875 25.20625 316.9375 25.20625Q316.42188 25.20625 316.14062 24.909374Q315.875 24.6125 315.875 24.175ZM325.79688 31.784374Q325.79688 29.565624 326.39062 27.534374Q326.98438 25.503124 328.15625 23.846874Q329.32812 22.190624 330.57812 21.503124L330.95312 22.690624Q329.53125 23.784374 328.60938 26.034374Q327.70312 28.284374 327.60938 31.065624L327.60938 31.89375Q327.60938 35.659374 328.98438 38.440624Q329.8125 40.096874 330.95312 41.034374L330.57812 42.14375Q329.28125 41.425 328.10938 39.721874Q325.79688 36.39375 325.79688 31.784374ZM337.96875 28.596874Q337.5625 28.534374 337.09375 28.534374Q335.3125 28.534374 334.67188 30.05L334.67188 37.55L332.875 37.55L332.875 26.9875L334.625 26.9875L334.65625 28.20625Q335.54688 26.784374 337.17188 26.784374Q337.70312 26.784374 337.96875 26.925L337.96875 28.596874ZM346.39062 37.55Q346.23438 37.2375 346.14062 36.440624Q344.875 37.753124 343.125 37.753124Q341.5625 37.753124 340.5625 36.8625Q339.5625 35.971874 339.5625 34.6125Q339.5625 32.971874 340.8125 32.065624Q342.07812 31.14375 344.34375 31.14375L346.10938 31.14375L346.10938 30.315624Q346.10938 29.3625 345.53125 28.8Q344.96875 28.2375 343.875 28.2375Q342.90625 28.2375 342.25 28.7375Q341.59375 29.221874 341.59375 29.909374L339.78125 29.909374Q339.78125 29.128124 340.34375 28.39375Q340.90625 27.64375 341.85938 27.221874Q342.82812 26.784374 343.98438 26.784374Q345.8125 26.784374 346.84375 27.70625Q347.875 28.6125 347.92188 30.221874L347.92188 35.08125Q347.92188 36.534374 348.28125 37.39375L348.28125 37.55L346.39062 37.55ZM343.39062 36.175Q344.25 36.175 345.0 35.7375Q345.76562 35.3 346.10938 34.596874L346.10938 32.425L344.6875 32.425Q341.375 32.425 341.375 34.3625Q341.375 35.221874 341.9375 35.70625Q342.5 36.175 343.39062 36.175ZM352.57812 26.9875L352.64062 28.315624Q353.84375 26.784374 355.79688 26.784374Q359.15625 26.784374 359.17188 30.565624L359.17188 37.55L357.375 37.55L357.375 30.55Q357.35938 29.409374 356.84375 28.8625Q356.34375 28.315624 355.25 28.315624Q354.375 28.315624 353.70312 28.784374Q353.04688 29.253124 352.67188 30.01875L352.67188 37.55L350.875 37.55L350.875 26.9875L352.57812 26.9875ZM361.42188 32.175Q361.42188 29.753124 362.57812 28.26875Q363.73438 26.784374 365.59375 26.784374Q367.45312 26.784374 368.53125 28.05L368.53125 22.55L370.34375 22.55L370.34375 37.55L368.6875 37.55L368.59375 36.409374Q367.51562 37.753124 365.57812 37.753124Q363.75 37.753124 362.57812 36.253124Q361.42188 34.7375 361.42188 32.315624L361.42188 32.175ZM363.23438 32.378124Q363.23438 34.175 363.96875 35.190624Q364.71875 36.20625 366.03125 36.20625Q367.75 36.20625 368.53125 34.675L368.53125 29.815624Q367.73438 28.315624 366.04688 28.315624Q364.71875 28.315624 363.96875 29.346874Q363.23438 30.378124 363.23438 32.378124ZM372.39062 32.175Q372.39062 30.6125 373.0 29.378124Q373.60938 28.128124 374.6875 27.45625Q375.78125 26.784374 377.1875 26.784374Q379.34375 26.784374 380.67188 28.284374Q382.01562 29.76875 382.01562 32.253124L382.01562 32.378124Q382.01562 33.925 381.42188 35.159374Q380.82812 36.378124 379.71875 37.065624Q378.625 37.753124 377.20312 37.753124Q375.0625 37.753124 373.71875 36.253124Q372.39062 34.753124 372.39062 32.3L372.39062 32.175ZM374.20312 32.378124Q374.20312 34.14375 375.01562 35.20625Q375.84375 36.26875 377.20312 36.26875Q378.57812 36.26875 379.39062 35.190624Q380.20312 34.1125 380.20312 32.175Q380.20312 30.425 379.375 29.346874Q378.54688 28.26875 377.1875 28.26875Q375.84375 28.26875 375.01562 29.33125Q374.20312 30.39375 374.20312 32.378124ZM385.5625 26.9875L385.60938 28.159374Q386.78125 26.784374 388.75 26.784374Q390.96875 26.784374 391.76562 28.4875Q392.29688 27.721874 393.14062 27.253124Q393.98438 26.784374 395.14062 26.784374Q398.60938 26.784374 398.67188 30.471874L398.67188 37.55L396.85938 37.55L396.85938 30.58125Q396.85938 29.440624 396.34375 28.878124Q395.82812 28.315624 394.60938 28.315624Q393.60938 28.315624 392.9375 28.925Q392.28125 29.51875 392.17188 30.534374L392.17188 37.55L390.35938 37.55L390.35938 30.628124Q390.35938 28.315624 388.09375 28.315624Q386.3125 28.315624 385.67188 29.83125L385.67188 37.55L383.85938 37.55L383.85938 26.9875L385.5625 26.9875ZM411.96875 28.596874Q411.5625 28.534374 411.09375 28.534374Q409.3125 28.534374 408.67188 30.05L408.67188 37.55L406.875 37.55L406.875 26.9875L408.625 26.9875L408.65625 28.20625Q409.54688 26.784374 411.17188 26.784374Q411.70312 26.784374 411.96875 26.925L411.96875 28.596874ZM418.25 37.753124Q416.10938 37.753124 414.75 36.346874Q413.40625 34.925 413.40625 32.565624L413.40625 32.221874Q413.40625 30.659374 414.0 29.425Q414.60938 28.190624 415.6875 27.4875Q416.76562 26.784374 418.03125 26.784374Q420.09375 26.784374 421.23438 28.14375Q422.375 29.503124 422.375 32.034374L422.375 32.784374L415.21875 32.784374Q415.25 34.346874 416.125 35.315624Q417.0 36.26875 418.34375 36.26875Q419.3125 36.26875 419.96875 35.878124Q420.64062 35.4875 421.14062 34.846874L422.23438 35.70625Q420.90625 37.753124 418.25 37.753124ZM418.03125 28.26875Q416.9375 28.26875 416.1875 29.065624Q415.45312 29.8625 415.28125 31.3L420.5625 31.3L420.5625 31.159374Q420.48438 29.784374 419.8125 29.034374Q419.15625 28.26875 418.03125 28.26875ZM431.39062 37.55Q431.23438 37.2375 431.14062 36.440624Q429.875 37.753124 428.125 37.753124Q426.5625 37.753124 425.5625 36.8625Q424.5625 35.971874 424.5625 34.6125Q424.5625 32.971874 425.8125 32.065624Q427.07812 31.14375 429.34375 31.14375L431.10938 31.14375L431.10938 30.315624Q431.10938 29.3625 430.53125 28.8Q429.96875 28.2375 428.875 28.2375Q427.90625 28.2375 427.25 28.7375Q426.59375 29.221874 426.59375 29.909374L424.78125 29.909374Q424.78125 29.128124 425.34375 28.39375Q425.90625 27.64375 426.85938 27.221874Q427.82812 26.784374 428.98438 26.784374Q430.8125 26.784374 431.84375 27.70625Q432.875 28.6125 432.92188 30.221874L432.92188 35.08125Q432.92188 36.534374 433.28125 37.39375L433.28125 37.55L431.39062 37.55ZM428.39062 36.175Q429.25 36.175 430.0 35.7375Q430.76562 35.3 431.10938 34.596874L431.10938 32.425L429.6875 32.425Q426.375 32.425 426.375 34.3625Q426.375 35.221874 426.9375 35.70625Q427.5 36.175 428.39062 36.175ZM435.42188 32.175Q435.42188 29.753124 436.57812 28.26875Q437.73438 26.784374 439.59375 26.784374Q441.45312 26.784374 442.53125 28.05L442.53125 22.55L444.34375 22.55L444.34375 37.55L442.6875 37.55L442.59375 36.409374Q441.51562 37.753124 439.57812 37.753124Q437.75 37.753124 436.57812 36.253124Q435.42188 34.7375 435.42188 32.315624L435.42188 32.175ZM437.23438 32.378124Q437.23438 34.175 437.96875 35.190624Q438.71875 36.20625 440.03125 36.20625Q441.75 36.20625 442.53125 34.675L442.53125 29.815624Q441.73438 28.315624 440.04688 28.315624Q438.71875 28.315624 437.96875 29.346874Q437.23438 30.378124 437.23438 32.378124ZM459.3125 32.76875L461.28125 32.76875L461.28125 34.253124L459.3125 34.253124L459.3125 37.55L457.5 37.55L457.5 34.253124L451.01562 34.253124L451.01562 33.190624L457.39062 23.33125L459.3125 23.33125L459.3125 32.76875ZM453.0625 32.76875L457.5 32.76875L457.5 25.8L457.28125 26.190624L453.0625 32.76875ZM465.8125 32.659374L464.6875 33.83125L464.6875 37.55L462.875 37.55L462.875 22.55L464.6875 22.55L464.6875 31.628124L465.65625 30.45625L468.9375 26.9875L471.14062 26.9875L467.03125 31.39375L471.625 37.55L469.5 37.55L465.8125 32.659374ZM477.03125 31.878124Q477.03125 34.05 476.45312 36.05Q475.89062 38.05 474.71875 39.7375Q473.54688 41.425 472.25 42.14375L471.875 41.034374Q473.375 39.878124 474.28125 37.45625Q475.20312 35.034374 475.21875 32.065624L475.21875 31.753124Q475.21875 29.70625 474.78125 27.940624Q474.35938 26.175 473.59375 24.784374Q472.82812 23.39375 471.875 22.6125L472.25 21.503124Q473.54688 22.221874 474.70312 23.89375Q475.875 25.55 476.45312 27.565624Q477.03125 29.58125 477.03125 31.878124Z" fill-rule="nonzero"/></svg>