<svg version="1.1" viewBox="0.0 0.0 600.0 371.0" fill="none" stroke="none" stroke-linecap="square" stroke-miterlimit="10" width="600" height="371" xmlns:xlink="http://www.w3.org/1999/xlink" xmlns="http://www.w3.org/2000/svg"><path fill="#ffffff" d="M0 0L600.0 0L600.0 371.0L0 371.0L0 0Z" fill-rule="nonzero"/><path stroke="#333333" stroke-width="1.0" stroke-linecap="butt" d="M81.5 331.5L469.5 331.5" fill-rule="nonzero"/><path stroke="#cccccc" stroke-width="1.0" stroke-linecap="butt" d="M81.5 277.5L469.5 277.5" fill-rule="nonzero"/><path stroke="#cccccc" stroke-width="1.0" stroke-linecap="butt" d="M81.5 222.5L469.5 222.5" fill-rule="nonzero"/><path stroke="#cccccc" stroke-width="1.0" stroke-linecap="butt" d="M81.5 168.5L469.5 168.5" fill-rule="nonzero"/><path stroke="#cccccc" stroke-width="1.0" stroke-linecap="butt" d="M81.5 113.5L469.5 113.5" fill-rule="nonzero"/><path stroke="#cccccc" stroke-width="1.0" stroke-linecap="butt" d="M81.5 59.5L469.5 59.5" fill-rule="nonzero"/><clipPath id="id_0"><path d="M81.55 59.416668L469.4811 59.416668L469.4811 331.45L81.55 331.45L81.55 59.416668Z" clip-rule="nonzero"/></clipPath><path stroke="#000000" stroke-width="0.0" stroke-linecap="butt" stroke-opacity="0.0" clip-path="url(#id_0)" d="M159.0 331.0L122.0 331.0L122.0 269.0C122.0 267.89542 122.89543 267.0 124.0 267.0L157.0 267.0C158.10457 267.0 159.0 267.89542 159.0 269.0Z" fill-rule="nonzero"/><path fill="#6d9eeb" clip-path="url(#id_0)" d="M159.0 331.0L122.0 331.0L122.0 269.0C122.0 267.89542 122.89543 267.0 124.0 267.0L157.0 267.0C158.10457 267.0 159.0 267.89542 159.0 269.0Z" fill-rule="nonzero"/><path stroke="#000000" stroke-width="0.0" stroke-linecap="butt" stroke-opacity="0.0" clip-path="url(#id_0)" d="M275.0 331.0L238.0 331.0L238.0 270.0C238.0 268.89542 238.89543 268.0 240.0 268.0L273.0 268.0C274.10458 268.0 275.0 268.89542 275.0 270.0Z" fill-rule="nonzero"/><path fill="#6d9eeb" clip-path="url(#id_0)" d="M275.0 331.0L238.0 331.0L238.0 270.0C238.0 268.89542 238.89543 268.0 240.0 268.0L273.0 268.0C274.10458 268.0 275.0 268.89542 275.0 270.0Z" fill-rule="nonzero"/><path stroke="#000000" stroke-width="0.0" stroke-linecap="butt" stroke-opacity="0.0" clip-path="url(#id_0)" d="M390.0 331.0L353.0 331.0L353.0 272.0C353.0 270.89542 353.89542 270.0 355.0 270.0L388.0 270.0C389.10458 270.0 390.0 270.89542 390.0 272.0Z" fill-rule="nonzero"/><path fill="#6d9eeb" clip-path="url(#id_0)" d="M390.0 331.0L353.0 331.0L353.0 272.0C353.0 270.89542 353.89542 270.0 355.0 270.0L388.0 270.0C389.10458 270.0 390.0 270.89542 390.0 272.0Z" fill-rule="nonzero"/><path stroke="#000000" stroke-width="0.0" stroke-linecap="butt" stroke-opacity="0.0" clip-path="url(#id_0)" d="M197.0 331.0L160.0 331.0L160.0 100.0C160.0 98.89543 160.89543 98.0 162.0 98.0L195.0 98.0C196.10457 98.0 197.0 98.89543 197.0 100.0Z" fill-rule="nonzero"/><path fill="#1c4587" clip-path="url(#id_0)" d="M197.0 331.0L160.0 331.0L160.0 100.0C160.0 98.89543 160.89543 98.0 162.0 98.0L195.0 98.0C196.10457 98.0 197.0 98.89543 197.0 100.0Z" fill-rule="nonzero"/><path stroke="#000000" stroke-width="0.0" stroke-linecap="butt" stroke-opacity="0.0" clip-path="url(#id_0)" d="M313.0 331.0L276.0 331.0L276.0 105.0C276.0 103.89543 276.89542 103.0 278.0 103.0L311.0 103.0C312.10458 103.0 313.0 103.89543 313.0 105.0Z" fill-rule="nonzero"/><path fill="#1c4587" clip-path="url(#id_0)" d="M313.0 331.0L276.0 331.0L276.0 105.0C276.0 103.89543 276.89542 103.0 278.0 103.0L311.0 103.0C312.10458 103.0 313.0 103.89543 313.0 105.0Z" fill-rule="nonzero"/><path stroke="#000000" stroke-width="0.0" stroke-linecap="butt" stroke-opacity="0.0" clip-path="url(#id_0)" d="M428.0 331.0L391.0 331.0L391.0 127.0C391.0 125.89543 391.89542 125.0 393.0 125.0L426.0 125.0C427.10458 125.0 428.0 125.89543 428.0 127.0Z" fill-rule="nonzero"/><path fill="#1c4587" clip-path="url(#id_0)" d="M428.0 331.0L391.0 331.0L391.0 127.0C391.0 125.89543 391.89542 125.0 393.0 125.0L426.0 125.0C427.10458 125.0 428.0 125.89543 428.0 127.0Z" fill-rule="nonzero"/><path fill="#b7b7b7" d="M28.550013 212.41771L28.550013 213.32396L21.440638 212.08958L21.440638 211.18333L28.550013 212.41771ZM28.643763 207.79271Q28.628138 208.46458 28.315638 208.96458Q28.003138 209.46458 27.393763 209.76146Q26.784388 210.04271 26.034388 210.07396Q25.440638 210.10521 24.581263 209.94896Q23.706263 209.77708 23.018763 209.38646Q22.315638 208.99583 21.893763 208.41771Q21.315638 207.65208 21.346888 206.66771Q21.362513 205.63646 22.065638 205.04271Q22.768763 204.43333 23.956263 204.38646Q24.471888 204.37083 25.268763 204.49583Q26.050013 204.62083 26.737513 204.94896Q27.409388 205.26146 27.878138 205.74583Q28.675013 206.60521 28.643763 207.79271ZM24.190638 205.29271Q23.221888 205.26146 22.690638 205.63646Q22.159388 205.99583 22.143763 206.71458Q22.128138 207.37083 22.503138 207.88646Q22.862513 208.40208 23.612513 208.73021Q24.346888 209.05833 25.471888 209.15208L25.800013 209.16771Q26.753138 209.19896 27.300013 208.82396Q27.831263 208.44896 27.862513 207.74583Q27.878138 206.82396 27.190638 206.21458Q26.503138 205.60521 25.253138 205.40208Q24.628138 205.30833 24.190638 205.29271ZM25.768763 201.99583L28.550013 202.48021L28.550013 203.40208L21.440638 202.15208L21.440638 199.79271Q21.440638 198.68333 22.034388 198.08958Q22.612513 197.49583 23.581263 197.57396Q24.596888 197.66771 25.190638 198.40208Q25.768763 199.12083 25.768763 200.30833L25.768763 201.99583ZM25.003138 201.85521L25.003138 200.27708Q25.003138 199.52708 24.628138 199.05833Q24.253138 198.57396 23.581263 198.49583Q22.987513 198.41771 22.612513 198.74583Q22.237513 199.07396 22.221888 199.69896L22.206263 201.37083L25.003138 201.85521ZM26.721888 193.40208Q25.940638 193.29271 25.581263 194.21458L25.268763 195.05833L25.143763 195.33958Q24.503138 196.76146 23.315638 196.66771Q22.721888 196.62083 22.268763 196.27708Q21.815638 195.91771 21.581263 195.32396Q21.331263 194.73021 21.346888 194.07396Q21.362513 193.41771 21.643763 192.91771Q21.909388 192.41771 22.393763 192.15208Q22.878138 191.88646 23.503138 191.91771L23.503138 192.83958Q22.846888 192.79271 22.487513 193.13646Q22.128138 193.48021 22.112513 194.10521Q22.096888 194.77708 22.425013 195.23021Q22.753138 195.68333 23.300013 195.74583Q24.034388 195.83958 24.409388 194.85521L24.675013 194.12083L24.831263 193.76146Q25.456263 192.38646 26.706263 192.48021Q27.315638 192.54271 27.753138 192.90208Q28.190638 193.24583 28.425013 193.85521Q28.659388 194.44896 28.643763 195.13646Q28.643763 195.80833 28.362513 196.37083Q28.081263 196.91771 27.596888 197.21458Q27.096888 197.49583 26.487513 197.46458L26.487513 196.54271Q27.128138 196.58958 27.503138 196.19896Q27.878138 195.80833 27.893763 195.10521Q27.893763 194.38646 27.581263 193.93333Q27.253138 193.48021 26.721888 193.40208Z" fill-rule="nonzero"/><path fill="#b7b7b7" d="M75.59688 331.91876Q75.59688 333.4969 75.05 334.27814Q74.51875 335.04376 73.3625 335.04376Q72.22188 335.04376 71.675 334.29376Q71.12813 333.54376 71.1125 332.04376L71.1125 330.84064Q71.1125 329.2625 71.64375 328.5125Q72.19063 327.7469 73.34688 327.7469Q74.50313 327.7469 75.03438 328.48126Q75.58125 329.21564 75.59688 330.7469L75.59688 331.91876ZM74.69063 330.6844Q74.69063 329.52814 74.3625 329.0125Q74.05 328.48126 73.34688 328.48126Q72.65938 328.48126 72.33125 329.0125Q72.01875 329.52814 72.01875 330.60626L72.01875 332.0594Q72.01875 333.21564 72.34688 333.7625Q72.69063 334.3094 73.3625 334.3094Q74.03438 334.3094 74.34688 333.79376Q74.675 333.27814 74.69063 332.16876L74.69063 330.6844Z" fill-rule="nonzero"/><path fill="#b7b7b7" d="M50.1125 280.54333L49.20625 280.54333L49.20625 274.5277L47.378124 275.18396L47.378124 274.37146L49.971874 273.4027L50.1125 273.4027L50.1125 280.54333ZM57.596874 277.5121Q57.596874 279.0902 57.05 279.87146Q56.51875 280.6371 55.3625 280.6371Q54.221874 280.6371 53.675 279.8871Q53.128124 279.1371 53.1125 277.6371L53.1125 276.43396Q53.1125 274.85583 53.64375 274.10583Q54.190624 273.3402 55.346874 273.3402Q56.503124 273.3402 57.034374 274.0746Q57.58125 274.80896 57.596874 276.3402L57.596874 277.5121ZM56.690624 276.2777Q56.690624 275.12146 56.3625 274.60583Q56.05 274.0746 55.346874 274.0746Q54.659374 274.0746 54.33125 274.60583Q54.01875 275.12146 54.01875 276.1996L54.01875 277.6527Q54.01875 278.80896 54.346874 279.35583Q54.690624 279.9027 55.3625 279.9027Q56.034374 279.9027 56.346874 279.3871Q56.675 278.87146 56.690624 277.7621L56.690624 276.2777ZM63.596874 277.5121Q63.596874 279.0902 63.05 279.87146Q62.51875 280.6371 61.3625 280.6371Q60.221874 280.6371 59.675 279.8871Q59.128124 279.1371 59.1125 277.6371L59.1125 276.43396Q59.1125 274.85583 59.64375 274.10583Q60.190624 273.3402 61.346874 273.3402Q62.503124 273.3402 63.034374 274.0746Q63.58125 274.80896 63.596874 276.3402L63.596874 277.5121ZM62.690624 276.2777Q62.690624 275.12146 62.3625 274.60583Q62.05 274.0746 61.346874 274.0746Q60.659374 274.0746 60.33125 274.60583Q60.01875 275.12146 60.01875 276.1996L60.01875 277.6527Q60.01875 278.80896 60.346874 279.35583Q60.690624 279.9027 61.3625 279.9027Q62.034374 279.9027 62.346874 279.3871Q62.675 278.87146 62.690624 277.7621L62.690624 276.2777ZM69.59688 277.5121Q69.59688 279.0902 69.05 279.87146Q68.51875 280.6371 67.3625 280.6371Q66.22188 280.6371 65.675 279.8871Q65.12813 279.1371 65.1125 277.6371L65.1125 276.43396Q65.1125 274.85583 65.64375 274.10583Q66.19063 273.3402 67.34688 273.3402Q68.50313 273.3402 69.03438 274.0746Q69.58125 274.80896 69.59688 276.3402L69.59688 277.5121ZM68.69063 276.2777Q68.69063 275.12146 68.3625 274.60583Q68.05 274.0746 67.34688 274.0746Q66.65938 274.0746 66.33125 274.60583Q66.01875 275.12146 66.01875 276.1996L66.01875 277.6527Q66.01875 278.80896 66.34688 279.35583Q66.69063 279.9027 67.3625 279.9027Q68.03438 279.9027 68.34688 279.3871Q68.675 278.87146 68.69063 277.7621L68.69063 276.2777ZM75.59688 277.5121Q75.59688 279.0902 75.05 279.87146Q74.51875 280.6371 73.3625 280.6371Q72.22188 280.6371 71.675 279.8871Q71.12813 279.1371 71.1125 277.6371L71.1125 276.43396Q71.1125 274.85583 71.64375 274.10583Q72.19063 273.3402 73.34688 273.3402Q74.50313 273.3402 75.03438 274.0746Q75.58125 274.80896 75.59688 276.3402L75.59688 277.5121ZM74.69063 276.2777Q74.69063 275.12146 74.3625 274.60583Q74.05 274.0746 73.34688 274.0746Q72.65938 274.0746 72.33125 274.60583Q72.01875 275.12146 72.01875 276.1996L72.01875 277.6527Q72.01875 278.80896 72.34688 279.35583Q72.69063 279.9027 73.3625 279.9027Q74.03438 279.9027 74.34688 279.3871Q74.675 278.87146 74.69063 277.7621L74.69063 276.2777Z" fill-rule="nonzero"/><path fill="#b7b7b7" d="M51.8 226.13667L47.14375 226.13667L47.14375 225.48042L49.596874 222.74605Q50.14375 222.13667 50.346874 221.74605Q50.565624 221.35542 50.565624 220.93355Q50.565624 220.38667 50.221874 220.0273Q49.89375 219.66792 49.33125 219.66792Q48.659374 219.66792 48.284374 220.05855Q47.909374 220.43355 47.909374 221.12105L47.003124 221.12105Q47.003124 220.13667 47.628124 219.54292Q48.26875 218.93355 49.33125 218.93355Q50.315624 218.93355 50.89375 219.44917Q51.471874 219.9648 51.471874 220.8398Q51.471874 221.88667 50.128124 223.3398L48.2375 225.4023L51.8 225.4023L51.8 226.13667ZM57.596874 223.10542Q57.596874 224.68355 57.05 225.4648Q56.51875 226.23042 55.3625 226.23042Q54.221874 226.23042 53.675 225.48042Q53.128124 224.73042 53.1125 223.23042L53.1125 222.0273Q53.1125 220.44917 53.64375 219.69917Q54.190624 218.93355 55.346874 218.93355Q56.503124 218.93355 57.034374 219.66792Q57.58125 220.4023 57.596874 221.93355L57.596874 223.10542ZM56.690624 221.87105Q56.690624 220.7148 56.3625 220.19917Q56.05 219.66792 55.346874 219.66792Q54.659374 219.66792 54.33125 220.19917Q54.01875 220.7148 54.01875 221.79292L54.01875 223.24605Q54.01875 224.4023 54.346874 224.94917Q54.690624 225.49605 55.3625 225.49605Q56.034374 225.49605 56.346874 224.98042Q56.675 224.4648 56.690624 223.35542L56.690624 221.87105ZM63.596874 223.10542Q63.596874 224.68355 63.05 225.4648Q62.51875 226.23042 61.3625 226.23042Q60.221874 226.23042 59.675 225.48042Q59.128124 224.73042 59.1125 223.23042L59.1125 222.0273Q59.1125 220.44917 59.64375 219.69917Q60.190624 218.93355 61.346874 218.93355Q62.503124 218.93355 63.034374 219.66792Q63.58125 220.4023 63.596874 221.93355L63.596874 223.10542ZM62.690624 221.87105Q62.690624 220.7148 62.3625 220.19917Q62.05 219.66792 61.346874 219.66792Q60.659374 219.66792 60.33125 220.19917Q60.01875 220.7148 60.01875 221.79292L60.01875 223.24605Q60.01875 224.4023 60.346874 224.94917Q60.690624 225.49605 61.3625 225.49605Q62.034374 225.49605 62.346874 224.98042Q62.675 224.4648 62.690624 223.35542L62.690624 221.87105ZM69.59688 223.10542Q69.59688 224.68355 69.05 225.4648Q68.51875 226.23042 67.3625 226.23042Q66.22188 226.23042 65.675 225.48042Q65.12813 224.73042 65.1125 223.23042L65.1125 222.0273Q65.1125 220.44917 65.64375 219.69917Q66.19063 218.93355 67.34688 218.93355Q68.50313 218.93355 69.03438 219.66792Q69.58125 220.4023 69.59688 221.93355L69.59688 223.10542ZM68.69063 221.87105Q68.69063 220.7148 68.3625 220.19917Q68.05 219.66792 67.34688 219.66792Q66.65938 219.66792 66.33125 220.19917Q66.01875 220.7148 66.01875 221.79292L66.01875 223.24605Q66.01875 224.4023 66.34688 224.94917Q66.69063 225.49605 67.3625 225.49605Q68.03438 225.49605 68.34688 224.98042Q68.675 224.4648 68.69063 223.35542L68.69063 221.87105ZM75.59688 223.10542Q75.59688 224.68355 75.05 225.4648Q74.51875 226.23042 73.3625 226.23042Q72.22188 226.23042 71.675 225.48042Q71.12813 224.73042 71.1125 223.23042L71.1125 222.0273Q71.1125 220.44917 71.64375 219.69917Q72.19063 218.93355 73.34688 218.93355Q74.50313 218.93355 75.03438 219.66792Q75.58125 220.4023 75.59688 221.93355L75.59688 223.10542ZM74.69063 221.87105Q74.69063 220.7148 74.3625 220.19917Q74.05 219.66792 73.34688 219.66792Q72.65938 219.66792 72.33125 220.19917Q72.01875 220.7148 72.01875 221.79292L72.01875 223.24605Q72.01875 224.4023 72.34688 224.94917Q72.69063 225.49605 73.3625 225.49605Q74.03438 225.49605 74.34688 224.98042Q74.675 224.4648 74.69063 223.35542L74.69063 221.87105Z" fill-rule="nonzero"/><path fill="#b7b7b7" d="M48.45625 167.73L49.128124 167.73Q49.76875 167.73 50.128124 167.40187Q50.503124 167.07375 50.503124 166.51125Q50.503124 165.26125 49.253124 165.26125Q48.675 165.26125 48.315624 165.605Q47.971874 165.93312 47.971874 166.48L47.065624 166.48Q47.065624 165.63625 47.690624 165.08937Q48.315624 164.52687 49.253124 164.52687Q50.26875 164.52687 50.83125 165.05812Q51.409374 165.58937 51.409374 166.52687Q51.409374 166.99562 51.1125 167.43312Q50.815624 167.87062 50.284374 168.08937Q50.878124 168.26125 51.190624 168.69875Q51.51875 169.12062 51.51875 169.74562Q51.51875 170.69875 50.89375 171.26125Q50.26875 171.82375 49.26875 171.82375Q48.26875 171.82375 47.628124 171.2925Q47.003124 170.74562 47.003124 169.855L47.925 169.855Q47.925 170.4175 48.284374 170.76125Q48.64375 171.08937 49.26875 171.08937Q49.925 171.08937 50.26875 170.74562Q50.6125 170.40187 50.6125 169.76125Q50.6125 169.15187 50.221874 168.82375Q49.846874 168.48 49.128124 168.48L48.45625 168.48L48.45625 167.73ZM57.596874 168.69875Q57.596874 170.27687 57.05 171.05812Q56.51875 171.82375 55.3625 171.82375Q54.221874 171.82375 53.675 171.07375Q53.128124 170.32375 53.1125 168.82375L53.1125 167.62062Q53.1125 166.0425 53.64375 165.2925Q54.190624 164.52687 55.346874 164.52687Q56.503124 164.52687 57.034374 165.26125Q57.58125 165.99562 57.596874 167.52687L57.596874 168.69875ZM56.690624 167.46437Q56.690624 166.30812 56.3625 165.7925Q56.05 165.26125 55.346874 165.26125Q54.659374 165.26125 54.33125 165.7925Q54.01875 166.30812 54.01875 167.38625L54.01875 168.83937Q54.01875 169.99562 54.346874 170.5425Q54.690624 171.08937 55.3625 171.08937Q56.034374 171.08937 56.346874 170.57375Q56.675 170.05812 56.690624 168.94875L56.690624 167.46437ZM63.596874 168.69875Q63.596874 170.27687 63.05 171.05812Q62.51875 171.82375 61.3625 171.82375Q60.221874 171.82375 59.675 171.07375Q59.128124 170.32375 59.1125 168.82375L59.1125 167.62062Q59.1125 166.0425 59.64375 165.2925Q60.190624 164.52687 61.346874 164.52687Q62.503124 164.52687 63.034374 165.26125Q63.58125 165.99562 63.596874 167.52687L63.596874 168.69875ZM62.690624 167.46437Q62.690624 166.30812 62.3625 165.7925Q62.05 165.26125 61.346874 165.26125Q60.659374 165.26125 60.33125 165.7925Q60.01875 166.30812 60.01875 167.38625L60.01875 168.83937Q60.01875 169.99562 60.346874 170.5425Q60.690624 171.08937 61.3625 171.08937Q62.034374 171.08937 62.346874 170.57375Q62.675 170.05812 62.690624 168.94875L62.690624 167.46437ZM69.59688 168.69875Q69.59688 170.27687 69.05 171.05812Q68.51875 171.82375 67.3625 171.82375Q66.22188 171.82375 65.675 171.07375Q65.12813 170.32375 65.1125 168.82375L65.1125 167.62062Q65.1125 166.0425 65.64375 165.2925Q66.19063 164.52687 67.34688 164.52687Q68.50313 164.52687 69.03438 165.26125Q69.58125 165.99562 69.59688 167.52687L69.59688 168.69875ZM68.69063 167.46437Q68.69063 166.30812 68.3625 165.7925Q68.05 165.26125 67.34688 165.26125Q66.65938 165.26125 66.33125 165.7925Q66.01875 166.30812 66.01875 167.38625L66.01875 168.83937Q66.01875 169.99562 66.34688 170.5425Q66.69063 171.08937 67.3625 171.08937Q68.03438 171.08937 68.34688 170.57375Q68.675 170.05812 68.69063 168.94875L68.69063 167.46437ZM75.59688 168.69875Q75.59688 170.27687 75.05 171.05812Q74.51875 171.82375 73.3625 171.82375Q72.22188 171.82375 71.675 171.07375Q71.12813 170.32375 71.1125 168.82375L71.1125 167.62062Q71.1125 166.0425 71.64375 165.2925Q72.19063 164.52687 73.34688 164.52687Q74.50313 164.52687 75.03438 165.26125Q75.58125 165.99562 75.59688 167.52687L75.59688 168.69875ZM74.69063 167.46437Q74.69063 166.30812 74.3625 165.7925Q74.05 165.26125 73.34688 165.26125Q72.65938 165.26125 72.33125 165.7925Q72.01875 166.30812 72.01875 167.38625L72.01875 168.83937Q72.01875 169.99562 72.34688 170.5425Q72.69063 171.08937 73.3625 171.08937Q74.03438 171.08937 74.34688 170.57375Q74.675 170.05812 74.69063 168.94875L74.69063 167.46437Z" fill-rule="nonzero"/><path fill="#b7b7b7" d="M50.95625 114.93271L51.940624 114.93271L51.940624 115.66708L50.95625 115.66708L50.95625 117.32333L50.05 117.32333L50.05 115.66708L46.815624 115.66708L46.815624 115.13583L49.9875 110.21396L50.95625 110.21396L50.95625 114.93271ZM47.83125 114.93271L50.05 114.93271L50.05 111.44833L49.940624 111.65146L47.83125 114.93271ZM57.596874 114.29208Q57.596874 115.87021 57.05 116.65146Q56.51875 117.41708 55.3625 117.41708Q54.221874 117.41708 53.675 116.66708Q53.128124 115.91708 53.1125 114.41708L53.1125 113.21396Q53.1125 111.63583 53.64375 110.88583Q54.190624 110.12021 55.346874 110.12021Q56.503124 110.12021 57.034374 110.85458Q57.58125 111.58896 57.596874 113.12021L57.596874 114.29208ZM56.690624 113.05771Q56.690624 111.90146 56.3625 111.38583Q56.05 110.85458 55.346874 110.85458Q54.659374 110.85458 54.33125 111.38583Q54.01875 111.90146 54.01875 112.97958L54.01875 114.43271Q54.01875 115.58896 54.346874 116.13583Q54.690624 116.68271 55.3625 116.68271Q56.034374 116.68271 56.346874 116.16708Q56.675 115.65146 56.690624 114.54208L56.690624 113.05771ZM63.596874 114.29208Q63.596874 115.87021 63.05 116.65146Q62.51875 117.41708 61.3625 117.41708Q60.221874 117.41708 59.675 116.66708Q59.128124 115.91708 59.1125 114.41708L59.1125 113.21396Q59.1125 111.63583 59.64375 110.88583Q60.190624 110.12021 61.346874 110.12021Q62.503124 110.12021 63.034374 110.85458Q63.58125 111.58896 63.596874 113.12021L63.596874 114.29208ZM62.690624 113.05771Q62.690624 111.90146 62.3625 111.38583Q62.05 110.85458 61.346874 110.85458Q60.659374 110.85458 60.33125 111.38583Q60.01875 111.90146 60.01875 112.97958L60.01875 114.43271Q60.01875 115.58896 60.346874 116.13583Q60.690624 116.68271 61.3625 116.68271Q62.034374 116.68271 62.346874 116.16708Q62.675 115.65146 62.690624 114.54208L62.690624 113.05771ZM69.59688 114.29208Q69.59688 115.87021 69.05 116.65146Q68.51875 117.41708 67.3625 117.41708Q66.22188 117.41708 65.675 116.66708Q65.12813 115.91708 65.1125 114.41708L65.1125 113.21396Q65.1125 111.63583 65.64375 110.88583Q66.19063 110.12021 67.34688 110.12021Q68.50313 110.12021 69.03438 110.85458Q69.58125 111.58896 69.59688 113.12021L69.59688 114.29208ZM68.69063 113.05771Q68.69063 111.90146 68.3625 111.38583Q68.05 110.85458 67.34688 110.85458Q66.65938 110.85458 66.33125 111.38583Q66.01875 111.90146 66.01875 112.97958L66.01875 114.43271Q66.01875 115.58896 66.34688 116.13583Q66.69063 116.68271 67.3625 116.68271Q68.03438 116.68271 68.34688 116.16708Q68.675 115.65146 68.69063 114.54208L68.69063 113.05771ZM75.59688 114.29208Q75.59688 115.87021 75.05 116.65146Q74.51875 117.41708 73.3625 117.41708Q72.22188 117.41708 71.675 116.66708Q71.12813 115.91708 71.1125 114.41708L71.1125 113.21396Q71.1125 111.63583 71.64375 110.88583Q72.19063 110.12021 73.34688 110.12021Q74.50313 110.12021 75.03438 110.85458Q75.58125 111.58896 75.59688 113.12021L75.59688 114.29208ZM74.69063 113.05771Q74.69063 111.90146 74.3625 111.38583Q74.05 110.85458 73.34688 110.85458Q72.65938 110.85458 72.33125 111.38583Q72.01875 111.90146 72.01875 112.97958L72.01875 114.43271Q72.01875 115.58896 72.34688 116.13583Q72.69063 116.68271 73.3625 116.68271Q74.03438 116.68271 74.34688 116.16708Q74.675 115.65146 74.69063 114.54208L74.69063 113.05771Z" fill-rule="nonzero"/><path fill="#b7b7b7" d="M47.55 59.354168L47.925 55.807293L51.565624 55.807293L51.565624 56.635418L48.690624 56.635418L48.471874 58.572918Q48.9875 58.276043 49.659374 58.276043Q50.628124 58.276043 51.190624 58.916668Q51.76875 59.557293 51.76875 60.651043Q51.76875 61.744793 51.175 62.385418Q50.58125 63.010418 49.51875 63.010418Q48.58125 63.010418 47.971874 62.494793Q47.378124 61.963543 47.3 61.041668L48.159374 61.041668Q48.2375 61.651043 48.58125 61.963543Q48.940624 62.276043 49.51875 62.276043Q50.14375 62.276043 50.503124 61.854168Q50.8625 61.416668 50.8625 60.666668Q50.8625 59.947918 50.471874 59.526043Q50.096874 59.088543 49.440624 59.088543Q48.8625 59.088543 48.51875 59.338543L48.284374 59.541668L47.55 59.354168ZM57.596874 59.885418Q57.596874 61.463543 57.05 62.244793Q56.51875 63.010418 55.3625 63.010418Q54.221874 63.010418 53.675 62.260418Q53.128124 61.510418 53.1125 60.010418L53.1125 58.807293Q53.1125 57.229168 53.64375 56.479168Q54.190624 55.713543 55.346874 55.713543Q56.503124 55.713543 57.034374 56.447918Q57.58125 57.182293 57.596874 58.713543L57.596874 59.885418ZM56.690624 58.651043Q56.690624 57.494793 56.3625 56.979168Q56.05 56.447918 55.346874 56.447918Q54.659374 56.447918 54.33125 56.979168Q54.01875 57.494793 54.01875 58.572918L54.01875 60.026043Q54.01875 61.182293 54.346874 61.729168Q54.690624 62.276043 55.3625 62.276043Q56.034374 62.276043 56.346874 61.760418Q56.675 61.244793 56.690624 60.135418L56.690624 58.651043ZM63.596874 59.885418Q63.596874 61.463543 63.05 62.244793Q62.51875 63.010418 61.3625 63.010418Q60.221874 63.010418 59.675 62.260418Q59.128124 61.510418 59.1125 60.010418L59.1125 58.807293Q59.1125 57.229168 59.64375 56.479168Q60.190624 55.713543 61.346874 55.713543Q62.503124 55.713543 63.034374 56.447918Q63.58125 57.182293 63.596874 58.713543L63.596874 59.885418ZM62.690624 58.651043Q62.690624 57.494793 62.3625 56.979168Q62.05 56.447918 61.346874 56.447918Q60.659374 56.447918 60.33125 56.979168Q60.01875 57.494793 60.01875 58.572918L60.01875 60.026043Q60.01875 61.182293 60.346874 61.729168Q60.690624 62.276043 61.3625 62.276043Q62.034374 62.276043 62.346874 61.760418Q62.675 61.244793 62.690624 60.135418L62.690624 58.651043ZM69.59688 59.885418Q69.59688 61.463543 69.05 62.244793Q68.51875 63.010418 67.3625 63.010418Q66.22188 63.010418 65.675 62.260418Q65.12813 61.510418 65.1125 60.010418L65.1125 58.807293Q65.1125 57.229168 65.64375 56.479168Q66.19063 55.713543 67.34688 55.713543Q68.50313 55.713543 69.03438 56.447918Q69.58125 57.182293 69.59688 58.713543L69.59688 59.885418ZM68.69063 58.651043Q68.69063 57.494793 68.3625 56.979168Q68.05 56.447918 67.34688 56.447918Q66.65938 56.447918 66.33125 56.979168Q66.01875 57.494793 66.01875 58.572918L66.01875 60.026043Q66.01875 61.182293 66.34688 61.729168Q66.69063 62.276043 67.3625 62.276043Q68.03438 62.276043 68.34688 61.760418Q68.675 61.244793 68.69063 60.135418L68.69063 58.651043ZM75.59688 59.885418Q75.59688 61.463543 75.05 62.244793Q74.51875 63.010418 73.3625 63.010418Q72.22188 63.010418 71.675 62.260418Q71.12813 61.510418 71.1125 60.010418L71.1125 58.807293Q71.1125 57.229168 71.64375 56.479168Q72.19063 55.713543 73.34688 55.713543Q74.50313 55.713543 75.03438 56.447918Q75.58125 57.182293 75.59688 58.713543L75.59688 59.885418ZM74.69063 58.651043Q74.69063 57.494793 74.3625 56.979168Q74.05 56.447918 73.34688 56.447918Q72.65938 56.447918 72.33125 56.979168Q72.01875 57.494793 72.01875 58.572918L72.01875 60.026043Q72.01875 61.182293 72.34688 61.729168Q72.69063 62.276043 73.3625 62.276043Q74.03438 62.276043 74.34688 61.760418Q74.675 61.244793 74.69063 60.135418L74.69063 58.651043Z" fill-rule="nonzero"/><path fill="#000000" d="M145.23085 347.7625Q145.23085 347.325 144.8871 347.09064Q144.55898 346.84064 143.73085 346.66876Q142.91835 346.4969 142.43398 346.2469Q141.9496 345.9969 141.71523 345.66876Q141.49648 345.325 141.49648 344.85626Q141.49648 344.075 142.15273 343.54376Q142.80898 342.9969 143.84023 342.9969Q144.91835 342.9969 145.5746 343.5594Q146.24648 344.10626 146.24648 344.96564L145.16835 344.96564Q145.16835 344.52814 144.77773 344.21564Q144.40273 343.8875 143.84023 343.8875Q143.24648 343.8875 142.90273 344.15314Q142.5746 344.40314 142.5746 344.8094Q142.5746 345.2 142.8871 345.40314Q143.1996 345.60626 144.0121 345.79376Q144.8246 345.96564 145.3246 346.21564Q145.8246 346.46564 146.05898 346.825Q146.30898 347.1844 146.30898 347.6844Q146.30898 348.54376 145.62148 349.0594Q144.9496 349.575 143.87148 349.575Q143.10585 349.575 142.5121 349.3094Q141.93398 349.02814 141.60585 348.54376Q141.27773 348.0594 141.27773 347.4969L142.35585 347.4969Q142.3871 348.04376 142.79335 348.3719Q143.1996 348.6844 143.87148 348.6844Q144.48085 348.6844 144.85585 348.4344Q145.23085 348.1844 145.23085 347.7625ZM150.0746 348.6844Q150.65273 348.6844 151.09023 348.34064Q151.52773 347.98126 151.5746 347.45L152.60585 347.45Q152.5746 347.9969 152.21523 348.4969Q151.87148 348.98126 151.29335 349.27814Q150.73085 349.575 150.0746 349.575Q148.77773 349.575 148.0121 348.71564Q147.2621 347.84064 147.2621 346.34064L147.2621 346.15314Q147.2621 345.23126 147.59023 344.5125Q147.93398 343.79376 148.55898 343.40314Q149.1996 342.9969 150.0746 342.9969Q151.1371 342.9969 151.84023 343.6375Q152.55898 344.2625 152.60585 345.29376L151.5746 345.29376Q151.52773 344.66876 151.10585 344.27814Q150.68398 343.8875 150.0746 343.8875Q149.24648 343.8875 148.79335 344.48126Q148.34023 345.075 148.34023 346.2L148.34023 346.40314Q148.34023 347.4969 148.79335 348.09064Q149.24648 348.6844 150.0746 348.6844ZM157.23085 347.7625Q157.23085 347.325 156.8871 347.09064Q156.55898 346.84064 155.73085 346.66876Q154.91835 346.4969 154.43398 346.2469Q153.9496 345.9969 153.71523 345.66876Q153.49648 345.325 153.49648 344.85626Q153.49648 344.075 154.15273 343.54376Q154.80898 342.9969 155.84023 342.9969Q156.91835 342.9969 157.5746 343.5594Q158.24648 344.10626 158.24648 344.96564L157.16835 344.96564Q157.16835 344.52814 156.77773 344.21564Q156.40273 343.8875 155.84023 343.8875Q155.24648 343.8875 154.90273 344.15314Q154.5746 344.40314 154.5746 344.8094Q154.5746 345.2 154.8871 345.40314Q155.1996 345.60626 156.0121 345.79376Q156.8246 345.96564 157.3246 346.21564Q157.8246 346.46564 158.05898 346.825Q158.30898 347.1844 158.30898 347.6844Q158.30898 348.54376 157.62148 349.0594Q156.9496 349.575 155.87148 349.575Q155.10585 349.575 154.5121 349.3094Q153.93398 349.02814 153.60585 348.54376Q153.27773 348.0594 153.27773 347.4969L154.35585 347.4969Q154.3871 348.04376 154.79335 348.3719Q155.1996 348.6844 155.87148 348.6844Q156.48085 348.6844 156.85585 348.4344Q157.23085 348.1844 157.23085 347.7625ZM160.71523 349.45L159.6371 349.45L159.6371 343.10626L160.71523 343.10626L160.71523 349.45ZM159.54335 341.4344Q159.54335 341.16876 159.6996 340.98126Q159.87148 340.79376 160.18398 340.79376Q160.49648 340.79376 160.65273 340.98126Q160.8246 341.16876 160.8246 341.4344Q160.8246 341.6844 160.65273 341.8719Q160.49648 342.04376 160.18398 342.04376Q159.87148 342.04376 159.6996 341.8719Q159.54335 341.6844 159.54335 341.4344ZM164.79335 346.2625L161.93398 346.2625L161.93398 345.3875L164.79335 345.3875L164.79335 346.2625ZM166.62148 343.8719Q167.34023 342.9969 168.49648 342.9969Q170.5121 342.9969 170.52773 345.2625L170.52773 349.45L169.43398 349.45L169.43398 345.2469Q169.43398 344.575 169.12148 344.2469Q168.8246 343.91876 168.16835 343.91876Q167.6371 343.91876 167.23085 344.2Q166.84023 344.48126 166.62148 344.9344L166.62148 349.45L165.54335 349.45L165.54335 340.45L166.62148 340.45L166.62148 343.8719ZM172.27773 346.23126Q172.27773 344.7625 172.96523 343.8875Q173.65273 342.9969 174.77773 342.9969Q175.8871 342.9969 176.54335 343.7469L176.54335 340.45L177.62148 340.45L177.62148 349.45L176.62148 349.45L176.5746 348.7625Q175.91835 349.575 174.7621 349.575Q173.66835 349.575 172.96523 348.66876Q172.27773 347.7625 172.27773 346.3094L172.27773 346.23126ZM173.35585 346.35626Q173.35585 347.4344 173.79335 348.04376Q174.24648 348.65314 175.02773 348.65314Q176.05898 348.65314 176.54335 347.71564L176.54335 344.8094Q176.05898 343.91876 175.04335 343.91876Q174.24648 343.91876 173.79335 344.52814Q173.35585 345.1375 173.35585 346.35626Z" fill-rule="nonzero"/><path fill="#000000" d="M253.53117 347.7625Q253.53117 347.325 253.18742 347.09064Q252.8593 346.84064 252.03117 346.66876Q251.21867 346.4969 250.7343 346.2469Q250.24992 345.9969 250.01555 345.66876Q249.7968 345.325 249.7968 344.85626Q249.7968 344.075 250.45305 343.54376Q251.1093 342.9969 252.14055 342.9969Q253.21867 342.9969 253.87492 343.5594Q254.5468 344.10626 254.5468 344.96564L253.46867 344.96564Q253.46867 344.52814 253.07805 344.21564Q252.70305 343.8875 252.14055 343.8875Q251.5468 343.8875 251.20305 344.15314Q250.87492 344.40314 250.87492 344.8094Q250.87492 345.2 251.18742 345.40314Q251.49992 345.60626 252.31242 345.79376Q253.12492 345.96564 253.62492 346.21564Q254.12492 346.46564 254.3593 346.825Q254.6093 347.1844 254.6093 347.6844Q254.6093 348.54376 253.9218 349.0594Q253.24992 349.575 252.1718 349.575Q251.40617 349.575 250.81242 349.3094Q250.2343 349.02814 249.90617 348.54376Q249.57805 348.0594 249.57805 347.4969L250.65617 347.4969Q250.68742 348.04376 251.09367 348.3719Q251.49992 348.6844 252.1718 348.6844Q252.78117 348.6844 253.15617 348.4344Q253.53117 348.1844 253.53117 347.7625ZM258.37494 348.6844Q258.95306 348.6844 259.39056 348.34064Q259.82806 347.98126 259.87494 347.45L260.9062 347.45Q260.87494 347.9969 260.51556 348.4969Q260.1718 348.98126 259.5937 349.27814Q259.0312 349.575 258.37494 349.575Q257.07806 349.575 256.31244 348.71564Q255.56242 347.84064 255.56242 346.34064L255.56242 346.15314Q255.56242 345.23126 255.89055 344.5125Q256.2343 343.79376 256.8593 343.40314Q257.49994 342.9969 258.37494 342.9969Q259.43744 342.9969 260.14056 343.6375Q260.8593 344.2625 260.9062 345.29376L259.87494 345.29376Q259.82806 344.66876 259.4062 344.27814Q258.9843 343.8875 258.37494 343.8875Q257.5468 343.8875 257.0937 344.48126Q256.64056 345.075 256.64056 346.2L256.64056 346.40314Q256.64056 347.4969 257.0937 348.09064Q257.5468 348.6844 258.37494 348.6844ZM265.5312 347.7625Q265.5312 347.325 265.18744 347.09064Q264.8593 346.84064 264.0312 346.66876Q263.2187 346.4969 262.7343 346.2469Q262.24994 345.9969 262.01556 345.66876Q261.7968 345.325 261.7968 344.85626Q261.7968 344.075 262.45306 343.54376Q263.1093 342.9969 264.14056 342.9969Q265.2187 342.9969 265.87494 343.5594Q266.5468 344.10626 266.5468 344.96564L265.4687 344.96564Q265.4687 344.52814 265.07806 344.21564Q264.70306 343.8875 264.14056 343.8875Q263.5468 343.8875 263.20306 344.15314Q262.87494 344.40314 262.87494 344.8094Q262.87494 345.2 263.18744 345.40314Q263.49994 345.60626 264.31244 345.79376Q265.12494 345.96564 265.62494 346.21564Q266.12494 346.46564 266.3593 346.825Q266.6093 347.1844 266.6093 347.6844Q266.6093 348.54376 265.9218 349.0594Q265.24994 349.575 264.1718 349.575Q263.4062 349.575 262.81244 349.3094Q262.2343 349.02814 261.9062 348.54376Q261.57806 348.0594 261.57806 347.4969L262.6562 347.4969Q262.68744 348.04376 263.0937 348.3719Q263.49994 348.6844 264.1718 348.6844Q264.7812 348.6844 265.1562 348.4344Q265.5312 348.1844 265.5312 347.7625ZM269.01556 349.45L267.93744 349.45L267.93744 343.10626L269.01556 343.10626L269.01556 349.45ZM267.8437 341.4344Q267.8437 341.16876 267.99994 340.98126Q268.1718 340.79376 268.4843 340.79376Q268.7968 340.79376 268.95306 340.98126Q269.12494 341.16876 269.12494 341.4344Q269.12494 341.6844 268.95306 341.8719Q268.7968 342.04376 268.4843 342.04376Q268.1718 342.04376 267.99994 341.8719Q267.8437 341.6844 267.8437 341.4344ZM273.0937 346.2625L270.2343 346.2625L270.2343 345.3875L273.0937 345.3875L273.0937 346.2625ZM279.20306 346.35626Q279.20306 347.8094 278.5312 348.7Q277.87494 349.575 276.74994 349.575Q275.5468 349.575 274.89056 348.71564L274.82806 349.45L273.8437 349.45L273.8437 340.45L274.9218 340.45L274.9218 343.8094Q275.57806 342.9969 276.7343 342.9969Q277.89056 342.9969 278.5468 343.8719Q279.20306 344.73126 279.20306 346.2625L279.20306 346.35626ZM278.12494 346.23126Q278.12494 345.1219 277.68744 344.52814Q277.26556 343.91876 276.4687 343.91876Q275.39056 343.91876 274.9218 344.90314L274.9218 347.65314Q275.4218 348.65314 276.4687 348.65314Q277.24994 348.65314 277.68744 348.04376Q278.12494 347.4344 278.12494 346.23126ZM282.01556 349.45L280.93744 349.45L280.93744 340.45L282.01556 340.45L282.01556 349.45ZM283.5468 346.21564Q283.5468 345.29376 283.9062 344.54376Q284.2812 343.79376 284.93744 343.40314Q285.5937 342.9969 286.4218 342.9969Q287.7187 342.9969 288.51556 343.8875Q289.32806 344.77814 289.32806 346.27814L289.32806 346.35626Q289.32806 347.27814 288.9687 348.0125Q288.6093 348.7469 287.95306 349.16876Q287.2968 349.575 286.43744 349.575Q285.1562 349.575 284.3437 348.6844Q283.5468 347.77814 283.5468 346.29376L283.5468 346.21564ZM284.64056 346.35626Q284.64056 347.40314 285.12494 348.04376Q285.62494 348.6844 286.43744 348.6844Q287.26556 348.6844 287.74994 348.04376Q288.2343 347.3875 288.2343 346.21564Q288.2343 345.1844 287.7343 344.54376Q287.24994 343.8875 286.4218 343.8875Q285.62494 343.8875 285.12494 344.52814Q284.64056 345.15314 284.64056 346.35626ZM293.37494 348.6844Q293.95306 348.6844 294.39056 348.34064Q294.82806 347.98126 294.87494 347.45L295.9062 347.45Q295.87494 347.9969 295.51556 348.4969Q295.1718 348.98126 294.5937 349.27814Q294.0312 349.575 293.37494 349.575Q292.07806 349.575 291.31244 348.71564Q290.56244 347.84064 290.56244 346.34064L290.56244 346.15314Q290.56244 345.23126 290.89056 344.5125Q291.2343 343.79376 291.8593 343.40314Q292.49994 342.9969 293.37494 342.9969Q294.43744 342.9969 295.14056 343.6375Q295.8593 344.2625 295.9062 345.29376L294.87494 345.29376Q294.82806 344.66876 294.4062 344.27814Q293.9843 343.8875 293.37494 343.8875Q292.5468 343.8875 292.0937 344.48126Q291.64056 345.075 291.64056 346.2L291.64056 346.40314Q291.64056 347.4969 292.0937 348.09064Q292.5468 348.6844 293.37494 348.6844ZM298.6093 346.5125L297.9218 347.21564L297.9218 349.45L296.8437 349.45L296.8437 340.45L297.9218 340.45L297.9218 345.8875L298.49994 345.2L300.4843 343.10626L301.7968 343.10626L299.32806 345.7625L302.0937 349.45L300.81244 349.45L298.6093 346.5125Z" fill-rule="nonzero"/><path fill="#000000" d="M364.3315 347.7625Q364.3315 347.325 363.98776 347.09064Q363.65964 346.84064 362.8315 346.66876Q362.019 346.4969 361.53464 346.2469Q361.05026 345.9969 360.8159 345.66876Q360.59714 345.325 360.59714 344.85626Q360.59714 344.075 361.2534 343.54376Q361.90964 342.9969 362.9409 342.9969Q364.019 342.9969 364.67526 343.5594Q365.34714 344.10626 365.34714 344.96564L364.269 344.96564Q364.269 344.52814 363.8784 344.21564Q363.5034 343.8875 362.9409 343.8875Q362.34714 343.8875 362.0034 344.15314Q361.67526 344.40314 361.67526 344.8094Q361.67526 345.2 361.98776 345.40314Q362.30026 345.60626 363.11276 345.79376Q363.92526 345.96564 364.42526 346.21564Q364.92526 346.46564 365.15964 346.825Q365.40964 347.1844 365.40964 347.6844Q365.40964 348.54376 364.72214 349.0594Q364.05026 349.575 362.97214 349.575Q362.2065 349.575 361.61276 349.3094Q361.03464 349.02814 360.7065 348.54376Q360.3784 348.0594 360.3784 347.4969L361.4565 347.4969Q361.48776 348.04376 361.894 348.3719Q362.30026 348.6844 362.97214 348.6844Q363.5815 348.6844 363.9565 348.4344Q364.3315 348.1844 364.3315 347.7625ZM369.17526 348.6844Q369.7534 348.6844 370.1909 348.34064Q370.6284 347.98126 370.67526 347.45L371.7065 347.45Q371.67526 347.9969 371.3159 348.4969Q370.97214 348.98126 370.394 349.27814Q369.8315 349.575 369.17526 349.575Q367.8784 349.575 367.11276 348.71564Q366.36276 347.84064 366.36276 346.34064L366.36276 346.15314Q366.36276 345.23126 366.6909 344.5125Q367.03464 343.79376 367.65964 343.40314Q368.30026 342.9969 369.17526 342.9969Q370.23776 342.9969 370.9409 343.6375Q371.65964 344.2625 371.7065 345.29376L370.67526 345.29376Q370.6284 344.66876 370.2065 344.27814Q369.78464 343.8875 369.17526 343.8875Q368.34714 343.8875 367.894 344.48126Q367.4409 345.075 367.4409 346.2L367.4409 346.40314Q367.4409 347.4969 367.894 348.09064Q368.34714 348.6844 369.17526 348.6844ZM376.3315 347.7625Q376.3315 347.325 375.98776 347.09064Q375.65964 346.84064 374.8315 346.66876Q374.019 346.4969 373.53464 346.2469Q373.05026 345.9969 372.8159 345.66876Q372.59714 345.325 372.59714 344.85626Q372.59714 344.075 373.2534 343.54376Q373.90964 342.9969 374.9409 342.9969Q376.019 342.9969 376.67526 343.5594Q377.34714 344.10626 377.34714 344.96564L376.269 344.96564Q376.269 344.52814 375.8784 344.21564Q375.5034 343.8875 374.9409 343.8875Q374.34714 343.8875 374.0034 344.15314Q373.67526 344.40314 373.67526 344.8094Q373.67526 345.2 373.98776 345.40314Q374.30026 345.60626 375.11276 345.79376Q375.92526 345.96564 376.42526 346.21564Q376.92526 346.46564 377.15964 346.825Q377.40964 347.1844 377.40964 347.6844Q377.40964 348.54376 376.72214 349.0594Q376.05026 349.575 374.97214 349.575Q374.2065 349.575 373.61276 349.3094Q373.03464 349.02814 372.7065 348.54376Q372.3784 348.0594 372.3784 347.4969L373.4565 347.4969Q373.48776 348.04376 373.894 348.3719Q374.30026 348.6844 374.97214 348.6844Q375.5815 348.6844 375.9565 348.4344Q376.3315 348.1844 376.3315 347.7625ZM379.8159 349.45L378.73776 349.45L378.73776 343.10626L379.8159 343.10626L379.8159 349.45ZM378.644 341.4344Q378.644 341.16876 378.80026 340.98126Q378.97214 340.79376 379.28464 340.79376Q379.59714 340.79376 379.7534 340.98126Q379.92526 341.16876 379.92526 341.4344Q379.92526 341.6844 379.7534 341.8719Q379.59714 342.04376 379.28464 342.04376Q378.97214 342.04376 378.80026 341.8719Q378.644 341.6844 378.644 341.4344ZM383.894 346.2625L381.03464 346.2625L381.03464 345.3875L383.894 345.3875L383.894 346.2625ZM384.3784 346.23126Q384.3784 344.7469 385.0659 343.8719Q385.7534 342.9969 386.8784 342.9969Q388.03464 342.9969 388.6909 343.8094L388.73776 343.10626L389.73776 343.10626L389.73776 349.29376Q389.73776 350.52814 389.0034 351.23126Q388.269 351.95 387.05026 351.95Q386.36276 351.95 385.7065 351.65314Q385.05026 351.35626 384.7065 350.85626L385.269 350.2Q385.9565 351.0594 386.97214 351.0594Q387.7534 351.0594 388.1909 350.60626Q388.644 350.16876 388.644 349.35626L388.644 348.8094Q387.98776 349.575 386.86276 349.575Q385.7534 349.575 385.0659 348.6844Q384.3784 347.77814 384.3784 346.23126ZM385.47214 346.35626Q385.47214 347.41876 385.90964 348.04376Q386.34714 348.65314 387.144 348.65314Q388.15964 348.65314 388.644 347.71564L388.644 344.825Q388.144 343.91876 387.144 343.91876Q386.36276 343.91876 385.90964 344.52814Q385.47214 345.1375 385.47214 346.35626ZM394.269 349.575Q392.97214 349.575 392.15964 348.73126Q391.36276 347.8719 391.36276 346.45L391.36276 346.2625Q391.36276 345.3094 391.72214 344.575Q392.0815 343.825 392.72214 343.41876Q393.3784 342.9969 394.1284 342.9969Q395.36276 342.9969 396.05026 343.8094Q396.73776 344.6219 396.73776 346.1375L396.73776 346.59064L392.4409 346.59064Q392.47214 347.52814 392.98776 348.10626Q393.519 348.6844 394.3315 348.6844Q394.894 348.6844 395.28464 348.45Q395.6909 348.21564 396.0034 347.825L396.65964 348.34064Q395.86276 349.575 394.269 349.575ZM394.1284 343.8875Q393.47214 343.8875 393.019 344.3719Q392.5815 344.84064 392.48776 345.7L395.65964 345.7L395.65964 345.6219Q395.61276 344.79376 395.2065 344.34064Q394.8159 343.8875 394.1284 343.8875ZM398.65964 343.10626L398.6909 343.90314Q399.42526 342.9969 400.59714 342.9969Q402.61276 342.9969 402.6284 345.2625L402.6284 349.45L401.53464 349.45L401.53464 345.2469Q401.53464 344.575 401.22214 344.2469Q400.92526 343.91876 400.269 343.91876Q399.73776 343.91876 399.3315 344.2Q398.9409 344.48126 398.72214 344.9344L398.72214 349.45L397.644 349.45L397.644 343.10626L398.65964 343.10626ZM407.269 349.575Q405.97214 349.575 405.15964 348.73126Q404.36276 347.8719 404.36276 346.45L404.36276 346.2625Q404.36276 345.3094 404.72214 344.575Q405.0815 343.825 405.72214 343.41876Q406.3784 342.9969 407.1284 342.9969Q408.36276 342.9969 409.05026 343.8094Q409.73776 344.6219 409.73776 346.1375L409.73776 346.59064L405.4409 346.59064Q405.47214 347.52814 405.98776 348.10626Q406.519 348.6844 407.3315 348.6844Q407.894 348.6844 408.28464 348.45Q408.6909 348.21564 409.0034 347.825L409.65964 348.34064Q408.86276 349.575 407.269 349.575ZM407.1284 343.8875Q406.47214 343.8875 406.019 344.3719Q405.5815 344.84064 405.48776 345.7L408.65964 345.7L408.65964 345.6219Q408.61276 344.79376 408.2065 344.34064Q407.8159 343.8875 407.1284 343.8875ZM413.7065 344.075Q413.4565 344.04376 413.17526 344.04376Q412.09714 344.04376 411.72214 344.95L411.72214 349.45L410.644 349.45L410.644 343.10626L411.6909 343.10626L411.7065 343.84064Q412.23776 342.9969 413.22214 342.9969Q413.53464 342.9969 413.7065 343.075L413.7065 344.075ZM415.8159 349.45L414.73776 349.45L414.73776 343.10626L415.8159 343.10626L415.8159 349.45ZM414.644 341.4344Q414.644 341.16876 414.80026 340.98126Q414.97214 340.79376 415.28464 340.79376Q415.59714 340.79376 415.7534 340.98126Q415.92526 341.16876 415.92526 341.4344Q415.92526 341.6844 415.7534 341.8719Q415.59714 342.04376 415.28464 342.04376Q414.97214 342.04376 414.80026 341.8719Q414.644 341.6844 414.644 341.4344ZM420.17526 348.6844Q420.7534 348.6844 421.1909 348.34064Q421.6284 347.98126 421.67526 347.45L422.7065 347.45Q422.67526 347.9969 422.3159 348.4969Q421.97214 348.98126 421.394 349.27814Q420.8315 349.575 420.17526 349.575Q418.8784 349.575 418.11276 348.71564Q417.36276 347.84064 417.36276 346.34064L417.36276 346.15314Q417.36276 345.23126 417.6909 344.5125Q418.03464 343.79376 418.65964 343.40314Q419.30026 342.9969 420.17526 342.9969Q421.23776 342.9969 421.9409 343.6375Q422.65964 344.2625 422.7065 345.29376L421.67526 345.29376Q421.6284 344.66876 421.2065 344.27814Q420.78464 343.8875 420.17526 343.8875Q419.34714 343.8875 418.894 344.48126Q418.4409 345.075 418.4409 346.2L418.4409 346.40314Q418.4409 347.4969 418.894 348.09064Q419.34714 348.6844 420.17526 348.6844Z" fill-rule="nonzero"/><path fill="#6d9eeb" d="M489.45 54.916668C489.45 54.364384 489.8977 53.916668 490.45 53.916668L500.45 53.916668C501.0023 53.916668 501.45 54.364384 501.45 54.916668L501.45 64.916664C501.45 65.46895 501.0023 65.916664 500.45 65.916664L490.45 65.916664C489.8977 65.916664 489.45 65.46895 489.45 64.916664Z" fill-rule="nonzero"/><path fill="#666666" d="M516.325 60.260418Q516.325 61.385418 515.96564 62.213543Q515.60626 63.026043 514.96564 63.494793L516.35626 64.58855L515.65314 65.2448L514.0125 63.932293Q513.6219 64.02605 513.1844 64.02605Q512.2625 64.02605 511.54376 63.572918Q510.84064 63.119793 510.4344 62.276043Q510.04376 61.432293 510.02814 60.322918L510.02814 59.760418Q510.02814 58.635418 510.41876 57.776043Q510.825 56.901043 511.52814 56.447918Q512.2469 55.994793 513.1844 55.994793Q514.1219 55.994793 514.84064 56.447918Q515.5594 56.901043 515.9344 57.760418Q516.325 58.619793 516.325 59.760418L516.325 60.260418ZM515.29376 59.760418Q515.29376 58.369793 514.7469 57.619793Q514.2 56.869793 513.1844 56.869793Q512.2 56.869793 511.6375 57.619793Q511.09064 58.369793 511.0594 59.682293L511.0594 60.260418Q511.0594 61.604168 511.6219 62.385418Q512.1844 63.151043 513.1844 63.151043Q514.1844 63.151043 514.73126 62.432293Q515.27814 61.697918 515.29376 60.338543L515.29376 59.760418ZM521.79376 63.338543Q521.21564 64.02605 520.09064 64.02605Q519.15314 64.02605 518.66876 63.494793Q518.1844 62.947918 518.1844 61.885418L518.1844 58.104168L519.16876 58.104168L519.16876 61.854168Q519.16876 63.182293 520.2469 63.182293Q521.3875 63.182293 521.7625 62.338543L521.7625 58.104168L522.7625 58.104168L522.7625 63.916668L521.8094 63.916668L521.79376 63.338543ZM526.60626 64.02605Q525.4344 64.02605 524.6844 63.260418Q523.95 62.479168 523.95 61.166668L523.95 60.994793Q523.95 60.119793 524.27814 59.447918Q524.60626 58.760418 525.2 58.385418Q525.79376 57.994793 526.4969 57.994793Q527.6219 57.994793 528.2469 58.744793Q528.8875 59.494793 528.8875 60.885418L528.8875 61.291668L524.95 61.291668Q524.96564 62.151043 525.4344 62.682293Q525.91876 63.213543 526.66876 63.213543Q527.2 63.213543 527.5594 62.994793Q527.91876 62.776043 528.2 62.432293L528.8094 62.901043Q528.075 64.02605 526.60626 64.02605ZM526.4969 58.807293Q525.8875 58.807293 525.48126 59.244793Q525.075 59.682293 524.98126 60.479168L527.8875 60.479168L527.8875 60.401043Q527.84064 59.651043 527.46564 59.229168Q527.10626 58.807293 526.4969 58.807293ZM533.79376 63.338543Q533.21564 64.02605 532.09064 64.02605Q531.15314 64.02605 530.66876 63.494793Q530.1844 62.947918 530.1844 61.885418L530.1844 58.104168L531.16876 58.104168L531.16876 61.854168Q531.16876 63.182293 532.2469 63.182293Q533.3875 63.182293 533.7625 62.338543L533.7625 58.104168L534.7625 58.104168L534.7625 63.916668L533.8094 63.916668L533.79376 63.338543ZM538.60626 64.02605Q537.4344 64.02605 536.6844 63.260418Q535.95 62.479168 535.95 61.166668L535.95 60.994793Q535.95 60.119793 536.27814 59.447918Q536.60626 58.760418 537.2 58.385418Q537.79376 57.994793 538.4969 57.994793Q539.6219 57.994793 540.2469 58.744793Q540.8875 59.494793 540.8875 60.885418L540.8875 61.291668L536.95 61.291668Q536.96564 62.151043 537.4344 62.682293Q537.91876 63.213543 538.66876 63.213543Q539.2 63.213543 539.5594 62.994793Q539.91876 62.776043 540.2 62.432293L540.8094 62.901043Q540.075 64.02605 538.60626 64.02605ZM538.4969 58.807293Q537.8875 58.807293 537.48126 59.244793Q537.075 59.682293 536.98126 60.479168L539.8875 60.479168L539.8875 60.401043Q539.84064 59.651043 539.46564 59.229168Q539.10626 58.807293 538.4969 58.807293ZM544.96564 60.963543Q544.96564 59.619793 545.59064 58.807293Q546.23126 57.994793 547.2469 57.994793Q548.27814 57.994793 548.8719 58.697918L548.8719 55.666668L549.8719 55.666668L549.8719 63.916668L548.95 63.916668L548.90314 63.291668Q548.3094 64.02605 547.2469 64.02605Q546.23126 64.02605 545.59064 63.197918Q544.96564 62.369793 544.96564 61.041668L544.96564 60.963543ZM545.95 61.072918Q545.95 62.057293 546.35626 62.619793Q546.77814 63.182293 547.4969 63.182293Q548.4344 63.182293 548.8719 62.338543L548.8719 59.666668Q548.41876 58.838543 547.4969 58.838543Q546.77814 58.838543 546.35626 59.401043Q545.95 59.963543 545.95 61.072918ZM553.60626 64.02605Q552.4344 64.02605 551.6844 63.260418Q550.95 62.479168 550.95 61.166668L550.95 60.994793Q550.95 60.119793 551.27814 59.447918Q551.60626 58.760418 552.2 58.385418Q552.79376 57.994793 553.4969 57.994793Q554.6219 57.994793 555.2469 58.744793Q555.8875 59.494793 555.8875 60.885418L555.8875 61.291668L551.95 61.291668Q551.96564 62.151043 552.4344 62.682293Q552.91876 63.213543 553.66876 63.213543Q554.2 63.213543 554.5594 62.994793Q554.91876 62.776043 555.2 62.432293L555.8094 62.901043Q555.075 64.02605 553.60626 64.02605ZM553.4969 58.807293Q552.8875 58.807293 552.48126 59.244793Q552.075 59.682293 551.98126 60.479168L554.8875 60.479168L554.8875 60.401043Q554.84064 59.651043 554.46564 59.229168Q554.10626 58.807293 553.4969 58.807293ZM562.10626 61.072918Q562.10626 62.401043 561.4969 63.213543Q560.90314 64.02605 559.85626 64.02605Q558.8094 64.02605 558.2 63.354168L558.2 66.15105L557.2 66.15105L557.2 58.104168L558.10626 58.104168L558.15314 58.744793Q558.7625 57.994793 559.84064 57.994793Q560.8875 57.994793 561.4969 58.791668Q562.10626 59.572918 562.10626 60.979168L562.10626 61.072918ZM561.1219 60.963543Q561.1219 59.979168 560.7 59.416668Q560.27814 58.838543 559.54376 58.838543Q558.65314 58.838543 558.2 59.635418L558.2 62.416668Q558.6375 63.213543 559.5594 63.213543Q560.27814 63.213543 560.7 62.651043Q561.1219 62.072918 561.1219 60.963543ZM564.54376 56.697918L564.54376 58.104168L565.6375 58.104168L565.6375 58.869793L564.54376 58.869793L564.54376 62.479168Q564.54376 62.822918 564.6844 63.010418Q564.84064 63.182293 565.1844 63.182293Q565.35626 63.182293 565.66876 63.104168L565.66876 63.916668Q565.2625 64.02605 564.90314 64.02605Q564.23126 64.02605 563.8875 63.619793Q563.5594 63.213543 563.5594 62.479168L563.5594 58.869793L562.4969 58.869793L562.4969 58.104168L563.5594 58.104168L563.5594 56.697918L564.54376 56.697918ZM568.2 58.807293Q568.85626 57.994793 569.91876 57.994793Q571.7625 57.994793 571.77814 60.072918L571.77814 63.916668L570.77814 63.916668L570.77814 60.072918Q570.77814 59.447918 570.4969 59.151043Q570.21564 58.838543 569.60626 58.838543Q569.1375 58.838543 568.7625 59.104168Q568.40314 59.354168 568.2 59.776043L568.2 63.916668L567.2 63.916668L567.2 55.666668L568.2 55.666668L568.2 58.807293ZM579.3719 63.916668L578.3719 63.916668L578.3719 57.291668L576.35626 58.026043L576.35626 57.119793L579.21564 56.057293L579.3719 56.057293L579.3719 63.916668Z" fill-rule="nonzero"/><path fill="#1c4587" d="M489.45 78.916664C489.45 78.36438 489.8977 77.916664 490.45 77.916664L500.45 77.916664C501.0023 77.916664 501.45 78.36438 501.45 78.916664L501.45 88.916664C501.45 89.46895 501.0023 89.916664 500.45 89.916664L490.45 89.916664C489.8977 89.916664 489.45 89.46895 489.45 88.916664Z" fill-rule="nonzero"/><path fill="#666666" d="M516.325 84.260414Q516.325 85.385414 515.96564 86.21354Q515.60626 87.02604 514.96564 87.49479L516.35626 88.58854L515.65314 89.24479L514.0125 87.93229Q513.6219 88.02604 513.1844 88.02604Q512.2625 88.02604 511.54376 87.572914Q510.84064 87.11979 510.4344 86.27604Q510.04376 85.43229 510.02814 84.322914L510.02814 83.760414Q510.02814 82.635414 510.41876 81.77604Q510.825 80.90104 511.52814 80.447914Q512.2469 79.99479 513.1844 79.99479Q514.1219 79.99479 514.84064 80.447914Q515.5594 80.90104 515.9344 81.760414Q516.325 82.61979 516.325 83.760414L516.325 84.260414ZM515.29376 83.760414Q515.29376 82.36979 514.7469 81.61979Q514.2 80.86979 513.1844 80.86979Q512.2 80.86979 511.6375 81.61979Q511.09064 82.36979 511.0594 83.68229L511.0594 84.260414Q511.0594 85.604164 511.6219 86.385414Q512.1844 87.15104 513.1844 87.15104Q514.1844 87.15104 514.73126 86.43229Q515.27814 85.697914 515.29376 84.33854L515.29376 83.760414ZM521.79376 87.33854Q521.21564 88.02604 520.09064 88.02604Q519.15314 88.02604 518.66876 87.49479Q518.1844 86.947914 518.1844 85.885414L518.1844 82.104164L519.16876 82.104164L519.16876 85.854164Q519.16876 87.18229 520.2469 87.18229Q521.3875 87.18229 521.7625 86.33854L521.7625 82.104164L522.7625 82.104164L522.7625 87.916664L521.8094 87.916664L521.79376 87.33854ZM526.60626 88.02604Q525.4344 88.02604 524.6844 87.260414Q523.95 86.479164 523.95 85.166664L523.95 84.99479Q523.95 84.11979 524.27814 83.447914Q524.60626 82.760414 525.2 82.385414Q525.79376 81.99479 526.4969 81.99479Q527.6219 81.99479 528.2469 82.74479Q528.8875 83.49479 528.8875 84.885414L528.8875 85.291664L524.95 85.291664Q524.96564 86.15104 525.4344 86.68229Q525.91876 87.21354 526.66876 87.21354Q527.2 87.21354 527.5594 86.99479Q527.91876 86.77604 528.2 86.43229L528.8094 86.90104Q528.075 88.02604 526.60626 88.02604ZM526.4969 82.80729Q525.8875 82.80729 525.48126 83.24479Q525.075 83.68229 524.98126 84.479164L527.8875 84.479164L527.8875 84.40104Q527.84064 83.65104 527.46564 83.229164Q527.10626 82.80729 526.4969 82.80729ZM533.79376 87.33854Q533.21564 88.02604 532.09064 88.02604Q531.15314 88.02604 530.66876 87.49479Q530.1844 86.947914 530.1844 85.885414L530.1844 82.104164L531.16876 82.104164L531.16876 85.854164Q531.16876 87.18229 532.2469 87.18229Q533.3875 87.18229 533.7625 86.33854L533.7625 82.104164L534.7625 82.104164L534.7625 87.916664L533.8094 87.916664L533.79376 87.33854ZM538.60626 88.02604Q537.4344 88.02604 536.6844 87.260414Q535.95 86.479164 535.95 85.166664L535.95 84.99479Q535.95 84.11979 536.27814 83.447914Q536.60626 82.760414 537.2 82.385414Q537.79376 81.99479 538.4969 81.99479Q539.6219 81.99479 540.2469 82.74479Q540.8875 83.49479 540.8875 84.885414L540.8875 85.291664L536.95 85.291664Q536.96564 86.15104 537.4344 86.68229Q537.91876 87.21354 538.66876 87.21354Q539.2 87.21354 539.5594 86.99479Q539.91876 86.77604 540.2 86.43229L540.8094 86.90104Q540.075 88.02604 538.60626 88.02604ZM538.4969 82.80729Q537.8875 82.80729 537.48126 83.24479Q537.075 83.68229 536.98126 84.479164L539.8875 84.479164L539.8875 84.40104Q539.84064 83.65104 539.46564 83.229164Q539.10626 82.80729 538.4969 82.80729ZM544.96564 84.96354Q544.96564 83.61979 545.59064 82.80729Q546.23126 81.99479 547.2469 81.99479Q548.27814 81.99479 548.8719 82.697914L548.8719 79.666664L549.8719 79.666664L549.8719 87.916664L548.95 87.916664L548.90314 87.291664Q548.3094 88.02604 547.2469 88.02604Q546.23126 88.02604 545.59064 87.197914Q544.96564 86.36979 544.96564 85.041664L544.96564 84.96354ZM545.95 85.072914Q545.95 86.05729 546.35626 86.61979Q546.77814 87.18229 547.4969 87.18229Q548.4344 87.18229 548.8719 86.33854L548.8719 83.666664Q548.41876 82.83854 547.4969 82.83854Q546.77814 82.83854 546.35626 83.40104Q545.95 83.96354 545.95 85.072914ZM553.60626 88.02604Q552.4344 88.02604 551.6844 87.260414Q550.95 86.479164 550.95 85.166664L550.95 84.99479Q550.95 84.11979 551.27814 83.447914Q551.60626 82.760414 552.2 82.385414Q552.79376 81.99479 553.4969 81.99479Q554.6219 81.99479 555.2469 82.74479Q555.8875 83.49479 555.8875 84.885414L555.8875 85.291664L551.95 85.291664Q551.96564 86.15104 552.4344 86.68229Q552.91876 87.21354 553.66876 87.21354Q554.2 87.21354 554.5594 86.99479Q554.91876 86.77604 555.2 86.43229L555.8094 86.90104Q555.075 88.02604 553.60626 88.02604ZM553.4969 82.80729Q552.8875 82.80729 552.48126 83.24479Q552.075 83.68229 551.98126 84.479164L554.8875 84.479164L554.8875 84.40104Q554.84064 83.65104 554.46564 83.229164Q554.10626 82.80729 553.4969 82.80729ZM562.10626 85.072914Q562.10626 86.40104 561.4969 87.21354Q560.90314 88.02604 559.85626 88.02604Q558.8094 88.02604 558.2 87.354164L558.2 90.15104L557.2 90.15104L557.2 82.104164L558.10626 82.104164L558.15314 82.74479Q558.7625 81.99479 559.84064 81.99479Q560.8875 81.99479 561.4969 82.791664Q562.10626 83.572914 562.10626 84.979164L562.10626 85.072914ZM561.1219 84.96354Q561.1219 83.979164 560.7 83.416664Q560.27814 82.83854 559.54376 82.83854Q558.65314 82.83854 558.2 83.635414L558.2 86.416664Q558.6375 87.21354 559.5594 87.21354Q560.27814 87.21354 560.7 86.65104Q561.1219 86.072914 561.1219 84.96354ZM564.54376 80.697914L564.54376 82.104164L565.6375 82.104164L565.6375 82.86979L564.54376 82.86979L564.54376 86.479164Q564.54376 86.822914 564.6844 87.010414Q564.84064 87.18229 565.1844 87.18229Q565.35626 87.18229 565.66876 87.104164L565.66876 87.916664Q565.2625 88.02604 564.90314 88.02604Q564.23126 88.02604 563.8875 87.61979Q563.5594 87.21354 563.5594 86.479164L563.5594 82.86979L562.4969 82.86979L562.4969 82.104164L563.5594 82.104164L563.5594 80.697914L564.54376 80.697914ZM568.2 82.80729Q568.85626 81.99479 569.91876 81.99479Q571.7625 81.99479 571.77814 84.072914L571.77814 87.916664L570.77814 87.916664L570.77814 84.072914Q570.77814 83.447914 570.4969 83.15104Q570.21564 82.83854 569.60626 82.83854Q569.1375 82.83854 568.7625 83.104164Q568.40314 83.354164 568.2 83.77604L568.2 87.916664L567.2 87.916664L567.2 79.666664L568.2 79.666664L568.2 82.80729ZM580.29376 85.291664L581.3875 85.291664L581.3875 86.104164L580.29376 86.104164L580.29376 87.916664L579.29376 87.916664L579.29376 86.104164L575.73126 86.104164L575.73126 85.510414L579.23126 80.08854L580.29376 80.08854L580.29376 85.291664ZM576.85626 85.291664L579.29376 85.291664L579.29376 81.447914L579.1844 81.666664L576.85626 85.291664Z" fill-rule="nonzero"/><path fill="#000000" d="M25.315624 33.034374Q25.315624 32.3625 24.815624 32.003124Q24.33125 31.64375 23.096874 31.378124Q21.8625 31.1125 21.128124 30.753124Q20.409374 30.378124 20.05 29.8625Q19.70625 29.346874 19.70625 28.64375Q19.70625 27.4875 20.690624 26.675Q21.690624 25.8625 23.221874 25.8625Q24.846874 25.8625 25.846874 26.70625Q26.8625 27.534374 26.8625 28.83125L25.221874 28.83125Q25.221874 28.159374 24.64375 27.690624Q24.08125 27.20625 23.221874 27.20625Q22.33125 27.20625 21.83125 27.596874Q21.33125 27.971874 21.33125 28.596874Q21.33125 29.190624 21.8 29.4875Q22.26875 29.784374 23.4875 30.065624Q24.70625 30.33125 25.45625 30.70625Q26.221874 31.08125 26.58125 31.6125Q26.940624 32.14375 26.940624 32.909374Q26.940624 34.190624 25.925 34.95625Q24.909374 35.721874 23.284374 35.721874Q22.14375 35.721874 21.253124 35.315624Q20.378124 34.909374 19.878124 34.190624Q19.378124 33.471874 19.378124 32.628124L21.01875 32.628124Q21.05 33.440624 21.659374 33.925Q22.284374 34.39375 23.284374 34.39375Q24.20625 34.39375 24.753124 34.01875Q25.315624 33.64375 25.315624 33.034374ZM32.596874 34.39375Q33.471874 34.39375 34.1125 33.878124Q34.76875 33.346874 34.83125 32.55L36.378124 32.55Q36.33125 33.3625 35.815624 34.1125Q35.3 34.846874 34.425 35.284374Q33.565624 35.721874 32.596874 35.721874Q30.659374 35.721874 29.503124 34.425Q28.3625 33.128124 28.3625 30.878124L28.3625 30.6125Q28.3625 29.221874 28.8625 28.14375Q29.378124 27.065624 30.33125 26.471874Q31.284374 25.8625 32.58125 25.8625Q34.190624 25.8625 35.2375 26.83125Q36.3 27.784374 36.378124 29.315624L34.83125 29.315624Q34.76875 28.39375 34.128124 27.8Q33.503124 27.20625 32.58125 27.20625Q31.346874 27.20625 30.659374 28.096874Q29.9875 28.9875 29.9875 30.675L29.9875 30.971874Q29.9875 32.628124 30.659374 33.51875Q31.33125 34.39375 32.596874 34.39375ZM43.315624 33.034374Q43.315624 32.3625 42.815624 32.003124Q42.33125 31.64375 41.096874 31.378124Q39.8625 31.1125 39.128124 30.753124Q38.409374 30.378124 38.05 29.8625Q37.70625 29.346874 37.70625 28.64375Q37.70625 27.4875 38.690624 26.675Q39.690624 25.8625 41.221874 25.8625Q42.846874 25.8625 43.846874 26.70625Q44.8625 27.534374 44.8625 28.83125L43.221874 28.83125Q43.221874 28.159374 42.64375 27.690624Q42.08125 27.20625 41.221874 27.20625Q40.33125 27.20625 39.83125 27.596874Q39.33125 27.971874 39.33125 28.596874Q39.33125 29.190624 39.8 29.4875Q40.26875 29.784374 41.4875 30.065624Q42.70625 30.33125 43.45625 30.70625Q44.221874 31.08125 44.58125 31.6125Q44.940624 32.14375 44.940624 32.909374Q44.940624 34.190624 43.925 34.95625Q42.909374 35.721874 41.284374 35.721874Q40.14375 35.721874 39.253124 35.315624Q38.378124 34.909374 37.878124 34.190624Q37.378124 33.471874 37.378124 32.628124L39.01875 32.628124Q39.05 33.440624 39.659374 33.925Q40.284374 34.39375 41.284374 34.39375Q42.20625 34.39375 42.753124 34.01875Q43.315624 33.64375 43.315624 33.034374ZM48.55 35.55L46.925 35.55L46.925 26.034374L48.55 26.034374L48.55 35.55ZM46.784374 23.51875Q46.784374 23.128124 47.01875 22.8625Q47.26875 22.58125 47.7375 22.58125Q48.221874 22.58125 48.471874 22.8625Q48.721874 23.128124 48.721874 23.51875Q48.721874 23.909374 48.471874 24.175Q48.221874 24.440624 47.7375 24.440624Q47.26875 24.440624 47.01875 24.175Q46.784374 23.909374 46.784374 23.51875ZM54.159374 30.784374L49.878124 30.784374L49.878124 29.45625L54.159374 29.45625L54.159374 30.784374ZM57.409374 27.190624Q58.4875 25.8625 60.221874 25.8625Q63.2375 25.8625 63.253124 29.26875L63.253124 35.55L61.628124 35.55L61.628124 29.253124Q61.628124 28.221874 61.159374 27.7375Q60.70625 27.2375 59.721874 27.2375Q58.940624 27.2375 58.33125 27.659374Q57.7375 28.08125 57.409374 28.76875L57.409374 35.55L55.784374 35.55L55.784374 22.05L57.409374 22.05L57.409374 27.190624ZM65.37813 30.721874Q65.37813 28.534374 66.40938 27.20625Q67.45625 25.8625 69.14375 25.8625Q70.81563 25.8625 71.78438 27.003124L71.78438 22.05L73.40938 22.05L73.40938 35.55L71.90938 35.55L71.83125 34.534374Q70.8625 35.721874 69.12813 35.721874Q67.47188 35.721874 66.425 34.378124Q65.37813 33.01875 65.37813 30.83125L65.37813 30.721874ZM67.01875 30.89375Q67.01875 32.51875 67.675 33.440624Q68.34688 34.346874 69.51875 34.346874Q71.06563 34.346874 71.78438 32.95625L71.78438 28.58125Q71.05 27.2375 69.55 27.2375Q68.34688 27.2375 67.675 28.175Q67.01875 29.096874 67.01875 30.89375ZM75.72188 38.096874L74.8 37.471874Q75.62813 36.315624 75.65938 35.096874L75.65938 33.628124L77.25313 33.628124L77.25313 34.89375Q77.25313 35.784374 76.81563 36.675Q76.39375 37.565624 75.72188 38.096874ZM89.31563 33.034374Q89.31563 32.3625 88.81563 32.003124Q88.33125 31.64375 87.09688 31.378124Q85.8625 31.1125 85.12813 30.753124Q84.40938 30.378124 84.05 29.8625Q83.70625 29.346874 83.70625 28.64375Q83.70625 27.4875 84.69063 26.675Q85.69063 25.8625 87.22188 25.8625Q88.84688 25.8625 89.84688 26.70625Q90.8625 27.534374 90.8625 28.83125L89.22188 28.83125Q89.22188 28.159374 88.64375 27.690624Q88.08125 27.20625 87.22188 27.20625Q86.33125 27.20625 85.83125 27.596874Q85.33125 27.971874 85.33125 28.596874Q85.33125 29.190624 85.8 29.4875Q86.26875 29.784374 87.4875 30.065624Q88.70625 30.33125 89.45625 30.70625Q90.22188 31.08125 90.58125 31.6125Q90.94063 32.14375 90.94063 32.909374Q90.94063 34.190624 89.925 34.95625Q88.90938 35.721874 87.28438 35.721874Q86.14375 35.721874 85.25313 35.315624Q84.37813 34.909374 83.87813 34.190624Q83.37813 33.471874 83.37813 32.628124L85.01875 32.628124Q85.05 33.440624 85.65938 33.925Q86.28438 34.39375 87.28438 34.39375Q88.20625 34.39375 88.75313 34.01875Q89.31563 33.64375 89.31563 33.034374ZM96.59688 34.39375Q97.47188 34.39375 98.1125 33.878124Q98.76875 33.346874 98.83125 32.55L100.37813 32.55Q100.33125 33.3625 99.81563 34.1125Q99.3 34.846874 98.425 35.284374Q97.56563 35.721874 96.59688 35.721874Q94.65938 35.721874 93.50313 34.425Q92.3625 33.128124 92.3625 30.878124L92.3625 30.6125Q92.3625 29.221874 92.8625 28.14375Q93.37813 27.065624 94.33125 26.471874Q95.28438 25.8625 96.58125 25.8625Q98.19063 25.8625 99.2375 26.83125Q100.3 27.784374 100.37813 29.315624L98.83125 29.315624Q98.76875 28.39375 98.12813 27.8Q97.50313 27.20625 96.58125 27.20625Q95.34688 27.20625 94.65938 28.096874Q93.9875 28.9875 93.9875 30.675L93.9875 30.971874Q93.9875 32.628124 94.65938 33.51875Q95.33125 34.39375 96.59688 34.39375ZM107.31563 33.034374Q107.31563 32.3625 106.81563 32.003124Q106.33125 31.64375 105.09688 31.378124Q103.8625 31.1125 103.12813 30.753124Q102.40938 30.378124 102.05 29.8625Q101.70625 29.346874 101.70625 28.64375Q101.70625 27.4875 102.69063 26.675Q103.69063 25.8625 105.22188 25.8625Q106.84688 25.8625 107.84688 26.70625Q108.8625 27.534374 108.8625 28.83125L107.22188 28.83125Q107.22188 28.159374 106.64375 27.690624Q106.08125 27.20625 105.22188 27.20625Q104.33125 27.20625 103.83125 27.596874Q103.33125 27.971874 103.33125 28.596874Q103.33125 29.190624 103.8 29.4875Q104.26875 29.784374 105.4875 30.065624Q106.70625 30.33125 107.45625 30.70625Q108.22188 31.08125 108.58125 31.6125Q108.94063 32.14375 108.94063 32.909374Q108.94063 34.190624 107.925 34.95625Q106.90938 35.721874 105.28438 35.721874Q104.14375 35.721874 103.25313 35.315624Q102.37813 34.909374 101.87813 34.190624Q101.37813 33.471874 101.37813 32.628124L103.01875 32.628124Q103.05 33.440624 103.65938 33.925Q104.28438 34.39375 105.28438 34.39375Q106.20625 34.39375 106.75313 34.01875Q107.31563 33.64375 107.31563 33.034374ZM112.55 35.55L110.925 35.55L110.925 26.034374L112.55 26.034374L112.55 35.55ZM110.78438 23.51875Q110.78438 23.128124 111.01875 22.8625Q111.26875 22.58125 111.7375 22.58125Q112.22188 22.58125 112.47188 22.8625Q112.72188 23.128124 112.72188 23.51875Q112.72188 23.909374 112.47188 24.175Q112.22188 24.440624 111.7375 24.440624Q111.26875 24.440624 111.01875 24.175Q110.78438 23.909374 110.78438 23.51875ZM118.15938 30.784374L113.87813 30.784374L113.87813 29.45625L118.15938 29.45625L118.15938 30.784374ZM127.83125 30.89375Q127.83125 33.08125 126.83125 34.409374Q125.83125 35.721874 124.14375 35.721874Q122.33125 35.721874 121.34688 34.45625L121.26875 35.55L119.78438 35.55L119.78438 22.05L121.40938 22.05L121.40938 27.08125Q122.39375 25.8625 124.1125 25.8625Q125.84688 25.8625 126.83125 27.175Q127.83125 28.4875 127.83125 30.753124L127.83125 30.89375ZM126.20625 30.721874Q126.20625 29.05 125.56563 28.14375Q124.925 27.2375 123.72188 27.2375Q122.1125 27.2375 121.40938 28.7375L121.40938 32.846874Q122.15938 34.346874 123.7375 34.346874Q124.90938 34.346874 125.55 33.440624Q126.20625 32.534374 126.20625 30.721874ZM131.55 35.55L129.925 35.55L129.925 22.05L131.55 22.05L131.55 35.55ZM133.34688 30.70625Q133.34688 29.315624 133.89375 28.20625Q134.45625 27.08125 135.425 26.471874Q136.40938 25.8625 137.65938 25.8625Q139.6125 25.8625 140.8 27.20625Q142.00313 28.55 142.00313 30.784374L142.00313 30.89375Q142.00313 32.284374 141.47188 33.39375Q140.94063 34.4875 139.95625 35.1125Q138.97188 35.721874 137.69063 35.721874Q135.75313 35.721874 134.55 34.378124Q133.34688 33.034374 133.34688 30.815624L133.34688 30.70625ZM134.9875 30.89375Q134.9875 32.4875 135.72188 33.440624Q136.45625 34.39375 137.69063 34.39375Q138.925 34.39375 139.64375 33.425Q140.37813 32.45625 140.37813 30.70625Q140.37813 29.14375 139.62813 28.175Q138.89375 27.20625 137.65938 27.20625Q136.45625 27.20625 135.72188 28.159374Q134.9875 29.1125 134.9875 30.89375ZM147.59688 34.39375Q148.47188 34.39375 149.1125 33.878124Q149.76875 33.346874 149.83125 32.55L151.37813 32.55Q151.33125 33.3625 150.81563 34.1125Q150.3 34.846874 149.425 35.284374Q148.56563 35.721874 147.59688 35.721874Q145.65938 35.721874 144.50313 34.425Q143.3625 33.128124 143.3625 30.878124L143.3625 30.6125Q143.3625 29.221874 143.8625 28.14375Q144.37813 27.065624 145.33125 26.471874Q146.28438 25.8625 147.58125 25.8625Q149.19063 25.8625 150.2375 26.83125Q151.3 27.784374 151.37813 29.315624L149.83125 29.315624Q149.76875 28.39375 149.12813 27.8Q148.50313 27.20625 147.58125 27.20625Q146.34688 27.20625 145.65938 28.096874Q144.9875 28.9875 144.9875 30.675L144.9875 30.971874Q144.9875 32.628124 145.65938 33.51875Q146.33125 34.39375 147.59688 34.39375ZM155.44063 31.14375L154.40938 32.20625L154.40938 35.55L152.78438 35.55L152.78438 22.05L154.40938 22.05L154.40938 30.221874L155.28438 29.175L158.25313 26.034374L160.22188 26.034374L156.51875 30.01875L160.65938 35.55L158.75313 35.55L155.44063 31.14375ZM161.72188 38.096874L160.8 37.471874Q161.62813 36.315624 161.65938 35.096874L161.65938 33.628124L163.25313 33.628124L163.25313 34.89375Q163.25313 35.784374 162.81563 36.675Q162.39375 37.565624 161.72188 38.096874ZM172.925 33.346874L175.26875 26.034374L176.94063 26.034374L173.51875 35.55L172.28438 35.55L168.84688 26.034374L170.50313 26.034374L172.925 33.346874ZM184.31563 33.034374Q184.31563 32.3625 183.81563 32.003124Q183.33125 31.64375 182.09688 31.378124Q180.8625 31.1125 180.12813 30.753124Q179.40938 30.378124 179.05 29.8625Q178.70625 29.346874 178.70625 28.64375Q178.70625 27.4875 179.69063 26.675Q180.69063 25.8625 182.22188 25.8625Q183.84688 25.8625 184.84688 26.70625Q185.8625 27.534374 185.8625 28.83125L184.22188 28.83125Q184.22188 28.159374 183.64375 27.690624Q183.08125 27.20625 182.22188 27.20625Q181.33125 27.20625 180.83125 27.596874Q180.33125 27.971874 180.33125 28.596874Q180.33125 29.190624 180.8 29.4875Q181.26875 29.784374 182.4875 30.065624Q183.70625 30.33125 184.45625 30.70625Q185.22188 31.08125 185.58125 31.6125Q185.94063 32.14375 185.94063 32.909374Q185.94063 34.190624 184.925 34.95625Q183.90938 35.721874 182.28438 35.721874Q181.14375 35.721874 180.25313 35.315624Q179.37813 34.909374 178.87813 34.190624Q178.37813 33.471874 178.37813 32.628124L180.01875 32.628124Q180.05 33.440624 180.65938 33.925Q181.28438 34.39375 182.28438 34.39375Q183.20625 34.39375 183.75313 34.01875Q184.31563 33.64375 184.31563 33.034374ZM197.31563 33.034374Q197.31563 32.3625 196.81563 32.003124Q196.33125 31.64375 195.09688 31.378124Q193.8625 31.1125 193.12813 30.753124Q192.40938 30.378124 192.05 29.8625Q191.70625 29.346874 191.70625 28.64375Q191.70625 27.4875 192.69063 26.675Q193.69063 25.8625 195.22188 25.8625Q196.84688 25.8625 197.84688 26.70625Q198.8625 27.534374 198.8625 28.83125L197.22188 28.83125Q197.22188 28.159374 196.64375 27.690624Q196.08125 27.20625 195.22188 27.20625Q194.33125 27.20625 193.83125 27.596874Q193.33125 27.971874 193.33125 28.596874Q193.33125 29.190624 193.8 29.4875Q194.26875 29.784374 195.4875 30.065624Q196.70625 30.33125 197.45625 30.70625Q198.22188 31.08125 198.58125 31.6125Q198.94063 32.14375 198.94063 32.909374Q198.94063 34.190624 197.925 34.95625Q196.90938 35.721874 195.28438 35.721874Q194.14375 35.721874 193.25313 35.315624Q192.37813 34.909374 191.87813 34.190624Q191.37813 33.471874 191.37813 32.628124L193.01875 32.628124Q193.05 33.440624 193.65938 33.925Q194.28438 34.39375 195.28438 34.39375Q196.20625 34.39375 196.75313 34.01875Q197.31563 33.64375 197.31563 33.034374ZM204.59688 34.39375Q205.47188 34.39375 206.1125 33.878124Q206.76875 33.346874 206.83125 32.55L208.37813 32.55Q208.33125 33.3625 207.81563 34.1125Q207.3 34.846874 206.425 35.284374Q205.56563 35.721874 204.59688 35.721874Q202.65938 35.721874 201.50313 34.425Q200.3625 33.128124 200.3625 30.878124L200.3625 30.6125Q200.3625 29.221874 200.8625 28.14375Q201.37813 27.065624 202.33125 26.471874Q203.28438 25.8625 204.58125 25.8625Q206.19063 25.8625 207.2375 26.83125Q208.3 27.784374 208.37813 29.315624L206.83125 29.315624Q206.76875 28.39375 206.12813 27.8Q205.50313 27.20625 204.58125 27.20625Q203.34688 27.20625 202.65938 28.096874Q201.9875 28.9875 201.9875 30.675L201.9875 30.971874Q201.9875 32.628124 202.65938 33.51875Q203.33125 34.39375 204.59688 34.39375ZM215.31563 33.034374Q215.31563 32.3625 214.81563 32.003124Q214.33125 31.64375 213.09688 31.378124Q211.8625 31.1125 211.12813 30.753124Q210.40938 30.378124 210.05 29.8625Q209.70625 29.346874 209.70625 28.64375Q209.70625 27.4875 210.69063 26.675Q211.69063 25.8625 213.22188 25.8625Q214.84688 25.8625 215.84688 26.70625Q216.8625 27.534374 216.8625 28.83125L215.22188 28.83125Q215.22188 28.159374 214.64375 27.690624Q214.08125 27.20625 213.22188 27.20625Q212.33125 27.20625 211.83125 27.596874Q211.33125 27.971874 211.33125 28.596874Q211.33125 29.190624 211.8 29.4875Q212.26875 29.784374 213.4875 30.065624Q214.70625 30.33125 215.45625 30.70625Q216.22188 31.08125 216.58125 31.6125Q216.94063 32.14375 216.94063 32.909374Q216.94063 34.190624 215.925 34.95625Q214.90938 35.721874 213.28438 35.721874Q212.14375 35.721874 211.25313 35.315624Q210.37813 34.909374 209.87813 34.190624Q209.37813 33.471874 209.37813 32.628124L211.01875 32.628124Q211.05 33.440624 211.65938 33.925Q212.28438 34.39375 213.28438 34.39375Q214.20625 34.39375 214.75313 34.01875Q215.31563 33.64375 215.31563 33.034374ZM220.55 35.55L218.925 35.55L218.925 26.034374L220.55 26.034374L220.55 35.55ZM218.78438 23.51875Q218.78438 23.128124 219.01875 22.8625Q219.26875 22.58125 219.7375 22.58125Q220.22188 22.58125 220.47188 22.8625Q220.72188 23.128124 220.72188 23.51875Q220.72188 23.909374 220.47188 24.175Q220.22188 24.440624 219.7375 24.440624Q219.26875 24.440624 219.01875 24.175Q218.78438 23.909374 218.78438 23.51875ZM226.15938 30.784374L221.87813 30.784374L221.87813 29.45625L226.15938 29.45625L226.15938 30.784374ZM227.39375 30.721874Q227.39375 28.4875 228.425 27.175Q229.45625 25.8625 231.14375 25.8625Q232.89375 25.8625 233.8625 27.096874L233.94063 26.034374L235.425 26.034374L235.425 35.315624Q235.425 37.175 234.33125 38.2375Q233.2375 39.3 231.39375 39.3Q230.3625 39.3 229.37813 38.846874Q228.39375 38.409374 227.87813 37.64375L228.72188 36.675Q229.76875 37.971874 231.28438 37.971874Q232.47188 37.971874 233.12813 37.3Q233.8 36.628124 233.8 35.425L233.8 34.596874Q232.81563 35.721874 231.12813 35.721874Q229.45625 35.721874 228.425 34.378124Q227.39375 33.034374 227.39375 30.721874ZM229.03438 30.89375Q229.03438 32.503124 229.69063 33.425Q230.34688 34.346874 231.53438 34.346874Q233.06563 34.346874 233.8 32.940624L233.8 28.6125Q233.05 27.2375 231.55 27.2375Q230.3625 27.2375 229.69063 28.175Q229.03438 29.096874 229.03438 30.89375ZM241.72188 35.721874Q239.8 35.721874 238.58125 34.45625Q237.3625 33.190624 237.3625 31.065624L237.3625 30.753124Q237.3625 29.346874 237.90938 28.2375Q238.45625 27.128124 239.425 26.503124Q240.39375 25.8625 241.51875 25.8625Q243.37813 25.8625 244.40938 27.08125Q245.44063 28.3 245.44063 30.58125L245.44063 31.253124L238.9875 31.253124Q239.03438 32.659374 239.81563 33.534374Q240.59688 34.39375 241.81563 34.39375Q242.675 34.39375 243.26875 34.05Q243.87813 33.690624 244.31563 33.1125L245.31563 33.89375Q244.1125 35.721874 241.72188 35.721874ZM241.51875 27.20625Q240.53438 27.20625 239.8625 27.925Q239.20625 28.628124 239.05 29.925L243.81563 29.925L243.81563 29.8Q243.7375 28.565624 243.14375 27.89375Q242.55 27.20625 241.51875 27.20625ZM249.31563 26.034374L249.37813 27.2375Q250.45625 25.8625 252.22188 25.8625Q255.2375 25.8625 255.25313 29.26875L255.25313 35.55L253.62813 35.55L253.62813 29.253124Q253.62813 28.221874 253.15938 27.7375Q252.70625 27.2375 251.72188 27.2375Q250.94063 27.2375 250.33125 27.659374Q249.7375 28.08125 249.40938 28.76875L249.40938 35.55L247.78438 35.55L247.78438 26.034374L249.31563 26.034374ZM261.72186 35.721874Q259.8 35.721874 258.58124 34.45625Q257.3625 33.190624 257.3625 31.065624L257.3625 30.753124Q257.3625 29.346874 257.90936 28.2375Q258.45624 27.128124 259.425 26.503124Q260.39374 25.8625 261.51874 25.8625Q263.3781 25.8625 264.40936 27.08125Q265.4406 28.3 265.4406 30.58125L265.4406 31.253124L258.9875 31.253124Q259.03436 32.659374 259.8156 33.534374Q260.59686 34.39375 261.8156 34.39375Q262.675 34.39375 263.26874 34.05Q263.8781 33.690624 264.3156 33.1125L265.3156 33.89375Q264.1125 35.721874 261.72186 35.721874ZM261.51874 27.20625Q260.53436 27.20625 259.8625 27.925Q259.20624 28.628124 259.05 29.925L263.8156 29.925L263.8156 29.8Q263.7375 28.565624 263.14374 27.89375Q262.55 27.20625 261.51874 27.20625ZM272.3781 27.503124Q272.0031 27.440624 271.58124 27.440624Q269.97186 27.440624 269.40936 28.8L269.40936 35.55L267.78436 35.55L267.78436 26.034374L269.3625 26.034374L269.39374 27.14375Q270.1906 25.8625 271.65936 25.8625Q272.1281 25.8625 272.3781 25.9875L272.3781 27.503124ZM275.55 35.55L273.925 35.55L273.925 26.034374L275.55 26.034374L275.55 35.55ZM273.78436 23.51875Q273.78436 23.128124 274.01874 22.8625Q274.26874 22.58125 274.7375 22.58125Q275.22186 22.58125 275.47186 22.8625Q275.72186 23.128124 275.72186 23.51875Q275.72186 23.909374 275.47186 24.175Q275.22186 24.440624 274.7375 24.440624Q274.26874 24.440624 274.01874 24.175Q273.78436 23.909374 273.78436 23.51875ZM281.59686 34.39375Q282.47186 34.39375 283.1125 33.878124Q283.76874 33.346874 283.83124 32.55L285.3781 32.55Q285.33124 33.3625 284.8156 34.1125Q284.3 34.846874 283.425 35.284374Q282.5656 35.721874 281.59686 35.721874Q279.65936 35.721874 278.5031 34.425Q277.3625 33.128124 277.3625 30.878124L277.3625 30.6125Q277.3625 29.221874 277.8625 28.14375Q278.3781 27.065624 279.33124 26.471874Q280.28436 25.8625 281.58124 25.8625Q283.1906 25.8625 284.2375 26.83125Q285.3 27.784374 285.3781 29.315624L283.83124 29.315624Q283.76874 28.39375 283.1281 27.8Q282.5031 27.20625 281.58124 27.20625Q280.34686 27.20625 279.65936 28.096874Q278.9875 28.9875 278.9875 30.675L278.9875 30.971874Q278.9875 32.628124 279.65936 33.51875Q280.33124 34.39375 281.59686 34.39375Z" fill-rule="nonzero"/></svg>