<?xml version="1.0" encoding="UTF-8"?>
<svg id="svg5" width="195.9mm" height="108.74mm" version="1.1" viewBox="0 0 195.9 108.74" xmlns="http://www.w3.org/2000/svg"><defs id="defs2"><marker id="Arrow2Mstart" overflow="visible" orient="auto"><path id="path24651" transform="scale(.6)" d="m8.7186 4.0337-10.926-4.0177 10.926-4.0177c-1.7455 2.3721-1.7354 5.6175-6e-7 8.0354z" fill="context-stroke" fill-rule="evenodd" stroke-linejoin="round" stroke-width=".625"/></marker><marker id="Arrow1Mend" overflow="visible" orient="auto"><path id="path26121" transform="scale(-.6)" d="m8.7186 4.0337-10.926-4.0177 10.926-4.0177c-1.7455 2.3721-1.7354 5.6175-6e-7 8.0354z" fill="context-stroke" fill-rule="evenodd" stroke-linejoin="round" stroke-width=".625"/></marker></defs><rect id="rect23797" x="114.19" y=".26458" width="58.32" height="70.624" rx="5.2917" ry="5.2917" fill="none" stop-color="#000000" stroke="#802400" stroke-dasharray="2.11666, 2.11666" stroke-linecap="round" stroke-width=".52917"/><rect id="rect991" x="120.42" y="20.157" width="33.768" height="13.398" rx="1.7964" ry="1.8948" fill="none" stop-color="#000000" stroke="#000" stroke-width=".52917"/><g id="text3313" stroke-width=".26458px" aria-label="qcow2"><path id="path89" d="m127.04 25.178q0 0.69936 0.28594 1.099 0.28939 0.39619 0.79237 0.39619 0.50299 0 0.79237-0.39619 0.28939-0.39963 0.28939-1.099t-0.28939-1.0955q-0.28938-0.39963-0.79237-0.39963-0.50298 0-0.79237 0.39963-0.28594 0.39619-0.28594 1.0955zm2.1601 1.347q-0.19981 0.34451-0.50643 0.51332-0.30317 0.16536-0.73036 0.16536-0.69935 0-1.1403-0.55811-0.43752-0.55811-0.43752-1.4676t0.43752-1.4676q0.44098-0.5581 1.1403-0.5581 0.42719 0 0.73036 0.16881 0.30662 0.16536 0.50643 0.50988v-0.58567h0.6339v5.3261h-0.6339z"/><path id="path91" d="m133.91 23.393v0.59256q-0.26872-0.14814-0.54088-0.22049-0.26872-0.07579-0.54432-0.07579-0.61668 0-0.95774 0.39274-0.34107 0.3893-0.34107 1.0955t0.34107 1.099q0.34106 0.3893 0.95774 0.3893 0.2756 0 0.54432-0.07235 0.27216-0.07579 0.54088-0.22393v0.58567q-0.26527 0.12402-0.55121 0.18604-0.2825 0.06201-0.6029 0.06201-0.87161 0-1.3849-0.54777t-0.51332-1.4779q0-0.94396 0.51677-1.4848 0.52021-0.54088 1.4228-0.54088 0.29284 0 0.57189 0.06201 0.27905 0.05857 0.54088 0.17914z"/><path id="path93" d="m136.51 23.69q-0.50987 0-0.80615 0.39963-0.29628 0.39619-0.29628 1.0887t0.29284 1.0921q0.29628 0.39619 0.80959 0.39619 0.50643 0 0.80271-0.39963t0.29628-1.0887q0-0.68557-0.29628-1.0852-0.29628-0.40308-0.80271-0.40308zm0-0.53744q0.82683 0 1.2988 0.53744t0.47198 1.4883q0 0.9474-0.47198 1.4883-0.47198 0.53744-1.2988 0.53744-0.83026 0-1.3022-0.53744-0.46854-0.54088-0.46854-1.4883 0-0.95085 0.46854-1.4883 0.47198-0.53744 1.3022-0.53744z"/><path id="path95" d="m138.97 23.245h0.6339l0.79237 3.011 0.78893-3.011h0.74759l0.79237 3.011 0.78893-3.011h0.6339l-1.0094 3.8585h-0.74758l-0.83027-3.1626-0.83372 3.1626h-0.74758z"/><path id="path97" d="m145.79 26.518h2.4288v0.58567h-3.266v-0.58567q0.39619-0.40997 1.0783-1.099 0.68558-0.69246 0.86128-0.89228 0.33417-0.37552 0.46509-0.6339 0.13436-0.26183 0.13436-0.51332 0-0.40997-0.28939-0.66835-0.28595-0.25838-0.74759-0.25838-0.32728 0-0.69246 0.11369-0.36174 0.11369-0.77515 0.34451v-0.7028q0.4203-0.16881 0.78548-0.25494 0.36518-0.08613 0.66835-0.08613 0.79926 0 1.2747 0.39963 0.47542 0.39963 0.47542 1.068 0 0.31695-0.12058 0.60289-0.11713 0.2825-0.43063 0.66835-0.0861 0.09991-0.54778 0.57878-0.46164 0.47542-1.3022 1.3333z"/></g><rect id="rect9379" x="120.42" y="48.868" width="33.768" height="13.398" rx="1.7964" ry="1.8948" fill="none" stop-color="#000000" stroke="#000" stroke-width=".52917"/><g id="text9383" stroke-width=".26458px" aria-label="file"><path id="path117" d="m135.82 52.17v3.8585h-0.63734v-3.3659h-1.7398v3.3659h-0.63734v-3.3659h-0.60634v-0.49265h0.60634v-0.26872q0-0.63045 0.29628-0.93018 0.29972-0.30317 0.91639-0.30317h0.63735v0.5271h-0.60634q-0.34106 0-0.47542 0.1378-0.13092 0.1378-0.13092 0.49609v0.34106zm-0.63734-1.4952h0.63734v0.80271h-0.63734z"/><path id="path119" d="m137.15 50.668h0.6339v5.3606h-0.6339z"/><path id="path121" d="m142.41 53.941v0.31006h-2.9146q0.0413 0.65457 0.39275 0.99908 0.35484 0.34106 0.98529 0.34106 0.36518 0 0.70625-0.08957 0.34451-0.08957 0.68213-0.26872v0.59945q-0.34107 0.14469-0.69936 0.22049-0.35829 0.07579-0.72691 0.07579-0.92329 0-1.4642-0.53744-0.53743-0.53744-0.53743-1.4538 0-0.9474 0.50987-1.5021 0.51332-0.55811 1.3815-0.55811 0.7786 0 1.2299 0.50298 0.45476 0.49954 0.45476 1.3608zm-0.6339-0.18604q-7e-3 -0.52021-0.29283-0.83027-0.2825-0.31006-0.75103-0.31006-0.53055 0-0.85094 0.29972-0.31695 0.29972-0.36518 0.84405z"/></g><g id="g22369" transform="translate(183.89 21.111)" fill="none" stroke="#aaa" stroke-width=".52917"><path id="rect18531" d="m-53.494 58.06h10.715l3.1067 3.4104v16.022h-13.822z" stop-color="#000000"/><path id="path21920" d="m-42.779 58.06v3.41l3.1067 1e-6" stroke-linecap="round" style="paint-order:normal"/></g><g id="g25195" transform="translate(224.36 35.205)"><rect id="rect22371" x="-66.56" y="-29.781" width="29.28" height="17.692" fill="#fff" fill-rule="evenodd" stop-color="#000000" stroke="#808080" stroke-width=".52917"/><g id="text22477" fill="#808080" stroke-width=".26458px" aria-label="FUSE server"><path id="path68" d="m-60.499-27.145h2.9559v0.58567h-2.26v1.5158h2.0395v0.58567h-2.0395v2.4564h-0.69591z"/><path id="path70" d="m-56.519-27.145h0.69936v3.1247q0 0.82682 0.29972 1.192 0.29972 0.36174 0.97152 0.36174 0.66835 0 0.96807-0.36174 0.29972-0.36518 0.29972-1.192v-3.1247h0.69936v3.2108q0 1.006-0.49954 1.5193-0.49609 0.51332-1.4676 0.51332-0.97496 0-1.4745-0.51332-0.49609-0.51332-0.49609-1.5193z"/><path id="path72" d="m-48.193-26.976v0.67868q-0.39619-0.18948-0.74759-0.2825-0.3514-0.09302-0.67868-0.09302-0.56844 0-0.8785 0.22049-0.30661 0.22049-0.30661 0.62701 0 0.34106 0.20326 0.51676 0.20671 0.17226 0.77859 0.27905l0.4203 0.08613q0.77859 0.14814 1.1472 0.52366 0.37207 0.37207 0.37207 0.99908 0 0.74759-0.50298 1.1334-0.49954 0.38585-1.4676 0.38585-0.36518 0-0.77859-0.08268-0.40997-0.08268-0.85094-0.2446v-0.71658q0.42375 0.23771 0.83027 0.35829 0.40652 0.12058 0.79926 0.12058 0.596 0 0.91984-0.23427 0.32384-0.23427 0.32384-0.66835 0-0.37896-0.23427-0.59256-0.23082-0.2136-0.76137-0.3204l-0.42375-0.08268q-0.77859-0.15503-1.1265-0.48576-0.34796-0.33073-0.34796-0.91984 0-0.68213 0.47887-1.0749 0.48231-0.39274 1.3264-0.39274 0.36174 0 0.73725 0.06546 0.37552 0.06546 0.76826 0.19637z"/><path id="path74" d="m-46.797-27.145h3.2522v0.58567h-2.5563v1.5227h2.4495v0.58567h-2.4495v1.8638h2.6183v0.58567h-3.3142z"/><path id="path76" d="m-60.154-18.691v0.59945q-0.26872-0.1378-0.55811-0.20671-0.28939-0.0689-0.59945-0.0689-0.47198 0-0.70969 0.14469-0.23427 0.14469-0.23427 0.43408 0 0.22049 0.16881 0.34796 0.16881 0.12402 0.67868 0.23771l0.21704 0.04823q0.67524 0.14469 0.95774 0.40997 0.28594 0.26183 0.28594 0.73381 0 0.53744-0.42719 0.85094-0.42375 0.3135-1.1679 0.3135-0.31006 0-0.64768-0.06201-0.33417-0.05857-0.70624-0.17914v-0.65457q0.3514 0.18259 0.69246 0.27561 0.34106 0.08957 0.67524 0.08957 0.44786 0 0.68902-0.15158 0.24116-0.15503 0.24116-0.43408 0-0.25838-0.1757-0.39619-0.17226-0.1378-0.76137-0.26527l-0.22049-0.05168q-0.58911-0.12402-0.85094-0.37896-0.26183-0.25838-0.26183-0.70624 0-0.54432 0.38585-0.8406 0.38585-0.29628 1.0955-0.29628 0.3514 0 0.66146 0.05168t0.57189 0.15503z"/><path id="path78" d="m-55.638-17.034v0.31006h-2.9146q0.04134 0.65457 0.39274 0.99908 0.35484 0.34106 0.9853 0.34106 0.36518 0 0.70625-0.08957 0.34451-0.08957 0.68213-0.26872v0.59945q-0.34106 0.14469-0.69936 0.22049-0.35829 0.07579-0.72692 0.07579-0.92329 0-1.4642-0.53744-0.53744-0.53744-0.53744-1.4538 0-0.9474 0.50987-1.5021 0.51332-0.55811 1.3815-0.55811 0.77859 0 1.2299 0.50298 0.45475 0.49954 0.45475 1.3608zm-0.6339-0.18604q-0.0069-0.52021-0.29283-0.83027-0.2825-0.31006-0.75103-0.31006-0.53054 0-0.85094 0.29972-0.31695 0.29972-0.36518 0.84405z"/><path id="path80" d="m-52.361-18.212q-0.1068-0.06201-0.23427-0.08957-0.12402-0.03101-0.27561-0.03101-0.53744 0-0.82682 0.3514-0.28594 0.34796-0.28594 1.0025v2.0326h-0.63734v-3.8585h0.63734v0.59945q0.19982-0.3514 0.52021-0.52021 0.32039-0.17226 0.77859-0.17226 0.06546 0 0.14469 0.01034 0.07924 0.0069 0.1757 0.02412z"/><path id="path82" d="m-52.151-18.805h0.67179l1.2058 3.2384 1.2058-3.2384h0.67179l-1.4469 3.8585h-0.86128z"/><path id="path84" d="m-44.22-17.034v0.31006h-2.9146q0.04134 0.65457 0.39274 0.99908 0.35484 0.34106 0.9853 0.34106 0.36518 0 0.70624-0.08957 0.34451-0.08957 0.68213-0.26872v0.59945q-0.34106 0.14469-0.69936 0.22049-0.35829 0.07579-0.72692 0.07579-0.92329 0-1.4642-0.53744-0.53744-0.53744-0.53744-1.4538 0-0.9474 0.50988-1.5021 0.51332-0.55811 1.3815-0.55811 0.77859 0 1.2299 0.50298 0.45475 0.49954 0.45475 1.3608zm-0.6339-0.18604q-0.0069-0.52021-0.29283-0.83027-0.2825-0.31006-0.75103-0.31006-0.53054 0-0.85094 0.29972-0.31695 0.29972-0.36518 0.84405z"/><path id="path86" d="m-40.944-18.212q-0.1068-0.06201-0.23427-0.08957-0.12402-0.03101-0.27561-0.03101-0.53744 0-0.82682 0.3514-0.28594 0.34796-0.28594 1.0025v2.0326h-0.63734v-3.8585h0.63734v0.59945q0.19982-0.3514 0.52021-0.52021 0.32039-0.17226 0.77859-0.17226 0.06546 0 0.14469 0.01034 0.07924 0.0069 0.1757 0.02412z"/></g></g><path id="path24007" d="m137.3 67.339v10.837" fill="none" marker-end="url(#Arrow1Mend)" marker-start="url(#Arrow2Mstart)" stroke="#000" stroke-dasharray="1.05833, 1.05833" stroke-width=".52917" style="paint-order:normal"/><path id="path25180" d="m137.3 38.694v9.2246" fill="none" marker-end="url(#Arrow1Mend)" marker-start="url(#Arrow2Mstart)" stroke="#000" stroke-dasharray="1.05833, 1.05833" stroke-width=".52917" style="paint-order:normal"/><rect id="rect35415" x="122.49" y="57.933" width="29.634" height="8.4415" fill="#fff" fill-rule="evenodd" stop-color="#000000" stroke="#000" stroke-linecap="round" stroke-width=".529"/><g id="text35918" stroke-width=".26458px" aria-label="prot-node"><path id="path124" d="m126.04 63.274v1.4325h-0.44614v-3.7283h0.44614v0.40997q0.13987-0.24116 0.35209-0.35691 0.21463-0.11817 0.51125-0.11817 0.49196 0 0.79823 0.39067 0.30868 0.39067 0.30868 1.0273t-0.30868 1.0273q-0.30627 0.39067-0.79823 0.39067-0.29662 0-0.51125-0.11576-0.21222-0.11817-0.35209-0.35932zm1.5096-0.94292q0-0.48955-0.20257-0.76688-0.20016-0.27974-0.55225-0.27974t-0.55466 0.27974q-0.20016 0.27733-0.20016 0.76688t0.20016 0.76929q0.20257 0.27733 0.55466 0.27733t0.55225-0.27733q0.20257-0.27974 0.20257-0.76929z"/><path id="path126" d="m130.31 61.393q-0.0748-0.04341-0.16398-0.0627-0.0868-0.0217-0.19293-0.0217-0.3762 0-0.57877 0.24598-0.20016 0.24357-0.20016 0.70177v1.4228h-0.44614v-2.701h0.44614v0.41961q0.13987-0.24598 0.36414-0.36415 0.22428-0.12058 0.54502-0.12058 0.0458 0 0.10128 0.0072 0.0555 0.0048 0.12299 0.01688z"/><path id="path128" d="m131.72 61.29q-0.35692 0-0.56431 0.27974-0.20739 0.27733-0.20739 0.76206t0.20498 0.76447q0.20739 0.27733 0.56672 0.27733 0.3545 0 0.56189-0.27974 0.2074-0.27974 0.2074-0.76206 0-0.4799-0.2074-0.75964-0.20739-0.28215-0.56189-0.28215zm0-0.3762q0.57877 0 0.90916 0.3762 0.33038 0.3762 0.33038 1.0418 0 0.66318-0.33038 1.0418-0.33039 0.3762-0.90916 0.3762-0.58119 0-0.91158-0.3762-0.32797-0.37862-0.32797-1.0418 0-0.66559 0.32797-1.0418 0.33039-0.3762 0.91158-0.3762z"/><path id="path130" d="m134.13 60.212v0.76688h0.91398v0.34485h-0.91398v1.4662q0 0.33038 0.0892 0.42444 0.0916 0.09405 0.36897 0.09405h0.45579v0.37138h-0.45579q-0.51366 0-0.709-0.19051-0.19533-0.19293-0.19533-0.69936v-1.4662h-0.32557v-0.34485h0.32557v-0.76688z"/><path id="path132" d="m135.4 62.129h1.2998v0.3955h-1.2998z"/><path id="path134" d="m139.66 62.049v1.6302h-0.44373v-1.6158q0-0.38344-0.14952-0.57395t-0.44855-0.19051q-0.35932 0-0.56672 0.2291-0.20739 0.2291-0.20739 0.6246v1.5265h-0.44614v-2.701h0.44614v0.41961q0.15916-0.24357 0.37379-0.36415 0.21704-0.12058 0.49919-0.12058 0.46544 0 0.70418 0.28939 0.23875 0.28698 0.23875 0.84646z"/><path id="path136" d="m141.59 61.29q-0.35691 0-0.56431 0.27974-0.20739 0.27733-0.20739 0.76206t0.20498 0.76447q0.2074 0.27733 0.56672 0.27733 0.3545 0 0.5619-0.27974 0.20739-0.27974 0.20739-0.76206 0-0.4799-0.20739-0.75964-0.2074-0.28215-0.5619-0.28215zm0-0.3762q0.57878 0 0.90916 0.3762 0.33039 0.3762 0.33039 1.0418 0 0.66318-0.33039 1.0418-0.33038 0.3762-0.90916 0.3762-0.58119 0-0.91157-0.3762-0.32797-0.37862-0.32797-1.0418 0-0.66559 0.32797-1.0418 0.33038-0.3762 0.91157-0.3762z"/><path id="path138" d="m145.34 61.389v-1.4614h0.44373v3.7524h-0.44373v-0.40514q-0.13987 0.24116-0.3545 0.35932-0.21222 0.11576-0.51125 0.11576-0.48955 0-0.79823-0.39067-0.30627-0.39067-0.30627-1.0273t0.30627-1.0273q0.30868-0.39067 0.79823-0.39067 0.29903 0 0.51125 0.11817 0.21463 0.11576 0.3545 0.35691zm-1.512 0.94292q0 0.48955 0.20016 0.76929 0.20257 0.27733 0.55466 0.27733t0.55466-0.27733q0.20257-0.27974 0.20257-0.76929t-0.20257-0.76688q-0.20257-0.27974-0.55466-0.27974t-0.55466 0.27974q-0.20016 0.27733-0.20016 0.76688z"/><path id="path140" d="m149.01 62.218v0.21704h-2.0402q0.0289 0.4582 0.27492 0.69935 0.24839 0.23874 0.68971 0.23874 0.25562 0 0.49437-0.0627 0.24115-0.0627 0.47749-0.1881v0.41961q-0.23875 0.10129-0.48955 0.15434-0.2508 0.05306-0.50884 0.05306-0.6463 0-1.0249-0.3762-0.3762-0.3762-0.3762-1.0177 0-0.66318 0.35691-1.0514 0.35932-0.39067 0.96704-0.39067 0.54501 0 0.86093 0.35209 0.31832 0.34968 0.31832 0.95257zm-0.44372-0.13022q-5e-3 -0.36415-0.20499-0.58119-0.19775-0.21704-0.52572-0.21704-0.37138 0-0.59566 0.20981-0.22186 0.20981-0.25562 0.59083z"/></g><rect id="rect38770" x="122.49" y="29.267" width="29.634" height="8.4415" fill="#fff" fill-rule="evenodd" stop-color="#000000" stroke="#000" stroke-linecap="round" stroke-width=".529"/><g id="text38774" stroke-width=".26458px" aria-label="fmt-node"><path id="path100" d="m127.91 31.456v0.36897h-0.42443q-0.23875 0-0.3328 0.09646-0.0916 0.09646-0.0916 0.34727v0.23874h0.73071v0.34485h-0.73071v2.3561h-0.44614v-2.3561h-0.42443v-0.34485h0.42443v-0.1881q0-0.45096 0.20981-0.65595 0.2098-0.20739 0.66559-0.20739z"/><path id="path102" d="m130.39 33.026q0.1664-0.29903 0.39791-0.44132 0.23151-0.14228 0.54501-0.14228 0.42203 0 0.65113 0.29662 0.2291 0.29421 0.2291 0.83923v1.6302h-0.44614v-1.6158q0-0.38826-0.13746-0.57636-0.13746-0.1881-0.41962-0.1881-0.34485 0-0.54501 0.2291t-0.20016 0.6246v1.5265h-0.44614v-1.6158q0-0.39067-0.13746-0.57636-0.13746-0.1881-0.42443-0.1881-0.34004 0-0.5402 0.23151-0.20016 0.2291-0.20016 0.62218v1.5265h-0.44614v-2.701h0.44614v0.41961q0.15193-0.24839 0.36415-0.36656 0.21222-0.11817 0.50402-0.11817 0.29421 0 0.49919 0.14952 0.2074 0.14952 0.30627 0.43408z"/><path id="path104" d="m133.53 31.74v0.76688h0.91398v0.34485h-0.91398v1.4662q0 0.33038 0.0892 0.42444 0.0916 0.09405 0.36897 0.09405h0.45578v0.37138h-0.45575q-0.51367 0-0.70901-0.19051-0.19533-0.19293-0.19533-0.69936v-1.4662h-0.32556v-0.34485h0.32556v-0.76688z"/><path id="path106" d="m134.81 33.657h1.2998v0.3955h-1.2998z"/><path id="path108" d="m139.06 33.578v1.6302h-0.44373v-1.6158q0-0.38344-0.14952-0.57395-0.14951-0.19051-0.44855-0.19051-0.35932 0-0.56672 0.2291-0.20739 0.2291-0.20739 0.6246v1.5265h-0.44614v-2.701h0.44614v0.41961q0.15916-0.24357 0.37379-0.36415 0.21704-0.12058 0.4992-0.12058 0.46543 0 0.70417 0.28939 0.23875 0.28698 0.23875 0.84646z"/><path id="path110" d="m140.99 32.818q-0.35691 0-0.5643 0.27974-0.2074 0.27733-0.2074 0.76206t0.20499 0.76447q0.20739 0.27733 0.56671 0.27733 0.3545 0 0.5619-0.27974 0.20739-0.27974 0.20739-0.76206 0-0.4799-0.20739-0.75964-0.2074-0.28215-0.5619-0.28215zm0-0.3762q0.57878 0 0.90916 0.3762 0.33039 0.3762 0.33039 1.0418 0 0.66318-0.33039 1.0418-0.33038 0.3762-0.90916 0.3762-0.58118 0-0.91157-0.3762-0.32797-0.37862-0.32797-1.0418 0-0.66559 0.32797-1.0418 0.33039-0.3762 0.91157-0.3762z"/><path id="path112" d="m144.74 32.917v-1.4614h0.44373v3.7524h-0.44373v-0.40514q-0.13987 0.24116-0.3545 0.35932-0.21222 0.11576-0.51125 0.11576-0.48955 0-0.79823-0.39067-0.30627-0.39067-0.30627-1.0273 0-0.63665 0.30627-1.0273 0.30868-0.39067 0.79823-0.39067 0.29903 0 0.51125 0.11817 0.21463 0.11576 0.3545 0.35691zm-1.512 0.94292q0 0.48955 0.20016 0.76929 0.20257 0.27733 0.55466 0.27733t0.55466-0.27733q0.20257-0.27974 0.20257-0.76929t-0.20257-0.76688q-0.20257-0.27974-0.55466-0.27974t-0.55466 0.27974q-0.20016 0.27733-0.20016 0.76688z"/><path id="path114" d="m148.41 33.747v0.21704h-2.0402q0.0289 0.4582 0.27492 0.69935 0.24839 0.23874 0.68971 0.23874 0.25562 0 0.49437-0.0627 0.24116-0.0627 0.47749-0.1881v0.41961q-0.23874 0.10129-0.48955 0.15434-0.2508 0.05306-0.50884 0.05306-0.6463 0-1.0249-0.3762-0.37621-0.3762-0.37621-1.0177 0-0.66318 0.35691-1.0514 0.35933-0.39067 0.96704-0.39067 0.54502 0 0.86093 0.35209 0.31833 0.34968 0.31833 0.95257zm-0.44373-0.13022q-5e-3 -0.36415-0.20498-0.58119-0.19775-0.21704-0.52573-0.21704-0.37138 0-0.59565 0.20981-0.22187 0.20981-0.25563 0.59083z"/></g><path id="path8203" d="m137.83 19.196c0-8.7692 8.1536-8.1536 8.1536-8.1536h10.854" fill="none" marker-end="url(#Arrow1Mend)" marker-start="url(#Arrow2Mstart)" stroke="#000" stroke-dasharray="1.05833, 1.05833" stroke-width=".52917" style="paint-order:normal"/><g id="g9231" transform="translate(186.33 23.805)" fill="#fff" fill-rule="evenodd" stroke="#0081cf"><path id="path9227" d="m-53.494 58.06h10.715l3.1067 3.4104v16.022h-13.822z" stop-color="#000000" stroke-width=".52917"/><path id="path9229" d="m-42.779 58.06v3.41l3.1067 1e-6z" stroke-linecap="round" stroke-linejoin="round" stroke-width=".529" style="paint-order:normal"/></g><g id="text9935" fill="#0081cf" stroke-width=".26458px" aria-label="foo.qcow2"><path id="path143" d="m121.81 101.76v0.5271h-0.72002q-0.34107 0-0.47543 0.14125-0.13091 0.1378-0.13091 0.49264v0.34107h1.3264v0.49265h-1.3264v3.3659h-0.6339v-3.3659h-1.0301v-0.49265h1.0301v-0.26872q0-0.6339 0.28939-0.93362 0.29283-0.29972 0.90951-0.29972z"/><path id="path145" d="m124.52 103.71q-0.48231 0-0.73036 0.37551-0.24805 0.37552-0.24805 1.1128 0 0.7338 0.24805 1.1128 0.24805 0.37551 0.73036 0.37551 0.48576 0 0.7338-0.37551 0.24805-0.37897 0.24805-1.1128 0-0.73725-0.24805-1.1128-0.24804-0.37551-0.7338-0.37551zm0-0.53744q0.80271 0 1.2264 0.52021 0.4272 0.52021 0.4272 1.5055 0 0.98874-0.42375 1.509-0.42375 0.51677-1.2299 0.51677-0.80271 0-1.2265-0.51677-0.42374-0.52021-0.42374-1.509 0-0.9853 0.42374-1.5055 0.42375-0.52021 1.2265-0.52021z"/><path id="path147" d="m128.77 103.71q-0.48231 0-0.73036 0.37551-0.24804 0.37552-0.24804 1.1128 0 0.7338 0.24804 1.1128 0.24805 0.37551 0.73036 0.37551 0.48576 0 0.73381-0.37551 0.24805-0.37897 0.24805-1.1128 0-0.73725-0.24805-1.1128-0.24805-0.37551-0.73381-0.37551zm0-0.53744q0.80271 0 1.2265 0.52021 0.42719 0.52021 0.42719 1.5055 0 0.98874-0.42375 1.509-0.42374 0.51677-1.2299 0.51677-0.8027 0-1.2264-0.51677-0.42375-0.52021-0.42375-1.509 0-0.9853 0.42375-1.5055t1.2264-0.52021z"/><path id="path149" d="m132.58 106.07h0.86817v1.0508h-0.86817z"/><path id="path151" d="m136.29 105.21q0 0.73725 0.23082 1.1128 0.23427 0.37551 0.69246 0.37551 0.4582 0 0.69247-0.37551 0.23771-0.37896 0.23771-1.1128t-0.23771-1.1093q-0.23427-0.37896-0.69247-0.37896-0.45819 0-0.69246 0.37551-0.23082 0.37552-0.23082 1.1128zm1.8535 1.4332q-0.15503 0.28594-0.4203 0.44097-0.26183 0.15159-0.60978 0.15159-0.69247 0-1.0955-0.53399-0.39964-0.53744-0.39964-1.478 0-0.95774 0.39964-1.4986 0.39963-0.54088 1.0955-0.54088 0.34451 0 0.60633 0.15159 0.26528 0.14814 0.42375 0.43408v-0.49265h0.63734v5.3261h-0.63734z"/><path id="path153" d="m143.05 106.93q-0.25494 0.14814-0.5271 0.22048-0.26872 0.0758-0.55121 0.0758-0.89573 0-1.4022-0.53744-0.50298-0.53743-0.50298-1.4883t0.50298-1.4883q0.50643-0.53744 1.4022-0.53744 0.27905 0 0.54432 0.0724t0.53399 0.22393v0.6649q-0.25149-0.22393-0.50643-0.32384-0.25149-0.0999-0.57188-0.0999-0.59601 0-0.9164 0.38585t-0.32039 1.1024q0 0.71313 0.32039 1.1024 0.32384 0.38585 0.9164 0.38585 0.33072 0 0.59255-0.0999 0.26183-0.10335 0.48576-0.31695z"/><path id="path155" d="m145.76 103.71q-0.48232 0-0.73036 0.37551-0.24805 0.37552-0.24805 1.1128 0 0.7338 0.24805 1.1128 0.24804 0.37551 0.73036 0.37551 0.48576 0 0.7338-0.37551 0.24805-0.37897 0.24805-1.1128 0-0.73725-0.24805-1.1128-0.24804-0.37551-0.7338-0.37551zm0-0.53744q0.8027 0 1.2264 0.52021 0.42719 0.52021 0.42719 1.5055 0 0.98874-0.42374 1.509-0.42375 0.51677-1.2299 0.51677-0.80271 0-1.2265-0.51677-0.42374-0.52021-0.42374-1.509 0-0.9853 0.42374-1.5055 0.42375-0.52021 1.2265-0.52021z"/><path id="path157" d="m147.89 103.26h0.62701l0.67179 3.1178 0.55122-1.9913h0.54088l0.55811 1.9913 0.67179-3.1178h0.62701l-0.90262 3.8585h-0.60634l-0.61667-2.1153-0.61323 2.1153h-0.60633z"/><path id="path159" d="m153.42 106.54h2.3633v0.58567h-3.1247v-0.58567q0.64424-0.67868 1.1266-1.1989t0.6649-0.73381q0.34451-0.4203 0.46509-0.67868 0.12058-0.26183 0.12058-0.53399 0-0.43064-0.25494-0.67524-0.25149-0.2446-0.69246-0.2446-0.31351 0-0.65802 0.11368-0.34451 0.11369-0.73036 0.34451v-0.7028q0.35485-0.16881 0.69591-0.25493 0.34451-0.0861 0.67869-0.0861 0.75447 0 1.2127 0.40308 0.46165 0.39963 0.46165 1.0508 0 0.33073-0.15503 0.66146-0.15159 0.33073-0.4961 0.73036-0.19292 0.22393-0.56155 0.62012-0.36518 0.39618-1.1162 1.1851z"/></g><rect id="rect876" x=".26458" y="13.714" width="46.311" height="57.175" rx="5.2917" ry="5.2917" fill="none" stop-color="#000000" stroke="#802400" stroke-dasharray="2.11666, 2.11666" stroke-linecap="round" stroke-width=".52917"/><rect id="rect878" x="6.5361" y="20.157" width="33.768" height="13.398" rx="1.7964" ry="1.8948" fill="none" stop-color="#000000" stroke="#000" stroke-width=".52917"/><g id="text882" stroke-width=".26458px" aria-label="qcow2"><path id="path265" d="m13.155 25.178q0 0.69936 0.28594 1.099 0.28939 0.39619 0.79237 0.39619 0.50298 0 0.79237-0.39619 0.28939-0.39963 0.28939-1.099t-0.28939-1.0955q-0.28939-0.39963-0.79237-0.39963-0.50298 0-0.79237 0.39963-0.28594 0.39619-0.28594 1.0955zm2.1601 1.347q-0.19982 0.34451-0.50643 0.51332-0.30317 0.16536-0.73036 0.16536-0.69936 0-1.1403-0.55811-0.43753-0.55811-0.43753-1.4676t0.43753-1.4676q0.44097-0.5581 1.1403-0.5581 0.42719 0 0.73036 0.16881 0.30661 0.16536 0.50643 0.50988v-0.58567h0.6339v5.3261h-0.6339z"/><path id="path267" d="m20.032 23.393v0.59256q-0.26872-0.14814-0.54088-0.22049-0.26872-0.07579-0.54433-0.07579-0.61667 0-0.95774 0.39274-0.34106 0.3893-0.34106 1.0955t0.34106 1.099q0.34106 0.3893 0.95774 0.3893 0.27561 0 0.54433-0.07235 0.27216-0.07579 0.54088-0.22393v0.58567q-0.26527 0.12402-0.55122 0.18604-0.2825 0.06201-0.60289 0.06201-0.87161 0-1.3849-0.54777-0.51332-0.54777-0.51332-1.4779 0-0.94396 0.51676-1.4848 0.52021-0.54088 1.4228-0.54088 0.29283 0 0.57189 0.06201 0.27905 0.05857 0.54088 0.17914z"/><path id="path269" d="m22.629 23.69q-0.50988 0-0.80615 0.39963-0.29628 0.39619-0.29628 1.0887t0.29283 1.0921q0.29628 0.39619 0.8096 0.39619 0.50643 0 0.80271-0.39963 0.29628-0.39963 0.29628-1.0887 0-0.68557-0.29628-1.0852-0.29628-0.40308-0.80271-0.40308zm0-0.53744q0.82682 0 1.2988 0.53744 0.47198 0.53744 0.47198 1.4883 0 0.9474-0.47198 1.4883-0.47198 0.53744-1.2988 0.53744-0.83027 0-1.3022-0.53744-0.46853-0.54088-0.46853-1.4883 0-0.95085 0.46853-1.4883 0.47198-0.53744 1.3022-0.53744z"/><path id="path271" d="m25.082 23.245h0.6339l0.79237 3.011 0.78893-3.011h0.74759l0.79237 3.011 0.78893-3.011h0.6339l-1.0094 3.8585h-0.74759l-0.83027-3.1626-0.83371 3.1626h-0.74759z"/><path id="path273" d="m31.91 26.518h2.4288v0.58567h-3.266v-0.58567q0.39619-0.40997 1.0783-1.099 0.68557-0.69246 0.86127-0.89228 0.33418-0.37552 0.46509-0.6339 0.13436-0.26183 0.13436-0.51332 0-0.40997-0.28939-0.66835-0.28594-0.25838-0.74759-0.25838-0.32728 0-0.69246 0.11369-0.36174 0.11369-0.77515 0.34451v-0.7028q0.4203-0.16881 0.78548-0.25494 0.36518-0.08613 0.66835-0.08613 0.79926 0 1.2747 0.39963 0.47542 0.39963 0.47542 1.068 0 0.31695-0.12058 0.60289-0.11713 0.2825-0.43064 0.66835-0.08613 0.09991-0.54777 0.57878-0.46164 0.47542-1.3022 1.3333z"/></g><rect id="rect884" x="6.5361" y="48.868" width="33.768" height="13.398" rx="1.7964" ry="1.8948" fill="none" stop-color="#000000" stroke="#000" stroke-width=".52917"/><g id="text888" stroke-width=".26458px" aria-label="file"><path id="path276" d="m21.937 52.17v3.8585h-0.63734v-3.3659h-1.7398v3.3659h-0.63734v-3.3659h-0.60634v-0.49265h0.60634v-0.26872q0-0.63045 0.29628-0.93018 0.29972-0.30317 0.9164-0.30317h0.63734v0.5271h-0.60634q-0.34106 0-0.47542 0.1378-0.13091 0.1378-0.13091 0.49609v0.34106zm-0.63734-1.4952h0.63734v0.80271h-0.63734z"/><path id="path278" d="m23.263 50.668h0.6339v5.3606h-0.6339z"/><path id="path280" d="m28.524 53.941v0.31006h-2.9146q0.04134 0.65457 0.39274 0.99908 0.35484 0.34106 0.9853 0.34106 0.36518 0 0.70624-0.08957 0.34451-0.08957 0.68213-0.26872v0.59945q-0.34106 0.14469-0.69935 0.22049-0.35829 0.07579-0.72692 0.07579-0.92329 0-1.4642-0.53744-0.53744-0.53744-0.53744-1.4538 0-0.9474 0.50988-1.5021 0.51332-0.55811 1.3815-0.55811 0.77859 0 1.2299 0.50298 0.45475 0.49954 0.45475 1.3608zm-0.6339-0.18604q-0.0069-0.52021-0.29283-0.83027-0.2825-0.31006-0.75103-0.31006-0.53054 0-0.85094 0.29972-0.31695 0.29972-0.36518 0.84405z"/></g><g id="g894" transform="translate(70.003 21.111)" fill="none" stroke="#000" stroke-width=".52917"><path id="path890" d="m-53.494 58.06h10.715l3.1067 3.4104v16.022h-13.822z" stop-color="#000000"/><path id="path892" d="m-42.779 58.06v3.41l3.1067 1e-6" stroke-linecap="round" style="paint-order:normal"/></g><path id="path906" d="m23.415 67.339v10.837" fill="none" marker-end="url(#Arrow1Mend)" marker-start="url(#Arrow2Mstart)" stroke="#000" stroke-dasharray="1.05833, 1.05833" stroke-width=".52917" style="paint-order:normal"/><path id="path908" d="m23.415 38.694v9.2246" fill="none" marker-end="url(#Arrow1Mend)" marker-start="url(#Arrow2Mstart)" stroke="#000" stroke-dasharray="1.05833, 1.05833" stroke-width=".52917" style="paint-order:normal"/><rect id="rect910" x="8.603" y="57.933" width="29.634" height="8.4415" fill="#fff" fill-rule="evenodd" stop-color="#000000" stroke="#000" stroke-linecap="round" stroke-width=".529"/><g id="text914" stroke-width=".26458px" aria-label="prot-node"><path id="path283" d="m12.16 63.274v1.4325h-0.44614v-3.7283h0.44614v0.40997q0.13987-0.24116 0.35209-0.35691 0.21463-0.11817 0.51125-0.11817 0.49196 0 0.79823 0.39067 0.30868 0.39067 0.30868 1.0273t-0.30868 1.0273q-0.30627 0.39067-0.79823 0.39067-0.29662 0-0.51125-0.11576-0.21222-0.11817-0.35209-0.35932zm1.5096-0.94292q0-0.48955-0.20257-0.76688-0.20016-0.27974-0.55225-0.27974t-0.55466 0.27974q-0.20016 0.27733-0.20016 0.76688t0.20016 0.76929q0.20257 0.27733 0.55466 0.27733t0.55225-0.27733q0.20257-0.27974 0.20257-0.76929z"/><path id="path285" d="m16.431 61.393q-0.07476-0.04341-0.16399-0.0627-0.08682-0.0217-0.19293-0.0217-0.3762 0-0.57878 0.24598-0.20016 0.24357-0.20016 0.70177v1.4228h-0.44614v-2.701h0.44614v0.41961q0.13987-0.24598 0.36415-0.36415 0.22428-0.12058 0.54501-0.12058 0.04582 0 0.10129 0.0072 0.05547 0.0048 0.12299 0.01688z"/><path id="path287" d="m17.835 61.29q-0.35691 0-0.56431 0.27974-0.2074 0.27733-0.2074 0.76206t0.20498 0.76447q0.2074 0.27733 0.56672 0.27733 0.3545 0 0.5619-0.27974 0.2074-0.27974 0.2074-0.76206 0-0.4799-0.2074-0.75964-0.2074-0.28215-0.5619-0.28215zm0-0.3762q0.57878 0 0.90916 0.3762 0.33038 0.3762 0.33038 1.0418 0 0.66318-0.33038 1.0418-0.33038 0.3762-0.90916 0.3762-0.58119 0-0.91157-0.3762-0.32797-0.37862-0.32797-1.0418 0-0.66559 0.32797-1.0418 0.33038-0.3762 0.91157-0.3762z"/><path id="path289" d="m20.249 60.212v0.76688h0.91398v0.34485h-0.91398v1.4662q0 0.33038 0.08923 0.42444 0.09164 0.09405 0.36897 0.09405h0.45579v0.37138h-0.45579q-0.51366 0-0.709-0.19051-0.19534-0.19293-0.19534-0.69936v-1.4662h-0.32556v-0.34485h0.32556v-0.76688z"/><path id="path291" d="m21.522 62.129h1.2998v0.3955h-1.2998z"/><path id="path293" d="m25.774 62.049v1.6302h-0.44373v-1.6158q0-0.38344-0.14952-0.57395t-0.44855-0.19051q-0.35932 0-0.56672 0.2291t-0.2074 0.6246v1.5265h-0.44614v-2.701h0.44614v0.41961q0.15916-0.24357 0.37379-0.36415 0.21704-0.12058 0.4992-0.12058 0.46543 0 0.70418 0.28939 0.23874 0.28698 0.23874 0.84646z"/><path id="path295" d="m27.705 61.29q-0.35691 0-0.56431 0.27974-0.2074 0.27733-0.2074 0.76206t0.20498 0.76447q0.2074 0.27733 0.56672 0.27733 0.3545 0 0.5619-0.27974 0.20739-0.27974 0.20739-0.76206 0-0.4799-0.20739-0.75964-0.2074-0.28215-0.5619-0.28215zm0-0.3762q0.57878 0 0.90916 0.3762 0.33038 0.3762 0.33038 1.0418 0 0.66318-0.33038 1.0418-0.33038 0.3762-0.90916 0.3762-0.58119 0-0.91157-0.3762-0.32797-0.37862-0.32797-1.0418 0-0.66559 0.32797-1.0418 0.33038-0.3762 0.91157-0.3762z"/><path id="path297" d="m31.458 61.389v-1.4614h0.44373v3.7524h-0.44373v-0.40514q-0.13987 0.24116-0.3545 0.35932-0.21222 0.11576-0.51125 0.11576-0.48955 0-0.79823-0.39067-0.30627-0.39067-0.30627-1.0273t0.30627-1.0273q0.30868-0.39067 0.79823-0.39067 0.29903 0 0.51125 0.11817 0.21463 0.11576 0.3545 0.35691zm-1.5121 0.94292q0 0.48955 0.20016 0.76929 0.20257 0.27733 0.55466 0.27733 0.35209 0 0.55466-0.27733 0.20257-0.27974 0.20257-0.76929t-0.20257-0.76688q-0.20257-0.27974-0.55466-0.27974-0.35209 0-0.55466 0.27974-0.20016 0.27733-0.20016 0.76688z"/><path id="path299" d="m35.126 62.218v0.21704h-2.0402q0.02894 0.4582 0.27492 0.69935 0.24839 0.23874 0.68971 0.23874 0.25563 0 0.49437-0.0627 0.24116-0.0627 0.47749-0.1881v0.41961q-0.23874 0.10129-0.48955 0.15434-0.2508 0.05306-0.50884 0.05306-0.6463 0-1.0249-0.3762-0.3762-0.3762-0.3762-1.0177 0-0.66318 0.35691-1.0514 0.35932-0.39067 0.96704-0.39067 0.54501 0 0.86093 0.35209 0.31833 0.34968 0.31833 0.95257zm-0.44373-0.13022q-0.0048-0.36415-0.20498-0.58119-0.19775-0.21704-0.52572-0.21704-0.37138 0-0.59566 0.20981-0.22186 0.20981-0.25563 0.59083z"/></g><rect id="rect916" x="8.603" y="29.267" width="29.634" height="8.4415" fill="#fff" fill-rule="evenodd" stop-color="#000000" stroke="#000" stroke-linecap="round" stroke-width=".529"/><g id="text920" stroke-width=".26458px" aria-label="fmt-node"><path id="path248" d="m14.031 31.456v0.36897h-0.42444q-0.23874 0-0.3328 0.09646-0.09164 0.09646-0.09164 0.34727v0.23874h0.7307v0.34485h-0.7307v2.3561h-0.44614v-2.3561h-0.42444v-0.34485h0.42444v-0.1881q0-0.45096 0.20981-0.65595 0.20981-0.20739 0.66559-0.20739z"/><path id="path250" d="m16.505 33.026q0.1664-0.29903 0.39791-0.44132 0.23151-0.14228 0.54501-0.14228 0.42202 0 0.65112 0.29662 0.2291 0.29421 0.2291 0.83923v1.6302h-0.44614v-1.6158q0-0.38826-0.13746-0.57636-0.13746-0.1881-0.41961-0.1881-0.34485 0-0.54501 0.2291t-0.20016 0.6246v1.5265h-0.44614v-1.6158q0-0.39067-0.13746-0.57636-0.13746-0.1881-0.42444-0.1881-0.34003 0-0.54019 0.23151-0.20016 0.2291-0.20016 0.62218v1.5265h-0.44614v-2.701h0.44614v0.41961q0.15193-0.24839 0.36415-0.36656 0.21222-0.11817 0.50402-0.11817 0.29421 0 0.49919 0.14952 0.2074 0.14952 0.30627 0.43408z"/><path id="path252" d="m19.652 31.74v0.76688h0.91398v0.34485h-0.91398v1.4662q0 0.33038 0.08923 0.42444 0.09164 0.09405 0.36897 0.09405h0.45579v0.37138h-0.45579q-0.51366 0-0.709-0.19051-0.19534-0.19293-0.19534-0.69936v-1.4662h-0.32556v-0.34485h0.32556v-0.76688z"/><path id="path254" d="m20.925 33.657h1.2998v0.3955h-1.2998z"/><path id="path256" d="m25.177 33.578v1.6302h-0.44373v-1.6158q0-0.38344-0.14952-0.57395-0.14952-0.19051-0.44855-0.19051-0.35932 0-0.56672 0.2291-0.2074 0.2291-0.2074 0.6246v1.5265h-0.44614v-2.701h0.44614v0.41961q0.15916-0.24357 0.37379-0.36415 0.21704-0.12058 0.49919-0.12058 0.46543 0 0.70418 0.28939 0.23874 0.28698 0.23874 0.84646z"/><path id="path258" d="m27.108 32.818q-0.35691 0-0.56431 0.27974-0.2074 0.27733-0.2074 0.76206t0.20498 0.76447q0.2074 0.27733 0.56672 0.27733 0.3545 0 0.5619-0.27974 0.2074-0.27974 0.2074-0.76206 0-0.4799-0.2074-0.75964-0.2074-0.28215-0.5619-0.28215zm0-0.3762q0.57878 0 0.90916 0.3762 0.33038 0.3762 0.33038 1.0418 0 0.66318-0.33038 1.0418-0.33038 0.3762-0.90916 0.3762-0.58119 0-0.91157-0.3762-0.32797-0.37862-0.32797-1.0418 0-0.66559 0.32797-1.0418 0.33038-0.3762 0.91157-0.3762z"/><path id="path260" d="m30.861 32.917v-1.4614h0.44373v3.7524h-0.44373v-0.40514q-0.13987 0.24116-0.3545 0.35932-0.21222 0.11576-0.51125 0.11576-0.48955 0-0.79823-0.39067-0.30627-0.39067-0.30627-1.0273 0-0.63665 0.30627-1.0273 0.30868-0.39067 0.79823-0.39067 0.29904 0 0.51125 0.11817 0.21463 0.11576 0.3545 0.35691zm-1.5121 0.94292q0 0.48955 0.20016 0.76929 0.20257 0.27733 0.55466 0.27733t0.55466-0.27733q0.20257-0.27974 0.20257-0.76929t-0.20257-0.76688q-0.20257-0.27974-0.55466-0.27974t-0.55466 0.27974q-0.20016 0.27733-0.20016 0.76688z"/><path id="path262" d="m34.529 33.747v0.21704h-2.0402q0.02894 0.4582 0.27492 0.69935 0.24839 0.23874 0.68971 0.23874 0.25563 0 0.49437-0.0627 0.24116-0.0627 0.47749-0.1881v0.41961q-0.23874 0.10129-0.48955 0.15434-0.2508 0.05306-0.50884 0.05306-0.6463 0-1.0249-0.3762-0.3762-0.3762-0.3762-1.0177 0-0.66318 0.35691-1.0514 0.35932-0.39067 0.96704-0.39067 0.54501 0 0.86093 0.35209 0.31833 0.34968 0.31833 0.95257zm-0.44373-0.13022q-0.0048-0.36415-0.20498-0.58119-0.19775-0.21704-0.52572-0.21704-0.37138 0-0.59566 0.20981-0.22186 0.20981-0.25563 0.59083z"/></g><g id="text934" stroke-width=".26458px" aria-label="foo.qcow2"><path id="path162" d="m7.9308 101.76v0.5271h-0.72003q-0.34106 0-0.47542 0.14125-0.13091 0.1378-0.13091 0.49264v0.34107h1.3264v0.49265h-1.3264v3.3659h-0.6339v-3.3659h-1.0301v-0.49265h1.0301v-0.26872q0-0.6339 0.28939-0.93362 0.29283-0.29972 0.90951-0.29972z"/><path id="path164" d="m10.639 103.71q-0.48231 0-0.73036 0.37551-0.24805 0.37552-0.24805 1.1128 0 0.7338 0.24805 1.1128 0.24805 0.37551 0.73036 0.37551 0.48576 0 0.7338-0.37551 0.24805-0.37897 0.24805-1.1128 0-0.73725-0.24805-1.1128-0.24805-0.37551-0.7338-0.37551zm0-0.53744q0.80271 0 1.2265 0.52021 0.42719 0.52021 0.42719 1.5055 0 0.98874-0.42375 1.509-0.42375 0.51677-1.2299 0.51677-0.80271 0-1.2265-0.51677-0.42375-0.52021-0.42375-1.509 0-0.9853 0.42375-1.5055t1.2265-0.52021z"/><path id="path166" d="m14.886 103.71q-0.48231 0-0.73036 0.37551-0.24805 0.37552-0.24805 1.1128 0 0.7338 0.24805 1.1128 0.24805 0.37551 0.73036 0.37551 0.48576 0 0.73381-0.37551 0.24805-0.37897 0.24805-1.1128 0-0.73725-0.24805-1.1128-0.24805-0.37551-0.73381-0.37551zm0-0.53744q0.80271 0 1.2265 0.52021 0.42719 0.52021 0.42719 1.5055 0 0.98874-0.42375 1.509-0.42375 0.51677-1.2299 0.51677-0.80271 0-1.2265-0.51677-0.42375-0.52021-0.42375-1.509 0-0.9853 0.42375-1.5055t1.2265-0.52021z"/><path id="path168" d="m18.697 106.07h0.86816v1.0508h-0.86816z"/><path id="path170" d="m22.404 105.21q0 0.73725 0.23082 1.1128 0.23427 0.37551 0.69246 0.37551t0.69246-0.37551q0.23771-0.37896 0.23771-1.1128t-0.23771-1.1093q-0.23427-0.37896-0.69246-0.37896t-0.69246 0.37551q-0.23082 0.37552-0.23082 1.1128zm1.8535 1.4332q-0.15503 0.28594-0.4203 0.44097-0.26183 0.15159-0.60978 0.15159-0.69246 0-1.0955-0.53399-0.39963-0.53744-0.39963-1.478 0-0.95774 0.39963-1.4986 0.39963-0.54088 1.0955-0.54088 0.34451 0 0.60634 0.15159 0.26527 0.14814 0.42375 0.43408v-0.49265h0.63734v5.3261h-0.63734z"/><path id="path172" d="m29.163 106.93q-0.25494 0.14814-0.5271 0.22048-0.26872 0.0758-0.55122 0.0758-0.89573 0-1.4022-0.53744-0.50298-0.53743-0.50298-1.4883t0.50298-1.4883q0.50643-0.53744 1.4022-0.53744 0.27905 0 0.54432 0.0724 0.26527 0.0724 0.53399 0.22393v0.6649q-0.25149-0.22393-0.50643-0.32384-0.25149-0.0999-0.57189-0.0999-0.596 0-0.9164 0.38585t-0.32039 1.1024q0 0.71313 0.32039 1.1024 0.32384 0.38585 0.9164 0.38585 0.33073 0 0.59256-0.0999 0.26183-0.10335 0.48576-0.31695z"/><path id="path174" d="m31.878 103.71q-0.48231 0-0.73036 0.37551-0.24805 0.37552-0.24805 1.1128 0 0.7338 0.24805 1.1128 0.24805 0.37551 0.73036 0.37551 0.48576 0 0.73381-0.37551 0.24805-0.37897 0.24805-1.1128 0-0.73725-0.24805-1.1128-0.24805-0.37551-0.73381-0.37551zm0-0.53744q0.80271 0 1.2265 0.52021 0.42719 0.52021 0.42719 1.5055 0 0.98874-0.42375 1.509-0.42375 0.51677-1.2299 0.51677-0.80271 0-1.2265-0.51677-0.42375-0.52021-0.42375-1.509 0-0.9853 0.42375-1.5055t1.2265-0.52021z"/><path id="path176" d="m34.003 103.26h0.62701l0.67179 3.1178 0.55122-1.9913h0.54088l0.55811 1.9913 0.67179-3.1178h0.62701l-0.90262 3.8585h-0.60634l-0.61667-2.1153-0.61323 2.1153h-0.60634z"/><path id="path178" d="m39.536 106.54h2.3633v0.58567h-3.1247v-0.58567q0.64423-0.67868 1.1265-1.1989 0.48231-0.52021 0.6649-0.73381 0.34451-0.4203 0.46509-0.67868 0.12058-0.26183 0.12058-0.53399 0-0.43064-0.25494-0.67524-0.25149-0.2446-0.69246-0.2446-0.3135 0-0.65801 0.11368-0.34451 0.11369-0.73036 0.34451v-0.7028q0.35484-0.16881 0.69591-0.25493 0.34451-0.0861 0.67868-0.0861 0.75448 0 1.2127 0.40308 0.46164 0.39963 0.46164 1.0508 0 0.33073-0.15503 0.66146-0.15158 0.33073-0.49609 0.73036-0.19293 0.22393-0.56155 0.62012-0.36518 0.39618-1.1162 1.1851z"/></g><path id="path3010" d="m188.01 14.34c8.4834 0 7.5897 6.5118 7.5897 6.5118v64.293c0 7.1845-7.0725 6.5115-7.0725 6.5115h-40.896" fill="none" marker-end="url(#Arrow1Mend)" marker-start="url(#Arrow2Mstart)" stroke="#000" stroke-dasharray="1.05833, 1.05833" stroke-width=".52917" style="paint-order:normal"/><path id="path5636" d="m52.435 42.311h54.899" fill="none" marker-end="url(#Arrow1Mend)" stroke="#000" stroke-linecap="round" stroke-width="1.0583" style="paint-order:normal"/><g id="text10276" stroke-width=".26458px" aria-label="Exporting foo.qcow2  via FUSE on itself"><path id="path181" d="m64.283 22.613h3.2522v0.58567h-2.5563v1.5227h2.4495v0.58567h-2.4495v1.8638h2.6183v0.58567h-3.3142z"/><path id="path183" d="m71.92 23.898-1.3953 1.8776 1.4676 1.9809h-0.74759l-1.1231-1.5158-1.1231 1.5158h-0.74759l1.4986-2.0188-1.3711-1.8397h0.74759l1.0232 1.3746 1.0232-1.3746z"/><path id="path185" d="m73.502 27.178v2.0464h-0.63734v-5.3261h0.63734v0.58567q0.19982-0.34451 0.50298-0.50987 0.30661-0.16881 0.73036-0.16881 0.7028 0 1.1403 0.55811 0.44097 0.55811 0.44097 1.4676 0 0.9095-0.44097 1.4676-0.43753 0.55811-1.1403 0.55811-0.42375 0-0.73036-0.16536-0.30317-0.16881-0.50298-0.51332zm2.1566-1.347q0-0.69936-0.28939-1.0955-0.28594-0.39963-0.78893-0.39963t-0.79237 0.39963q-0.28594 0.39619-0.28594 1.0955 0 0.69935 0.28594 1.099 0.28939 0.39619 0.79237 0.39619t0.78893-0.39619q0.28939-0.39963 0.28939-1.099z"/><path id="path187" d="m78.862 24.343q-0.50988 0-0.80615 0.39963-0.29628 0.39619-0.29628 1.0887 0 0.69246 0.29283 1.0921 0.29628 0.39619 0.8096 0.39619 0.50643 0 0.80271-0.39963 0.29628-0.39963 0.29628-1.0886 0-0.68558-0.29628-1.0852-0.29628-0.40308-0.80271-0.40308zm0-0.53744q0.82682 0 1.2988 0.53744 0.47198 0.53744 0.47198 1.4883 0 0.9474-0.47198 1.4883-0.47198 0.53744-1.2988 0.53744-0.83027 0-1.3022-0.53744-0.46853-0.54088-0.46853-1.4883 0-0.95085 0.46853-1.4883 0.47198-0.53744 1.3022-0.53744z"/><path id="path189" d="m83.92 24.491q-0.1068-0.06201-0.23427-0.08957-0.12402-0.03101-0.27561-0.03101-0.53744 0-0.82682 0.3514-0.28594 0.34796-0.28594 1.0025v2.0326h-0.63734v-3.8585h0.63734v0.59945q0.19982-0.3514 0.52021-0.52021 0.32039-0.17226 0.77859-0.17226 0.06546 0 0.14469 0.01033 0.07924 0.0069 0.1757 0.02412z"/><path id="path191" d="m85.212 22.803v1.0955h1.3057v0.49265h-1.3057v2.0946q0 0.47198 0.12747 0.60634 0.13091 0.13436 0.5271 0.13436h0.65112v0.53054h-0.65112q-0.7338 0-1.0129-0.27216-0.27905-0.27561-0.27905-0.99908v-2.0946h-0.46509v-0.49265h0.46509v-1.0955z"/><path id="path193" d="m87.351 23.898h0.6339v3.8585h-0.6339zm0-1.5021h0.6339v0.80271h-0.6339z"/><path id="path195" d="m92.519 25.428v2.3289h-0.6339v-2.3082q0-0.54777-0.2136-0.81993-0.2136-0.27216-0.64079-0.27216-0.51332 0-0.8096 0.32728t-0.29628 0.89228v2.1807h-0.63734v-3.8585h0.63734v0.59945q0.22738-0.34796 0.53399-0.52021 0.31006-0.17226 0.71314-0.17226 0.6649 0 1.006 0.41341 0.34106 0.40997 0.34106 1.2092z"/><path id="path197" d="m96.322 25.783q0-0.68902-0.28594-1.068-0.2825-0.37896-0.79582-0.37896-0.50987 0-0.79582 0.37896-0.2825 0.37896-0.2825 1.068 0 0.68558 0.2825 1.0645 0.28594 0.37896 0.79582 0.37896 0.51332 0 0.79582-0.37896 0.28594-0.37896 0.28594-1.0645zm0.6339 1.4952q0 0.9853-0.43753 1.4642-0.43753 0.48231-1.3401 0.48231-0.33418 0-0.63045-0.05168-0.29628-0.04823-0.57533-0.15158v-0.61667q0.27905 0.15158 0.55122 0.22393 0.27216 0.07235 0.55466 0.07235 0.62356 0 0.93362-0.32728 0.31006-0.32384 0.31006-0.98185v-0.3135q-0.19637 0.34106-0.50298 0.50987-0.30661 0.16881-0.73381 0.16881-0.70969 0-1.1438-0.54088-0.43408-0.54088-0.43408-1.4332 0-0.89572 0.43408-1.4366 0.43408-0.54088 1.1438-0.54088 0.42719 0 0.73381 0.16881 0.30661 0.16881 0.50298 0.50987v-0.58567h0.6339z"/><path id="path199" d="m65.127 30.863v0.5271h-0.60634q-0.34106 0-0.47542 0.1378-0.13091 0.1378-0.13091 0.49609v0.34106h1.0439v0.49265h-1.0439v3.3659h-0.63734v-3.3659h-0.60634v-0.49265h0.60634v-0.26872q0-0.64423 0.29972-0.93707 0.29972-0.29628 0.95085-0.29628z"/><path id="path201" d="m67.152 32.809q-0.50987 0-0.80615 0.39963-0.29628 0.39619-0.29628 1.0887t0.29283 1.0921q0.29628 0.39619 0.8096 0.39619 0.50643 0 0.80271-0.39963 0.29628-0.39963 0.29628-1.0887 0-0.68558-0.29628-1.0852-0.29628-0.40308-0.80271-0.40308zm0-0.53744q0.82682 0 1.2988 0.53744 0.47198 0.53744 0.47198 1.4883 0 0.9474-0.47198 1.4883-0.47198 0.53744-1.2988 0.53744-0.83027 0-1.3022-0.53744-0.46853-0.54088-0.46853-1.4883 0-0.95085 0.46853-1.4883 0.47198-0.53744 1.3022-0.53744z"/><path id="path203" d="m71.469 32.809q-0.50988 0-0.80615 0.39963-0.29628 0.39619-0.29628 1.0887t0.29283 1.0921q0.29628 0.39619 0.8096 0.39619 0.50643 0 0.80271-0.39963 0.29628-0.39963 0.29628-1.0887 0-0.68558-0.29628-1.0852-0.29628-0.40308-0.80271-0.40308zm0-0.53744q0.82682 0 1.2988 0.53744 0.47198 0.53744 0.47198 1.4883 0 0.9474-0.47198 1.4883-0.47198 0.53744-1.2988 0.53744-0.83027 0-1.3022-0.53744-0.46853-0.54088-0.46853-1.4883 0-0.95085 0.46853-1.4883 0.47198-0.53744 1.3022-0.53744z"/><path id="path205" d="m74.256 35.349h0.72692v0.87506h-0.72692z"/><path id="path207" d="m76.788 34.298q0 0.69936 0.28594 1.099 0.28939 0.39619 0.79237 0.39619 0.50298 0 0.79237-0.39619 0.28939-0.39963 0.28939-1.099t-0.28939-1.0955q-0.28939-0.39963-0.79237-0.39963-0.50298 0-0.79237 0.39963-0.28594 0.39619-0.28594 1.0955zm2.1601 1.347q-0.19982 0.34451-0.50643 0.51332-0.30317 0.16536-0.73036 0.16536-0.69936 0-1.1403-0.5581-0.43753-0.55811-0.43753-1.4676t0.43753-1.4676q0.44097-0.55811 1.1403-0.55811 0.42719 0 0.73036 0.16881 0.30661 0.16536 0.50643 0.50988v-0.58567h0.6339v5.3261h-0.6339z"/><path id="path209" d="m83.665 32.513v0.59256q-0.26872-0.14814-0.54088-0.22049-0.26872-0.07579-0.54433-0.07579-0.61667 0-0.95774 0.39274-0.34106 0.3893-0.34106 1.0955t0.34106 1.099q0.34106 0.3893 0.95774 0.3893 0.27561 0 0.54433-0.07235 0.27216-0.07579 0.54088-0.22393v0.58567q-0.26527 0.12402-0.55122 0.18604-0.2825 0.06201-0.60289 0.06201-0.87161 0-1.3849-0.54777-0.51332-0.54777-0.51332-1.4779 0-0.94396 0.51676-1.4848 0.52021-0.54088 1.4228-0.54088 0.29283 0 0.57189 0.06201 0.27905 0.05857 0.54088 0.17914z"/><path id="path211" d="m86.262 32.809q-0.50988 0-0.80615 0.39963-0.29628 0.39619-0.29628 1.0887t0.29283 1.0921q0.29628 0.39619 0.8096 0.39619 0.50643 0 0.80271-0.39963 0.29628-0.39963 0.29628-1.0887 0-0.68558-0.29628-1.0852-0.29628-0.40308-0.80271-0.40308zm0-0.53744q0.82682 0 1.2988 0.53744 0.47198 0.53744 0.47198 1.4883 0 0.9474-0.47198 1.4883-0.47198 0.53744-1.2988 0.53744-0.83027 0-1.3022-0.53744-0.46853-0.54088-0.46853-1.4883 0-0.95085 0.46853-1.4883 0.47198-0.53744 1.3022-0.53744z"/><path id="path213" d="m88.715 32.365h0.6339l0.79237 3.011 0.78893-3.011h0.74759l0.79237 3.011 0.78893-3.011h0.6339l-1.0094 3.8585h-0.74759l-0.83027-3.1626-0.83371 3.1626h-0.74759z"/><path id="path215" d="m95.543 35.638h2.4288v0.58567h-3.266v-0.58567q0.39619-0.40997 1.0783-1.099 0.68557-0.69246 0.86127-0.89228 0.33418-0.37552 0.46509-0.6339 0.13436-0.26183 0.13436-0.51332 0-0.40997-0.28939-0.66835-0.28594-0.25838-0.74759-0.25838-0.32728 0-0.69246 0.11369-0.36174 0.11369-0.77515 0.34451v-0.7028q0.4203-0.16881 0.78548-0.25494 0.36518-0.08613 0.66835-0.08613 0.79926 0 1.2747 0.39963 0.47542 0.39963 0.47542 1.068 0 0.31695-0.12058 0.60289-0.11713 0.2825-0.43064 0.66835-0.08613 0.09991-0.54777 0.57878-0.46164 0.47542-1.3022 1.3333z"/><path id="path217" d="m65.373 49.298h0.67179l1.2058 3.2384 1.2058-3.2384h0.67179l-1.4469 3.8585h-0.86128z"/><path id="path219" d="m70.003 49.298h0.6339v3.8585h-0.6339zm0-1.5021h0.6339v0.80271h-0.6339z"/><path id="path221" d="m73.717 51.217q-0.76826 0-1.0645 0.1757-0.29628 0.1757-0.29628 0.59945 0 0.33762 0.22049 0.53744 0.22393 0.19637 0.60634 0.19637 0.5271 0 0.84405-0.37207 0.32039-0.37552 0.32039-0.99563v-0.14125zm1.2644-0.26183v2.2014h-0.6339v-0.58567q-0.21704 0.3514-0.54088 0.52021-0.32384 0.16536-0.79237 0.16536-0.59256 0-0.94396-0.33073-0.34796-0.33418-0.34796-0.89228 0-0.65112 0.43408-0.98185 0.43753-0.33073 1.3022-0.33073h0.88884v-0.06201q0-0.43753-0.28939-0.67524-0.28594-0.24116-0.80615-0.24116-0.33073 0-0.64423 0.07924-0.3135 0.07924-0.60289 0.23771v-0.58567q0.34796-0.13436 0.67524-0.19982 0.32728-0.0689 0.63734-0.0689 0.83716 0 1.2506 0.43408 0.41341 0.43408 0.41341 1.316z"/><path id="path223" d="m78.557 48.013h2.9559v0.58567h-2.26v1.5158h2.0395v0.58567h-2.0395v2.4564h-0.69591z"/><path id="path225" d="m82.536 48.013h0.69936v3.1247q0 0.82682 0.29972 1.192 0.29972 0.36174 0.97152 0.36174 0.66835 0 0.96807-0.36174 0.29972-0.36518 0.29972-1.192v-3.1247h0.69936v3.2108q0 1.006-0.49954 1.5193-0.49609 0.51332-1.4676 0.51332-0.97496 0-1.4745-0.51332-0.49609-0.51332-0.49609-1.5193z"/><path id="path227" d="m90.863 48.182v0.67868q-0.39619-0.18948-0.74759-0.2825-0.3514-0.09302-0.67868-0.09302-0.56844 0-0.8785 0.22049-0.30661 0.22049-0.30661 0.62701 0 0.34106 0.20326 0.51676 0.20671 0.17226 0.77859 0.27905l0.4203 0.08613q0.77859 0.14814 1.1472 0.52366 0.37207 0.37207 0.37207 0.99908 0 0.74759-0.50298 1.1334-0.49954 0.38585-1.4676 0.38585-0.36518 0-0.77859-0.08268-0.40997-0.08268-0.85094-0.2446v-0.71658q0.42375 0.23771 0.83027 0.35829 0.40652 0.12058 0.79926 0.12058 0.596 0 0.91984-0.23427 0.32384-0.23427 0.32384-0.66835 0-0.37896-0.23427-0.59256-0.23082-0.2136-0.76137-0.3204l-0.42375-0.08268q-0.77859-0.15503-1.1265-0.48576-0.34796-0.33073-0.34796-0.91984 0-0.68213 0.47887-1.0749 0.48231-0.39274 1.3264-0.39274 0.36174 0 0.73725 0.06546t0.76826 0.19637z"/><path id="path229" d="m92.258 48.013h3.2522v0.58567h-2.5563v1.5227h2.4495v0.58567h-2.4495v1.8638h2.6183v0.58567h-3.3142z"/><path id="path231" d="m68.644 58.21q-0.50987 0-0.80615 0.39963-0.29628 0.39619-0.29628 1.0887 0 0.69246 0.29283 1.0921 0.29628 0.39619 0.8096 0.39619 0.50643 0 0.80271-0.39963 0.29628-0.39963 0.29628-1.0887 0-0.68558-0.29628-1.0852-0.29628-0.40308-0.80271-0.40308zm0-0.53744q0.82682 0 1.2988 0.53744 0.47198 0.53744 0.47198 1.4883 0 0.9474-0.47198 1.4883-0.47198 0.53744-1.2988 0.53744-0.83027 0-1.3022-0.53744-0.46853-0.54088-0.46853-1.4883 0-0.95085 0.46853-1.4883 0.47198-0.53744 1.3022-0.53744z"/><path id="path233" d="m74.673 59.295v2.3289h-0.6339v-2.3082q0-0.54777-0.2136-0.81993-0.2136-0.27216-0.64079-0.27216-0.51332 0-0.8096 0.32728-0.29628 0.32728-0.29628 0.89228v2.1807h-0.63734v-3.8585h0.63734v0.59945q0.22738-0.34796 0.53399-0.52021 0.31006-0.17226 0.71314-0.17226 0.6649 0 1.006 0.41341 0.34106 0.40997 0.34106 1.2092z"/><path id="path235" d="m78.18 57.765h0.6339v3.8585h-0.6339zm0-1.5021h0.6339v0.80271h-0.6339z"/><path id="path237" d="m80.767 56.67v1.0955h1.3057v0.49265h-1.3057v2.0946q0 0.47198 0.12747 0.60634 0.13091 0.13436 0.5271 0.13436h0.65112v0.53054h-0.65112q-0.73381 0-1.0129-0.27216-0.27905-0.27561-0.27905-0.99908v-2.0946h-0.46509v-0.49265h0.46509v-1.0955z"/><path id="path239" d="m85.367 57.879v0.59945q-0.26872-0.1378-0.55811-0.20671-0.28939-0.0689-0.59945-0.0689-0.47198 0-0.70969 0.1447-0.23427 0.14469-0.23427 0.43408 0 0.22049 0.16881 0.34796 0.16881 0.12402 0.67868 0.23771l0.21704 0.04823q0.67524 0.14469 0.95774 0.40997 0.28594 0.26183 0.28594 0.73381 0 0.53744-0.42719 0.85094-0.42375 0.3135-1.1679 0.3135-0.31006 0-0.64768-0.06201-0.33417-0.05857-0.70624-0.17915v-0.65457q0.3514 0.18259 0.69246 0.27561 0.34106 0.08957 0.67524 0.08957 0.44786 0 0.68902-0.15158 0.24116-0.15503 0.24116-0.43408 0-0.25838-0.1757-0.39619-0.17225-0.1378-0.76137-0.26527l-0.22049-0.05168q-0.58911-0.12402-0.85094-0.37896-0.26183-0.25838-0.26183-0.70624 0-0.54433 0.38585-0.8406 0.38585-0.29628 1.0955-0.29628 0.3514 0 0.66146 0.05168t0.57189 0.15503z"/><path id="path241" d="m89.883 59.536v0.31006h-2.9146q0.04134 0.65457 0.39274 0.99908 0.35484 0.34106 0.9853 0.34106 0.36518 0 0.70624-0.08957 0.34451-0.08957 0.68213-0.26872v0.59945q-0.34106 0.14469-0.69936 0.22049-0.35829 0.07579-0.72692 0.07579-0.92329 0-1.4642-0.53744-0.53744-0.53744-0.53744-1.4538 0-0.9474 0.50988-1.5021 0.51332-0.55811 1.3815-0.55811 0.77859 0 1.2299 0.50298 0.45475 0.49954 0.45475 1.3608zm-0.6339-0.18604q-0.0069-0.52021-0.29283-0.83027-0.2825-0.31006-0.75103-0.31006-0.53054 0-0.85094 0.29972-0.31695 0.29972-0.36518 0.84405z"/><path id="path243" d="m90.924 56.263h0.6339v5.3606h-0.6339z"/><path id="path245" d="m94.837 56.263v0.5271h-0.60634q-0.34106 0-0.47542 0.1378-0.13091 0.1378-0.13091 0.49609v0.34106h1.0439v0.49265h-1.0439v3.3659h-0.63734v-3.3659h-0.60634v-0.49265h0.60634v-0.26872q0-0.64423 0.29972-0.93707 0.29972-0.29628 0.95085-0.29628z"/></g></svg>
