<?xml version="1.0" encoding="UTF-8"?>
<svg id="svg5" width="46.756mm" height="107.74mm" version="1.1" viewBox="0 0 46.756 107.74" xmlns="http://www.w3.org/2000/svg"><defs id="defs2"><marker id="Arrow2Mstart" overflow="visible" orient="auto"><path id="path24651" transform="scale(.6)" d="m8.7186 4.0337-10.926-4.0177 10.926-4.0177c-1.7455 2.3721-1.7354 5.6175-6e-7 8.0354z" fill="context-stroke" fill-rule="evenodd" stroke-linejoin="round" stroke-width=".625"/></marker><marker id="Arrow1Mend" overflow="visible" orient="auto"><path id="path26121" transform="scale(-.6)" d="m8.7186 4.0337-10.926-4.0177 10.926-4.0177c-1.7455 2.3721-1.7354 5.6175-6e-7 8.0354z" fill="context-stroke" fill-rule="evenodd" stroke-linejoin="round" stroke-width=".625"/></marker></defs><rect id="rect23797" x=".26458" y="9.1324" width="46.227" height="70.624" rx="3.8155" ry="4.5481" fill="none" stop-color="#000000" stroke="#802400" stroke-dasharray="2.11666, 2.11666" stroke-linecap="round" stroke-width=".52917"/><rect id="rect991" x="6.494" y="29.025" width="33.768" height="13.398" rx="1.7964" ry="1.8948" fill="none" stop-color="#000000" stroke="#000" stroke-width=".52917"/><g id="text3313" stroke-width=".26458px" aria-label="qcow2"><path id="path54" d="m13.113 34.046q0 0.69936 0.28594 1.099 0.28939 0.39619 0.79237 0.39619t0.79237-0.39619q0.28939-0.39963 0.28939-1.099t-0.28939-1.0955q-0.28939-0.39963-0.79237-0.39963t-0.79237 0.39963q-0.28594 0.39619-0.28594 1.0955zm2.1601 1.347q-0.19982 0.34451-0.50643 0.51332-0.30317 0.16536-0.73036 0.16536-0.69935 0-1.1403-0.55811-0.43753-0.55811-0.43753-1.4676t0.43753-1.4676q0.44097-0.5581 1.1403-0.5581 0.42719 0 0.73036 0.16881 0.30661 0.16536 0.50643 0.50988v-0.58567h0.6339v5.3261h-0.6339z"/><path id="path56" d="m19.99 32.261v0.59256q-0.26872-0.14814-0.54088-0.22049-0.26872-0.07579-0.54432-0.07579-0.61667 0-0.95774 0.39274-0.34106 0.3893-0.34106 1.0955t0.34106 1.099q0.34106 0.3893 0.95774 0.3893 0.27561 0 0.54432-0.07235 0.27216-0.07579 0.54088-0.22393v0.58567q-0.26527 0.12402-0.55122 0.18604-0.2825 0.06201-0.60289 0.06201-0.87161 0-1.3849-0.54777-0.51332-0.54777-0.51332-1.4779 0-0.94396 0.51676-1.4848 0.52021-0.54088 1.4228-0.54088 0.29283 0 0.57189 0.06201 0.27905 0.05857 0.54088 0.17914z"/><path id="path58" d="m22.587 32.557q-0.50987 0-0.80615 0.39963-0.29628 0.39619-0.29628 1.0887t0.29283 1.0921q0.29628 0.39619 0.8096 0.39619 0.50643 0 0.80271-0.39963 0.29628-0.39963 0.29628-1.0887 0-0.68557-0.29628-1.0852-0.29628-0.40308-0.80271-0.40308zm0-0.53744q0.82682 0 1.2988 0.53744t0.47198 1.4883q0 0.9474-0.47198 1.4883-0.47198 0.53744-1.2988 0.53744-0.83027 0-1.3022-0.53744-0.46853-0.54088-0.46853-1.4883 0-0.95085 0.46853-1.4883 0.47198-0.53744 1.3022-0.53744z"/><path id="path60" d="m25.04 32.113h0.6339l0.79237 3.011 0.78893-3.011h0.74759l0.79237 3.011 0.78893-3.011h0.6339l-1.0094 3.8585h-0.74759l-0.83027-3.1626-0.83371 3.1626h-0.74759z"/><path id="path62" d="m31.868 35.386h2.4288v0.58567h-3.266v-0.58567q0.39619-0.40997 1.0783-1.099 0.68557-0.69246 0.86127-0.89228 0.33418-0.37552 0.46509-0.6339 0.13436-0.26183 0.13436-0.51332 0-0.40997-0.28939-0.66835-0.28594-0.25838-0.74759-0.25838-0.32728 0-0.69246 0.11369-0.36174 0.11369-0.77515 0.34451v-0.7028q0.4203-0.16881 0.78548-0.25494 0.36518-0.08613 0.66835-0.08613 0.79926 0 1.2747 0.39963 0.47542 0.39963 0.47542 1.068 0 0.31695-0.12058 0.60289-0.11713 0.2825-0.43064 0.66835-0.08613 0.09991-0.54777 0.57878-0.46164 0.47542-1.3022 1.3333z"/></g><rect id="rect9379" x="6.494" y="57.736" width="33.768" height="13.398" rx="1.7964" ry="1.8948" fill="none" stop-color="#000000" stroke="#000" stroke-width=".52917"/><g id="text9383" stroke-width=".26458px" aria-label="file"><path id="path82" d="m21.895 61.038v3.8585h-0.63734v-3.3659h-1.7398v3.3659h-0.63734v-3.3659h-0.60634v-0.49265h0.60634v-0.26872q0-0.63045 0.29628-0.93018 0.29972-0.30317 0.9164-0.30317h0.63734v0.5271h-0.60634q-0.34106 0-0.47542 0.1378-0.13091 0.1378-0.13091 0.49609v0.34106zm-0.63734-1.4952h0.63734v0.80271h-0.63734z"/><path id="path84" d="m23.221 59.536h0.6339v5.3606h-0.6339z"/><path id="path86" d="m28.482 62.809v0.31006h-2.9146q0.04134 0.65457 0.39274 0.99908 0.35484 0.34106 0.9853 0.34106 0.36518 0 0.70624-0.08957 0.34451-0.08957 0.68213-0.26872v0.59945q-0.34106 0.14469-0.69936 0.22049-0.35829 0.07579-0.72692 0.07579-0.92329 0-1.4642-0.53744-0.53744-0.53744-0.53744-1.4538 0-0.9474 0.50988-1.5021 0.51332-0.55811 1.3815-0.55811 0.77859 0 1.2299 0.50298 0.45475 0.49954 0.45475 1.3608zm-0.6339-0.18604q-0.0069-0.52021-0.29283-0.83027-0.2825-0.31006-0.75103-0.31006-0.53054 0-0.85094 0.29972-0.31695 0.29972-0.36518 0.84405z"/></g><g id="g22369" transform="translate(69.961 29.979)" fill="none" stroke="#000" stroke-width=".52917"><path id="rect18531" d="m-53.494 58.06h10.715l3.1067 3.4104v16.022h-13.822z" stop-color="#000000"/><path id="path21920" d="m-42.779 58.06v3.41l3.1067 1e-6" stroke-linecap="round" style="paint-order:normal"/></g><g id="g25195" transform="translate(75.298 30.046)"><rect id="rect22371" x="-66.56" y="-29.781" width="29.28" height="17.692" fill="#fff" fill-rule="evenodd" stop-color="#000000" stroke="#808080" stroke-width=".52917"/><g id="text22477" fill="#808080" stroke-width=".26458px" aria-label="NBD server"><path id="path35" d="m-59.195-27.145h0.93707l2.2807 4.3029v-4.3029h0.67524v5.1435h-0.93707l-2.2807-4.3029v4.3029h-0.67524z"/><path id="path37" d="m-53.221-24.458v1.8845h1.1162q0.56155 0 0.83027-0.23082 0.27216-0.23427 0.27216-0.71314 0-0.48231-0.27216-0.70969-0.26872-0.23082-0.83027-0.23082zm0-2.1153v1.5503h1.0301q0.50988 0 0.75792-0.18948 0.25149-0.19292 0.25149-0.58567 0-0.3893-0.25149-0.58222-0.24805-0.19293-0.75792-0.19293zm-0.69591-0.57189h1.7777q0.79582 0 1.2265 0.33073 0.43064 0.33073 0.43064 0.94051 0 0.47198-0.22049 0.75103-0.22049 0.27905-0.64768 0.34795 0.51332 0.11024 0.79582 0.46164 0.28594 0.34795 0.28594 0.87161 0 0.68902-0.46853 1.0645-0.46853 0.37552-1.3333 0.37552h-1.8466z"/><path id="path39" d="m-48.38-26.573v3.9998h0.8406q1.0645 0 1.5572-0.48231 0.49609-0.48231 0.49609-1.5227 0-1.0335-0.49609-1.5124-0.49265-0.48231-1.5572-0.48231zm-0.69591-0.57189h1.4297q1.4952 0 2.1945 0.62356 0.69936 0.62012 0.69936 1.943 0 1.3298-0.7028 1.9534-0.7028 0.62356-2.1911 0.62356h-1.4297z"/><path id="path41" d="m-60.154-18.691v0.59945q-0.26872-0.1378-0.55811-0.20671-0.28939-0.0689-0.59945-0.0689-0.47198 0-0.70969 0.14469-0.23427 0.14469-0.23427 0.43408 0 0.22049 0.16881 0.34796 0.16881 0.12402 0.67868 0.23771l0.21704 0.04823q0.67524 0.14469 0.95774 0.40997 0.28594 0.26183 0.28594 0.73381 0 0.53744-0.42719 0.85094-0.42375 0.3135-1.1679 0.3135-0.31006 0-0.64768-0.06201-0.33417-0.05857-0.70624-0.17914v-0.65457q0.3514 0.18259 0.69246 0.27561 0.34106 0.08957 0.67524 0.08957 0.44786 0 0.68902-0.15158 0.24116-0.15503 0.24116-0.43408 0-0.25838-0.1757-0.39619-0.17226-0.1378-0.76137-0.26527l-0.22049-0.05168q-0.58911-0.12402-0.85094-0.37896-0.26183-0.25838-0.26183-0.70624 0-0.54432 0.38585-0.8406 0.38585-0.29628 1.0955-0.29628 0.3514 0 0.66146 0.05168t0.57189 0.15503z"/><path id="path43" d="m-55.638-17.034v0.31006h-2.9146q0.04134 0.65457 0.39274 0.99908 0.35484 0.34106 0.9853 0.34106 0.36518 0 0.70625-0.08957 0.34451-0.08957 0.68213-0.26872v0.59945q-0.34106 0.14469-0.69936 0.22049-0.35829 0.07579-0.72692 0.07579-0.92329 0-1.4642-0.53744-0.53744-0.53744-0.53744-1.4538 0-0.9474 0.50987-1.5021 0.51332-0.55811 1.3815-0.55811 0.77859 0 1.2299 0.50298 0.45475 0.49954 0.45475 1.3608zm-0.6339-0.18604q-0.0069-0.52021-0.29283-0.83027-0.2825-0.31006-0.75103-0.31006-0.53054 0-0.85094 0.29972-0.31695 0.29972-0.36518 0.84405z"/><path id="path45" d="m-52.361-18.212q-0.1068-0.06201-0.23427-0.08957-0.12402-0.03101-0.27561-0.03101-0.53744 0-0.82682 0.3514-0.28594 0.34796-0.28594 1.0025v2.0326h-0.63734v-3.8585h0.63734v0.59945q0.19982-0.3514 0.52021-0.52021 0.32039-0.17226 0.77859-0.17226 0.06546 0 0.14469 0.01034 0.07924 0.0069 0.1757 0.02412z"/><path id="path47" d="m-52.151-18.805h0.67179l1.2058 3.2384 1.2058-3.2384h0.67179l-1.4469 3.8585h-0.86128z"/><path id="path49" d="m-44.22-17.034v0.31006h-2.9146q0.04134 0.65457 0.39274 0.99908 0.35484 0.34106 0.9853 0.34106 0.36518 0 0.70624-0.08957 0.34451-0.08957 0.68213-0.26872v0.59945q-0.34106 0.14469-0.69936 0.22049-0.35829 0.07579-0.72692 0.07579-0.92329 0-1.4642-0.53744-0.53744-0.53744-0.53744-1.4538 0-0.9474 0.50988-1.5021 0.51332-0.55811 1.3815-0.55811 0.77859 0 1.2299 0.50298 0.45475 0.49954 0.45475 1.3608zm-0.6339-0.18604q-0.0069-0.52021-0.29283-0.83027-0.2825-0.31006-0.75103-0.31006-0.53054 0-0.85094 0.29972-0.31695 0.29972-0.36518 0.84405z"/><path id="path51" d="m-40.944-18.212q-0.1068-0.06201-0.23427-0.08957-0.12402-0.03101-0.27561-0.03101-0.53744 0-0.82682 0.3514-0.28594 0.34796-0.28594 1.0025v2.0326h-0.63734v-3.8585h0.63734v0.59945q0.19982-0.3514 0.52021-0.52021 0.32039-0.17226 0.77859-0.17226 0.06546 0 0.14469 0.01034 0.07924 0.0069 0.1757 0.02412z"/></g></g><path id="path24007" d="m23.373 76.207v10.837" fill="none" marker-end="url(#Arrow1Mend)" marker-start="url(#Arrow2Mstart)" stroke="#000" stroke-dasharray="1.05833, 1.05833" stroke-width=".52917" style="paint-order:normal"/><path id="path25180" d="m23.373 47.562v9.2246" fill="none" marker-end="url(#Arrow1Mend)" marker-start="url(#Arrow2Mstart)" stroke="#000" stroke-dasharray="1.05833, 1.05833" stroke-width=".52917" style="paint-order:normal"/><path id="path25334" d="m23.373 18.929v9.1469" fill="none" marker-end="url(#Arrow1Mend)" marker-start="url(#Arrow2Mstart)" stroke="#000" stroke-dasharray="1.05833, 1.05833" stroke-width=".52917" style="paint-order:normal"/><rect id="rect35415" x="8.5609" y="66.8" width="29.634" height="8.4415" fill="#fff" fill-rule="evenodd" stop-color="#000000" stroke="#000" stroke-linecap="round" stroke-width=".529"/><g id="text35918" stroke-width=".26458px" aria-label="prot-node"><path id="path89" d="m12.118 72.142v1.4325h-0.44614v-3.7283h0.44614v0.40997q0.13987-0.24116 0.35209-0.35691 0.21463-0.11817 0.51125-0.11817 0.49196 0 0.79823 0.39067 0.30868 0.39067 0.30868 1.0273t-0.30868 1.0273q-0.30627 0.39067-0.79823 0.39067-0.29662 0-0.51125-0.11576-0.21222-0.11817-0.35209-0.35932zm1.5096-0.94292q0-0.48955-0.20257-0.76688-0.20016-0.27974-0.55225-0.27974-0.35209 0-0.55466 0.27974-0.20016 0.27733-0.20016 0.76688t0.20016 0.76929q0.20257 0.27733 0.55466 0.27733 0.35209 0 0.55225-0.27733 0.20257-0.27974 0.20257-0.76929z"/><path id="path91" d="m16.389 70.261q-0.07476-0.04341-0.16399-0.0627-0.08682-0.0217-0.19292-0.0217-0.3762 0-0.57878 0.24598-0.20016 0.24357-0.20016 0.70177v1.4228h-0.44614v-2.701h0.44614v0.41961q0.13987-0.24598 0.36415-0.36415 0.22428-0.12058 0.54502-0.12058 0.04582 0 0.10128 0.0072 0.05547 0.0048 0.12299 0.01688z"/><path id="path93" d="m17.793 70.157q-0.35691 0-0.56431 0.27974-0.20739 0.27733-0.20739 0.76206t0.20498 0.76447q0.2074 0.27733 0.56672 0.27733 0.3545 0 0.5619-0.27974 0.2074-0.27974 0.2074-0.76206 0-0.4799-0.2074-0.75964-0.20739-0.28215-0.5619-0.28215zm0-0.3762q0.57878 0 0.90916 0.3762 0.33038 0.3762 0.33038 1.0418 0 0.66318-0.33038 1.0418-0.33038 0.3762-0.90916 0.3762-0.58119 0-0.91157-0.3762-0.32797-0.37862-0.32797-1.0418 0-0.66559 0.32797-1.0418 0.33038-0.3762 0.91157-0.3762z"/><path id="path95" d="m20.207 69.08v0.76688h0.91398v0.34485h-0.91398v1.4662q0 0.33038 0.08923 0.42444 0.09164 0.09405 0.36897 0.09405h0.45579v0.37138h-0.45579q-0.51366 0-0.709-0.19051-0.19534-0.19293-0.19534-0.69936v-1.4662h-0.32556v-0.34485h0.32556v-0.76688z"/><path id="path97" d="m21.48 70.997h1.2998v0.3955h-1.2998z"/><path id="path99" d="m25.732 70.917v1.6302h-0.44373v-1.6158q0-0.38344-0.14952-0.57395t-0.44855-0.19051q-0.35932 0-0.56672 0.2291t-0.2074 0.6246v1.5265h-0.44614v-2.701h0.44614v0.41961q0.15916-0.24357 0.37379-0.36415 0.21704-0.12058 0.49919-0.12058 0.46543 0 0.70418 0.28939 0.23874 0.28698 0.23874 0.84646z"/><path id="path101" d="m27.663 70.157q-0.35691 0-0.56431 0.27974-0.20739 0.27733-0.20739 0.76206t0.20498 0.76447q0.2074 0.27733 0.56672 0.27733 0.3545 0 0.5619-0.27974 0.2074-0.27974 0.2074-0.76206 0-0.4799-0.2074-0.75964-0.2074-0.28215-0.5619-0.28215zm0-0.3762q0.57878 0 0.90916 0.3762 0.33038 0.3762 0.33038 1.0418 0 0.66318-0.33038 1.0418-0.33038 0.3762-0.90916 0.3762-0.58119 0-0.91157-0.3762-0.32797-0.37862-0.32797-1.0418 0-0.66559 0.32797-1.0418 0.33038-0.3762 0.91157-0.3762z"/><path id="path103" d="m31.416 70.256v-1.4614h0.44373v3.7524h-0.44373v-0.40514q-0.13987 0.24116-0.3545 0.35932-0.21222 0.11576-0.51125 0.11576-0.48955 0-0.79823-0.39067-0.30627-0.39067-0.30627-1.0273t0.30627-1.0273q0.30868-0.39067 0.79823-0.39067 0.29904 0 0.51125 0.11817 0.21463 0.11576 0.3545 0.35691zm-1.5121 0.94292q0 0.48955 0.20016 0.76929 0.20257 0.27733 0.55466 0.27733t0.55466-0.27733q0.20257-0.27974 0.20257-0.76929t-0.20257-0.76688q-0.20257-0.27974-0.55466-0.27974t-0.55466 0.27974q-0.20016 0.27733-0.20016 0.76688z"/><path id="path105" d="m35.084 71.086v0.21704h-2.0402q0.02894 0.4582 0.27492 0.69935 0.24839 0.23874 0.68971 0.23874 0.25563 0 0.49437-0.0627 0.24116-0.0627 0.47749-0.1881v0.41961q-0.23875 0.10129-0.48955 0.15434-0.2508 0.05306-0.50884 0.05306-0.6463 0-1.0249-0.3762-0.3762-0.3762-0.3762-1.0177 0-0.66318 0.35691-1.0514 0.35932-0.39067 0.96704-0.39067 0.54501 0 0.86093 0.35209 0.31833 0.34968 0.31833 0.95257zm-0.44373-0.13022q-0.0048-0.36415-0.20498-0.58119-0.19775-0.21704-0.52572-0.21704-0.37138 0-0.59566 0.20981-0.22186 0.20981-0.25563 0.59083z"/></g><rect id="rect38770" x="8.5609" y="38.135" width="29.634" height="8.4415" fill="#fff" fill-rule="evenodd" stop-color="#000000" stroke="#000" stroke-linecap="round" stroke-width=".529"/><g id="text38774" stroke-width=".26458px" aria-label="fmt-node"><path id="path65" d="m13.988 40.323v0.36897h-0.42444q-0.23875 0-0.3328 0.09646-0.09164 0.09646-0.09164 0.34727v0.23874h0.7307v0.34485h-0.7307v2.3561h-0.44614v-2.3561h-0.42444v-0.34485h0.42444v-0.1881q0-0.45096 0.20981-0.65595 0.20981-0.20739 0.66559-0.20739z"/><path id="path67" d="m16.463 41.893q0.1664-0.29903 0.39791-0.44132 0.23151-0.14228 0.54501-0.14228 0.42202 0 0.65112 0.29662 0.2291 0.29421 0.2291 0.83923v1.6302h-0.44614v-1.6158q0-0.38826-0.13746-0.57636-0.13746-0.1881-0.41961-0.1881-0.34486 0-0.54502 0.2291t-0.20016 0.6246v1.5265h-0.44614v-1.6158q0-0.39067-0.13746-0.57636-0.13746-0.1881-0.42444-0.1881-0.34003 0-0.54019 0.23151-0.20016 0.2291-0.20016 0.62218v1.5265h-0.44614v-2.701h0.44614v0.41961q0.15193-0.24839 0.36415-0.36656 0.21222-0.11817 0.50402-0.11817 0.29421 0 0.4992 0.14952 0.20739 0.14952 0.30627 0.43408z"/><path id="path69" d="m19.61 40.608v0.76688h0.91398v0.34485h-0.91398v1.4662q0 0.33038 0.08923 0.42444 0.09164 0.09405 0.36897 0.09405h0.45579v0.37138h-0.45579q-0.51366 0-0.709-0.19051-0.19534-0.19293-0.19534-0.69936v-1.4662h-0.32556v-0.34485h0.32556v-0.76688z"/><path id="path71" d="m20.883 42.525h1.2998v0.3955h-1.2998z"/><path id="path73" d="m25.135 42.446v1.6302h-0.44373v-1.6158q0-0.38344-0.14952-0.57395t-0.44855-0.19051q-0.35932 0-0.56672 0.2291t-0.2074 0.6246v1.5265h-0.44614v-2.701h0.44614v0.41961q0.15916-0.24357 0.37379-0.36415 0.21704-0.12058 0.4992-0.12058 0.46543 0 0.70418 0.28939 0.23875 0.28698 0.23875 0.84646z"/><path id="path75" d="m27.066 41.686q-0.35691 0-0.56431 0.27974-0.2074 0.27733-0.2074 0.76206t0.20498 0.76447q0.2074 0.27733 0.56672 0.27733 0.3545 0 0.5619-0.27974 0.2074-0.27974 0.2074-0.76206 0-0.4799-0.2074-0.75964-0.20739-0.28215-0.5619-0.28215zm0-0.3762q0.57878 0 0.90916 0.3762 0.33038 0.3762 0.33038 1.0418 0 0.66318-0.33038 1.0418-0.33038 0.3762-0.90916 0.3762-0.58119 0-0.91157-0.3762-0.32797-0.37862-0.32797-1.0418 0-0.66559 0.32797-1.0418 0.33038-0.3762 0.91157-0.3762z"/><path id="path77" d="m30.819 41.785v-1.4614h0.44373v3.7524h-0.44373v-0.40514q-0.13987 0.24116-0.3545 0.35932-0.21222 0.11576-0.51125 0.11576-0.48955 0-0.79823-0.39067-0.30627-0.39067-0.30627-1.0273 0-0.63665 0.30627-1.0273 0.30868-0.39067 0.79823-0.39067 0.29903 0 0.51125 0.11817 0.21463 0.11576 0.3545 0.35691zm-1.5121 0.94292q0 0.48955 0.20016 0.76929 0.20257 0.27733 0.55466 0.27733t0.55466-0.27733q0.20257-0.27974 0.20257-0.76929t-0.20257-0.76688q-0.20257-0.27974-0.55466-0.27974t-0.55466 0.27974q-0.20016 0.27733-0.20016 0.76688z"/><path id="path79" d="m34.487 42.614v0.21704h-2.0402q0.02894 0.4582 0.27492 0.69935 0.24839 0.23874 0.68971 0.23874 0.25563 0 0.49437-0.0627 0.24116-0.0627 0.47749-0.1881v0.41961q-0.23874 0.10129-0.48955 0.15434-0.2508 0.05306-0.50884 0.05306-0.6463 0-1.0249-0.3762-0.3762-0.3762-0.3762-1.0177 0-0.66318 0.35691-1.0514 0.35932-0.39067 0.96704-0.39067 0.54501 0 0.86093 0.35209 0.31833 0.34968 0.31833 0.95257zm-0.44373-0.13022q-0.0048-0.36415-0.20498-0.58119-0.19775-0.21704-0.52572-0.21704-0.37138 0-0.59566 0.20981-0.22186 0.20981-0.25563 0.59083z"/></g></svg>
