<?xml version="1.0" encoding="UTF-8"?>
<svg id="svg5" width="149.08mm" height="64.908mm" version="1.1" viewBox="0 0 149.08 64.908" xmlns="http://www.w3.org/2000/svg"><defs id="defs2"><marker id="Arrow1Mend" overflow="visible" orient="auto"><path id="path26121" transform="scale(-.6)" d="m8.7186 4.0337-10.926-4.0177 10.926-4.0177c-1.7455 2.3721-1.7354 5.6175-6e-7 8.0354z" fill="context-stroke" fill-rule="evenodd" stroke-linejoin="round" stroke-width=".625"/></marker><marker id="ArrowRedMend" overflow="visible" orient="auto"><path id="path53977" transform="scale(.6) rotate(180) translate(0)" d="m8.7186 4.0337-10.926-4.0177 10.926-4.0177c-1.7455 2.3721-1.7354 5.6175-6e-7 8.0354z" fill="#0081cf" fill-rule="evenodd" stroke-linejoin="round" stroke-width=".625"/></marker></defs><g id="text10527" stroke-width=".26458px" aria-label="/  foo/    a    b  bar/    c    d"><path id="path79" d="m5.3131 16.476h0.65457l-2.7078 5.7981h-0.65801z"/><path id="path81" d="m14.408 23.435v0.5271h-0.72003q-0.34106 0-0.47542 0.14125-0.13091 0.1378-0.13091 0.49265v0.34106h1.3264v0.49265h-1.3264v3.3659h-0.6339v-3.3659h-1.0301v-0.49265h1.0301v-0.26872q0-0.6339 0.28939-0.93362 0.29283-0.29972 0.90951-0.29972z"/><path id="path83" d="m17.116 25.381q-0.48231 0-0.73036 0.37552-0.24805 0.37552-0.24805 1.1128 0 0.73381 0.24805 1.1128 0.24805 0.37552 0.73036 0.37552 0.48576 0 0.73381-0.37552 0.24805-0.37896 0.24805-1.1128 0-0.73725-0.24805-1.1128-0.24805-0.37552-0.73381-0.37552zm0-0.53744q0.80271 0 1.2265 0.52021 0.42719 0.52021 0.42719 1.5055 0 0.98874-0.42375 1.509-0.42375 0.51676-1.2299 0.51676-0.80271 0-1.2265-0.51676-0.42375-0.52021-0.42375-1.509 0-0.9853 0.42375-1.5055 0.42375-0.52021 1.2265-0.52021z"/><path id="path85" d="m21.364 25.381q-0.48231 0-0.73036 0.37552-0.24805 0.37552-0.24805 1.1128 0 0.73381 0.24805 1.1128 0.24805 0.37552 0.73036 0.37552 0.48576 0 0.73381-0.37552 0.24805-0.37896 0.24805-1.1128 0-0.73725-0.24805-1.1128-0.24805-0.37552-0.73381-0.37552zm0-0.53744q0.80271 0 1.2265 0.52021 0.42719 0.52021 0.42719 1.5055 0 0.98874-0.42375 1.509-0.42375 0.51676-1.2299 0.51676-0.80271 0-1.2265-0.51676-0.42375-0.52021-0.42375-1.509 0-0.9853 0.42375-1.5055 0.42375-0.52021 1.2265-0.52021z"/><path id="path87" d="m26.552 23.652h0.65457l-2.7078 5.7981h-0.65801z"/><path id="path89" d="m21.66 34.032h-0.21015q-0.55466 0-0.83716 0.19637-0.27905 0.19293-0.27905 0.57878 0 0.34796 0.21015 0.54088 0.21015 0.19293 0.58222 0.19293 0.52365 0 0.82338-0.36174 0.29972-0.36518 0.30317-1.006v-0.14125zm1.2299-0.26183v2.2014h-0.63734v-0.57189q-0.20326 0.34451-0.51332 0.50987-0.30661 0.16192-0.74759 0.16192-0.58911 0-0.94051-0.33073-0.3514-0.33417-0.3514-0.89228 0-0.64423 0.43064-0.97841 0.43408-0.33417 1.2712-0.33417h0.85094v-0.09991q-0.0034-0.46164-0.23427-0.66835-0.23082-0.21015-0.73725-0.21015-0.32384 0-0.65457 0.09302-0.33073 0.09302-0.64423 0.27216v-0.6339q0.3514-0.13436 0.67179-0.19982 0.32384-0.0689 0.62701-0.0689 0.47887 0 0.81649 0.14125 0.34106 0.14125 0.55122 0.42375 0.13091 0.17226 0.18604 0.42719 0.05512 0.25149 0.05512 0.75792z"/><path id="path91" d="m22.404 41.222q0-0.73725-0.23427-1.1128-0.23427-0.37552-0.69246-0.37552-0.46164 0-0.69936 0.37896-0.23771 0.37552-0.23771 1.1093 0 0.73036 0.23771 1.1093 0.23771 0.37896 0.69936 0.37896 0.4582 0 0.69246-0.37552 0.23427-0.37552 0.23427-1.1128zm-1.8638-1.4401q0.15158-0.2825 0.41686-0.43408 0.26872-0.15158 0.62012-0.15158 0.69591 0 1.0955 0.53744 0.39963 0.53399 0.39963 1.4745 0 0.95429-0.40308 1.4986-0.39963 0.54088-1.099 0.54088-0.34451 0-0.60978-0.14814-0.26183-0.15158-0.4203-0.43753v0.48576h-0.6339v-5.3606h0.6339z"/><path id="path93" d="m13.909 48.398q0-0.73725-0.23427-1.1128-0.23427-0.37552-0.69246-0.37552-0.46164 0-0.69935 0.37896-0.23771 0.37552-0.23771 1.1093 0 0.73036 0.23771 1.1093 0.23771 0.37896 0.69935 0.37896 0.4582 0 0.69246-0.37552 0.23427-0.37552 0.23427-1.1128zm-1.8638-1.4401q0.15158-0.2825 0.41686-0.43408 0.26872-0.15158 0.62012-0.15158 0.69591 0 1.0955 0.53744 0.39963 0.53399 0.39963 1.4745 0 0.95429-0.40308 1.4986-0.39963 0.54088-1.099 0.54088-0.34451 0-0.60978-0.14814-0.26183-0.15158-0.4203-0.43753v0.48576h-0.6339v-5.3606h0.6339z"/><path id="path95" d="m17.412 48.384h-0.21015q-0.55466 0-0.83716 0.19637-0.27905 0.19293-0.27905 0.57878 0 0.34795 0.21015 0.54088 0.21015 0.19292 0.58222 0.19292 0.52366 0 0.82338-0.36174 0.29972-0.36518 0.30317-1.006v-0.14125zm1.2299-0.26183v2.2014h-0.63734v-0.57189q-0.20326 0.34451-0.51332 0.50988-0.30661 0.16192-0.74759 0.16192-0.58911 0-0.94051-0.33073-0.3514-0.33417-0.3514-0.89228 0-0.64423 0.43064-0.97841 0.43408-0.33418 1.2712-0.33418h0.85094v-0.09991q-0.0034-0.46164-0.23427-0.66835-0.23082-0.21015-0.73725-0.21015-0.32384 0-0.65457 0.09302-0.33073 0.09302-0.64423 0.27216v-0.6339q0.3514-0.13436 0.67179-0.19982 0.32384-0.0689 0.62701-0.0689 0.47887 0 0.81649 0.14125 0.34106 0.14125 0.55122 0.42375 0.13091 0.17226 0.18604 0.42719 0.05512 0.25149 0.05512 0.75792z"/><path id="path97" d="m23.221 47.261q-0.20326-0.15848-0.41341-0.23082-0.21015-0.07235-0.46164-0.07235-0.59256 0-0.90606 0.37207-0.3135 0.37207-0.3135 1.0749v1.9189h-0.63734v-3.8585h0.63734v0.75448q0.15847-0.40997 0.48576-0.62701 0.33073-0.22049 0.78204-0.22049 0.23427 0 0.43753 0.05857t0.3893 0.18259z"/><path id="path99" d="m26.552 45.18h0.65457l-2.7078 5.7981h-0.65801z"/><path id="path101" d="m22.897 57.303q-0.25494 0.14814-0.5271 0.22049-0.26872 0.07579-0.55122 0.07579-0.89572 0-1.4022-0.53744-0.50298-0.53744-0.50298-1.4883t0.50298-1.4883q0.50643-0.53744 1.4022-0.53744 0.27905 0 0.54433 0.07235 0.26527 0.07235 0.53399 0.22393v0.6649q-0.25149-0.22393-0.50643-0.32384-0.25149-0.09991-0.57189-0.09991-0.596 0-0.9164 0.38585t-0.32039 1.1024q0 0.71314 0.32039 1.1024 0.32384 0.38585 0.9164 0.38585 0.33073 0 0.59256-0.09991 0.26183-0.10335 0.48576-0.31695z"/><path id="path103" d="m22.198 61.31v-1.9947h0.6339v5.3606h-0.6339v-0.48576q-0.15848 0.28594-0.42375 0.43753-0.26183 0.14814-0.60634 0.14814-0.69936 0-1.1024-0.54088-0.39963-0.54433-0.39963-1.4986 0-0.94051 0.40308-1.4745 0.40308-0.53744 1.099-0.53744 0.34796 0 0.61323 0.15158 0.26527 0.14814 0.41686 0.43408zm-1.8638 1.4401q0 0.73725 0.23427 1.1128 0.23427 0.37552 0.69246 0.37552t0.69591-0.37896q0.24116-0.37896 0.24116-1.1093 0-0.73381-0.24116-1.1093-0.23771-0.37896-0.69591-0.37896t-0.69246 0.37552q-0.23427 0.37552-0.23427 1.1128z"/></g><path id="path25696" d="m4.5344 23.535v22.663" fill="none" stroke="#000" stroke-linecap="round" stroke-width=".52917" style="paint-order:normal"/><path id="path25958" d="m4.5344 24.564c0 1.5071 1.5429 1.4354 1.5429 1.4354l3.846-0.0019" fill="none" marker-end="url(#Arrow1Mend)" stroke="#000" stroke-linecap="round" stroke-width=".52917" style="paint-order:normal"/><path id="path27085" d="m4.5344 46.199c0 1.5071 1.5429 1.4354 1.5429 1.4354l3.846-0.0019" fill="none" marker-end="url(#Arrow1Mend)" stroke="#000" stroke-linecap="round" stroke-width=".52917" style="paint-order:normal"/><path id="path27490" d="m13.266 30.8-0.0056 8.5867" fill="none" stroke="#000" stroke-linecap="round" stroke-width=".52917" style="paint-order:normal"/><path id="path27629" d="m13.26 32.462c0 1.5071 1.5429 1.4354 1.5429 1.4354l3.846-0.0019" fill="none" marker-end="url(#Arrow1Mend)" stroke="#000" stroke-linecap="round" stroke-width=".52917" style="paint-order:normal"/><path id="path27844" d="m13.26 39.387c0 1.5071 1.5429 1.4354 1.5429 1.4354l3.846-0.0019" fill="none" marker-end="url(#Arrow1Mend)" stroke="#000" stroke-linecap="round" stroke-width=".52917" style="paint-order:normal"/><path id="path28236" d="m13.266 52.334-0.0056 8.5867" fill="none" stroke="#000" stroke-linecap="round" stroke-width=".52917" style="paint-order:normal"/><path id="path28238" d="m13.26 53.996c0 1.5071 1.5429 1.4354 1.5429 1.4354l3.846-0.0019" fill="none" marker-end="url(#Arrow1Mend)" stroke="#000" stroke-linecap="round" stroke-width=".52917" style="paint-order:normal"/><path id="path28240" d="m13.26 60.92c0 1.5071 1.5429 1.4354 1.5429 1.4354l3.846-0.0019" fill="none" marker-end="url(#Arrow1Mend)" stroke="#000" stroke-linecap="round" stroke-width=".52917" style="paint-order:normal"/><g id="text31368" stroke-width=".26458px" aria-label="VFS tree:"><path id="path62" d="m2.096 5.3688-1.9637-5.1435h0.72692l1.6295 4.3305 1.633-4.3305h0.72347l-1.9603 5.1435z"/><path id="path64" d="m5.5962 0.22531h2.9559v0.58567h-2.26v1.5158h2.0395v0.58567h-2.0395v2.4564h-0.69591z"/><path id="path66" d="m12.614 0.39412v0.67868q-0.39619-0.18948-0.74759-0.2825-0.3514-0.093018-0.67868-0.093018-0.56844 0-0.8785 0.22049-0.30661 0.22049-0.30661 0.62701 0 0.34106 0.20326 0.51676 0.20671 0.17225 0.77859 0.27905l0.4203 0.086127q0.77859 0.14814 1.1472 0.52365 0.37207 0.37207 0.37207 0.99908 0 0.74759-0.50298 1.1334-0.49954 0.38585-1.4676 0.38585-0.36518 0-0.77859-0.082682-0.40997-0.082682-0.85094-0.2446v-0.71658q0.42375 0.23771 0.83027 0.35829 0.40652 0.12058 0.79926 0.12058 0.596 0 0.91984-0.23427 0.32384-0.23427 0.32384-0.66835 0-0.37896-0.23427-0.59256-0.23082-0.2136-0.76137-0.32039l-0.42375-0.082682q-0.77859-0.15503-1.1265-0.48576t-0.34795-0.91984q0-0.68213 0.47887-1.0749 0.48231-0.39274 1.3264-0.39274 0.36174 0 0.73725 0.065457 0.37552 0.065457 0.76826 0.19637z"/><path id="path68" d="m16.851 0.41479v1.0955h1.3057v0.49265h-1.3057v2.0946q0 0.47198 0.12747 0.60634 0.13091 0.13436 0.5271 0.13436h0.65112v0.53054h-0.65112q-0.7338 0-1.0129-0.27216-0.27905-0.27561-0.27905-0.99908v-2.0946h-0.46509v-0.49265h0.46509v-1.0955z"/><path id="path70" d="m21.227 2.1029q-0.1068-0.062012-0.23427-0.089573-0.12402-0.031006-0.27561-0.031006-0.53744 0-0.82682 0.3514-0.28594 0.34795-0.28594 1.0025v2.0326h-0.63734v-3.8585h0.63734v0.59945q0.19982-0.3514 0.52021-0.52021 0.32039-0.17225 0.77859-0.17225 0.06546 0 0.14469 0.010335 0.07924 0.00689 0.1757 0.024116z"/><path id="path72" d="m25.037 3.2811v0.31006h-2.9146q0.04134 0.65457 0.39274 0.99908 0.35484 0.34106 0.9853 0.34106 0.36518 0 0.70624-0.089573 0.34451-0.089573 0.68213-0.26872v0.59945q-0.34106 0.14469-0.69936 0.22049-0.35829 0.075792-0.72692 0.075792-0.92329 0-1.4642-0.53744-0.53744-0.53744-0.53744-1.4538 0-0.9474 0.50987-1.5021 0.51332-0.55811 1.3815-0.55811 0.77859 0 1.2299 0.50298 0.45475 0.49954 0.45475 1.3608zm-0.6339-0.18604q-0.00689-0.52021-0.29283-0.83027-0.2825-0.31006-0.75103-0.31006-0.53054 0-0.85094 0.29972-0.31695 0.29972-0.36518 0.84405z"/><path id="path74" d="m29.378 3.2811v0.31006h-2.9146q0.04134 0.65457 0.39274 0.99908 0.35484 0.34106 0.9853 0.34106 0.36518 0 0.70624-0.089573 0.34451-0.089573 0.68213-0.26872v0.59945q-0.34106 0.14469-0.69936 0.22049-0.35829 0.075792-0.72692 0.075792-0.92329 0-1.4642-0.53744-0.53744-0.53744-0.53744-1.4538 0-0.9474 0.50987-1.5021 0.51332-0.55811 1.3815-0.55811 0.77859 0 1.2299 0.50298 0.45475 0.49954 0.45475 1.3608zm-0.6339-0.18604q-0.00689-0.52021-0.29283-0.83027-0.2825-0.31006-0.75103-0.31006-0.53054 0-0.85094 0.29972-0.31695 0.29972-0.36518 0.84405z"/><path id="path76" d="m30.58 4.4938h0.72692v0.87505h-0.72692zm0-2.7733h0.72692v0.87505h-0.72692z"/></g><g id="text36298" fill="#0081cf" stroke-width=".26458px" aria-label="/  x  y"><path id="path115" d="m58.664 16.476h0.65457l-2.7078 5.7981h-0.65801z"/><path id="path117" d="m67.949 24.937-1.3815 1.8466 1.5158 2.0119h-0.73381l-1.13-1.5468-1.1265 1.5468h-0.73381l1.5158-2.0119-1.3815-1.8466h0.7028l1.0232 1.3953 1.0163-1.3953z"/><path id="path119" d="m67.053 34.731q-0.15848 0.40308-0.40308 1.0611-0.34106 0.90951-0.4582 1.1093-0.15847 0.26872-0.39619 0.40308t-0.55466 0.13436h-0.50987v-0.53055h0.37552q0.27905 0 0.43753-0.16192 0.15847-0.16192 0.40308-0.83716l-1.4917-3.7965h0.67179l1.1438 3.0179 1.1265-3.0179h0.67179z"/></g><path id="path36300" d="m57.886 23.535v9.5655" fill="none" stroke="#0081cf" stroke-linecap="round" stroke-width=".52917" style="paint-order:normal"/><path id="path36302" d="m57.886 24.564c0 1.5071 1.5429 1.4354 1.5429 1.4354l3.846-0.0019" fill="none" marker-end="url(#ArrowRedMend)" stroke="#0081cf" stroke-linecap="round" stroke-width=".52917" style="paint-order:normal"/><path id="path36304" d="m57.886 33.101c0 1.5071 1.5429 1.4354 1.5429 1.4354l3.846-0.0019" fill="none" marker-end="url(#ArrowRedMend)" stroke="#0081cf" stroke-linecap="round" stroke-width=".52917" style="paint-order:normal"/><g id="text36320" stroke-width=".26458px" aria-label="FS A:"><path id="path106" d="m53.733 0.22531h2.9559v0.58567h-2.26v1.5158h2.0395v0.58567h-2.0395v2.4564h-0.69591z"/><path id="path108" d="m60.75 0.39412v0.67868q-0.39619-0.18948-0.74759-0.2825-0.3514-0.093018-0.67868-0.093018-0.56844 0-0.8785 0.22049-0.30661 0.22049-0.30661 0.62701 0 0.34106 0.20326 0.51676 0.20671 0.17225 0.77859 0.27905l0.4203 0.086127q0.77859 0.14814 1.1472 0.52365 0.37207 0.37207 0.37207 0.99908 0 0.74759-0.50298 1.1334-0.49954 0.38585-1.4676 0.38585-0.36518 0-0.77859-0.082682-0.40997-0.082682-0.85094-0.2446v-0.71658q0.42375 0.23771 0.83027 0.35829 0.40652 0.12058 0.79926 0.12058 0.596 0 0.91984-0.23427 0.32384-0.23427 0.32384-0.66835 0-0.37896-0.23427-0.59256-0.23082-0.2136-0.76137-0.32039l-0.42375-0.082682q-0.77859-0.15503-1.1265-0.48576-0.34795-0.33073-0.34795-0.91984 0-0.68213 0.47887-1.0749 0.48231-0.39274 1.3264-0.39274 0.36174 0 0.73725 0.065457 0.37552 0.065457 0.76826 0.19637z"/><path id="path110" d="m66.107 0.91088-0.94396 2.5597h1.8914zm-0.39274-0.68557h0.78893l1.9603 5.1435h-0.72347l-0.46853-1.3195h-2.3186l-0.46853 1.3195h-0.7338z"/><path id="path112" d="m69.225 4.4938h0.72692v0.87505h-0.72692zm0-2.7733h0.72692v0.87505h-0.72692z"/></g><g id="text44877" stroke-width=".26458px" aria-label="Mounting FS Aon /foo:"><path id="path122" d="m98.949 0.34933h1.037l1.3126 3.5002 1.3195-3.5002h1.037v5.1435h-0.67869v-4.5165l-1.3264 3.5278h-0.69935l-1.3264-3.5278v4.5165h-0.67524z"/><path id="path124" d="m106.5 2.0788q-0.50987 0-0.80615 0.39963-0.29628 0.39619-0.29628 1.0887 0 0.69246 0.29284 1.0921 0.29627 0.39619 0.80959 0.39619 0.50643 0 0.80271-0.39963t0.29628-1.0887q0-0.68557-0.29628-1.0852-0.29628-0.40308-0.80271-0.40308zm0-0.53744q0.82683 0 1.2988 0.53744 0.47197 0.53744 0.47197 1.4883 0 0.9474-0.47197 1.4883-0.47198 0.53744-1.2988 0.53744-0.83026 0-1.3022-0.53744-0.46854-0.54088-0.46854-1.4883 0-0.95085 0.46854-1.4883 0.47198-0.53744 1.3022-0.53744z"/><path id="path126" d="m109.26 3.9701v-2.3358h0.6339v2.3117q0 0.54777 0.2136 0.82338 0.21359 0.27216 0.64079 0.27216 0.51332 0 0.80959-0.32728 0.29973-0.32728 0.29973-0.89228v-2.1876h0.63389v3.8585h-0.63389v-0.59256q-0.23082 0.3514-0.53744 0.52365-0.30317 0.16881-0.70624 0.16881-0.66491 0-1.0094-0.41341-0.34451-0.41341-0.34451-1.2092z"/><path id="path128" d="m117 3.164v2.3289h-0.63389v-2.3082q0-0.54777-0.2136-0.81993-0.2136-0.27216-0.64079-0.27216-0.51332 0-0.8096 0.32728t-0.29628 0.89228v2.1807h-0.63734v-3.8585h0.63734v0.59945q0.22738-0.34795 0.53399-0.52021 0.31006-0.17225 0.71314-0.17225 0.6649 0 1.006 0.41341 0.34106 0.40997 0.34106 1.2092z"/><path id="path130" d="m118.9 0.53881v1.0955h1.3057v0.49265h-1.3057v2.0946q0 0.47198 0.12747 0.60634 0.13091 0.13436 0.5271 0.13436h0.65112v0.53055h-0.65112q-0.73381 0-1.0129-0.27216-0.27905-0.27561-0.27905-0.99908v-2.0946h-0.46509v-0.49265h0.46509v-1.0955z"/><path id="path132" d="m121.04 1.6344h0.63389v3.8585h-0.63389zm0-1.5021h0.63389v0.80271h-0.63389z"/><path id="path134" d="m126.2 3.164v2.3289h-0.63389v-2.3082q0-0.54777-0.2136-0.81993-0.2136-0.27216-0.64079-0.27216-0.51332 0-0.8096 0.32728t-0.29628 0.89228v2.1807h-0.63734v-3.8585h0.63734v0.59945q0.22738-0.34795 0.53399-0.52021 0.31006-0.17225 0.71314-0.17225 0.6649 0 1.006 0.41341 0.34106 0.40997 0.34106 1.2092z"/><path id="path136" d="m130.01 3.5188q0-0.68902-0.28594-1.068-0.2825-0.37896-0.79582-0.37896-0.50987 0-0.79582 0.37896-0.2825 0.37896-0.2825 1.068 0 0.68557 0.2825 1.0645 0.28595 0.37896 0.79582 0.37896 0.51332 0 0.79582-0.37896 0.28594-0.37896 0.28594-1.0645zm0.6339 1.4952q0 0.9853-0.43753 1.4642-0.43753 0.48231-1.3401 0.48231-0.33418 0-0.63045-0.051677-0.29628-0.048231-0.57534-0.15158v-0.61667q0.27906 0.15158 0.55122 0.22393 0.27216 0.072347 0.55466 0.072347 0.62356 0 0.93362-0.32728 0.31006-0.32384 0.31006-0.98185v-0.3135q-0.19637 0.34106-0.50298 0.50987-0.30662 0.16881-0.73381 0.16881-0.70969 0-1.1438-0.54088-0.43408-0.54088-0.43408-1.4332 0-0.89573 0.43408-1.4366 0.43408-0.54088 1.1438-0.54088 0.42719 0 0.73381 0.16881 0.30661 0.16881 0.50298 0.50987v-0.58567h0.6339z"/><path id="path138" d="m134.22 0.34933h2.9559v0.58567h-2.26v1.5158h2.0395v0.58567h-2.0395v2.4564h-0.69591z"/><path id="path140" d="m141.23 0.51814v0.67868q-0.39618-0.18948-0.74758-0.2825t-0.67869-0.093018q-0.56844 0-0.8785 0.22049-0.30661 0.22049-0.30661 0.62701 0 0.34106 0.20326 0.51676 0.20671 0.17225 0.77859 0.27905l0.42031 0.086127q0.77859 0.14814 1.1472 0.52365 0.37207 0.37207 0.37207 0.99908 0 0.74759-0.50298 1.1334-0.49954 0.38585-1.4676 0.38585-0.36518 0-0.77859-0.082682-0.40997-0.082682-0.85094-0.2446v-0.71658q0.42374 0.23771 0.83026 0.35829 0.40653 0.12058 0.79927 0.12058 0.596 0 0.91984-0.23427 0.32384-0.23427 0.32384-0.66835 0-0.37896-0.23427-0.59256-0.23082-0.2136-0.76137-0.32039l-0.42374-0.082682q-0.77859-0.15503-1.1266-0.48576-0.34795-0.33073-0.34795-0.91984 0-0.68213 0.47886-1.0749 0.48232-0.39274 1.3264-0.39274 0.36173 0 0.73725 0.065457 0.37551 0.065457 0.76825 0.19637z"/><path id="path142" d="m146.59 1.0349-0.94395 2.5597h1.8914zm-0.39274-0.68557h0.78893l1.9603 5.1435h-0.72347l-0.46854-1.3195h-2.3186l-0.46853 1.3195h-0.73381z"/><path id="path144" d="m112.34 9.2549q-0.50987 0-0.80615 0.39963-0.29628 0.39619-0.29628 1.0887t0.29283 1.0921q0.29628 0.39619 0.8096 0.39619 0.50643 0 0.80271-0.39963t0.29628-1.0887q0-0.68557-0.29628-1.0852-0.29628-0.40308-0.80271-0.40308zm0-0.53744q0.82682 0 1.2988 0.53744 0.47198 0.53744 0.47198 1.4883 0 0.9474-0.47198 1.4883-0.47198 0.53744-1.2988 0.53744-0.83027 0-1.3022-0.53744-0.46853-0.54088-0.46853-1.4883 0-0.95085 0.46853-1.4883 0.47198-0.53744 1.3022-0.53744z"/><path id="path146" d="m118.37 10.34v2.3289h-0.6339v-2.3082q0-0.54777-0.21359-0.81993-0.2136-0.27216-0.64079-0.27216-0.51332 0-0.8096 0.32728t-0.29628 0.89228v2.1807h-0.63734v-3.8585h0.63734v0.59945q0.22738-0.34795 0.53399-0.52021 0.31006-0.17225 0.71314-0.17225 0.6649 0 1.006 0.41341 0.34106 0.40997 0.34106 1.2092z"/><path id="path148" d="m123 7.5255h0.58566l-1.7914 5.7981h-0.58566z"/><path id="path150" d="m126.21 7.3084v0.5271h-0.60634q-0.34106 0-0.47542 0.1378-0.13092 0.1378-0.13092 0.49609v0.34106h1.0439v0.49265h-1.0439v3.3659h-0.63734v-3.3659h-0.60634v-0.49265h0.60634v-0.26872q0-0.64423 0.29972-0.93707 0.29973-0.29628 0.95085-0.29628z"/><path id="path152" d="m128.23 9.2549q-0.50988 0-0.80616 0.39963-0.29628 0.39619-0.29628 1.0887t0.29284 1.0921q0.29628 0.39619 0.8096 0.39619 0.50643 0 0.8027-0.39963 0.29628-0.39963 0.29628-1.0887 0-0.68557-0.29628-1.0852-0.29627-0.40308-0.8027-0.40308zm0-0.53744q0.82682 0 1.2988 0.53744 0.47198 0.53744 0.47198 1.4883 0 0.9474-0.47198 1.4883-0.47198 0.53744-1.2988 0.53744-0.83027 0-1.3022-0.53744-0.46853-0.54088-0.46853-1.4883 0-0.95085 0.46853-1.4883 0.47198-0.53744 1.3022-0.53744z"/><path id="path154" d="m132.55 9.2549q-0.50987 0-0.80615 0.39963-0.29628 0.39619-0.29628 1.0887t0.29284 1.0921q0.29627 0.39619 0.80959 0.39619 0.50643 0 0.80271-0.39963t0.29628-1.0887q0-0.68557-0.29628-1.0852-0.29628-0.40308-0.80271-0.40308zm0-0.53744q0.82683 0 1.2988 0.53744 0.47197 0.53744 0.47197 1.4883 0 0.9474-0.47197 1.4883-0.47198 0.53744-1.2988 0.53744-0.83026 0-1.3022-0.53744-0.46854-0.54088-0.46854-1.4883 0-0.95085 0.46854-1.4883 0.47198-0.53744 1.3022-0.53744z"/><path id="path156" d="m135.53 11.794h0.72691v0.87506h-0.72691zm0-2.7733h0.72691v0.87505h-0.72691z"/></g><g id="text45567" stroke-width=".26458px" aria-label="/          bar/    c    d"><path id="path172" d="m113.98 16.476h0.65457l-2.7078 5.7981h-0.65801z"/><path id="path174" d="m122.57 48.398q0-0.73725-0.23427-1.1128-0.23426-0.37552-0.69246-0.37552-0.46165 0-0.69936 0.37896-0.23771 0.37552-0.23771 1.1093 0 0.73036 0.23771 1.1093 0.23771 0.37896 0.69936 0.37896 0.4582 0 0.69246-0.37552 0.23427-0.37552 0.23427-1.1128zm-1.8638-1.4401q0.15159-0.2825 0.41686-0.43408 0.26872-0.15158 0.62012-0.15158 0.69591 0 1.0955 0.53744 0.39963 0.53399 0.39963 1.4745 0 0.95429-0.40308 1.4986-0.39963 0.54088-1.099 0.54088-0.34451 0-0.60979-0.14814-0.26182-0.15158-0.4203-0.43753v0.48576h-0.6339v-5.3606h0.6339z"/><path id="path176" d="m126.08 48.384h-0.21015q-0.55466 0-0.83716 0.19637-0.27905 0.19293-0.27905 0.57878 0 0.34795 0.21015 0.54088 0.21015 0.19292 0.58222 0.19292 0.52366 0 0.82338-0.36174 0.29973-0.36518 0.30317-1.006v-0.14125zm1.2299-0.26183v2.2014h-0.63734v-0.57189q-0.20326 0.34451-0.51332 0.50988-0.30661 0.16192-0.74759 0.16192-0.58911 0-0.94051-0.33073-0.3514-0.33417-0.3514-0.89228 0-0.64423 0.43064-0.97841 0.43408-0.33418 1.2712-0.33418h0.85094v-0.09991q-3e-3 -0.46164-0.23427-0.66835-0.23082-0.21015-0.73725-0.21015-0.32384 0-0.65457 0.09302t-0.64423 0.27216v-0.6339q0.3514-0.13436 0.67179-0.19982 0.32384-0.0689 0.62701-0.0689 0.47887 0 0.81649 0.14125 0.34107 0.14125 0.55122 0.42375 0.13091 0.17226 0.18603 0.42719 0.0551 0.25149 0.0551 0.75792z"/><path id="path178" d="m131.89 47.261q-0.20326-0.15848-0.41341-0.23082-0.21015-0.07235-0.46165-0.07235-0.59255 0-0.90606 0.37207-0.3135 0.37207-0.3135 1.0749v1.9189h-0.63734v-3.8585h0.63734v0.75448q0.15847-0.40997 0.48576-0.62701 0.33073-0.22049 0.78203-0.22049 0.23427 0 0.43753 0.05857t0.3893 0.18259z"/><path id="path180" d="m135.22 45.18h0.65457l-2.7078 5.7981h-0.65801z"/><path id="path182" d="m131.56 57.303q-0.25494 0.14814-0.5271 0.22049-0.26872 0.07579-0.55122 0.07579-0.89572 0-1.4022-0.53744-0.50299-0.53744-0.50299-1.4883t0.50299-1.4883q0.50643-0.53744 1.4022-0.53744 0.27906 0 0.54433 0.07235t0.53399 0.22393v0.6649q-0.25149-0.22393-0.50643-0.32384-0.25149-0.09991-0.57189-0.09991-0.596 0-0.91639 0.38585-0.3204 0.38585-0.3204 1.1024 0 0.71314 0.3204 1.1024 0.32384 0.38585 0.91639 0.38585 0.33073 0 0.59256-0.09991 0.26183-0.10335 0.48576-0.31695z"/><path id="path184" d="m130.86 61.31v-1.9947h0.6339v5.3606h-0.6339v-0.48576q-0.15847 0.28594-0.42374 0.43753-0.26183 0.14814-0.60634 0.14814-0.69935 0-1.1024-0.54088-0.39963-0.54433-0.39963-1.4986 0-0.94051 0.40307-1.4745 0.40308-0.53744 1.099-0.53744 0.34795 0 0.61323 0.15158 0.26527 0.14814 0.41685 0.43408zm-1.8638 1.4401q0 0.73725 0.23426 1.1128 0.23427 0.37552 0.69247 0.37552t0.69591-0.37896q0.24115-0.37896 0.24115-1.1093 0-0.73381-0.24115-1.1093-0.23771-0.37896-0.69591-0.37896t-0.69247 0.37552q-0.23426 0.37552-0.23426 1.1128z"/></g><path id="path45569" d="m113.2 23.535v22.663" fill="none" stroke="#000" stroke-linecap="round" stroke-width=".52917" style="paint-order:normal"/><path id="path45571" d="m113.2 24.564c0 1.5071 1.5429 1.4354 1.5429 1.4354l3.846-0.0019" fill="none" marker-end="url(#Arrow1Mend)" stroke="#000" stroke-linecap="round" stroke-width=".52917" style="paint-order:normal"/><path id="path45573" d="m113.2 46.199c0 1.5071 1.5429 1.4354 1.5429 1.4354l3.846-0.0019" fill="none" marker-end="url(#Arrow1Mend)" stroke="#000" stroke-linecap="round" stroke-width=".52917" style="paint-order:normal"/><path id="path45575" d="m121.93 30.8-6e-3 8.5867" fill="none" stroke="#0081cf" stroke-linecap="round" stroke-width=".52917" style="paint-order:normal"/><path id="path45577" d="m121.93 32.462c0 1.5071 1.5429 1.4354 1.5429 1.4354l3.846-0.0019" fill="none" marker-end="url(#ArrowRedMend)" stroke="#0081cf" stroke-linecap="round" stroke-width=".52917" style="paint-order:normal"/><path id="path45579" d="m121.93 39.387c0 1.5071 1.5429 1.4354 1.5429 1.4354l3.846-0.0019" fill="none" marker-end="url(#ArrowRedMend)" stroke="#0081cf" stroke-linecap="round" stroke-width=".52917" style="paint-order:normal"/><path id="path45581" d="m121.93 52.334-6e-3 8.5867" fill="none" stroke="#000" stroke-linecap="round" stroke-width=".52917" style="paint-order:normal"/><path id="path45583" d="m121.93 53.996c0 1.5071 1.5429 1.4354 1.5429 1.4354l3.846-0.0019" fill="none" marker-end="url(#Arrow1Mend)" stroke="#000" stroke-linecap="round" stroke-width=".52917" style="paint-order:normal"/><path id="path45585" d="m121.93 60.92c0 1.5071 1.5429 1.4354 1.5429 1.4354l3.846-0.0019" fill="none" marker-end="url(#Arrow1Mend)" stroke="#000" stroke-linecap="round" stroke-width=".52917" style="paint-order:normal"/><g id="text49419" fill="#0081cf" stroke-width=".26458px" aria-label="  foo/    x    y"><path id="path159" d="m123.07 23.435v0.5271h-0.72003q-0.34106 0-0.47542 0.14125-0.13091 0.1378-0.13091 0.49265v0.34106h1.3264v0.49265h-1.3264v3.3659h-0.6339v-3.3659h-1.0301v-0.49265h1.0301v-0.26872q0-0.6339 0.28939-0.93362 0.29283-0.29972 0.9095-0.29972z"/><path id="path161" d="m125.78 25.381q-0.48232 0-0.73037 0.37552-0.24804 0.37552-0.24804 1.1128 0 0.73381 0.24804 1.1128 0.24805 0.37552 0.73037 0.37552 0.48575 0 0.7338-0.37552 0.24805-0.37896 0.24805-1.1128 0-0.73725-0.24805-1.1128-0.24805-0.37552-0.7338-0.37552zm0-0.53744q0.8027 0 1.2264 0.52021 0.42719 0.52021 0.42719 1.5055 0 0.98874-0.42375 1.509-0.42374 0.51676-1.2299 0.51676-0.80271 0-1.2265-0.51676-0.42375-0.52021-0.42375-1.509 0-0.9853 0.42375-1.5055 0.42375-0.52021 1.2265-0.52021z"/><path id="path163" d="m130.03 25.381q-0.48231 0-0.73036 0.37552-0.24805 0.37552-0.24805 1.1128 0 0.73381 0.24805 1.1128 0.24805 0.37552 0.73036 0.37552 0.48576 0 0.73381-0.37552 0.24804-0.37896 0.24804-1.1128 0-0.73725-0.24804-1.1128-0.24805-0.37552-0.73381-0.37552zm0-0.53744q0.80271 0 1.2265 0.52021 0.42719 0.52021 0.42719 1.5055 0 0.98874-0.42375 1.509-0.42375 0.51676-1.2299 0.51676-0.80271 0-1.2264-0.51676-0.42375-0.52021-0.42375-1.509 0-0.9853 0.42375-1.5055 0.42374-0.52021 1.2264-0.52021z"/><path id="path165" d="m135.22 23.652h0.65457l-2.7078 5.7981h-0.65801z"/><path id="path167" d="m131.76 32.113-1.3815 1.8466 1.5158 2.0119h-0.73381l-1.13-1.5468-1.1266 1.5468h-0.7338l1.5158-2.0119-1.3815-1.8466h0.7028l1.0232 1.3953 1.0163-1.3953z"/><path id="path169" d="m130.86 41.907q-0.15847 0.40308-0.40307 1.0611-0.34107 0.9095-0.4582 1.1093-0.15847 0.26872-0.39619 0.40308-0.23771 0.13436-0.55466 0.13436h-0.50987v-0.53054h0.37551q0.27906 0 0.43753-0.16192 0.15848-0.16192 0.40308-0.83716l-1.4917-3.7965h0.67179l1.1438 3.0179 1.1265-3.0179h0.6718z"/></g></svg>
