<?xml version="1.0" encoding="UTF-8"?>
<svg id="svg5" width="93.084mm" height="112.19mm" version="1.1" viewBox="0 0 93.084 112.19" xmlns="http://www.w3.org/2000/svg"><defs id="defs2"><marker id="Arrow2Mstart" overflow="visible" orient="auto"><path id="path24651" transform="scale(.6)" d="m8.7186 4.0337-10.926-4.0177 10.926-4.0177c-1.7455 2.3721-1.7354 5.6175-6e-7 8.0354z" fill="context-stroke" fill-rule="evenodd" stroke-linejoin="round" stroke-width=".625"/></marker><marker id="Arrow1Mend" overflow="visible" orient="auto"><path id="path26121" transform="scale(-.6)" d="m8.7186 4.0337-10.926-4.0177 10.926-4.0177c-1.7455 2.3721-1.7354 5.6175-6e-7 8.0354z" fill="context-stroke" fill-rule="evenodd" stroke-linejoin="round" stroke-width=".625"/></marker></defs><rect id="rect991" x="15.436" y="33.475" width="33.768" height="13.398" rx="1.7964" ry="1.8948" fill="none" stop-color="#000000" stroke="#000" stroke-width=".52917"/><g id="text3313" stroke-width=".26458px" aria-label="qcow2"><path id="path96" d="m22.055 38.496q0 0.69935 0.28594 1.099 0.28939 0.39619 0.79237 0.39619 0.50298 0 0.79237-0.39619 0.28939-0.39963 0.28939-1.099 0-0.69936-0.28939-1.0955-0.28939-0.39963-0.79237-0.39963-0.50298 0-0.79237 0.39963-0.28594 0.39619-0.28594 1.0955zm2.1601 1.347q-0.19982 0.34451-0.50643 0.51332-0.30317 0.16536-0.73036 0.16536-0.69936 0-1.1403-0.55811-0.43753-0.55811-0.43753-1.4676 0-0.90951 0.43753-1.4676 0.44097-0.55811 1.1403-0.55811 0.42719 0 0.73036 0.16881 0.30661 0.16536 0.50643 0.50987v-0.58567h0.6339v5.3261h-0.6339z"/><path id="path98" d="m28.932 36.711v0.59256q-0.26872-0.14814-0.54088-0.22049-0.26872-0.07579-0.54433-0.07579-0.61667 0-0.95774 0.39274-0.34106 0.3893-0.34106 1.0955t0.34106 1.099q0.34106 0.3893 0.95774 0.3893 0.27561 0 0.54433-0.07235 0.27216-0.07579 0.54088-0.22393v0.58567q-0.26527 0.12402-0.55122 0.18604-0.2825 0.06201-0.60289 0.06201-0.87161 0-1.3849-0.54777-0.51332-0.54777-0.51332-1.4779 0-0.94396 0.51676-1.4848 0.52021-0.54088 1.4228-0.54088 0.29283 0 0.57189 0.06201 0.27905 0.05857 0.54088 0.17914z"/><path id="path100" d="m31.529 37.008q-0.50987 0-0.80615 0.39963-0.29628 0.39619-0.29628 1.0887 0 0.69246 0.29283 1.0921 0.29628 0.39619 0.8096 0.39619 0.50643 0 0.80271-0.39963 0.29628-0.39963 0.29628-1.0886 0-0.68558-0.29628-1.0852-0.29628-0.40308-0.80271-0.40308zm0-0.53744q0.82682 0 1.2988 0.53744 0.47198 0.53744 0.47198 1.4883 0 0.9474-0.47198 1.4883-0.47198 0.53744-1.2988 0.53744-0.83027 0-1.3022-0.53744-0.46853-0.54088-0.46853-1.4883 0-0.95085 0.46853-1.4883 0.47198-0.53744 1.3022-0.53744z"/><path id="path102" d="m33.982 36.563h0.6339l0.79237 3.011 0.78893-3.011h0.74759l0.79237 3.011 0.78893-3.011h0.6339l-1.0094 3.8585h-0.74759l-0.83027-3.1626-0.83371 3.1626h-0.74759z"/><path id="path104" d="m40.81 39.836h2.4288v0.58567h-3.266v-0.58567q0.39619-0.40997 1.0783-1.099 0.68558-0.69246 0.86128-0.89228 0.33417-0.37552 0.46509-0.6339 0.13436-0.26183 0.13436-0.51332 0-0.40997-0.28939-0.66835-0.28594-0.25838-0.74759-0.25838-0.32728 0-0.69246 0.11369-0.36174 0.11369-0.77515 0.34451v-0.7028q0.4203-0.16881 0.78548-0.25494 0.36518-0.08613 0.66835-0.08613 0.79926 0 1.2747 0.39963 0.47542 0.39963 0.47542 1.068 0 0.31695-0.12058 0.60289-0.11713 0.2825-0.43064 0.66835-0.08613 0.09991-0.54777 0.57878-0.46164 0.47542-1.3022 1.3333z"/></g><rect id="rect9379" x="15.436" y="62.186" width="33.768" height="13.398" rx="1.7964" ry="1.8948" fill="none" stop-color="#000000" stroke="#000" stroke-width=".52917"/><g id="text9383" stroke-width=".26458px" aria-label="file"><path id="path124" d="m30.837 65.488v3.8585h-0.63734v-3.3659h-1.7398v3.3659h-0.63734v-3.3659h-0.60634v-0.49265h0.60634v-0.26872q0-0.63045 0.29628-0.93018 0.29972-0.30317 0.9164-0.30317h0.63734v0.5271h-0.60634q-0.34106 0-0.47542 0.1378-0.13091 0.1378-0.13091 0.49609v0.34106zm-0.63734-1.4952h0.63734v0.80271h-0.63734z"/><path id="path126" d="m32.163 63.986h0.6339v5.3606h-0.6339z"/><path id="path128" d="m37.424 67.259v0.31006h-2.9146q0.04134 0.65457 0.39274 0.99908 0.35484 0.34106 0.9853 0.34106 0.36518 0 0.70624-0.08957 0.34451-0.08957 0.68213-0.26872v0.59945q-0.34106 0.14469-0.69936 0.22049-0.35829 0.07579-0.72692 0.07579-0.92329 0-1.4642-0.53744-0.53744-0.53744-0.53744-1.4538 0-0.9474 0.50987-1.5021 0.51332-0.5581 1.3815-0.5581 0.77859 0 1.2299 0.50298 0.45475 0.49954 0.45475 1.3608zm-0.6339-0.18604q-0.0069-0.52021-0.29283-0.83027-0.2825-0.31006-0.75103-0.31006-0.53054 0-0.85094 0.29972-0.31695 0.29972-0.36518 0.84405z"/></g><g id="g22369" transform="translate(78.903 34.429)" fill="none" stroke="#000" stroke-width=".52917"><path id="rect18531" d="m-53.494 58.06h10.715l3.1067 3.4104v16.022h-13.822z" stop-color="#000000"/><path id="path21920" d="m-42.779 58.06v3.41l3.1067 1e-6" stroke-linecap="round" style="paint-order:normal"/></g><g id="g25195" transform="translate(84.24 30.251)"><rect id="rect22371" x="-75.456" y="-25.487" width="47.071" height="13.398" fill="none" stop-color="#000000" stroke="#808080" stroke-width=".52917"/><g id="text22477" fill="#808080" stroke-width=".26458px" aria-label="virtio-blk"><path id="path75" d="m-67.446-20.016h0.67179l1.2058 3.2384 1.2058-3.2384h0.67179l-1.4469 3.8585h-0.86127z"/><path id="path77" d="m-62.815-20.016h0.6339v3.8585h-0.6339zm0-1.5021h0.6339v0.80271h-0.6339z"/><path id="path79" d="m-58.619-19.424q-0.1068-0.06201-0.23427-0.08957-0.12402-0.03101-0.27561-0.03101-0.53744 0-0.82682 0.3514-0.28594 0.34796-0.28594 1.0025v2.0326h-0.63734v-3.8585h0.63734v0.59945q0.19982-0.3514 0.52021-0.52021 0.32039-0.17226 0.77859-0.17226 0.06546 0 0.14469 0.01034 0.07924 0.0069 0.1757 0.02411z"/><path id="path81" d="m-57.327-21.112v1.0955h1.3057v0.49265h-1.3057v2.0946q0 0.47198 0.12747 0.60634 0.13091 0.13436 0.5271 0.13436h0.65112v0.53054h-0.65112q-0.73381 0-1.0129-0.27216-0.27905-0.27561-0.27905-0.99908v-2.0946h-0.46509v-0.49265h0.46509v-1.0955z"/><path id="path83" d="m-55.188-20.016h0.6339v3.8585h-0.6339zm0-1.5021h0.6339v0.80271h-0.6339z"/><path id="path85" d="m-51.733-19.572q-0.50987 0-0.80615 0.39963-0.29628 0.39619-0.29628 1.0887 0 0.69246 0.29283 1.0921 0.29628 0.39619 0.8096 0.39619 0.50643 0 0.80271-0.39963 0.29628-0.39963 0.29628-1.0887 0-0.68558-0.29628-1.0852-0.29628-0.40308-0.80271-0.40308zm0-0.53744q0.82682 0 1.2988 0.53744 0.47198 0.53744 0.47198 1.4883 0 0.9474-0.47198 1.4883-0.47198 0.53744-1.2988 0.53744-0.83027 0-1.3022-0.53744-0.46853-0.54088-0.46853-1.4883 0-0.95085 0.46853-1.4883 0.47198-0.53744 1.3022-0.53744z"/><path id="path87" d="m-49.1-18.373h1.8569v0.565h-1.8569z"/><path id="path89" d="m-43.464-18.084q0-0.69936-0.28939-1.0955-0.28594-0.39963-0.78893-0.39963-0.50298 0-0.79237 0.39963-0.28594 0.39619-0.28594 1.0955t0.28594 1.099q0.28939 0.39619 0.79237 0.39619 0.50298 0 0.78893-0.39619 0.28939-0.39963 0.28939-1.099zm-2.1566-1.347q0.19982-0.34451 0.50298-0.50988 0.30661-0.16881 0.73036-0.16881 0.7028 0 1.1403 0.55811 0.44097 0.55811 0.44097 1.4676t-0.44097 1.4676q-0.43753 0.55811-1.1403 0.55811-0.42375 0-0.73036-0.16536-0.30317-0.16881-0.50298-0.51332v0.57878h-0.63734v-5.3606h0.63734z"/><path id="path91" d="m-41.756-21.518h0.6339v5.3606h-0.6339z"/><path id="path93" d="m-39.819-21.518h0.63734v3.166l1.8914-1.664h0.8096l-2.0464 1.8052 2.1325 2.0533h-0.82682l-1.9603-1.8845v1.8845h-0.63734z"/></g></g><rect id="rect23797" x=".26458" y=".26458" width="76.401" height="83.942" rx="6.3061" ry="5.4057" fill="none" stop-color="#000000" stroke="#802400" stroke-dasharray="2.11666, 2.11666" stroke-linecap="round" stroke-width=".52917"/><path id="path24007" d="m32.315 80.657v10.837" fill="none" marker-end="url(#Arrow1Mend)" marker-start="url(#Arrow2Mstart)" stroke="#000" stroke-dasharray="1.05833, 1.05833" stroke-width=".52917" style="paint-order:normal"/><path id="path25180" d="m32.315 52.012v9.2246" fill="none" marker-end="url(#Arrow1Mend)" marker-start="url(#Arrow2Mstart)" stroke="#000" stroke-dasharray="1.05833, 1.05833" stroke-width=".52917" style="paint-order:normal"/><path id="path25334" d="m32.315 19.127v13.399" fill="none" marker-end="url(#Arrow1Mend)" marker-start="url(#Arrow2Mstart)" stroke="#000" stroke-dasharray="1.05833, 1.05833" stroke-width=".52917" style="paint-order:normal"/><rect id="rect35415" x="17.503" y="71.251" width="29.634" height="8.4415" fill="#fff" fill-rule="evenodd" stop-color="#000000" stroke="#000" stroke-linecap="round" stroke-width=".529"/><g id="text35918" stroke-width=".26458px" aria-label="prot-node"><path id="path131" d="m21.06 76.592v1.4325h-0.44614v-3.7283h0.44614v0.40997q0.13987-0.24116 0.35209-0.35691 0.21463-0.11817 0.51125-0.11817 0.49196 0 0.79823 0.39067 0.30868 0.39067 0.30868 1.0273t-0.30868 1.0273q-0.30627 0.39067-0.79823 0.39067-0.29662 0-0.51125-0.11576-0.21222-0.11817-0.35209-0.35932zm1.5096-0.94292q0-0.48955-0.20257-0.76688-0.20016-0.27974-0.55225-0.27974t-0.55466 0.27974q-0.20016 0.27733-0.20016 0.76688t0.20016 0.76929q0.20257 0.27733 0.55466 0.27733t0.55225-0.27733q0.20257-0.27974 0.20257-0.76929z"/><path id="path133" d="m25.331 74.711q-0.07476-0.04341-0.16399-0.0627-0.08682-0.0217-0.19293-0.0217-0.3762 0-0.57878 0.24598-0.20016 0.24357-0.20016 0.70177v1.4228h-0.44614v-2.701h0.44614v0.41961q0.13987-0.24598 0.36415-0.36415 0.22428-0.12058 0.54501-0.12058 0.04582 0 0.10129 0.0072 0.05547 0.0048 0.12299 0.01688z"/><path id="path135" d="m26.735 74.608q-0.35691 0-0.56431 0.27974-0.2074 0.27733-0.2074 0.76206t0.20498 0.76447q0.2074 0.27733 0.56672 0.27733 0.3545 0 0.5619-0.27974t0.2074-0.76206q0-0.4799-0.2074-0.75964-0.2074-0.28215-0.5619-0.28215zm0-0.3762q0.57878 0 0.90916 0.3762 0.33038 0.3762 0.33038 1.0418 0 0.66318-0.33038 1.0418-0.33038 0.3762-0.90916 0.3762-0.58119 0-0.91157-0.3762-0.32797-0.37862-0.32797-1.0418 0-0.66559 0.32797-1.0418 0.33038-0.3762 0.91157-0.3762z"/><path id="path137" d="m29.149 73.53v0.76688h0.91398v0.34486h-0.91398v1.4662q0 0.33038 0.08923 0.42444 0.09164 0.09405 0.36897 0.09405h0.45579v0.37138h-0.45579q-0.51366 0-0.709-0.19051-0.19534-0.19292-0.19534-0.69935v-1.4662h-0.32556v-0.34486h0.32556v-0.76688z"/><path id="path139" d="m30.422 75.447h1.2998v0.3955h-1.2998z"/><path id="path141" d="m34.674 75.367v1.6302h-0.44373v-1.6158q0-0.38344-0.14952-0.57395t-0.44855-0.19051q-0.35932 0-0.56672 0.2291t-0.2074 0.6246v1.5265h-0.44614v-2.701h0.44614v0.41961q0.15916-0.24357 0.37379-0.36415 0.21704-0.12058 0.4992-0.12058 0.46543 0 0.70418 0.28939 0.23874 0.28698 0.23874 0.84646z"/><path id="path143" d="m36.605 74.608q-0.35691 0-0.56431 0.27974-0.2074 0.27733-0.2074 0.76206t0.20498 0.76447q0.2074 0.27733 0.56672 0.27733 0.3545 0 0.5619-0.27974 0.20739-0.27974 0.20739-0.76206 0-0.4799-0.20739-0.75964-0.2074-0.28215-0.5619-0.28215zm0-0.3762q0.57878 0 0.90916 0.3762 0.33038 0.3762 0.33038 1.0418 0 0.66318-0.33038 1.0418-0.33038 0.3762-0.90916 0.3762-0.58119 0-0.91157-0.3762-0.32797-0.37862-0.32797-1.0418 0-0.66559 0.32797-1.0418 0.33038-0.3762 0.91157-0.3762z"/><path id="path145" d="m40.358 74.707v-1.4614h0.44373v3.7524h-0.44373v-0.40514q-0.13987 0.24116-0.3545 0.35932-0.21222 0.11576-0.51125 0.11576-0.48955 0-0.79823-0.39067-0.30627-0.39067-0.30627-1.0273t0.30627-1.0273q0.30868-0.39067 0.79823-0.39067 0.29903 0 0.51125 0.11817 0.21463 0.11576 0.3545 0.35691zm-1.5121 0.94292q0 0.48955 0.20016 0.76929 0.20257 0.27733 0.55466 0.27733 0.35209 0 0.55466-0.27733 0.20257-0.27974 0.20257-0.76929t-0.20257-0.76688q-0.20257-0.27974-0.55466-0.27974-0.35209 0-0.55466 0.27974-0.20016 0.27733-0.20016 0.76688z"/><path id="path147" d="m44.026 75.536v0.21704h-2.0402q0.02894 0.4582 0.27492 0.69936 0.24839 0.23874 0.68971 0.23874 0.25563 0 0.49437-0.0627 0.24116-0.0627 0.47749-0.1881v0.41961q-0.23874 0.10128-0.48955 0.15434-0.2508 0.05305-0.50884 0.05305-0.6463 0-1.0249-0.3762-0.3762-0.3762-0.3762-1.0177 0-0.66318 0.35691-1.0514 0.35932-0.39067 0.96704-0.39067 0.54501 0 0.86093 0.35209 0.31833 0.34968 0.31833 0.95257zm-0.44373-0.13022q-0.0048-0.36415-0.20498-0.58119-0.19775-0.21704-0.52572-0.21704-0.37138 0-0.59566 0.20981-0.22186 0.20981-0.25563 0.59083z"/></g><rect id="rect38770" x="17.503" y="42.585" width="29.634" height="8.4415" fill="#fff" fill-rule="evenodd" stop-color="#000000" stroke="#000" stroke-linecap="round" stroke-width=".529"/><g id="text38774" stroke-width=".26458px" aria-label="fmt-node"><path id="path107" d="m22.93 44.774v0.36897h-0.42444q-0.23874 0-0.3328 0.09646-0.09164 0.09646-0.09164 0.34726v0.23875h0.7307v0.34485h-0.7307v2.3561h-0.44614v-2.3561h-0.42444v-0.34485h0.42444v-0.1881q0-0.45096 0.20981-0.65595 0.20981-0.2074 0.66559-0.2074z"/><path id="path109" d="m25.405 46.343q0.1664-0.29904 0.39791-0.44132 0.23151-0.14228 0.54501-0.14228 0.42202 0 0.65112 0.29662 0.2291 0.29421 0.2291 0.83922v1.6302h-0.44614v-1.6158q0-0.38826-0.13746-0.57636-0.13746-0.1881-0.41961-0.1881-0.34485 0-0.54501 0.2291t-0.20016 0.6246v1.5265h-0.44614v-1.6158q0-0.39067-0.13746-0.57636-0.13746-0.1881-0.42444-0.1881-0.34003 0-0.54019 0.23151-0.20016 0.2291-0.20016 0.62218v1.5265h-0.44614v-2.701h0.44614v0.41961q0.15193-0.24839 0.36415-0.36656t0.50402-0.11817q0.29421 0 0.49919 0.14952 0.2074 0.14952 0.30627 0.43408z"/><path id="path111" d="m28.552 45.058v0.76688h0.91398v0.34485h-0.91398v1.4662q0 0.33038 0.08923 0.42444 0.09164 0.09405 0.36897 0.09405h0.45579v0.37138h-0.45579q-0.51366 0-0.709-0.19051-0.19534-0.19292-0.19534-0.69935v-1.4662h-0.32556v-0.34485h0.32556v-0.76688z"/><path id="path113" d="m29.825 46.975h1.2998v0.3955h-1.2998z"/><path id="path115" d="m34.077 46.896v1.6302h-0.44373v-1.6158q0-0.38344-0.14952-0.57395-0.14952-0.19051-0.44855-0.19051-0.35932 0-0.56672 0.2291-0.2074 0.2291-0.2074 0.6246v1.5265h-0.44614v-2.701h0.44614v0.41961q0.15916-0.24357 0.37379-0.36415 0.21704-0.12058 0.49919-0.12058 0.46543 0 0.70418 0.28939 0.23874 0.28698 0.23874 0.84646z"/><path id="path117" d="m36.008 46.136q-0.35691 0-0.56431 0.27974-0.2074 0.27733-0.2074 0.76206t0.20498 0.76447q0.2074 0.27733 0.56672 0.27733 0.3545 0 0.5619-0.27974t0.2074-0.76206q0-0.4799-0.2074-0.75964-0.2074-0.28215-0.5619-0.28215zm0-0.3762q0.57878 0 0.90916 0.3762 0.33038 0.3762 0.33038 1.0418 0 0.66318-0.33038 1.0418-0.33038 0.3762-0.90916 0.3762-0.58119 0-0.91157-0.3762-0.32797-0.37862-0.32797-1.0418 0-0.66559 0.32797-1.0418 0.33038-0.3762 0.91157-0.3762z"/><path id="path119" d="m39.761 46.235v-1.4614h0.44373v3.7524h-0.44373v-0.40514q-0.13987 0.24116-0.3545 0.35932-0.21222 0.11576-0.51125 0.11576-0.48955 0-0.79823-0.39067-0.30627-0.39067-0.30627-1.0273t0.30627-1.0273q0.30868-0.39067 0.79823-0.39067 0.29903 0 0.51125 0.11817 0.21463 0.11576 0.3545 0.35691zm-1.5121 0.94292q0 0.48955 0.20016 0.76929 0.20257 0.27733 0.55466 0.27733 0.35209 0 0.55466-0.27733 0.20257-0.27974 0.20257-0.76929t-0.20257-0.76688q-0.20257-0.27974-0.55466-0.27974-0.35209 0-0.55466 0.27974-0.20016 0.27733-0.20016 0.76688z"/><path id="path121" d="m43.429 47.065v0.21704h-2.0402q0.02894 0.4582 0.27492 0.69936 0.24839 0.23874 0.68971 0.23874 0.25563 0 0.49437-0.0627 0.24116-0.0627 0.47749-0.1881v0.41961q-0.23874 0.10129-0.48955 0.15434-0.2508 0.05305-0.50884 0.05305-0.6463 0-1.0249-0.3762-0.3762-0.3762-0.3762-1.0177 0-0.66318 0.35691-1.0514 0.35932-0.39067 0.96704-0.39067 0.54501 0 0.86093 0.35209 0.31833 0.34968 0.31833 0.95257zm-0.44373-0.13022q-0.0048-0.36415-0.20498-0.58119-0.19775-0.21704-0.52572-0.21704-0.37138 0-0.59566 0.20981-0.22186 0.20981-0.25563 0.59083z"/></g><g id="g4466" transform="translate(1.1863 -2.0666)"><rect id="rect951" x="61.379" y="16.76" width="28.304" height="19.996" fill="#fff" fill-rule="evenodd" stop-color="#000000" stroke="#808080" stroke-width=".52917"/><g id="text955" fill="#808080" stroke-width=".26458px" aria-label="NBD server"><path id="path56" d="m68.257 20.548h0.93707l2.2807 4.3029v-4.3029h0.67524v5.1435h-0.93707l-2.2807-4.3029v4.3029h-0.67524z"/><path id="path58" d="m74.231 23.235v1.8845h1.1162q0.56155 0 0.83027-0.23082 0.27216-0.23427 0.27216-0.71314 0-0.48231-0.27216-0.70969-0.26872-0.23082-0.83027-0.23082zm0-2.1153v1.5503h1.0301q0.50988 0 0.75792-0.18948 0.25149-0.19293 0.25149-0.58567 0-0.3893-0.25149-0.58222-0.24805-0.19293-0.75792-0.19293zm-0.69591-0.57189h1.7777q0.79582 0 1.2265 0.33073 0.43064 0.33073 0.43064 0.94051 0 0.47198-0.22049 0.75103-0.22049 0.27905-0.64768 0.34796 0.51332 0.11024 0.79582 0.46164 0.28594 0.34796 0.28594 0.87161 0 0.68902-0.46853 1.0645-0.46853 0.37552-1.3333 0.37552h-1.8466z"/><path id="path60" d="m79.071 21.12v3.9998h0.8406q1.0645 0 1.5572-0.48231 0.49609-0.48231 0.49609-1.5227 0-1.0335-0.49609-1.5124-0.49265-0.48231-1.5572-0.48231zm-0.69591-0.57189h1.4297q1.4952 0 2.1945 0.62356 0.69936 0.62012 0.69936 1.943 0 1.3298-0.7028 1.9534-0.7028 0.62356-2.1911 0.62356h-1.4297z"/><path id="path62" d="m67.297 29.002v0.59945q-0.26872-0.1378-0.55811-0.20671-0.28939-0.0689-0.59945-0.0689-0.47198 0-0.70969 0.14469-0.23427 0.14469-0.23427 0.43408 0 0.22049 0.16881 0.34796 0.16881 0.12402 0.67868 0.23771l0.21704 0.04823q0.67524 0.14469 0.95774 0.40997 0.28594 0.26183 0.28594 0.73381 0 0.53744-0.42719 0.85094-0.42375 0.3135-1.1679 0.3135-0.31006 0-0.64768-0.06201-0.33417-0.05857-0.70624-0.17914v-0.65457q0.3514 0.18259 0.69246 0.27561 0.34106 0.08957 0.67524 0.08957 0.44786 0 0.68902-0.15158 0.24116-0.15503 0.24116-0.43408 0-0.25838-0.1757-0.39619-0.17226-0.1378-0.76137-0.26527l-0.22049-0.05168q-0.58911-0.12402-0.85094-0.37896-0.26183-0.25838-0.26183-0.70624 0-0.54432 0.38585-0.8406 0.38585-0.29628 1.0955-0.29628 0.3514 0 0.66146 0.05168 0.31006 0.05168 0.57189 0.15503z"/><path id="path64" d="m71.814 30.659v0.31006h-2.9146q0.04134 0.65457 0.39274 0.99908 0.35485 0.34106 0.9853 0.34106 0.36518 0 0.70624-0.08957 0.34451-0.08957 0.68213-0.26872v0.59945q-0.34106 0.1447-0.69936 0.22049-0.35829 0.07579-0.72692 0.07579-0.92329 0-1.4642-0.53744-0.53744-0.53744-0.53744-1.4538 0-0.9474 0.50987-1.5021 0.51332-0.55811 1.3815-0.55811 0.77859 0 1.2299 0.50298 0.45475 0.49954 0.45475 1.3608zm-0.6339-0.18604q-0.0069-0.52021-0.29283-0.83027-0.2825-0.31006-0.75103-0.31006-0.53054 0-0.85094 0.29972-0.31695 0.29972-0.36518 0.84405z"/><path id="path66" d="m75.09 29.481q-0.1068-0.06201-0.23427-0.08957-0.12402-0.03101-0.27561-0.03101-0.53744 0-0.82682 0.3514-0.28594 0.34796-0.28594 1.0025v2.0326h-0.63734v-3.8585h0.63734v0.59945q0.19982-0.3514 0.52021-0.52021 0.32039-0.17226 0.77859-0.17226 0.06546 0 0.14469 0.01033 0.07924 0.0069 0.1757 0.02412z"/><path id="path68" d="m75.3 28.889h0.67179l1.2058 3.2384 1.2058-3.2384h0.6718l-1.4469 3.8585h-0.86127z"/><path id="path70" d="m83.231 30.659v0.31006h-2.9146q0.04134 0.65457 0.39274 0.99908 0.35484 0.34106 0.9853 0.34106 0.36518 0 0.70624-0.08957 0.34451-0.08957 0.68213-0.26872v0.59945q-0.34106 0.1447-0.69936 0.22049-0.35829 0.07579-0.72692 0.07579-0.92329 0-1.4642-0.53744-0.53744-0.53744-0.53744-1.4538 0-0.9474 0.50987-1.5021 0.51332-0.55811 1.3815-0.55811 0.77859 0 1.2299 0.50298 0.45475 0.49954 0.45475 1.3608zm-0.6339-0.18604q-0.0069-0.52021-0.29283-0.83027-0.2825-0.31006-0.75103-0.31006-0.53054 0-0.85094 0.29972-0.31695 0.29972-0.36518 0.84405z"/><path id="path72" d="m86.507 29.481q-0.1068-0.06201-0.23427-0.08957-0.12402-0.03101-0.27561-0.03101-0.53744 0-0.82682 0.3514-0.28594 0.34796-0.28594 1.0025v2.0326h-0.63734v-3.8585h0.63734v0.59945q0.19982-0.3514 0.52021-0.52021 0.32039-0.17226 0.77859-0.17226 0.06546 0 0.14469 0.01033 0.07924 0.0069 0.1757 0.02412z"/></g></g><path id="path4501" d="m42.542 32.486c0-7.5272 6.2582-7.9595 6.2582-7.9595h12.801" fill="none" marker-end="url(#Arrow1Mend)" marker-start="url(#Arrow2Mstart)" stroke="#000" stroke-dasharray="1.05833, 1.05833" stroke-width=".52917" style="paint-order:normal"/></svg>
