<?xml version="1.0" encoding="UTF-8"?>
<svg id="svg5" width="149.08mm" height="64.908mm" version="1.1" viewBox="0 0 149.08 64.908" xmlns="http://www.w3.org/2000/svg"><defs id="defs2"><marker id="Arrow1Mend" overflow="visible" orient="auto"><path id="path26121" transform="scale(-.6)" d="m8.7186 4.0337-10.926-4.0177 10.926-4.0177c-1.7455 2.3721-1.7354 5.6175-6e-7 8.0354z" fill="context-stroke" fill-rule="evenodd" stroke-linejoin="round" stroke-width=".625"/></marker></defs><g id="text10527" stroke-width=".26458px" aria-label="/  foo/    a    b  bar/    c    d"><path id="path71" d="m5.3131 16.476h0.65457l-2.7078 5.7981h-0.65801z"/><path id="path73" d="m14.408 23.435v0.5271h-0.72003q-0.34106 0-0.47542 0.14125-0.13091 0.1378-0.13091 0.49265v0.34106h1.3264v0.49265h-1.3264v3.3659h-0.6339v-3.3659h-1.0301v-0.49265h1.0301v-0.26872q0-0.6339 0.28939-0.93362 0.29283-0.29972 0.90951-0.29972z"/><path id="path75" d="m17.116 25.381q-0.48231 0-0.73036 0.37552-0.24805 0.37552-0.24805 1.1128 0 0.73381 0.24805 1.1128 0.24805 0.37552 0.73036 0.37552 0.48576 0 0.73381-0.37552 0.24805-0.37896 0.24805-1.1128 0-0.73725-0.24805-1.1128-0.24805-0.37552-0.73381-0.37552zm0-0.53744q0.80271 0 1.2265 0.52021 0.42719 0.52021 0.42719 1.5055 0 0.98874-0.42375 1.509-0.42375 0.51676-1.2299 0.51676-0.80271 0-1.2265-0.51676-0.42375-0.52021-0.42375-1.509 0-0.9853 0.42375-1.5055 0.42375-0.52021 1.2265-0.52021z"/><path id="path77" d="m21.364 25.381q-0.48231 0-0.73036 0.37552-0.24805 0.37552-0.24805 1.1128 0 0.73381 0.24805 1.1128 0.24805 0.37552 0.73036 0.37552 0.48576 0 0.73381-0.37552 0.24805-0.37896 0.24805-1.1128 0-0.73725-0.24805-1.1128-0.24805-0.37552-0.73381-0.37552zm0-0.53744q0.80271 0 1.2265 0.52021 0.42719 0.52021 0.42719 1.5055 0 0.98874-0.42375 1.509-0.42375 0.51676-1.2299 0.51676-0.80271 0-1.2265-0.51676-0.42375-0.52021-0.42375-1.509 0-0.9853 0.42375-1.5055 0.42375-0.52021 1.2265-0.52021z"/><path id="path79" d="m26.552 23.652h0.65457l-2.7078 5.7981h-0.65801z"/><path id="path81" d="m21.66 34.032h-0.21015q-0.55466 0-0.83716 0.19637-0.27905 0.19293-0.27905 0.57878 0 0.34796 0.21015 0.54088 0.21015 0.19293 0.58222 0.19293 0.52365 0 0.82338-0.36174 0.29972-0.36518 0.30317-1.006v-0.14125zm1.2299-0.26183v2.2014h-0.63734v-0.57189q-0.20326 0.34451-0.51332 0.50987-0.30661 0.16192-0.74759 0.16192-0.58911 0-0.94051-0.33073-0.3514-0.33417-0.3514-0.89228 0-0.64423 0.43064-0.97841 0.43408-0.33417 1.2712-0.33417h0.85094v-0.09991q-0.0034-0.46164-0.23427-0.66835-0.23082-0.21015-0.73725-0.21015-0.32384 0-0.65457 0.09302-0.33073 0.09302-0.64423 0.27216v-0.6339q0.3514-0.13436 0.67179-0.19982 0.32384-0.0689 0.62701-0.0689 0.47887 0 0.81649 0.14125 0.34106 0.14125 0.55122 0.42375 0.13091 0.17226 0.18604 0.42719 0.05512 0.25149 0.05512 0.75792z"/><path id="path83" d="m22.404 41.222q0-0.73725-0.23427-1.1128-0.23427-0.37552-0.69246-0.37552-0.46164 0-0.69936 0.37896-0.23771 0.37552-0.23771 1.1093 0 0.73036 0.23771 1.1093 0.23771 0.37896 0.69936 0.37896 0.4582 0 0.69246-0.37552 0.23427-0.37552 0.23427-1.1128zm-1.8638-1.4401q0.15158-0.2825 0.41686-0.43408 0.26872-0.15158 0.62012-0.15158 0.69591 0 1.0955 0.53744 0.39963 0.53399 0.39963 1.4745 0 0.95429-0.40308 1.4986-0.39963 0.54088-1.099 0.54088-0.34451 0-0.60978-0.14814-0.26183-0.15158-0.4203-0.43753v0.48576h-0.6339v-5.3606h0.6339z"/><path id="path85" d="m13.909 48.398q0-0.73725-0.23427-1.1128-0.23427-0.37552-0.69246-0.37552-0.46164 0-0.69935 0.37896-0.23771 0.37552-0.23771 1.1093 0 0.73036 0.23771 1.1093 0.23771 0.37896 0.69935 0.37896 0.4582 0 0.69246-0.37552 0.23427-0.37552 0.23427-1.1128zm-1.8638-1.4401q0.15158-0.2825 0.41686-0.43408 0.26872-0.15158 0.62012-0.15158 0.69591 0 1.0955 0.53744 0.39963 0.53399 0.39963 1.4745 0 0.95429-0.40308 1.4986-0.39963 0.54088-1.099 0.54088-0.34451 0-0.60978-0.14814-0.26183-0.15158-0.4203-0.43753v0.48576h-0.6339v-5.3606h0.6339z"/><path id="path87" d="m17.412 48.384h-0.21015q-0.55466 0-0.83716 0.19637-0.27905 0.19293-0.27905 0.57878 0 0.34795 0.21015 0.54088 0.21015 0.19292 0.58222 0.19292 0.52366 0 0.82338-0.36174 0.29972-0.36518 0.30317-1.006v-0.14125zm1.2299-0.26183v2.2014h-0.63734v-0.57189q-0.20326 0.34451-0.51332 0.50988-0.30661 0.16192-0.74759 0.16192-0.58911 0-0.94051-0.33073-0.3514-0.33417-0.3514-0.89228 0-0.64423 0.43064-0.97841 0.43408-0.33418 1.2712-0.33418h0.85094v-0.09991q-0.0034-0.46164-0.23427-0.66835-0.23082-0.21015-0.73725-0.21015-0.32384 0-0.65457 0.09302-0.33073 0.09302-0.64423 0.27216v-0.6339q0.3514-0.13436 0.67179-0.19982 0.32384-0.0689 0.62701-0.0689 0.47887 0 0.81649 0.14125 0.34106 0.14125 0.55122 0.42375 0.13091 0.17226 0.18604 0.42719 0.05512 0.25149 0.05512 0.75792z"/><path id="path89" d="m23.221 47.261q-0.20326-0.15848-0.41341-0.23082-0.21015-0.07235-0.46164-0.07235-0.59256 0-0.90606 0.37207-0.3135 0.37207-0.3135 1.0749v1.9189h-0.63734v-3.8585h0.63734v0.75448q0.15847-0.40997 0.48576-0.62701 0.33073-0.22049 0.78204-0.22049 0.23427 0 0.43753 0.05857t0.3893 0.18259z"/><path id="path91" d="m26.552 45.18h0.65457l-2.7078 5.7981h-0.65801z"/><path id="path93" d="m22.897 57.303q-0.25494 0.14814-0.5271 0.22049-0.26872 0.07579-0.55122 0.07579-0.89572 0-1.4022-0.53744-0.50298-0.53744-0.50298-1.4883t0.50298-1.4883q0.50643-0.53744 1.4022-0.53744 0.27905 0 0.54433 0.07235 0.26527 0.07235 0.53399 0.22393v0.6649q-0.25149-0.22393-0.50643-0.32384-0.25149-0.09991-0.57189-0.09991-0.596 0-0.9164 0.38585t-0.32039 1.1024q0 0.71314 0.32039 1.1024 0.32384 0.38585 0.9164 0.38585 0.33073 0 0.59256-0.09991 0.26183-0.10335 0.48576-0.31695z"/><path id="path95" d="m22.198 61.31v-1.9947h0.6339v5.3606h-0.6339v-0.48576q-0.15848 0.28594-0.42375 0.43753-0.26183 0.14814-0.60634 0.14814-0.69936 0-1.1024-0.54088-0.39963-0.54433-0.39963-1.4986 0-0.94051 0.40308-1.4745 0.40308-0.53744 1.099-0.53744 0.34796 0 0.61323 0.15158 0.26527 0.14814 0.41686 0.43408zm-1.8638 1.4401q0 0.73725 0.23427 1.1128 0.23427 0.37552 0.69246 0.37552t0.69591-0.37896q0.24116-0.37896 0.24116-1.1093 0-0.73381-0.24116-1.1093-0.23771-0.37896-0.69591-0.37896t-0.69246 0.37552q-0.23427 0.37552-0.23427 1.1128z"/></g><path id="path25696" d="m4.5344 23.535v22.663" fill="none" stroke="#000" stroke-linecap="round" stroke-width=".52917" style="paint-order:normal"/><path id="path25958" d="m4.5344 24.564c0 1.5071 1.5429 1.4354 1.5429 1.4354l3.846-0.0019" fill="none" marker-end="url(#Arrow1Mend)" stroke="#000" stroke-linecap="round" stroke-width=".52917" style="paint-order:normal"/><path id="path27085" d="m4.5344 46.199c0 1.5071 1.5429 1.4354 1.5429 1.4354l3.846-0.0019" fill="none" marker-end="url(#Arrow1Mend)" stroke="#000" stroke-linecap="round" stroke-width=".52917" style="paint-order:normal"/><path id="path27490" d="m13.266 30.8-0.0056 8.5867" fill="none" stroke="#000" stroke-linecap="round" stroke-width=".52917" style="paint-order:normal"/><path id="path27629" d="m13.26 32.462c0 1.5071 1.5429 1.4354 1.5429 1.4354l3.846-0.0019" fill="none" marker-end="url(#Arrow1Mend)" stroke="#000" stroke-linecap="round" stroke-width=".52917" style="paint-order:normal"/><path id="path27844" d="m13.26 39.387c0 1.5071 1.5429 1.4354 1.5429 1.4354l3.846-0.0019" fill="none" marker-end="url(#Arrow1Mend)" stroke="#000" stroke-linecap="round" stroke-width=".52917" style="paint-order:normal"/><path id="path28236" d="m13.266 52.334-0.0056 8.5867" fill="none" stroke="#000" stroke-linecap="round" stroke-width=".52917" style="paint-order:normal"/><path id="path28238" d="m13.26 53.996c0 1.5071 1.5429 1.4354 1.5429 1.4354l3.846-0.0019" fill="none" marker-end="url(#Arrow1Mend)" stroke="#000" stroke-linecap="round" stroke-width=".52917" style="paint-order:normal"/><path id="path28240" d="m13.26 60.92c0 1.5071 1.5429 1.4354 1.5429 1.4354l3.846-0.0019" fill="none" marker-end="url(#Arrow1Mend)" stroke="#000" stroke-linecap="round" stroke-width=".52917" style="paint-order:normal"/><g id="text31368" stroke-width=".26458px" aria-label="VFS tree:"><path id="path54" d="m2.096 5.3688-1.9637-5.1435h0.72692l1.6295 4.3305 1.633-4.3305h0.72347l-1.9603 5.1435z"/><path id="path56" d="m5.5962 0.22531h2.9559v0.58567h-2.26v1.5158h2.0395v0.58567h-2.0395v2.4564h-0.69591z"/><path id="path58" d="m12.614 0.39412v0.67868q-0.39619-0.18948-0.74759-0.2825-0.3514-0.093018-0.67868-0.093018-0.56844 0-0.8785 0.22049-0.30661 0.22049-0.30661 0.62701 0 0.34106 0.20326 0.51676 0.20671 0.17225 0.77859 0.27905l0.4203 0.086127q0.77859 0.14814 1.1472 0.52365 0.37207 0.37207 0.37207 0.99908 0 0.74759-0.50298 1.1334-0.49954 0.38585-1.4676 0.38585-0.36518 0-0.77859-0.082682-0.40997-0.082682-0.85094-0.2446v-0.71658q0.42375 0.23771 0.83027 0.35829 0.40652 0.12058 0.79926 0.12058 0.596 0 0.91984-0.23427 0.32384-0.23427 0.32384-0.66835 0-0.37896-0.23427-0.59256-0.23082-0.2136-0.76137-0.32039l-0.42375-0.082682q-0.77859-0.15503-1.1265-0.48576t-0.34795-0.91984q0-0.68213 0.47887-1.0749 0.48231-0.39274 1.3264-0.39274 0.36174 0 0.73725 0.065457 0.37552 0.065457 0.76826 0.19637z"/><path id="path60" d="m16.851 0.41479v1.0955h1.3057v0.49265h-1.3057v2.0946q0 0.47198 0.12747 0.60634 0.13091 0.13436 0.5271 0.13436h0.65112v0.53054h-0.65112q-0.7338 0-1.0129-0.27216-0.27905-0.27561-0.27905-0.99908v-2.0946h-0.46509v-0.49265h0.46509v-1.0955z"/><path id="path62" d="m21.227 2.1029q-0.1068-0.062012-0.23427-0.089573-0.12402-0.031006-0.27561-0.031006-0.53744 0-0.82682 0.3514-0.28594 0.34795-0.28594 1.0025v2.0326h-0.63734v-3.8585h0.63734v0.59945q0.19982-0.3514 0.52021-0.52021 0.32039-0.17225 0.77859-0.17225 0.06546 0 0.14469 0.010335 0.07924 0.00689 0.1757 0.024116z"/><path id="path64" d="m25.037 3.2811v0.31006h-2.9146q0.04134 0.65457 0.39274 0.99908 0.35484 0.34106 0.9853 0.34106 0.36518 0 0.70624-0.089573 0.34451-0.089573 0.68213-0.26872v0.59945q-0.34106 0.14469-0.69936 0.22049-0.35829 0.075792-0.72692 0.075792-0.92329 0-1.4642-0.53744-0.53744-0.53744-0.53744-1.4538 0-0.9474 0.50987-1.5021 0.51332-0.55811 1.3815-0.55811 0.77859 0 1.2299 0.50298 0.45475 0.49954 0.45475 1.3608zm-0.6339-0.18604q-0.00689-0.52021-0.29283-0.83027-0.2825-0.31006-0.75103-0.31006-0.53054 0-0.85094 0.29972-0.31695 0.29972-0.36518 0.84405z"/><path id="path66" d="m29.378 3.2811v0.31006h-2.9146q0.04134 0.65457 0.39274 0.99908 0.35484 0.34106 0.9853 0.34106 0.36518 0 0.70624-0.089573 0.34451-0.089573 0.68213-0.26872v0.59945q-0.34106 0.14469-0.69936 0.22049-0.35829 0.075792-0.72692 0.075792-0.92329 0-1.4642-0.53744-0.53744-0.53744-0.53744-1.4538 0-0.9474 0.50987-1.5021 0.51332-0.55811 1.3815-0.55811 0.77859 0 1.2299 0.50298 0.45475 0.49954 0.45475 1.3608zm-0.6339-0.18604q-0.00689-0.52021-0.29283-0.83027-0.2825-0.31006-0.75103-0.31006-0.53054 0-0.85094 0.29972-0.31695 0.29972-0.36518 0.84405z"/><path id="path68" d="m30.58 4.4938h0.72692v0.87505h-0.72692zm0-2.7733h0.72692v0.87505h-0.72692z"/></g><g id="text36298" fill="#0081cf" stroke-width=".26458px" aria-label="(unnamed)"><path id="path107" d="m51.063 16.265q-0.4582 0.78548-0.68557 1.5675-0.22393 0.77859-0.22393 1.571 0 0.78893 0.22393 1.571 0.22738 0.78204 0.68557 1.5744h-0.55122q-0.52021-0.81993-0.77515-1.5951-0.25494-0.77859-0.25494-1.5503 0-0.76826 0.25494-1.5468 0.25494-0.77859 0.77515-1.5916z"/><path id="path109" d="m52.934 20.158v-2.3909h0.6339v2.3909q0 0.52021 0.18259 0.76481 0.18604 0.2446 0.57189 0.2446 0.44786 0 0.68557-0.3135 0.23771-0.31695 0.23771-0.90606v-2.1807h0.63734v3.8516h-0.63734v-0.57878q-0.16881 0.33417-0.46164 0.50643-0.28939 0.17226-0.67868 0.17226-0.59256 0-0.88194-0.38585-0.28939-0.3893-0.28939-1.1748z"/><path id="path111" d="m60.13 19.228v2.3909h-0.63734v-2.3909q0-0.52021-0.18259-0.76481-0.18259-0.2446-0.57189-0.2446-0.44442 0-0.68557 0.31695-0.23771 0.3135-0.23771 0.90262v2.1807h-0.6339v-3.8585h0.6339v0.57878q0.16881-0.33073 0.4582-0.49954 0.28939-0.17226 0.68557-0.17226 0.58911 0 0.8785 0.3893 0.29283 0.38585 0.29283 1.1713z"/><path id="path113" d="m64.378 19.228v2.3909h-0.63734v-2.3909q0-0.52021-0.18259-0.76481-0.18259-0.2446-0.57189-0.2446-0.44442 0-0.68558 0.31695-0.23771 0.3135-0.23771 0.90262v2.1807h-0.6339v-3.8585h0.6339v0.57878q0.16881-0.33073 0.4582-0.49954 0.28939-0.17226 0.68558-0.17226 0.58911 0 0.8785 0.3893 0.29283 0.38585 0.29283 1.1713z"/><path id="path115" d="m67.424 19.68h-0.21015q-0.55466 0-0.83716 0.19637-0.27905 0.19292-0.27905 0.57878 0 0.34796 0.21015 0.54088 0.21015 0.19293 0.58222 0.19293 0.52366 0 0.82338-0.36174 0.29972-0.36518 0.30317-1.006v-0.14125zm1.2299-0.26183v2.2014h-0.63734v-0.57189q-0.20326 0.34451-0.51332 0.50987-0.30661 0.16192-0.74759 0.16192-0.58911 0-0.94051-0.33073-0.3514-0.33417-0.3514-0.89228 0-0.64423 0.43064-0.97841 0.43408-0.33417 1.2712-0.33417h0.85094v-0.09991q-0.0034-0.46164-0.23427-0.66835-0.23082-0.21015-0.73725-0.21015-0.32384 0-0.65457 0.09302-0.33073 0.09302-0.64423 0.27216v-0.6339q0.3514-0.13436 0.67179-0.19982 0.32384-0.0689 0.62701-0.0689 0.47887 0 0.81649 0.14125 0.34106 0.14125 0.55122 0.42375 0.13091 0.17226 0.18604 0.42719 0.05512 0.25149 0.05512 0.75792z"/><path id="path117" d="m71.582 18.153q0.11713-0.24805 0.29628-0.36518 0.18259-0.12058 0.43753-0.12058 0.46509 0 0.65457 0.36174 0.19292 0.35829 0.19292 1.3539v2.2359h-0.57878v-2.2083q0-0.81649-0.09302-1.0129-0.08957-0.19982-0.33073-0.19982-0.27561 0-0.37896 0.2136-0.09991 0.21015-0.09991 0.99908v2.2083h-0.57878v-2.2083q0-0.82682-0.09991-1.0197-0.09646-0.19292-0.3514-0.19292-0.25149 0-0.3514 0.2136-0.09646 0.21015-0.09646 0.99908v2.2083h-0.57533v-3.8585h0.57533v0.33073q0.11369-0.20671 0.2825-0.3135 0.17225-0.11024 0.3893-0.11024 0.26183 0 0.43408 0.12058 0.1757 0.12058 0.27216 0.36518z"/><path id="path119" d="m77.332 19.531v0.31006h-2.7457v0.02067q0 0.63045 0.32728 0.97496 0.33073 0.34451 0.93018 0.34451 0.30317 0 0.6339-0.09646 0.33073-0.09646 0.70624-0.29283v0.63045q-0.36174 0.14814-0.69936 0.22049-0.33418 0.07579-0.64768 0.07579-0.89917 0-1.4056-0.53744-0.50643-0.54088-0.50643-1.4883 0-0.92329 0.49609-1.4745 0.49609-0.55122 1.3229-0.55122 0.73725 0 1.161 0.49954 0.42719 0.49954 0.42719 1.3643zm-0.6339-0.18604q-0.01378-0.55811-0.26527-0.84749-0.24805-0.29283-0.71658-0.29283-0.4582 0-0.75448 0.30317-0.29628 0.30317-0.3514 0.8406z"/><path id="path121" d="m80.705 18.253v-1.9947h0.6339v5.3606h-0.6339v-0.48576q-0.15848 0.28594-0.42375 0.43753-0.26183 0.14814-0.60634 0.14814-0.69935 0-1.1024-0.54088-0.39963-0.54433-0.39963-1.4986 0-0.94051 0.40308-1.4745 0.40308-0.53744 1.099-0.53744 0.34796 0 0.61323 0.15158 0.26527 0.14814 0.41686 0.43408zm-1.8638 1.44q0 0.73725 0.23427 1.1128 0.23427 0.37552 0.69246 0.37552t0.69591-0.37896q0.24116-0.37896 0.24116-1.1093 0-0.7338-0.24116-1.1093-0.23771-0.37896-0.69591-0.37896t-0.69246 0.37552q-0.23427 0.37552-0.23427 1.1128z"/><path id="path123" d="m83.195 16.265h0.55122q0.52021 0.81304 0.77515 1.5916t0.25494 1.5468q0 0.77515-0.25494 1.5537t-0.77515 1.5916h-0.55122q0.4582-0.79926 0.68213-1.5813 0.22738-0.78204 0.22738-1.5641 0-0.78548-0.22738-1.5675-0.22393-0.78204-0.68213-1.571z"/></g><g id="text36320" stroke-width=".26458px" aria-label="FS B:"><path id="path98" d="m58.036 0.22531h2.9559v0.58567h-2.26v1.5158h2.0395v0.58567h-2.0395v2.4564h-0.69591z"/><path id="path100" d="m65.053 0.39412v0.67868q-0.39619-0.18948-0.74759-0.2825-0.3514-0.093018-0.67868-0.093018-0.56844 0-0.8785 0.22049-0.30661 0.22049-0.30661 0.62701 0 0.34106 0.20326 0.51676 0.20671 0.17225 0.77859 0.27905l0.4203 0.086127q0.77859 0.14814 1.1472 0.52365 0.37207 0.37207 0.37207 0.99908 0 0.74759-0.50298 1.1334-0.49954 0.38585-1.4676 0.38585-0.36518 0-0.77859-0.082682-0.40997-0.082682-0.85094-0.2446v-0.71658q0.42375 0.23771 0.83027 0.35829 0.40652 0.12058 0.79926 0.12058 0.596 0 0.91984-0.23427 0.32384-0.23427 0.32384-0.66835 0-0.37896-0.23427-0.59256-0.23082-0.2136-0.76137-0.32039l-0.42375-0.082682q-0.77859-0.15503-1.1265-0.48576-0.34795-0.33073-0.34795-0.91984 0-0.68213 0.47887-1.0749 0.48231-0.39274 1.3264-0.39274 0.36174 0 0.73725 0.065457 0.37552 0.065457 0.76826 0.19637z"/><path id="path102" d="m69.387 2.9125v1.8845h1.1162q0.56155 0 0.83027-0.23082 0.27216-0.23427 0.27216-0.71314 0-0.48231-0.27216-0.70969-0.26872-0.23082-0.83027-0.23082zm0-2.1153v1.5503h1.0301q0.50987 0 0.75792-0.18948 0.25149-0.19293 0.25149-0.58567 0-0.3893-0.25149-0.58222-0.24805-0.19293-0.75792-0.19293zm-0.69591-0.57189h1.7777q0.79582 0 1.2265 0.33073t0.43064 0.94051q0 0.47198-0.22049 0.75103t-0.64768 0.34795q0.51332 0.11024 0.79582 0.46164 0.28594 0.34795 0.28594 0.87161 0 0.68902-0.46853 1.0645-0.46853 0.37552-1.3333 0.37552h-1.8466z"/><path id="path104" d="m73.666 4.4938h0.72692v0.87505h-0.72692zm0-2.7733h0.72692v0.87505h-0.72692z"/></g><g id="text44877" stroke-width=".26458px" aria-label="Mounting FS Bon /foo/a:"><path id="path126" d="m98.942 0.34933h1.037l1.3126 3.5002 1.3195-3.5002h1.037v5.1435h-0.67869v-4.5165l-1.3264 3.5278h-0.69935l-1.3264-3.5278v4.5165h-0.67524z"/><path id="path128" d="m106.5 2.0788q-0.50987 0-0.80615 0.39963-0.29628 0.39619-0.29628 1.0887 0 0.69246 0.29284 1.0921 0.29627 0.39619 0.80959 0.39619 0.50643 0 0.80271-0.39963t0.29628-1.0887q0-0.68557-0.29628-1.0852-0.29628-0.40308-0.80271-0.40308zm0-0.53744q0.82683 0 1.2988 0.53744 0.47197 0.53744 0.47197 1.4883 0 0.9474-0.47197 1.4883-0.47198 0.53744-1.2988 0.53744-0.83026 0-1.3022-0.53744-0.46854-0.54088-0.46854-1.4883 0-0.95085 0.46854-1.4883 0.47198-0.53744 1.3022-0.53744z"/><path id="path130" d="m109.25 3.9701v-2.3358h0.6339v2.3117q0 0.54777 0.2136 0.82338 0.21359 0.27216 0.64079 0.27216 0.51331 0 0.80959-0.32728 0.29973-0.32728 0.29973-0.89228v-2.1876h0.63389v3.8585h-0.63389v-0.59256q-0.23082 0.3514-0.53744 0.52365-0.30317 0.16881-0.70624 0.16881-0.66491 0-1.0094-0.41341-0.34451-0.41341-0.34451-1.2092z"/><path id="path132" d="m117 3.164v2.3289h-0.6339v-2.3082q0-0.54777-0.21359-0.81993-0.2136-0.27216-0.64079-0.27216-0.51332 0-0.8096 0.32728t-0.29628 0.89228v2.1807h-0.63734v-3.8585h0.63734v0.59945q0.22738-0.34795 0.53399-0.52021 0.31006-0.17225 0.71314-0.17225 0.6649 0 1.006 0.41341 0.34106 0.40997 0.34106 1.2092z"/><path id="path134" d="m118.89 0.53881v1.0955h1.3057v0.49265h-1.3057v2.0946q0 0.47198 0.12747 0.60634 0.13091 0.13436 0.5271 0.13436h0.65112v0.53055h-0.65112q-0.73381 0-1.0129-0.27216-0.27905-0.27561-0.27905-0.99908v-2.0946h-0.46509v-0.49265h0.46509v-1.0955z"/><path id="path136" d="m121.03 1.6344h0.63389v3.8585h-0.63389zm0-1.5021h0.63389v0.80271h-0.63389z"/><path id="path138" d="m126.2 3.164v2.3289h-0.6339v-2.3082q0-0.54777-0.21359-0.81993-0.2136-0.27216-0.64079-0.27216-0.51332 0-0.8096 0.32728t-0.29628 0.89228v2.1807h-0.63734v-3.8585h0.63734v0.59945q0.22738-0.34795 0.53399-0.52021 0.31006-0.17225 0.71314-0.17225 0.6649 0 1.006 0.41341 0.34106 0.40997 0.34106 1.2092z"/><path id="path140" d="m130 3.5188q0-0.68902-0.28594-1.068-0.2825-0.37896-0.79582-0.37896-0.50987 0-0.79582 0.37896-0.2825 0.37896-0.2825 1.068 0 0.68557 0.2825 1.0645 0.28595 0.37896 0.79582 0.37896 0.51332 0 0.79582-0.37896 0.28594-0.37896 0.28594-1.0645zm0.6339 1.4952q0 0.9853-0.43753 1.4642-0.43753 0.48231-1.3401 0.48231-0.33418 0-0.63045-0.051677-0.29628-0.048231-0.57534-0.15158v-0.61667q0.27906 0.15158 0.55122 0.22393 0.27216 0.072347 0.55466 0.072347 0.62356 0 0.93362-0.32728 0.31006-0.32384 0.31006-0.98185v-0.3135q-0.19637 0.34106-0.50298 0.50987-0.30662 0.16881-0.73381 0.16881-0.70969 0-1.1438-0.54088-0.43408-0.54088-0.43408-1.4332 0-0.89573 0.43408-1.4366 0.43408-0.54088 1.1438-0.54088 0.42719 0 0.73381 0.16881 0.30661 0.16881 0.50298 0.50987v-0.58567h0.6339z"/><path id="path142" d="m134.21 0.34933h2.9559v0.58567h-2.26v1.5158h2.0395v0.58567h-2.0395v2.4564h-0.69591z"/><path id="path144" d="m141.23 0.51814v0.67868q-0.39618-0.18948-0.74758-0.2825t-0.67869-0.093018q-0.56844 0-0.8785 0.22049-0.30661 0.22049-0.30661 0.62701 0 0.34106 0.20326 0.51676 0.20671 0.17225 0.77859 0.27905l0.42031 0.086127q0.77859 0.14814 1.1472 0.52365 0.37207 0.37207 0.37207 0.99908 0 0.74759-0.50298 1.1334-0.49954 0.38585-1.4676 0.38585-0.36518 0-0.77859-0.082682-0.40997-0.082682-0.85094-0.2446v-0.71658q0.42374 0.23771 0.83026 0.35829 0.40653 0.12058 0.79927 0.12058 0.596 0 0.91984-0.23427 0.32384-0.23427 0.32384-0.66835 0-0.37896-0.23427-0.59256-0.23082-0.2136-0.76137-0.32039l-0.42374-0.082682q-0.77859-0.15503-1.1266-0.48576-0.34795-0.33073-0.34795-0.91984 0-0.68213 0.47886-1.0749 0.48232-0.39274 1.3264-0.39274 0.36173 0 0.73725 0.065457 0.37551 0.065457 0.76825 0.19637z"/><path id="path146" d="m145.56 3.0365v1.8845h1.1162q0.56155 0 0.83027-0.23082 0.27216-0.23427 0.27216-0.71314 0-0.48231-0.27216-0.70969-0.26872-0.23082-0.83027-0.23082zm0-2.1153v1.5503h1.0301q0.50988 0 0.75792-0.18948 0.2515-0.19293 0.2515-0.58567 0-0.3893-0.2515-0.58222-0.24804-0.19293-0.75792-0.19293zm-0.69591-0.57189h1.7777q0.79582 0 1.2264 0.33073 0.43064 0.33073 0.43064 0.94051 0 0.47198-0.22049 0.75103-0.22048 0.27905-0.64767 0.34795 0.51332 0.11024 0.79581 0.46164 0.28595 0.34795 0.28595 0.87161 0 0.68902-0.46854 1.0645-0.46853 0.37552-1.3332 0.37552h-1.8466z"/><path id="path148" d="m108.99 9.2549q-0.50987 0-0.80615 0.39963-0.29628 0.39619-0.29628 1.0887t0.29283 1.0921q0.29628 0.39619 0.8096 0.39619 0.50643 0 0.80271-0.39963t0.29628-1.0887q0-0.68557-0.29628-1.0852-0.29628-0.40308-0.80271-0.40308zm0-0.53744q0.82683 0 1.2988 0.53744 0.47198 0.53744 0.47198 1.4883 0 0.9474-0.47198 1.4883-0.47197 0.53744-1.2988 0.53744-0.83027 0-1.3022-0.53744-0.46854-0.54088-0.46854-1.4883 0-0.95085 0.46854-1.4883 0.47197-0.53744 1.3022-0.53744z"/><path id="path150" d="m115.02 10.34v2.3289h-0.63389v-2.3082q0-0.54777-0.2136-0.81993-0.2136-0.27216-0.64079-0.27216-0.51332 0-0.8096 0.32728t-0.29628 0.89228v2.1807h-0.63734v-3.8585h0.63734v0.59945q0.22738-0.34795 0.534-0.52021 0.31005-0.17225 0.71313-0.17225 0.6649 0 1.006 0.41341 0.34106 0.40997 0.34106 1.2092z"/><path id="path152" d="m119.65 7.5255h0.58567l-1.7914 5.7981h-0.58567z"/><path id="path154" d="m122.86 7.3084v0.5271h-0.60634q-0.34106 0-0.47542 0.1378-0.13091 0.1378-0.13091 0.49609v0.34106h1.0439v0.49265h-1.0439v3.3659h-0.63735v-3.3659h-0.60633v-0.49265h0.60633v-0.26872q0-0.64423 0.29973-0.93707 0.29972-0.29628 0.95084-0.29628z"/><path id="path156" d="m124.88 9.2549q-0.50988 0-0.80615 0.39963-0.29628 0.39619-0.29628 1.0887t0.29283 1.0921q0.29628 0.39619 0.8096 0.39619 0.50643 0 0.80271-0.39963 0.29627-0.39963 0.29627-1.0887 0-0.68557-0.29627-1.0852-0.29628-0.40308-0.80271-0.40308zm0-0.53744q0.82682 0 1.2988 0.53744 0.47198 0.53744 0.47198 1.4883 0 0.9474-0.47198 1.4883-0.47198 0.53744-1.2988 0.53744-0.83027 0-1.3022-0.53744-0.46853-0.54088-0.46853-1.4883 0-0.95085 0.46853-1.4883 0.47198-0.53744 1.3022-0.53744z"/><path id="path158" d="m129.2 9.2549q-0.50988 0-0.80616 0.39963-0.29627 0.39619-0.29627 1.0887t0.29283 1.0921q0.29628 0.39619 0.8096 0.39619 0.50643 0 0.8027-0.39963 0.29628-0.39963 0.29628-1.0887 0-0.68557-0.29628-1.0852-0.29627-0.40308-0.8027-0.40308zm0-0.53744q0.82682 0 1.2988 0.53744 0.47198 0.53744 0.47198 1.4883 0 0.9474-0.47198 1.4883-0.47198 0.53744-1.2988 0.53744-0.83027 0-1.3022-0.53744-0.46853-0.54088-0.46853-1.4883 0-0.95085 0.46853-1.4883 0.47198-0.53744 1.3022-0.53744z"/><path id="path160" d="m133.15 7.5255h0.58567l-1.7915 5.7981h-0.58566z"/><path id="path162" d="m136.15 10.729q-0.76825 0-1.0645 0.1757t-0.29628 0.59945q0 0.33762 0.22049 0.53744 0.22393 0.19637 0.60633 0.19637 0.5271 0 0.84405-0.37207 0.3204-0.37552 0.3204-0.99563v-0.14125zm1.2644-0.26183v2.2014h-0.63389v-0.58567q-0.21704 0.3514-0.54088 0.52021-0.32384 0.16536-0.79238 0.16536-0.59255 0-0.94395-0.33073-0.34796-0.33417-0.34796-0.89228 0-0.65112 0.43408-0.98185 0.43753-0.33073 1.3022-0.33073h0.88884v-0.06201q0-0.43753-0.28939-0.67524-0.28594-0.24116-0.80615-0.24116-0.33073 0-0.64424 0.079237-0.3135 0.079237-0.60289 0.23771v-0.58567q0.34796-0.13436 0.67524-0.19982 0.32728-0.068902 0.63734-0.068902 0.83716 0 1.2506 0.43408t0.41341 1.316z"/><path id="path164" d="m138.88 11.794h0.72691v0.87506h-0.72691zm0-2.7733h0.72691v0.87505h-0.72691z"/></g><g id="text18565" stroke-width=".26458px" aria-label="/  foo/    b  bar/    c    d"><path id="path167" d="m114.16 16.476h0.65457l-2.7078 5.7981h-0.65801z"/><path id="path169" d="m123.25 23.435v0.5271h-0.72003q-0.34106 0-0.47542 0.14125-0.13092 0.1378-0.13092 0.49265v0.34106h1.3264v0.49265h-1.3264v3.3659h-0.63389v-3.3659h-1.0301v-0.49265h1.0301v-0.26872q0-0.6339 0.28938-0.93362 0.29284-0.29972 0.90951-0.29972z"/><path id="path171" d="m125.96 25.381q-0.48231 0-0.73036 0.37552-0.24804 0.37552-0.24804 1.1128 0 0.73381 0.24804 1.1128 0.24805 0.37552 0.73036 0.37552 0.48576 0 0.73381-0.37552 0.24805-0.37896 0.24805-1.1128 0-0.73725-0.24805-1.1128-0.24805-0.37552-0.73381-0.37552zm0-0.53744q0.80271 0 1.2265 0.52021 0.42719 0.52021 0.42719 1.5055 0 0.98874-0.42375 1.509-0.42374 0.51676-1.2299 0.51676-0.8027 0-1.2264-0.51676-0.42375-0.52021-0.42375-1.509 0-0.9853 0.42375-1.5055 0.42375-0.52021 1.2264-0.52021z"/><path id="path173" d="m130.21 25.381q-0.48231 0-0.73036 0.37552-0.24805 0.37552-0.24805 1.1128 0 0.73381 0.24805 1.1128 0.24805 0.37552 0.73036 0.37552 0.48576 0 0.7338-0.37552 0.24805-0.37896 0.24805-1.1128 0-0.73725-0.24805-1.1128-0.24804-0.37552-0.7338-0.37552zm0-0.53744q0.80271 0 1.2264 0.52021 0.4272 0.52021 0.4272 1.5055 0 0.98874-0.42375 1.509-0.42375 0.51676-1.2299 0.51676-0.80271 0-1.2265-0.51676-0.42374-0.52021-0.42374-1.509 0-0.9853 0.42374-1.5055 0.42375-0.52021 1.2265-0.52021z"/><path id="path175" d="m135.4 23.652h0.65457l-2.7078 5.7981h-0.65801z"/><path id="path177" d="m131.25 41.222q0-0.73725-0.23427-1.1128-0.23426-0.37552-0.69246-0.37552-0.46165 0-0.69936 0.37896-0.23771 0.37552-0.23771 1.1093 0 0.73036 0.23771 1.1093 0.23771 0.37896 0.69936 0.37896 0.4582 0 0.69246-0.37552 0.23427-0.37552 0.23427-1.1128zm-1.8638-1.4401q0.15158-0.2825 0.41686-0.43408 0.26872-0.15158 0.62012-0.15158 0.6959 0 1.0955 0.53744 0.39963 0.53399 0.39963 1.4745 0 0.95429-0.40308 1.4986-0.39963 0.54088-1.099 0.54088-0.3445 0-0.60978-0.14814-0.26182-0.15158-0.4203-0.43753v0.48576h-0.6339v-5.3606h0.6339z"/><path id="path179" d="m122.75 48.398q0-0.73725-0.23427-1.1128-0.23427-0.37552-0.69246-0.37552-0.46165 0-0.69936 0.37896-0.23771 0.37552-0.23771 1.1093 0 0.73036 0.23771 1.1093 0.23771 0.37896 0.69936 0.37896 0.45819 0 0.69246-0.37552 0.23427-0.37552 0.23427-1.1128zm-1.8638-1.4401q0.15158-0.2825 0.41686-0.43408 0.26871-0.15158 0.62011-0.15158 0.69591 0 1.0955 0.53744 0.39964 0.53399 0.39964 1.4745 0 0.95429-0.40308 1.4986-0.39963 0.54088-1.099 0.54088-0.34451 0-0.60978-0.14814-0.26183-0.15158-0.4203-0.43753v0.48576h-0.6339v-5.3606h0.6339z"/><path id="path181" d="m126.26 48.384h-0.21015q-0.55466 0-0.83716 0.19637-0.27905 0.19293-0.27905 0.57878 0 0.34795 0.21015 0.54088 0.21015 0.19292 0.58222 0.19292 0.52366 0 0.82338-0.36174 0.29972-0.36518 0.30317-1.006v-0.14125zm1.2299-0.26183v2.2014h-0.63734v-0.57189q-0.20326 0.34451-0.51332 0.50988-0.30661 0.16192-0.74759 0.16192-0.58911 0-0.94051-0.33073-0.3514-0.33417-0.3514-0.89228 0-0.64423 0.43064-0.97841 0.43408-0.33418 1.2712-0.33418h0.85094v-0.09991q-3e-3 -0.46164-0.23427-0.66835-0.23082-0.21015-0.73725-0.21015-0.32384 0-0.65457 0.09302t-0.64423 0.27216v-0.6339q0.3514-0.13436 0.67179-0.19982 0.32384-0.0689 0.62701-0.0689 0.47887 0 0.81649 0.14125 0.34106 0.14125 0.55121 0.42375 0.13092 0.17226 0.18604 0.42719 0.0551 0.25149 0.0551 0.75792z"/><path id="path183" d="m132.07 47.261q-0.20326-0.15848-0.41342-0.23082-0.21015-0.07235-0.46164-0.07235-0.59255 0-0.90606 0.37207-0.3135 0.37207-0.3135 1.0749v1.9189h-0.63735v-3.8585h0.63735v0.75448q0.15847-0.40997 0.48576-0.62701 0.33073-0.22049 0.78203-0.22049 0.23427 0 0.43753 0.05857t0.3893 0.18259z"/><path id="path185" d="m135.4 45.18h0.65457l-2.7078 5.7981h-0.65801z"/><path id="path187" d="m131.74 57.303q-0.25494 0.14814-0.5271 0.22049-0.26872 0.07579-0.55122 0.07579-0.89572 0-1.4022-0.53744-0.50299-0.53744-0.50299-1.4883t0.50299-1.4883q0.50643-0.53744 1.4022-0.53744 0.27905 0 0.54433 0.07235 0.26527 0.07235 0.53399 0.22393v0.6649q-0.25149-0.22393-0.50643-0.32384-0.25149-0.09991-0.57189-0.09991-0.596 0-0.91639 0.38585-0.3204 0.38585-0.3204 1.1024 0 0.71314 0.3204 1.1024 0.32384 0.38585 0.91639 0.38585 0.33073 0 0.59256-0.09991 0.26183-0.10335 0.48576-0.31695z"/><path id="path189" d="m131.04 61.31v-1.9947h0.6339v5.3606h-0.6339v-0.48576q-0.15847 0.28594-0.42374 0.43753-0.26183 0.14814-0.60634 0.14814-0.69936 0-1.1024-0.54088-0.39963-0.54433-0.39963-1.4986 0-0.94051 0.40307-1.4745 0.40308-0.53744 1.099-0.53744 0.34795 0 0.61323 0.15158 0.26527 0.14814 0.41685 0.43408zm-1.8638 1.4401q0 0.73725 0.23427 1.1128t0.69247 0.37552q0.45819 0 0.69591-0.37896 0.24115-0.37896 0.24115-1.1093 0-0.73381-0.24115-1.1093-0.23772-0.37896-0.69591-0.37896-0.4582 0-0.69247 0.37552t-0.23427 1.1128z"/></g><path id="path18567" d="m113.38 23.535v22.663" fill="none" stroke="#000" stroke-linecap="round" stroke-width=".52917" style="paint-order:normal"/><path id="path18569" d="m113.38 24.564c0 1.5071 1.5429 1.4354 1.5429 1.4354l3.846-0.0019" fill="none" marker-end="url(#Arrow1Mend)" stroke="#000" stroke-linecap="round" stroke-width=".52917" style="paint-order:normal"/><path id="path18571" d="m113.38 46.199c0 1.5071 1.5429 1.4354 1.5429 1.4354l3.846-0.0019" fill="none" marker-end="url(#Arrow1Mend)" stroke="#000" stroke-linecap="round" stroke-width=".52917" style="paint-order:normal"/><path id="path18573" d="m122.11 30.8-6e-3 8.5867" fill="none" stroke="#000" stroke-linecap="round" stroke-width=".52917" style="paint-order:normal"/><path id="path18575" d="m122.11 32.462c0 1.5071 1.5429 1.4354 1.5429 1.4354l3.846-0.0019" fill="none" marker-end="url(#Arrow1Mend)" stroke="#000" stroke-linecap="round" stroke-width=".52917" style="paint-order:normal"/><path id="path18577" d="m122.11 39.387c0 1.5071 1.5429 1.4354 1.5429 1.4354l3.846-0.0019" fill="none" marker-end="url(#Arrow1Mend)" stroke="#000" stroke-linecap="round" stroke-width=".52917" style="paint-order:normal"/><path id="path18579" d="m122.11 52.334-6e-3 8.5867" fill="none" stroke="#000" stroke-linecap="round" stroke-width=".52917" style="paint-order:normal"/><path id="path18581" d="m122.11 53.996c0 1.5071 1.5429 1.4354 1.5429 1.4354l3.846-0.0019" fill="none" marker-end="url(#Arrow1Mend)" stroke="#000" stroke-linecap="round" stroke-width=".52917" style="paint-order:normal"/><path id="path18583" d="m122.11 60.92c0 1.5071 1.5429 1.4354 1.5429 1.4354l3.846-0.0019" fill="none" marker-end="url(#Arrow1Mend)" stroke="#000" stroke-linecap="round" stroke-width=".52917" style="paint-order:normal"/><g id="text22069" fill="#0081cf" stroke-width=".26458px" aria-label="a"><path id="path192" d="m130.57 33.771h-0.21015q-0.55466 0-0.83716 0.19637-0.27905 0.19292-0.27905 0.57878 0 0.34796 0.21015 0.54088 0.21015 0.19292 0.58222 0.19292 0.52365 0 0.82338-0.36174 0.29972-0.36518 0.30317-1.006v-0.14125zm1.2299-0.26183v2.2014h-0.63734v-0.57189q-0.20326 0.34451-0.51332 0.50988-0.30662 0.16192-0.74759 0.16192-0.58911 0-0.94051-0.33073-0.3514-0.33418-0.3514-0.89228 0-0.64423 0.43064-0.97841 0.43408-0.33418 1.2712-0.33418h0.85094v-0.09991q-3e-3 -0.46164-0.23427-0.66835-0.23082-0.21015-0.73725-0.21015-0.32384 0-0.65457 0.09302t-0.64423 0.27216v-0.6339q0.3514-0.13436 0.67179-0.19982 0.32384-0.0689 0.62701-0.0689 0.47887 0 0.81649 0.14125 0.34106 0.14125 0.55121 0.42375 0.13092 0.17226 0.18604 0.42719 0.0551 0.25149 0.0551 0.75792z"/></g></svg>
