<?xml version="1.0" encoding="UTF-8"?>
<svg id="svg5" width="105.13mm" height="108.92mm" version="1.1" viewBox="0 0 105.13 108.92" xmlns="http://www.w3.org/2000/svg"><defs id="defs2"><marker id="Arrow2Mstart" overflow="visible" orient="auto"><path id="path24651" transform="scale(.6)" d="m8.7186 4.0337-10.926-4.0177 10.926-4.0177c-1.7455 2.3721-1.7354 5.6175-6e-7 8.0354z" fill="context-stroke" fill-rule="evenodd" stroke-linejoin="round" stroke-width=".625"/></marker><marker id="Arrow1Mend" overflow="visible" orient="auto"><path id="path26121" transform="scale(-.6)" d="m8.7186 4.0337-10.926-4.0177 10.926-4.0177c-1.7455 2.3721-1.7354 5.6175-6e-7 8.0354z" fill="context-stroke" fill-rule="evenodd" stroke-linejoin="round" stroke-width=".625"/></marker></defs><rect id="rect23797" x=".26458" y=".26458" width="58.32" height="70.624" rx="4.8137" ry="4.5481" fill="none" stop-color="#000000" stroke="#802400" stroke-dasharray="2.11666, 2.11666" stroke-linecap="round" stroke-width=".52917"/><rect id="rect991" x="6.4942" y="20.157" width="33.768" height="13.398" rx="1.7964" ry="1.8948" fill="none" stop-color="#000000" stroke="#000" stroke-width=".52917"/><g id="text3313" stroke-width=".26458px" aria-label="qcow2"><path id="path64" d="m13.113 25.178q0 0.69936 0.28594 1.099 0.28939 0.39619 0.79237 0.39619 0.50298 0 0.79237-0.39619 0.28939-0.39963 0.28939-1.099t-0.28939-1.0955q-0.28939-0.39963-0.79237-0.39963-0.50298 0-0.79237 0.39963-0.28594 0.39619-0.28594 1.0955zm2.1601 1.347q-0.19982 0.34451-0.50643 0.51332-0.30317 0.16536-0.73036 0.16536-0.69936 0-1.1403-0.55811-0.43753-0.55811-0.43753-1.4676t0.43753-1.4676q0.44097-0.5581 1.1403-0.5581 0.42719 0 0.73036 0.16881 0.30661 0.16536 0.50643 0.50988v-0.58567h0.6339v5.3261h-0.6339z"/><path id="path66" d="m19.99 23.393v0.59256q-0.26872-0.14814-0.54088-0.22049-0.26872-0.07579-0.54433-0.07579-0.61667 0-0.95774 0.39274-0.34106 0.3893-0.34106 1.0955t0.34106 1.099q0.34106 0.3893 0.95774 0.3893 0.27561 0 0.54433-0.07235 0.27216-0.07579 0.54088-0.22393v0.58567q-0.26527 0.12402-0.55122 0.18604-0.2825 0.06201-0.60289 0.06201-0.87161 0-1.3849-0.54777-0.51332-0.54777-0.51332-1.4779 0-0.94396 0.51676-1.4848 0.52021-0.54088 1.4228-0.54088 0.29283 0 0.57189 0.06201 0.27905 0.05857 0.54088 0.17914z"/><path id="path68" d="m22.587 23.69q-0.50988 0-0.80615 0.39963-0.29628 0.39619-0.29628 1.0887t0.29283 1.0921q0.29628 0.39619 0.8096 0.39619 0.50643 0 0.80271-0.39963 0.29628-0.39963 0.29628-1.0887 0-0.68557-0.29628-1.0852-0.29628-0.40308-0.80271-0.40308zm0-0.53744q0.82682 0 1.2988 0.53744 0.47198 0.53744 0.47198 1.4883 0 0.9474-0.47198 1.4883-0.47198 0.53744-1.2988 0.53744-0.83027 0-1.3022-0.53744-0.46853-0.54088-0.46853-1.4883 0-0.95085 0.46853-1.4883 0.47198-0.53744 1.3022-0.53744z"/><path id="path70" d="m25.04 23.245h0.6339l0.79237 3.011 0.78893-3.011h0.74759l0.79237 3.011 0.78893-3.011h0.6339l-1.0094 3.8585h-0.74759l-0.83027-3.1626-0.83371 3.1626h-0.74759z"/><path id="path72" d="m31.868 26.518h2.4288v0.58567h-3.266v-0.58567q0.39619-0.40997 1.0783-1.099 0.68558-0.69246 0.86128-0.89228 0.33417-0.37552 0.46509-0.6339 0.13436-0.26183 0.13436-0.51332 0-0.40997-0.28939-0.66835-0.28594-0.25838-0.74759-0.25838-0.32728 0-0.69246 0.11369-0.36174 0.11369-0.77515 0.34451v-0.7028q0.4203-0.16881 0.78548-0.25494 0.36518-0.08613 0.66835-0.08613 0.79926 0 1.2747 0.39963 0.47542 0.39963 0.47542 1.068 0 0.31695-0.12058 0.60289-0.11713 0.2825-0.43064 0.66835-0.08613 0.09991-0.54777 0.57878-0.46164 0.47542-1.3022 1.3333z"/></g><rect id="rect9379" x="6.4942" y="48.868" width="33.768" height="13.398" rx="1.7964" ry="1.8948" fill="none" stop-color="#000000" stroke="#000" stroke-width=".52917"/><g id="text9383" stroke-width=".26458px" aria-label="file"><path id="path92" d="m21.895 52.17v3.8585h-0.63734v-3.3659h-1.7398v3.3659h-0.63734v-3.3659h-0.60634v-0.49265h0.60634v-0.26872q0-0.63045 0.29628-0.93018 0.29972-0.30317 0.9164-0.30317h0.63734v0.5271h-0.60634q-0.34106 0-0.47542 0.1378-0.13091 0.1378-0.13091 0.49609v0.34106zm-0.63734-1.4952h0.63734v0.80271h-0.63734z"/><path id="path94" d="m23.221 50.668h0.6339v5.3606h-0.6339z"/><path id="path96" d="m28.482 53.941v0.31006h-2.9146q0.04134 0.65457 0.39274 0.99908 0.35484 0.34106 0.9853 0.34106 0.36518 0 0.70624-0.08957 0.34451-0.08957 0.68213-0.26872v0.59945q-0.34106 0.14469-0.69936 0.22049-0.35829 0.07579-0.72692 0.07579-0.92329 0-1.4642-0.53744-0.53744-0.53744-0.53744-1.4538 0-0.9474 0.50987-1.5021 0.51332-0.55811 1.3815-0.55811 0.77859 0 1.2299 0.50298 0.45475 0.49954 0.45475 1.3608zm-0.6339-0.18604q-0.0069-0.52021-0.29283-0.83027-0.2825-0.31006-0.75103-0.31006-0.53054 0-0.85094 0.29972-0.31695 0.29972-0.36518 0.84405z"/></g><g id="g22369" transform="translate(69.961 21.111)" fill="none" stroke="#000" stroke-width=".52917"><path id="rect18531" d="m-53.494 58.06h10.715l3.1067 3.4104v16.022h-13.822z" stop-color="#000000"/><path id="path21920" d="m-42.779 58.06v3.41l3.1067 1e-6" stroke-linecap="round" style="paint-order:normal"/></g><g id="g25195" transform="translate(110.44 35.205)"><rect id="rect22371" x="-66.56" y="-29.781" width="29.28" height="17.692" fill="#fff" fill-rule="evenodd" stop-color="#000000" stroke="#808080" stroke-width=".52917"/><g id="text22477" fill="#808080" stroke-width=".26458px" aria-label="FUSE server"><path id="path43" d="m-60.499-27.145h2.9559v0.58567h-2.26v1.5158h2.0395v0.58567h-2.0395v2.4564h-0.69591z"/><path id="path45" d="m-56.519-27.145h0.69936v3.1247q0 0.82682 0.29972 1.192 0.29972 0.36174 0.97152 0.36174 0.66835 0 0.96807-0.36174 0.29972-0.36518 0.29972-1.192v-3.1247h0.69936v3.2108q0 1.006-0.49954 1.5193-0.49609 0.51332-1.4676 0.51332-0.97496 0-1.4745-0.51332-0.49609-0.51332-0.49609-1.5193z"/><path id="path47" d="m-48.193-26.976v0.67868q-0.39619-0.18948-0.74759-0.2825-0.3514-0.09302-0.67868-0.09302-0.56844 0-0.8785 0.22049-0.30661 0.22049-0.30661 0.62701 0 0.34106 0.20326 0.51676 0.20671 0.17226 0.77859 0.27905l0.4203 0.08613q0.77859 0.14814 1.1472 0.52366 0.37207 0.37207 0.37207 0.99908 0 0.74759-0.50298 1.1334-0.49954 0.38585-1.4676 0.38585-0.36518 0-0.77859-0.08268-0.40997-0.08268-0.85094-0.2446v-0.71658q0.42375 0.23771 0.83027 0.35829 0.40652 0.12058 0.79926 0.12058 0.596 0 0.91984-0.23427 0.32384-0.23427 0.32384-0.66835 0-0.37896-0.23427-0.59256-0.23082-0.2136-0.76137-0.3204l-0.42375-0.08268q-0.77859-0.15503-1.1265-0.48576-0.34796-0.33073-0.34796-0.91984 0-0.68213 0.47887-1.0749 0.48231-0.39274 1.3264-0.39274 0.36174 0 0.73725 0.06546 0.37552 0.06546 0.76826 0.19637z"/><path id="path49" d="m-46.797-27.145h3.2522v0.58567h-2.5563v1.5227h2.4495v0.58567h-2.4495v1.8638h2.6183v0.58567h-3.3142z"/><path id="path51" d="m-60.154-18.691v0.59945q-0.26872-0.1378-0.55811-0.20671-0.28939-0.0689-0.59945-0.0689-0.47198 0-0.70969 0.14469-0.23427 0.14469-0.23427 0.43408 0 0.22049 0.16881 0.34796 0.16881 0.12402 0.67868 0.23771l0.21704 0.04823q0.67524 0.14469 0.95774 0.40997 0.28594 0.26183 0.28594 0.73381 0 0.53744-0.42719 0.85094-0.42375 0.3135-1.1679 0.3135-0.31006 0-0.64768-0.06201-0.33417-0.05857-0.70624-0.17914v-0.65457q0.3514 0.18259 0.69246 0.27561 0.34106 0.08957 0.67524 0.08957 0.44786 0 0.68902-0.15158 0.24116-0.15503 0.24116-0.43408 0-0.25838-0.1757-0.39619-0.17226-0.1378-0.76137-0.26527l-0.22049-0.05168q-0.58911-0.12402-0.85094-0.37896-0.26183-0.25838-0.26183-0.70624 0-0.54432 0.38585-0.8406 0.38585-0.29628 1.0955-0.29628 0.3514 0 0.66146 0.05168t0.57189 0.15503z"/><path id="path53" d="m-55.638-17.034v0.31006h-2.9146q0.04134 0.65457 0.39274 0.99908 0.35484 0.34106 0.9853 0.34106 0.36518 0 0.70625-0.08957 0.34451-0.08957 0.68213-0.26872v0.59945q-0.34106 0.14469-0.69936 0.22049-0.35829 0.07579-0.72692 0.07579-0.92329 0-1.4642-0.53744-0.53744-0.53744-0.53744-1.4538 0-0.9474 0.50987-1.5021 0.51332-0.55811 1.3815-0.55811 0.77859 0 1.2299 0.50298 0.45475 0.49954 0.45475 1.3608zm-0.6339-0.18604q-0.0069-0.52021-0.29283-0.83027-0.2825-0.31006-0.75103-0.31006-0.53054 0-0.85094 0.29972-0.31695 0.29972-0.36518 0.84405z"/><path id="path55" d="m-52.361-18.212q-0.1068-0.06201-0.23427-0.08957-0.12402-0.03101-0.27561-0.03101-0.53744 0-0.82682 0.3514-0.28594 0.34796-0.28594 1.0025v2.0326h-0.63734v-3.8585h0.63734v0.59945q0.19982-0.3514 0.52021-0.52021 0.32039-0.17226 0.77859-0.17226 0.06546 0 0.14469 0.01034 0.07924 0.0069 0.1757 0.02412z"/><path id="path57" d="m-52.151-18.805h0.67179l1.2058 3.2384 1.2058-3.2384h0.67179l-1.4469 3.8585h-0.86128z"/><path id="path59" d="m-44.22-17.034v0.31006h-2.9146q0.04134 0.65457 0.39274 0.99908 0.35484 0.34106 0.9853 0.34106 0.36518 0 0.70624-0.08957 0.34451-0.08957 0.68213-0.26872v0.59945q-0.34106 0.14469-0.69936 0.22049-0.35829 0.07579-0.72692 0.07579-0.92329 0-1.4642-0.53744-0.53744-0.53744-0.53744-1.4538 0-0.9474 0.50988-1.5021 0.51332-0.55811 1.3815-0.55811 0.77859 0 1.2299 0.50298 0.45475 0.49954 0.45475 1.3608zm-0.6339-0.18604q-0.0069-0.52021-0.29283-0.83027-0.2825-0.31006-0.75103-0.31006-0.53054 0-0.85094 0.29972-0.31695 0.29972-0.36518 0.84405z"/><path id="path61" d="m-40.944-18.212q-0.1068-0.06201-0.23427-0.08957-0.12402-0.03101-0.27561-0.03101-0.53744 0-0.82682 0.3514-0.28594 0.34796-0.28594 1.0025v2.0326h-0.63734v-3.8585h0.63734v0.59945q0.19982-0.3514 0.52021-0.52021 0.32039-0.17226 0.77859-0.17226 0.06546 0 0.14469 0.01034 0.07924 0.0069 0.1757 0.02412z"/></g></g><path id="path24007" d="m23.373 67.339v10.837" fill="none" marker-end="url(#Arrow1Mend)" marker-start="url(#Arrow2Mstart)" stroke="#000" stroke-dasharray="1.05833, 1.05833" stroke-width=".52917" style="paint-order:normal"/><path id="path25180" d="m23.373 38.694v9.2246" fill="none" marker-end="url(#Arrow1Mend)" marker-start="url(#Arrow2Mstart)" stroke="#000" stroke-dasharray="1.05833, 1.05833" stroke-width=".52917" style="paint-order:normal"/><rect id="rect35415" x="8.561" y="57.933" width="29.634" height="8.4415" fill="#fff" fill-rule="evenodd" stop-color="#000000" stroke="#000" stroke-linecap="round" stroke-width=".529"/><g id="text35918" stroke-width=".26458px" aria-label="prot-node"><path id="path99" d="m12.118 63.274v1.4325h-0.44614v-3.7283h0.44614v0.40997q0.13987-0.24116 0.35209-0.35691 0.21463-0.11817 0.51125-0.11817 0.49196 0 0.79823 0.39067 0.30868 0.39067 0.30868 1.0273t-0.30868 1.0273q-0.30627 0.39067-0.79823 0.39067-0.29662 0-0.51125-0.11576-0.21222-0.11817-0.35209-0.35932zm1.5096-0.94292q0-0.48955-0.20257-0.76688-0.20016-0.27974-0.55225-0.27974t-0.55466 0.27974q-0.20016 0.27733-0.20016 0.76688t0.20016 0.76929q0.20257 0.27733 0.55466 0.27733t0.55225-0.27733q0.20257-0.27974 0.20257-0.76929z"/><path id="path101" d="m16.389 61.393q-0.07476-0.04341-0.16399-0.0627-0.08682-0.0217-0.19293-0.0217-0.3762 0-0.57878 0.24598-0.20016 0.24357-0.20016 0.70177v1.4228h-0.44614v-2.701h0.44614v0.41961q0.13987-0.24598 0.36415-0.36415 0.22428-0.12058 0.54501-0.12058 0.04582 0 0.10129 0.0072 0.05547 0.0048 0.12299 0.01688z"/><path id="path103" d="m17.793 61.29q-0.35691 0-0.56431 0.27974-0.2074 0.27733-0.2074 0.76206t0.20498 0.76447q0.2074 0.27733 0.56672 0.27733 0.3545 0 0.5619-0.27974 0.2074-0.27974 0.2074-0.76206 0-0.4799-0.2074-0.75964-0.2074-0.28215-0.5619-0.28215zm0-0.3762q0.57878 0 0.90916 0.3762 0.33038 0.3762 0.33038 1.0418 0 0.66318-0.33038 1.0418-0.33038 0.3762-0.90916 0.3762-0.58119 0-0.91157-0.3762-0.32797-0.37862-0.32797-1.0418 0-0.66559 0.32797-1.0418 0.33038-0.3762 0.91157-0.3762z"/><path id="path105" d="m20.207 60.212v0.76688h0.91398v0.34485h-0.91398v1.4662q0 0.33038 0.08923 0.42444 0.09164 0.09405 0.36897 0.09405h0.45579v0.37138h-0.45579q-0.51366 0-0.709-0.19051-0.19534-0.19292-0.19534-0.69935v-1.4662h-0.32556v-0.34485h0.32556v-0.76688z"/><path id="path107" d="m21.48 62.129h1.2998v0.3955h-1.2998z"/><path id="path109" d="m25.732 62.049v1.6302h-0.44373v-1.6158q0-0.38344-0.14952-0.57395t-0.44855-0.19051q-0.35932 0-0.56672 0.2291-0.20739 0.2291-0.20739 0.6246v1.5265h-0.44614v-2.701h0.44614v0.41961q0.15916-0.24357 0.37379-0.36415 0.21704-0.12058 0.49919-0.12058 0.46543 0 0.70418 0.28939 0.23874 0.28698 0.23874 0.84646z"/><path id="path111" d="m27.663 61.29q-0.35691 0-0.56431 0.27974-0.2074 0.27733-0.2074 0.76206t0.20498 0.76447q0.2074 0.27733 0.56672 0.27733 0.3545 0 0.5619-0.27974 0.2074-0.27974 0.2074-0.76206 0-0.4799-0.2074-0.75964-0.2074-0.28215-0.5619-0.28215zm0-0.3762q0.57878 0 0.90916 0.3762 0.33038 0.3762 0.33038 1.0418 0 0.66318-0.33038 1.0418-0.33038 0.3762-0.90916 0.3762-0.58119 0-0.91157-0.3762-0.32797-0.37862-0.32797-1.0418 0-0.66559 0.32797-1.0418 0.33038-0.3762 0.91157-0.3762z"/><path id="path113" d="m31.416 61.389v-1.4614h0.44373v3.7524h-0.44373v-0.40514q-0.13987 0.24116-0.3545 0.35932-0.21222 0.11576-0.51125 0.11576-0.48955 0-0.79823-0.39067-0.30627-0.39067-0.30627-1.0273t0.30627-1.0273q0.30868-0.39067 0.79823-0.39067 0.29903 0 0.51125 0.11817 0.21463 0.11576 0.3545 0.35691zm-1.5121 0.94292q0 0.48955 0.20016 0.76929 0.20257 0.27733 0.55466 0.27733 0.35209 0 0.55466-0.27733 0.20257-0.27974 0.20257-0.76929t-0.20257-0.76688q-0.20257-0.27974-0.55466-0.27974-0.35209 0-0.55466 0.27974-0.20016 0.27733-0.20016 0.76688z"/><path id="path115" d="m35.084 62.218v0.21704h-2.0402q0.02894 0.4582 0.27492 0.69935 0.24839 0.23874 0.68971 0.23874 0.25563 0 0.49437-0.0627 0.24116-0.0627 0.47749-0.1881v0.41961q-0.23874 0.10129-0.48955 0.15434-0.2508 0.05306-0.50884 0.05306-0.6463 0-1.0249-0.3762-0.3762-0.3762-0.3762-1.0177 0-0.66318 0.35691-1.0514 0.35932-0.39067 0.96704-0.39067 0.54501 0 0.86093 0.35209 0.31833 0.34968 0.31833 0.95257zm-0.44373-0.13022q-0.0048-0.36415-0.20498-0.58119-0.19775-0.21704-0.52572-0.21704-0.37138 0-0.59566 0.20981-0.22186 0.20981-0.25563 0.59083z"/></g><rect id="rect38770" x="8.561" y="29.267" width="29.634" height="8.4415" fill="#fff" fill-rule="evenodd" stop-color="#000000" stroke="#000" stroke-linecap="round" stroke-width=".529"/><g id="text38774" stroke-width=".26458px" aria-label="fmt-node"><path id="path75" d="m13.989 31.456v0.36897h-0.42444q-0.23874 0-0.3328 0.09646-0.09164 0.09646-0.09164 0.34727v0.23874h0.7307v0.34485h-0.7307v2.3561h-0.44614v-2.3561h-0.42444v-0.34485h0.42444v-0.1881q0-0.45096 0.20981-0.65595 0.20981-0.20739 0.66559-0.20739z"/><path id="path77" d="m16.463 33.026q0.1664-0.29903 0.39791-0.44132 0.23151-0.14228 0.54501-0.14228 0.42202 0 0.65112 0.29662 0.2291 0.29421 0.2291 0.83923v1.6302h-0.44614v-1.6158q0-0.38826-0.13746-0.57636-0.13746-0.1881-0.41961-0.1881-0.34485 0-0.54501 0.2291t-0.20016 0.6246v1.5265h-0.44614v-1.6158q0-0.39067-0.13746-0.57636-0.13746-0.1881-0.42444-0.1881-0.34003 0-0.54019 0.23151-0.20016 0.2291-0.20016 0.62218v1.5265h-0.44614v-2.701h0.44614v0.41961q0.15193-0.24839 0.36415-0.36656 0.21222-0.11817 0.50402-0.11817 0.29421 0 0.49919 0.14952 0.2074 0.14952 0.30627 0.43408z"/><path id="path79" d="m19.61 31.74v0.76688h0.91398v0.34485h-0.91398v1.4662q0 0.33038 0.08923 0.42444 0.09164 0.09405 0.36897 0.09405h0.45579v0.37138h-0.45579q-0.51366 0-0.709-0.19051-0.19534-0.19293-0.19534-0.69936v-1.4662h-0.32556v-0.34485h0.32556v-0.76688z"/><path id="path81" d="m20.883 33.657h1.2998v0.3955h-1.2998z"/><path id="path83" d="m25.135 33.578v1.6302h-0.44373v-1.6158q0-0.38344-0.14952-0.57395-0.14952-0.19051-0.44855-0.19051-0.35932 0-0.56672 0.2291-0.2074 0.2291-0.2074 0.6246v1.5265h-0.44614v-2.701h0.44614v0.41961q0.15916-0.24357 0.37379-0.36415 0.21704-0.12058 0.49919-0.12058 0.46543 0 0.70418 0.28939 0.23874 0.28698 0.23874 0.84646z"/><path id="path85" d="m27.067 32.818q-0.35691 0-0.56431 0.27974-0.2074 0.27733-0.2074 0.76206t0.20498 0.76447q0.2074 0.27733 0.56672 0.27733 0.3545 0 0.5619-0.27974 0.2074-0.27974 0.2074-0.76206 0-0.4799-0.2074-0.75964-0.2074-0.28215-0.5619-0.28215zm0-0.3762q0.57878 0 0.90916 0.3762 0.33038 0.3762 0.33038 1.0418 0 0.66318-0.33038 1.0418-0.33038 0.3762-0.90916 0.3762-0.58119 0-0.91157-0.3762-0.32797-0.37862-0.32797-1.0418 0-0.66559 0.32797-1.0418 0.33038-0.3762 0.91157-0.3762z"/><path id="path87" d="m30.819 32.917v-1.4614h0.44373v3.7524h-0.44373v-0.40514q-0.13987 0.24116-0.3545 0.35932-0.21222 0.11576-0.51125 0.11576-0.48955 0-0.79823-0.39067-0.30627-0.39067-0.30627-1.0273 0-0.63665 0.30627-1.0273 0.30868-0.39067 0.79823-0.39067 0.29904 0 0.51125 0.11817 0.21463 0.11576 0.3545 0.35691zm-1.5121 0.94292q0 0.48955 0.20016 0.76929 0.20257 0.27733 0.55466 0.27733t0.55466-0.27733q0.20257-0.27974 0.20257-0.76929t-0.20257-0.76688q-0.20257-0.27974-0.55466-0.27974t-0.55466 0.27974q-0.20016 0.27733-0.20016 0.76688z"/><path id="path89" d="m34.487 33.747v0.21704h-2.0402q0.02894 0.4582 0.27492 0.69935 0.24839 0.23874 0.68971 0.23874 0.25563 0 0.49437-0.0627 0.24116-0.0627 0.47749-0.1881v0.41961q-0.23874 0.10129-0.48955 0.15434-0.2508 0.05306-0.50884 0.05306-0.6463 0-1.0249-0.3762-0.3762-0.3762-0.3762-1.0177 0-0.66318 0.35691-1.0514 0.35932-0.39067 0.96704-0.39067 0.54501 0 0.86093 0.35209 0.31833 0.34968 0.31833 0.95257zm-0.44373-0.13022q-0.0048-0.36415-0.20498-0.58119-0.19775-0.21704-0.52572-0.21704-0.37138 0-0.59566 0.20981-0.22186 0.20981-0.25563 0.59083z"/></g><path id="path8203" d="m23.908 19.196c0-8.7692 8.1536-8.1536 8.1536-8.1536h10.854" fill="none" marker-end="url(#Arrow1Mend)" marker-start="url(#Arrow2Mstart)" stroke="#000" stroke-dasharray="1.05833, 1.05833" stroke-width=".52917" style="paint-order:normal"/><g id="g9231" transform="translate(128.75 21.111)" fill="none" stroke="#0081cf" stroke-width=".52917"><path id="path9227" d="m-53.494 58.06h10.715l3.1067 3.4104v16.022h-13.822z" stop-color="#000000"/><path id="path9229" d="m-42.779 58.06v3.41l3.1067 1e-6" stroke-linecap="round" style="paint-order:normal"/></g><path id="path9233" d="m74.123 14.397c8.7692 0 8.1536 8.1536 8.1536 8.1536v55.724" fill="none" marker-end="url(#Arrow1Mend)" marker-start="url(#Arrow2Mstart)" stroke="#000" stroke-dasharray="1.05833, 1.05833" stroke-width=".52917" style="paint-order:normal"/><g id="text9935" stroke-width=".26458px" aria-label="$image_path"><path id="path118" d="m2.3853 105.12v1.4952q0.37896-0.0103 0.59256-0.21015 0.2136-0.19981 0.2136-0.54432 0-0.3204-0.19293-0.4961-0.19293-0.17914-0.61323-0.2446zm-0.34451-0.65457v-1.4228q-0.35829 0.0138-0.56155 0.2067-0.19982 0.19293-0.19982 0.51677 0 0.29628 0.18604 0.46853 0.18948 0.17226 0.57533 0.23082zm0.34451 3.6897h-0.34451l-0.00345-1.037q-0.3514-0.0172-0.69935-0.0965-0.34451-0.0792-0.68213-0.22049v-0.62012q0.34451 0.2136 0.69246 0.32729 0.3514 0.11368 0.69246 0.12057v-1.5778q-0.68902-0.1068-1.037-0.4203-0.34795-0.31351-0.34795-0.83027 0-0.54088 0.36174-0.86127 0.36518-0.32384 1.0232-0.37208v-0.80959h0.34451l0.00345 0.80959q0.27216 0.0172 0.55122 0.0689t0.56844 0.14125v0.596q-0.29283-0.14814-0.57189-0.22738-0.27561-0.0827-0.55122-0.0965v1.4848q0.70969 0.10679 1.0818 0.44097 0.37207 0.33417 0.37207 0.86472 0 0.53054-0.40308 0.88539-0.39963 0.35484-1.0473 0.38585z"/><path id="path120" d="m5.1311 103.26h1.6226v3.3659h1.2575v0.49265h-3.1488v-0.49265h1.2575v-2.8732h-0.98874zm0.98874-1.5021h0.6339v0.8027h-0.6339z"/><path id="path122" d="m10.826 103.66q0.11713-0.24805 0.29628-0.36518 0.18259-0.12058 0.43753-0.12058 0.46509 0 0.65457 0.36174 0.19292 0.35829 0.19292 1.3539v2.2359h-0.57878v-2.2083q0-0.81649-0.09302-1.0129-0.08957-0.19981-0.33073-0.19981-0.27561 0-0.37896 0.21359-0.09991 0.21015-0.09991 0.99908v2.2083h-0.57878v-2.2083q0-0.82682-0.09991-1.0198-0.09646-0.19292-0.3514-0.19292-0.25149 0-0.3514 0.21359-0.096463 0.21015-0.096463 0.99908v2.2083h-0.57532v-3.8585h0.57533v0.33073q0.11369-0.20671 0.2825-0.31351 0.17225-0.11024 0.3893-0.11024 0.26183 0 0.43408 0.12058 0.1757 0.12058 0.27216 0.36518z"/><path id="path124" d="m15.163 105.18h-0.21015q-0.55466 0-0.83716 0.19637-0.27905 0.19292-0.27905 0.57878 0 0.34795 0.21015 0.54088 0.21015 0.19292 0.58222 0.19292 0.52366 0 0.82338-0.36173 0.29972-0.36518 0.30317-1.006v-0.14125zm1.2299-0.26183v2.2014h-0.63734v-0.57189q-0.20326 0.34451-0.51332 0.50988-0.30661 0.16192-0.74759 0.16192-0.58911 0-0.94051-0.33073-0.3514-0.33418-0.3514-0.89228 0-0.64424 0.43064-0.97841 0.43408-0.33418 1.2712-0.33418h0.85094v-0.0999q-0.0034-0.46165-0.23427-0.66835-0.23082-0.21015-0.73725-0.21015-0.32384 0-0.65457 0.093t-0.64423 0.27217v-0.6339q0.3514-0.13436 0.67179-0.19982 0.32384-0.0689 0.62701-0.0689 0.47887 0 0.81649 0.14125 0.34106 0.14125 0.55122 0.42375 0.13091 0.17225 0.18604 0.42719 0.05512 0.25149 0.05512 0.75792z"/><path id="path126" d="m19.948 105.16q0-0.71314-0.23427-1.0818-0.23082-0.37207-0.67524-0.37207-0.46509 0-0.70969 0.37207-0.2446 0.36862-0.2446 1.0818 0 0.71313 0.2446 1.0886 0.24805 0.37207 0.71658 0.37207 0.43753 0 0.66835-0.37552 0.23427-0.37551 0.23427-1.0852zm0.6339 1.7122q0 0.86817-0.40997 1.316-0.40997 0.44786-1.2058 0.44786-0.26183 0-0.54777-0.0482t-0.57189-0.14125v-0.62701q0.33762 0.15848 0.61323 0.23427 0.27561 0.0758 0.50643 0.0758 0.51332 0 0.74759-0.27905 0.23427-0.27905 0.23427-0.88539v-0.45824q-0.15158 0.32384-0.41341 0.48231-0.26183 0.15848-0.63734 0.15848-0.67524 0-1.0783-0.54088-0.40308-0.54088-0.40308-1.4469 0-0.90951 0.40308-1.4504 0.40308-0.54088 1.0783-0.54088 0.37207 0 0.63045 0.14814 0.25838 0.14814 0.4203 0.4582v-0.49954h0.6339z"/><path id="path128" d="m25.071 105.03v0.31006h-2.7457v0.0207q0 0.63045 0.32728 0.97496 0.33073 0.34451 0.93018 0.34451 0.30317 0 0.6339-0.0965 0.33073-0.0965 0.70624-0.29283v0.63045q-0.36174 0.14814-0.69936 0.22048-0.33417 0.0758-0.64768 0.0758-0.89917 0-1.4056-0.53744-0.50643-0.54088-0.50643-1.4883 0-0.92329 0.49609-1.4745 0.49609-0.55122 1.3229-0.55122 0.73725 0 1.161 0.49954 0.42719 0.49954 0.42719 1.3643zm-0.6339-0.18604q-0.01378-0.5581-0.26527-0.84749-0.24805-0.29283-0.71658-0.29283-0.4582 0-0.75448 0.30317-0.29628 0.30316-0.3514 0.8406z"/><path id="path130" d="m29.736 108.51v0.27561h-4.2478v-0.27561z"/><path id="path132" d="m31.028 106.64v1.9534h-0.63734v-5.3261h0.63734v0.49265q0.15847-0.28595 0.4203-0.43408 0.26527-0.15159 0.60978-0.15159 0.69936 0 1.0955 0.54088 0.39963 0.54088 0.39963 1.4986 0 0.94051-0.39963 1.478-0.39963 0.53399-1.0955 0.53399-0.3514 0-0.61667-0.14814-0.26183-0.15159-0.41341-0.43753zm1.8604-1.44q0-0.73725-0.23427-1.1128-0.23082-0.37551-0.68902-0.37551-0.46164 0-0.69935 0.37896-0.23771 0.37551-0.23771 1.1093 0 0.73036 0.23771 1.1093 0.23771 0.37896 0.69935 0.37896 0.4582 0 0.68902-0.37551 0.23427-0.37552 0.23427-1.1128z"/><path id="path134" d="m36.402 105.18h-0.21015q-0.55466 0-0.83716 0.19637-0.27905 0.19292-0.27905 0.57878 0 0.34795 0.21015 0.54088 0.21015 0.19292 0.58222 0.19292 0.52366 0 0.82338-0.36173 0.29972-0.36518 0.30317-1.006v-0.14125zm1.2299-0.26183v2.2014h-0.63734v-0.57189q-0.20326 0.34451-0.51332 0.50988-0.30661 0.16192-0.74759 0.16192-0.58911 0-0.94051-0.33073-0.3514-0.33418-0.3514-0.89228 0-0.64424 0.43064-0.97841 0.43408-0.33418 1.2712-0.33418h0.85094v-0.0999q-0.0034-0.46165-0.23427-0.66835-0.23082-0.21015-0.73725-0.21015-0.32384 0-0.65457 0.093t-0.64423 0.27217v-0.6339q0.3514-0.13436 0.67179-0.19982 0.32384-0.0689 0.62701-0.0689 0.47887 0 0.81649 0.14125 0.34106 0.14125 0.55122 0.42375 0.13091 0.17225 0.18604 0.42719 0.05512 0.25149 0.05512 0.75792z"/><path id="path136" d="m40.347 102.17v1.0955h1.4401v0.49265h-1.4401v2.0946q0 0.42719 0.16192 0.596 0.16192 0.16881 0.565 0.16881h0.71314v0.50643h-0.77515q-0.71314 0-1.006-0.28594-0.29283-0.28595-0.29283-0.9853v-2.0946h-1.0301v-0.49265h1.0301v-1.0955z"/><path id="path138" d="m46.1 104.73v2.3909h-0.63734v-2.3909q0-0.52021-0.18259-0.76481t-0.57189-0.2446q-0.44442 0-0.68557 0.31695-0.23771 0.3135-0.23771 0.90261v2.1808h-0.6339v-5.3606h0.6339v2.0808q0.16881-0.33073 0.4582-0.49954 0.28939-0.17226 0.68557-0.17226 0.58911 0 0.8785 0.3893 0.29283 0.38585 0.29283 1.1713z"/></g><g id="text14411" fill="#0081cf" stroke-width=".26458px" aria-label="mount-point"><path id="path141" d="m61.294 103.66q0.11713-0.24805 0.29628-0.36518 0.18259-0.12058 0.43753-0.12058 0.46509 0 0.65457 0.36174 0.19292 0.35829 0.19292 1.3539v2.2359h-0.57878v-2.2083q0-0.81649-0.09302-1.0129-0.08957-0.19981-0.33073-0.19981-0.27561 0-0.37896 0.21359-0.09991 0.21015-0.09991 0.99908v2.2083h-0.57878v-2.2083q0-0.82682-0.09991-1.0198-0.09646-0.19292-0.3514-0.19292-0.25149 0-0.3514 0.21359-0.09646 0.21015-0.09646 0.99908v2.2083h-0.57533v-3.8585h0.57533v0.33073q0.11369-0.20671 0.2825-0.31351 0.17226-0.11024 0.3893-0.11024 0.26183 0 0.43408 0.12058 0.1757 0.12058 0.27216 0.36518z"/><path id="path143" d="m65.335 103.71q-0.48231 0-0.73036 0.37551-0.24805 0.37552-0.24805 1.1128 0 0.7338 0.24805 1.1128 0.24805 0.37551 0.73036 0.37551 0.48576 0 0.73381-0.37551 0.24805-0.37897 0.24805-1.1128 0-0.73725-0.24805-1.1128-0.24805-0.37551-0.73381-0.37551zm0-0.53744q0.80271 0 1.2265 0.52021 0.42719 0.52021 0.42719 1.5055 0 0.98874-0.42375 1.509-0.42375 0.51677-1.2299 0.51677-0.80271 0-1.2265-0.51677-0.42375-0.52021-0.42375-1.509 0-0.9853 0.42375-1.5055t1.2265-0.52021z"/><path id="path145" d="m68.133 105.66v-2.3909h0.6339v2.3909q0 0.52021 0.18259 0.76481 0.18604 0.2446 0.57189 0.2446 0.44786 0 0.68557-0.3135 0.23771-0.31695 0.23771-0.90606v-2.1808h0.63734v3.8516h-0.63734v-0.57878q-0.16881 0.33418-0.46164 0.50643-0.28939 0.17226-0.67868 0.17226-0.59256 0-0.88194-0.38585-0.28939-0.3893-0.28939-1.1748z"/><path id="path147" d="m75.33 104.73v2.3909h-0.63734v-2.3909q0-0.52021-0.18259-0.76481-0.18259-0.2446-0.57189-0.2446-0.44442 0-0.68557 0.31695-0.23771 0.3135-0.23771 0.90261v2.1808h-0.6339v-3.8585h0.6339v0.57878q0.16881-0.33073 0.4582-0.49954 0.28939-0.17226 0.68558-0.17226 0.58911 0 0.8785 0.3893 0.29283 0.38585 0.29283 1.1713z"/><path id="path149" d="m78.072 102.17v1.0955h1.4401v0.49265h-1.4401v2.0946q0 0.42719 0.16192 0.596 0.16192 0.16881 0.565 0.16881h0.71314v0.50643h-0.77515q-0.71314 0-1.006-0.28594-0.29283-0.28595-0.29283-0.9853v-2.0946h-1.0301v-0.49265h1.0301v-1.0955z"/><path id="path151" d="m81.431 104.91h1.7949v0.565h-1.7949z"/><path id="path153" d="m85.744 106.64v1.9534h-0.63734v-5.3261h0.63734v0.49265q0.15847-0.28595 0.4203-0.43408 0.26527-0.15159 0.60978-0.15159 0.69936 0 1.0955 0.54088 0.39963 0.54088 0.39963 1.4986 0 0.94051-0.39963 1.478-0.39963 0.53399-1.0955 0.53399-0.3514 0-0.61667-0.14814-0.26183-0.15159-0.41341-0.43753zm1.8604-1.44q0-0.73725-0.23427-1.1128-0.23082-0.37551-0.68902-0.37551-0.46164 0-0.69936 0.37896-0.23771 0.37551-0.23771 1.1093 0 0.73036 0.23771 1.1093 0.23771 0.37896 0.69936 0.37896 0.4582 0 0.68902-0.37551 0.23427-0.37552 0.23427-1.1128z"/><path id="path155" d="m90.822 103.71q-0.48231 0-0.73036 0.37551-0.24805 0.37552-0.24805 1.1128 0 0.7338 0.24805 1.1128 0.24805 0.37551 0.73036 0.37551 0.48576 0 0.73381-0.37551 0.24805-0.37897 0.24805-1.1128 0-0.73725-0.24805-1.1128-0.24805-0.37551-0.73381-0.37551zm0-0.53744q0.80271 0 1.2265 0.52021 0.42719 0.52021 0.42719 1.5055 0 0.98874-0.42375 1.509-0.42375 0.51677-1.2299 0.51677-0.80271 0-1.2265-0.51677-0.42375-0.52021-0.42375-1.509 0-0.9853 0.42375-1.5055t1.2265-0.52021z"/><path id="path157" d="m93.83 103.26h1.6226v3.3659h1.2575v0.49265h-3.1488v-0.49265h1.2575v-2.8732h-0.98874zm0.98874-1.5021h0.6339v0.8027h-0.6339z"/><path id="path159" d="m100.82 104.73v2.3909h-0.63735v-2.3909q0-0.52021-0.18259-0.76481-0.18259-0.2446-0.57189-0.2446-0.44442 0-0.68558 0.31695-0.23771 0.3135-0.23771 0.90261v2.1808h-0.6339v-3.8585h0.6339v0.57878q0.16881-0.33073 0.4582-0.49954 0.28939-0.17226 0.68557-0.17226 0.58911 0 0.8785 0.3893 0.29284 0.38585 0.29284 1.1713z"/><path id="path161" d="m103.56 102.17v1.0955h1.4401v0.49265h-1.4401v2.0946q0 0.42719 0.16192 0.596t0.565 0.16881h0.71314v0.50643h-0.77515q-0.71314 0-1.006-0.28594-0.29283-0.28595-0.29283-0.9853v-2.0946h-1.0301v-0.49265h1.0301v-1.0955z"/></g></svg>
